# MagicaVoxel @ Ephtracy

# group
o 

# material
mtllib falmenwerfer v.2.mtl
usemtl palette

# normals
vn -1 0 0
vn 1 0 0
vn 0 0 1
vn 0 0 -1
vn 0 -1 0
vn 0 1 0

# texcoords
vt 0.0957031 0.5
vt 0.0996094 0.5
vt 0.294922 0.5
vt 0.298828 0.5
vt 0.611328 0.5
vt 0.615234 0.5

# verts
v -1.1 1.5 -0.8
v -1.1 1.5 -0.9
v -1.1 1.5 -1
v -1.1 1.5 -1.3
v -1.1 1.6 -0.7
v -1.1 1.6 -0.8
v -1.1 1.6 -0.9
v -1.1 1.6 -1.1
v -1.1 1.6 -1.3
v -1.1 1.7 -0.7
v -1.1 1.7 -0.8
v -1.1 1.7 -0.9
v -1.1 1.7 -1
v -1.1 1.7 -1.1
v -1 0.8 1
v -1 0.8 0.9
v -1 0.9 1
v -1 0.9 0.9
v -1 1.3 1
v -1 1.3 0.9
v -1 1.3 -0.8
v -1 1.3 -1.1
v -1 1.3 -1.2
v -1 1.3 -1.3
v -1 1.4 -0.7
v -1 1.4 -0.8
v -1 1.4 -1.1
v -1 1.4 -1.2
v -1 1.4 -1.3
v -1 1.4 -1.4
v -1 1.5 -0.6
v -1 1.5 -0.7
v -1 1.5 -0.8
v -1 1.5 -0.9
v -1 1.5 -1
v -1 1.5 -1.1
v -1 1.5 -1.3
v -1 1.5 -1.4
v -1 1.6 -0.6
v -1 1.6 -0.7
v -1 1.6 -0.8
v -1 1.6 -0.9
v -1 1.6 -1.1
v -1 1.6 -1.2
v -1 1.6 -1.3
v -1 1.6 -1.4
v -1 1.7 -0.7
v -1 1.7 -0.8
v -1 1.7 -0.9
v -1 1.7 -1.1
v -1 1.7 -1.3
v -1 1.7 -1.4
v -1 1.8 -0.7
v -1 1.8 -0.8
v -1 1.8 -0.9
v -1 1.8 -1.1
v -1 1.8 -1.2
v -1 1.8 -1.3
v -0.9 0.7 1
v -0.9 0.7 0.9
v -0.9 0.8 1.1
v -0.9 0.8 1
v -0.9 0.8 0.9
v -0.9 0.8 0.8
v -0.9 0.9 1.1
v -0.9 0.9 1
v -0.9 0.9 0.9
v -0.9 0.9 0.8
v -0.9 0.9 0.7
v -0.9 1 0.6
v -0.9 1 0.5
v -0.9 1.1 1.1
v -0.9 1.1 1
v -0.9 1.1 0.9
v -0.9 1.1 0.8
v -0.9 1.1 0.7
v -0.9 1.1 0.6
v -0.9 1.1 0.5
v -0.9 1.1 0.4
v -0.9 1.2 1.1
v -0.9 1.2 1
v -0.9 1.2 0.8
v -0.9 1.2 0.7
v -0.9 1.2 0.6
v -0.9 1.2 0.5
v -0.9 1.2 0.4
v -0.9 1.2 0.3
v -0.9 1.2 -0.9
v -0.9 1.2 -1.1
v -0.9 1.2 -1.2
v -0.9 1.2 -1.3
v -0.9 1.3 1.1
v -0.9 1.3 1
v -0.9 1.3 0.9
v -0.9 1.3 0.8
v -0.9 1.3 0.6
v -0.9 1.3 0.5
v -0.9 1.3 0.4
v -0.9 1.3 0.3
v -0.9 1.3 -0.7
v -0.9 1.3 -0.8
v -0.9 1.3 -0.9
v -0.9 1.3 -1.1
v -0.9 1.3 -1.2
v -0.9 1.3 -1.3
v -0.9 1.3 -1.4
v -0.9 1.4 1
v -0.9 1.4 0.9
v -0.9 1.4 0.4
v -0.9 1.4 0.3
v -0.9 1.4 0.2
v -0.9 1.4 0.0999999
v -0.9 1.4 -1.19209e-07
v -0.9 1.4 -0.3
v -0.9 1.4 -0.4
v -0.9 1.4 -0.6
v -0.9 1.4 -0.7
v -0.9 1.4 -0.8
v -0.9 1.4 -1.1
v -0.9 1.4 -1.2
v -0.9 1.4 -1.3
v -0.9 1.4 -1.4
v -0.9 1.5 0.3
v -0.9 1.5 0.2
v -0.9 1.5 0.0999999
v -0.9 1.5 -1.19209e-07
v -0.9 1.5 -0.1
v -0.9 1.5 -0.2
v -0.9 1.5 -0.3
v -0.9 1.5 -0.4
v -0.9 1.5 -0.5
v -0.9 1.5 -0.6
v -0.9 1.5 -0.7
v -0.9 1.6 0.2
v -0.9 1.6 0.0999999
v -0.9 1.6 -1.19209e-07
v -0.9 1.6 -0.1
v -0.9 1.6 -0.2
v -0.9 1.6 -0.3
v -0.9 1.6 -0.4
v -0.9 1.6 -0.5
v -0.9 1.6 -0.6
v -0.9 1.6 -0.7
v -0.9 1.7 -0.6
v -0.9 1.7 -0.7
v -0.9 1.7 -0.9
v -0.9 1.7 -1
v -0.9 1.7 -1.1
v -0.9 1.7 -1.3
v -0.9 1.7 -1.4
v -0.9 1.8 -0.9
v -0.9 1.8 -1
v -0.9 1.8 -1.1
v -0.9 1.8 -1.2
v -0.9 1.8 -1.3
v -0.9 1.8 -1.4
v -0.9 1.9 -0.9
v -0.9 1.9 -1
v -0.9 1.9 -1.1
v -0.9 1.9 -1.2
v -0.9 1.9 -1.3
v -0.8 0.6 1
v -0.8 0.6 0.9
v -0.8 0.7 1.1
v -0.8 0.7 1
v -0.8 0.7 0.9
v -0.8 0.7 0.8
v -0.8 0.8 1.1
v -0.8 0.8 1
v -0.8 0.8 0.9
v -0.8 0.8 0.8
v -0.8 0.8 0.7
v -0.8 0.9 1.2
v -0.8 0.9 1.1
v -0.8 0.9 0.8
v -0.8 0.9 0.7
v -0.8 0.9 0.6
v -0.8 1 1.2
v -0.8 1 1.1
v -0.8 1 0.6
v -0.8 1.1 1.2
v -0.8 1.1 1.1
v -0.8 1.1 0.7
v -0.8 1.1 0.6
v -0.8 1.1 -0.9
v -0.8 1.1 -1
v -0.8 1.2 1.2
v -0.8 1.2 1.1
v -0.8 1.2 0.8
v -0.8 1.2 0.7
v -0.8 1.2 0.6
v -0.8 1.2 0.3
v -0.8 1.2 0.2
v -0.8 1.2 -0.8
v -0.8 1.2 -0.9
v -0.8 1.2 -1
v -0.8 1.3 1.1
v -0.8 1.3 1
v -0.8 1.3 0.9
v -0.8 1.3 0.8
v -0.8 1.3 0.7
v -0.8 1.3 0.5
v -0.8 1.3 0.4
v -0.8 1.3 0.3
v -0.8 1.3 0.2
v -0.8 1.3 0.0999999
v -0.8 1.3 -0.8
v -0.8 1.3 -0.9
v -0.8 1.4 1.1
v -0.8 1.4 1
v -0.8 1.4 0.9
v -0.8 1.4 0.8
v -0.8 1.4 0.5
v -0.8 1.4 0.4
v -0.8 1.4 0.3
v -0.8 1.4 0.2
v -0.8 1.4 0.0999999
v -0.8 1.4 -1.19209e-07
v -0.8 1.4 -0.1
v -0.8 1.4 -0.2
v -0.8 1.4 -0.3
v -0.8 1.4 -0.4
v -0.8 1.4 -0.5
v -0.8 1.4 -0.6
v -0.8 1.5 1
v -0.8 1.5 0.9
v -0.8 1.5 0.4
v -0.8 1.5 0.3
v -0.8 1.5 0.2
v -0.8 1.5 0.0999999
v -0.8 1.5 -1.19209e-07
v -0.8 1.5 -0.1
v -0.8 1.5 -0.2
v -0.8 1.5 -0.3
v -0.8 1.5 -0.4
v -0.8 1.5 -0.5
v -0.8 1.5 -0.6
v -0.8 1.6 0.3
v -0.8 1.6 0.2
v -0.8 1.6 0.0999999
v -0.8 1.6 -1.19209e-07
v -0.8 1.6 -0.1
v -0.8 1.6 -0.2
v -0.8 1.6 -0.3
v -0.8 1.6 -0.4
v -0.8 1.6 -0.5
v -0.8 1.6 -0.6
v -0.8 1.7 0.2
v -0.8 1.7 -1.19209e-07
v -0.8 1.7 -0.1
v -0.8 1.7 -0.3
v -0.8 1.7 -0.5
v -0.8 1.7 -0.6
v -0.8 1.7 -0.7
v -0.8 1.8 -0.6
v -0.8 1.8 -0.7
v -0.8 1.8 -0.8
v -0.8 1.8 -0.9
v -0.8 1.9 -0.8
v -0.8 1.9 -0.9
v -0.7 1 0.6
v -0.7 1 0.5
v -0.7 1.1 0.6
v -0.7 1.1 0.5
v -0.7 1.2 0.5
v -0.7 1.2 0.4
v -0.7 1.2 -1.1
v -0.7 1.2 -1.2
v -0.7 1.3 0.5
v -0.7 1.3 0.4
v -0.7 1.3 -1.1
v -0.7 1.3 -1.2
v -0.7 1.4 0.2
v -0.7 1.4 0.0999999
v -0.7 1.4 -0.8
v -0.7 1.4 -0.9
v -0.7 1.4 -1
v -0.7 1.4 -1.1
v -0.7 1.4 -1.2
v -0.7 1.4 -1.3
v -0.7 1.4 -1.4
v -0.7 1.5 0.2
v -0.7 1.5 0.0999999
v -0.7 1.5 -0.5
v -0.7 1.5 -0.6
v -0.7 1.5 -0.7
v -0.7 1.5 -0.8
v -0.7 1.5 -0.9
v -0.7 1.5 -1.1
v -0.7 1.5 -1.4
v -0.7 1.6 -0.5
v -0.7 1.6 -0.6
v -0.7 1.6 -0.8
v -0.7 1.6 -0.9
v -0.7 1.6 -1.1
v -0.7 1.6 -1.4
v -0.7 1.7 -0.9
v -0.7 1.7 -1.1
v -0.7 1.7 -1.3
v -0.7 1.7 -1.4
v -0.7 1.8 -1.2
v -0.7 1.8 -1.3
v -0.7 1.9 -1.2
v -0.7 1.9 -1.3
v -0.6 1.5 -0.8
v -0.6 1.5 -0.9
v -0.6 1.5 -1.1
v -0.6 1.5 -1.4
v -0.6 1.6 -0.8
v -0.6 1.6 -0.9
v -0.6 1.6 -1.1
v -0.6 1.6 -1.4
v -0.9 1.5 -0.8
v -0.9 1.5 -1
v -0.9 1.5 -1.1
v -0.9 1.5 -1.2
v -0.9 1.5 -1.4
v -0.9 1.6 -0.8
v -0.9 1.6 -1
v -0.9 1.6 -1.1
v -0.9 1.6 -1.2
v -0.9 1.6 -1.4
v -0.8 1 0.6
v -0.8 1 0.5
v -0.8 1.1 0.6
v -0.8 1.1 0.5
v -0.8 1.4 -0.8
v -0.8 1.4 -1
v -0.8 1.4 -1.2
v -0.8 1.4 -1.3
v -0.8 1.4 -1.4
v -0.8 1.5 -0.5
v -0.8 1.5 -0.6
v -0.8 1.5 -0.7
v -0.8 1.5 -0.8
v -0.8 1.5 -1.4
v -0.8 1.6 -0.5
v -0.8 1.6 -0.6
v -0.8 1.6 -0.8
v -0.8 1.6 -0.9
v -0.8 1.6 -1.4
v -0.8 1.7 -0.9
v -0.8 1.7 -1.1
v -0.8 1.7 -1.3
v -0.8 1.7 -1.4
v -0.8 1.8 -0.9
v -0.8 1.8 -1
v -0.8 1.8 -1.2
v -0.8 1.8 -1.3
v -0.8 1.9 -0.9
v -0.8 1.9 -1
v -0.8 1.9 -1.2
v -0.8 1.9 -1.3
v -0.7 1 0.7
v -0.7 1 0.6
v -0.7 1.1 0.7
v -0.7 1.1 0.6
v -0.7 1.1 0.5
v -0.7 1.1 0.4
v -0.7 1.1 -0.9
v -0.7 1.1 -1
v -0.7 1.2 0.6
v -0.7 1.2 0.5
v -0.7 1.2 0.4
v -0.7 1.2 -0.9
v -0.7 1.2 -1
v -0.7 1.2 -1.1
v -0.7 1.2 -1.2
v -0.7 1.2 -1.3
v -0.7 1.3 0.6
v -0.7 1.3 0.5
v -0.7 1.3 0.4
v -0.7 1.3 0.2
v -0.7 1.3 0.0999999
v -0.7 1.3 -1
v -0.7 1.3 -1.1
v -0.7 1.3 -1.2
v -0.7 1.3 -1.3
v -0.7 1.4 0.5
v -0.7 1.4 0.4
v -0.7 1.4 0.3
v -0.7 1.4 0.2
v -0.7 1.4 0.0999999
v -0.7 1.4 -1.19209e-07
v -0.7 1.4 -0.1
v -0.7 1.4 -0.2
v -0.7 1.4 -0.5
v -0.7 1.4 -0.6
v -0.7 1.5 0.4
v -0.7 1.5 0.3
v -0.7 1.5 0.2
v -0.7 1.5 0.0999999
v -0.7 1.5 -1.19209e-07
v -0.7 1.5 -0.1
v -0.7 1.5 -0.2
v -0.7 1.5 -0.3
v -0.7 1.5 -0.4
v -0.7 1.5 -0.5
v -0.7 1.5 -0.6
v -0.7 1.6 0.3
v -0.7 1.6 0.2
v -0.7 1.6 0.0999999
v -0.7 1.6 -1.19209e-07
v -0.7 1.6 -0.1
v -0.7 1.6 -0.3
v -0.7 1.6 -0.4
v -0.7 1.6 -0.5
v -0.7 1.6 -0.6
v -0.7 1.7 0.2
v -0.7 1.7 -1.19209e-07
v -0.7 1.7 -0.1
v -0.7 1.7 -0.3
v -0.7 1.7 -0.5
v -0.7 1.7 -0.6
v -0.7 1.7 -0.7
v -0.7 1.8 -0.6
v -0.7 1.8 -0.7
v -0.7 1.8 -0.8
v -0.7 1.8 -0.9
v -0.7 1.9 -0.8
v -0.7 1.9 -0.9
v -0.6 0.6 1
v -0.6 0.6 0.9
v -0.6 0.7 1.1
v -0.6 0.7 1
v -0.6 0.7 0.9
v -0.6 0.7 0.8
v -0.6 0.8 1.1
v -0.6 0.8 1
v -0.6 0.8 0.9
v -0.6 0.8 0.8
v -0.6 0.8 0.7
v -0.6 0.9 1.2
v -0.6 0.9 1.1
v -0.6 0.9 0.8
v -0.6 0.9 0.7
v -0.6 0.9 0.6
v -0.6 1 1.1
v -0.6 1 0.7
v -0.6 1 0.6
v -0.6 1 0.5
v -0.6 1.1 0.7
v -0.6 1.1 0.6
v -0.6 1.1 0.5
v -0.6 1.2 1.2
v -0.6 1.2 1.1
v -0.6 1.2 0.8
v -0.6 1.2 0.7
v -0.6 1.2 0.6
v -0.6 1.2 0.5
v -0.6 1.2 0.2
v -0.6 1.2 -0.8
v -0.6 1.2 -1
v -0.6 1.2 -1.1
v -0.6 1.2 -1.2
v -0.6 1.3 1.1
v -0.6 1.3 1
v -0.6 1.3 0.9
v -0.6 1.3 0.8
v -0.6 1.3 0.7
v -0.6 1.3 0.5
v -0.6 1.3 0.4
v -0.6 1.3 -0.8
v -0.6 1.3 -0.9
v -0.6 1.3 -1
v -0.6 1.3 -1.1
v -0.6 1.3 -1.2
v -0.6 1.3 -1.3
v -0.6 1.3 -1.4
v -0.6 1.4 1.1
v -0.6 1.4 1
v -0.6 1.4 0.9
v -0.6 1.4 0.8
v -0.6 1.4 0.4
v -0.6 1.4 0.3
v -0.6 1.4 0.2
v -0.6 1.4 0.0999999
v -0.6 1.4 -0.6
v -0.6 1.4 -0.7
v -0.6 1.4 -0.9
v -0.6 1.4 -1
v -0.6 1.4 -1.1
v -0.6 1.4 -1.2
v -0.6 1.4 -1.3
v -0.6 1.4 -1.4
v -0.6 1.5 1
v -0.6 1.5 0.9
v -0.6 1.5 0.3
v -0.6 1.5 0.2
v -0.6 1.5 0.0999999
v -0.6 1.5 -1.19209e-07
v -0.6 1.5 -0.1
v -0.6 1.5 -0.3
v -0.6 1.5 -0.4
v -0.6 1.5 -0.5
v -0.6 1.5 -0.6
v -0.6 1.5 -0.7
v -0.6 1.6 0.2
v -0.6 1.6 0.0999999
v -0.6 1.6 -1.19209e-07
v -0.6 1.6 -0.1
v -0.6 1.6 -0.3
v -0.6 1.6 -0.4
v -0.6 1.6 -0.5
v -0.6 1.6 -0.6
v -0.6 1.7 -0.7
v -0.6 1.7 -0.8
v -0.6 1.7 -1
v -0.6 1.7 -1.1
v -0.6 1.7 -1.3
v -0.6 1.7 -1.4
v -0.6 1.8 -0.7
v -0.6 1.8 -0.8
v -0.6 1.8 -1
v -0.6 1.8 -1.1
v -0.6 1.8 -1.3
v -0.6 1.8 -1.4
v -0.6 1.9 -1.1
v -0.6 1.9 -1.3
v -0.5 0.7 1
v -0.5 0.7 0.9
v -0.5 0.8 1.1
v -0.5 0.8 1
v -0.5 0.8 0.9
v -0.5 0.8 0.8
v -0.5 0.9 1.1
v -0.5 0.9 1
v -0.5 0.9 0.8
v -0.5 0.9 0.7
v -0.5 1 1.1
v -0.5 1 1
v -0.5 1 0.9
v -0.5 1.1 1
v -0.5 1.1 0.9
v -0.5 1.2 1.1
v -0.5 1.2 1
v -0.5 1.2 0.8
v -0.5 1.2 0.7
v -0.5 1.3 1.1
v -0.5 1.3 1
v -0.5 1.3 0.9
v -0.5 1.3 0.8
v -0.5 1.3 -0.7
v -0.5 1.3 -0.9
v -0.5 1.3 -1.2
v -0.5 1.3 -1.3
v -0.5 1.4 1
v -0.5 1.4 0.9
v -0.5 1.4 -0.7
v -0.5 1.4 -0.8
v -0.5 1.4 -0.9
v -0.5 1.4 -1
v -0.5 1.4 -1.2
v -0.5 1.4 -1.3
v -0.5 1.4 -1.4
v -0.5 1.5 -0.6
v -0.5 1.5 -0.7
v -0.5 1.5 -0.9
v -0.5 1.5 -1
v -0.5 1.5 -1.1
v -0.5 1.5 -1.2
v -0.5 1.5 -1.3
v -0.5 1.6 -0.6
v -0.5 1.6 -0.7
v -0.5 1.6 -0.8
v -0.5 1.6 -0.9
v -0.5 1.6 -1.3
v -0.5 1.6 -1.4
v -0.5 1.7 -0.6
v -0.5 1.7 -0.7
v -0.5 1.7 -0.8
v -0.5 1.7 -0.9
v -0.5 1.7 -1
v -0.5 1.7 -1.1
v -0.5 1.7 -1.2
v -0.5 1.7 -1.3
v -0.5 1.7 -1.4
v -0.5 1.8 -0.8
v -0.5 1.8 -1
v -0.5 1.8 -1.1
v -0.5 1.8 -1.3
v -0.4 0.8 1
v -0.4 0.8 0.9
v -0.4 1 1
v -0.4 1 0.9
v -0.4 1.1 1
v -0.4 1.1 0.9
v -0.4 1.3 1
v -0.4 1.3 0.9
v -0.4 1.4 -0.7
v -0.4 1.4 -0.8
v -0.4 1.4 -0.9
v -0.4 1.4 -1.2
v -0.4 1.4 -1.3
v -0.4 1.5 -0.9
v -0.4 1.5 -1
v -0.4 1.5 -1.1
v -0.4 1.5 -1.2
v -0.4 1.5 -1.3
v -0.4 1.6 -0.7
v -0.4 1.6 -0.8
v -0.4 1.6 -0.9
v -0.4 1.6 -1
v -0.4 1.6 -1.1
v -0.4 1.6 -1.2
v -0.4 1.6 -1.3
v -0.4 1.7 -0.9
v -0.4 1.7 -1.1
v -0.4 1.7 -1.2
v -0.4 1.7 -1.3
v -0.8 0.9 1.2
v -0.8 1 1.2
v -0.8 1.1 1.2
v -0.8 1.2 1.2
v -0.7 1 1.2
v -0.7 1.1 1.2
v -0.6 0.9 1.2
v -0.6 1.2 1.2
v -0.9 0.8 1.1
v -0.9 0.9 1.1
v -0.9 1.1 1.1
v -0.9 1.2 1.1
v -0.9 1.3 1.1
v -0.8 0.7 1.1
v -0.8 0.8 1.1
v -0.8 0.9 1.1
v -0.8 1 1.1
v -0.8 1.1 1.1
v -0.8 1.2 1.1
v -0.8 1.3 1.1
v -0.8 1.4 1.1
v -0.7 0.7 1.1
v -0.7 0.9 1.1
v -0.7 1.3 1.1
v -0.7 1.4 1.1
v -0.6 0.7 1.1
v -0.6 0.8 1.1
v -0.6 0.9 1.1
v -0.6 1 1.1
v -0.6 1.2 1.1
v -0.6 1.3 1.1
v -0.6 1.4 1.1
v -0.5 0.8 1.1
v -0.5 0.9 1.1
v -0.5 1 1.1
v -0.5 1.2 1.1
v -0.5 1.3 1.1
v -1 0.8 1
v -1 0.9 1
v -1 1.3 1
v -0.9 0.7 1
v -0.9 0.8 1
v -0.9 0.9 1
v -0.9 1.1 1
v -0.9 1.2 1
v -0.9 1.3 1
v -0.9 1.4 1
v -0.8 0.6 1
v -0.8 0.7 1
v -0.8 0.8 1
v -0.8 1.3 1
v -0.8 1.4 1
v -0.8 1.5 1
v -0.7 0.6 1
v -0.7 0.7 1
v -0.7 1.4 1
v -0.6 0.6 1
v -0.6 0.7 1
v -0.6 0.8 1
v -0.6 1.3 1
v -0.6 1.4 1
v -0.6 1.5 1
v -0.5 0.7 1
v -0.5 0.8 1
v -0.5 0.9 1
v -0.5 1 1
v -0.5 1.1 1
v -0.5 1.2 1
v -0.5 1.3 1
v -0.5 1.4 1
v -0.4 0.8 1
v -0.4 1 1
v -0.4 1.1 1
v -0.4 1.3 1
v -0.9 1 0.6
v -0.9 1.1 0.6
v -0.9 1.2 0.6
v -0.9 1.3 0.6
v -0.8 1 0.6
v -0.8 1.1 0.6
v -0.8 1.2 0.6
v -0.7 1 0.6
v -0.7 1.1 0.6
v -0.7 1.2 0.6
v -0.7 1.3 0.6
v -0.6 1 0.6
v -0.6 1.1 0.6
v -0.8 1.3 0.5
v -0.8 1.4 0.5
v -0.7 1.2 0.5
v -0.7 1.3 0.5
v -0.7 1.4 0.5
v -0.6 1.2 0.5
v -0.6 1.3 0.5
v -0.9 1.2 0.4
v -0.9 1.3 0.4
v -0.9 1.4 0.4
v -0.8 1.2 0.4
v -0.8 1.3 0.4
v -0.8 1.4 0.4
v -0.8 1.5 0.4
v -0.7 1.2 0.4
v -0.7 1.3 0.4
v -0.7 1.4 0.4
v -0.7 1.5 0.4
v -0.6 1.3 0.4
v -0.6 1.4 0.4
v -0.9 1.4 0.3
v -0.9 1.5 0.3
v -0.8 1.4 0.3
v -0.8 1.5 0.3
v -0.8 1.6 0.3
v -0.7 1.4 0.3
v -0.7 1.5 0.3
v -0.7 1.6 0.3
v -0.6 1.4 0.3
v -0.6 1.5 0.3
v -0.9 1.5 0.2
v -0.9 1.6 0.2
v -0.8 1.5 0.2
v -0.8 1.6 0.2
v -0.8 1.7 0.2
v -0.7 1.5 0.2
v -0.7 1.6 0.2
v -0.7 1.7 0.2
v -0.6 1.5 0.2
v -0.6 1.6 0.2
v -0.9 1.4 0.0999999
v -0.9 1.5 0.0999999
v -0.8 1.4 0.0999999
v -0.7 1.4 0.0999999
v -0.7 1.5 0.0999999
v -0.9 1.5 -1.19209e-07
v -0.9 1.6 -1.19209e-07
v -0.8 1.5 -1.19209e-07
v -0.8 1.6 -1.19209e-07
v -0.7 1.5 -1.19209e-07
v -0.7 1.6 -1.19209e-07
v -0.6 1.5 -1.19209e-07
v -0.6 1.6 -1.19209e-07
v -0.9 1.4 -0.3
v -0.9 1.5 -0.3
v -0.9 1.6 -0.3
v -0.8 1.4 -0.3
v -0.8 1.5 -0.3
v -0.8 1.6 -0.3
v -0.7 1.5 -0.3
v -0.7 1.6 -0.3
v -0.6 1.5 -0.3
v -0.6 1.6 -0.3
v -0.9 1.5 -0.5
v -0.9 1.6 -0.5
v -0.8 1.5 -0.5
v -0.8 1.6 -0.5
v -1 1.5 -0.6
v -1 1.6 -0.6
v -0.9 1.4 -0.6
v -0.9 1.5 -0.6
v -0.9 1.6 -0.6
v -0.9 1.7 -0.6
v -0.8 1.4 -0.6
v -0.8 1.5 -0.6
v -0.8 1.6 -0.6
v -0.8 1.7 -0.6
v -0.8 1.8 -0.6
v -0.7 1.4 -0.6
v -0.7 1.5 -0.6
v -0.7 1.6 -0.6
v -0.7 1.7 -0.6
v -0.7 1.8 -0.6
v -0.6 1.4 -0.6
v -0.6 1.5 -0.6
v -0.6 1.6 -0.6
v -0.6 1.7 -0.6
v -0.5 1.5 -0.6
v -0.5 1.6 -0.6
v -0.5 1.7 -0.6
v -1.1 1.6 -0.7
v -1.1 1.7 -0.7
v -1 1.4 -0.7
v -1 1.5 -0.7
v -1 1.6 -0.7
v -1 1.7 -0.7
v -1 1.8 -0.7
v -0.9 1.3 -0.7
v -0.9 1.4 -0.7
v -0.9 1.5 -0.7
v -0.9 1.6 -0.7
v -0.9 1.7 -0.7
v -0.9 1.8 -0.7
v -0.8 1.3 -0.7
v -0.8 1.4 -0.7
v -0.8 1.7 -0.7
v -0.8 1.8 -0.7
v -0.7 1.4 -0.7
v -0.7 1.7 -0.7
v -0.7 1.8 -0.7
v -0.6 1.3 -0.7
v -0.6 1.4 -0.7
v -0.6 1.5 -0.7
v -0.6 1.7 -0.7
v -0.6 1.8 -0.7
v -0.5 1.3 -0.7
v -0.5 1.4 -0.7
v -0.5 1.5 -0.7
v -0.5 1.6 -0.7
v -0.4 1.4 -0.7
v -0.4 1.6 -0.7
v -1.1 1.5 -0.8
v -1.1 1.6 -0.8
v -1 1.3 -0.8
v -1 1.4 -0.8
v -1 1.5 -0.8
v -1 1.6 -0.8
v -0.9 1.3 -0.8
v -0.9 1.4 -0.8
v -0.8 1.2 -0.8
v -0.8 1.3 -0.8
v -0.8 1.8 -0.8
v -0.8 1.9 -0.8
v -0.7 1.8 -0.8
v -0.7 1.9 -0.8
v -0.6 1.2 -0.8
v -0.6 1.3 -0.8
v -0.6 1.7 -0.8
v -0.6 1.8 -0.8
v -0.5 1.7 -0.8
v -0.5 1.8 -0.8
v -1.1 1.6 -0.9
v -1.1 1.7 -0.9
v -1 1.6 -0.9
v -1 1.7 -0.9
v -0.9 1.2 -0.9
v -0.9 1.3 -0.9
v -0.9 1.8 -0.9
v -0.9 1.9 -0.9
v -0.8 1.1 -0.9
v -0.8 1.2 -0.9
v -0.8 1.3 -0.9
v -0.8 1.8 -0.9
v -0.8 1.9 -0.9
v -0.7 1.1 -0.9
v -0.7 1.2 -0.9
v -0.5 1.6 -0.9
v -0.5 1.7 -0.9
v -0.4 1.6 -0.9
v -0.4 1.7 -0.9
v -1 1.7 -1.1
v -1 1.8 -1.1
v -0.9 1.7 -1.1
v -0.9 1.8 -1.1
v -0.9 1.9 -1.1
v -0.8 1.8 -1.1
v -0.7 1.2 -1.1
v -0.7 1.3 -1.1
v -0.7 1.8 -1.1
v -0.6 1.2 -1.1
v -0.6 1.3 -1.1
v -0.6 1.7 -1.1
v -0.6 1.8 -1.1
v -0.6 1.9 -1.1
v -0.5 1.7 -1.1
v -0.5 1.8 -1.1
v -1 1.3 -1.2
v -1 1.4 -1.2
v -0.9 1.2 -1.2
v -0.9 1.3 -1.2
v -0.9 1.4 -1.2
v -0.8 1.3 -1.2
v -0.7 1.2 -1.2
v -0.7 1.3 -1.2
v -0.6 1.3 -1.2
v -0.6 1.4 -1.2
v -0.5 1.3 -1.2
v -0.5 1.4 -1.2
v -0.5 1.5 -1.2
v -0.4 1.4 -1.2
v -0.4 1.5 -1.2
v -1 0.8 0.9
v -1 0.9 0.9
v -1 1.3 0.9
v -0.9 0.7 0.9
v -0.9 0.8 0.9
v -0.9 0.9 0.9
v -0.9 1.1 0.9
v -0.9 1.3 0.9
v -0.9 1.4 0.9
v -0.8 0.6 0.9
v -0.8 0.7 0.9
v -0.8 0.8 0.9
v -0.8 1.3 0.9
v -0.8 1.4 0.9
v -0.8 1.5 0.9
v -0.7 0.6 0.9
v -0.7 0.7 0.9
v -0.6 0.6 0.9
v -0.6 0.7 0.9
v -0.6 0.8 0.9
v -0.6 1.3 0.9
v -0.6 1.4 0.9
v -0.6 1.5 0.9
v -0.5 0.7 0.9
v -0.5 0.8 0.9
v -0.5 1 0.9
v -0.5 1.1 0.9
v -0.5 1.3 0.9
v -0.5 1.4 0.9
v -0.4 0.8 0.9
v -0.4 1 0.9
v -0.4 1.1 0.9
v -0.4 1.3 0.9
v -0.9 0.8 0.8
v -0.9 0.9 0.8
v -0.9 1.2 0.8
v -0.9 1.3 0.8
v -0.8 0.7 0.8
v -0.8 0.8 0.8
v -0.8 0.9 0.8
v -0.8 1.2 0.8
v -0.8 1.3 0.8
v -0.8 1.4 0.8
v -0.7 0.7 0.8
v -0.7 0.8 0.8
v -0.6 0.7 0.8
v -0.6 0.8 0.8
v -0.6 0.9 0.8
v -0.6 1.2 0.8
v -0.6 1.3 0.8
v -0.6 1.4 0.8
v -0.5 0.8 0.8
v -0.5 0.9 0.8
v -0.5 1.2 0.8
v -0.5 1.3 0.8
v -0.9 0.9 0.7
v -0.9 1.1 0.7
v -0.9 1.2 0.7
v -0.8 0.8 0.7
v -0.8 0.9 0.7
v -0.8 1.1 0.7
v -0.8 1.2 0.7
v -0.8 1.3 0.7
v -0.7 0.8 0.7
v -0.7 0.9 0.7
v -0.7 1 0.7
v -0.7 1.1 0.7
v -0.7 1.2 0.7
v -0.6 0.8 0.7
v -0.6 0.9 0.7
v -0.6 1 0.7
v -0.6 1.1 0.7
v -0.6 1.2 0.7
v -0.6 1.3 0.7
v -0.5 0.9 0.7
v -0.5 1.2 0.7
v -0.8 0.9 0.6
v -0.8 1 0.6
v -0.8 1.1 0.6
v -0.7 1 0.6
v -0.7 1.1 0.6
v -0.7 1.2 0.6
v -0.6 0.9 0.6
v -0.6 1 0.6
v -0.6 1.1 0.6
v -0.6 1.2 0.6
v -0.9 1 0.5
v -0.9 1.1 0.5
v -0.9 1.2 0.5
v -0.9 1.3 0.5
v -0.8 1 0.5
v -0.8 1.1 0.5
v -0.8 1.2 0.5
v -0.8 1.3 0.5
v -0.7 1 0.5
v -0.7 1.1 0.5
v -0.7 1.2 0.5
v -0.7 1.3 0.5
v -0.6 1 0.5
v -0.6 1.1 0.5
v -0.9 1.1 0.4
v -0.9 1.2 0.4
v -0.8 1.1 0.4
v -0.8 1.2 0.4
v -0.7 1.1 0.4
v -0.7 1.2 0.4
v -0.9 1.2 0.3
v -0.9 1.3 0.3
v -0.9 1.4 0.3
v -0.8 1.2 0.3
v -0.8 1.3 0.3
v -0.8 1.4 0.3
v -0.9 1.4 0.2
v -0.9 1.5 0.2
v -0.8 1.2 0.2
v -0.8 1.3 0.2
v -0.8 1.4 0.2
v -0.7 1.2 0.2
v -0.7 1.3 0.2
v -0.7 1.4 0.2
v -0.7 1.5 0.2
v -0.6 1.2 0.2
v -0.6 1.4 0.2
v -0.9 1.5 0.0999999
v -0.9 1.6 0.0999999
v -0.8 1.3 0.0999999
v -0.8 1.4 0.0999999
v -0.8 1.5 0.0999999
v -0.8 1.6 0.0999999
v -0.7 1.3 0.0999999
v -0.7 1.4 0.0999999
v -0.7 1.5 0.0999999
v -0.7 1.6 0.0999999
v -0.6 1.4 0.0999999
v -0.6 1.5 0.0999999
v -0.6 1.6 0.0999999
v -0.9 1.4 -1.19209e-07
v -0.9 1.5 -1.19209e-07
v -0.8 1.4 -1.19209e-07
v -0.8 1.5 -1.19209e-07
v -0.7 1.5 -0.1
v -0.7 1.6 -0.1
v -0.6 1.5 -0.1
v -0.6 1.6 -0.1
v -0.9 1.5 -0.2
v -0.9 1.6 -0.2
v -0.8 1.5 -0.2
v -0.8 1.6 -0.2
v -0.9 1.4 -0.4
v -0.9 1.5 -0.4
v -0.9 1.6 -0.4
v -0.8 1.4 -0.4
v -0.8 1.5 -0.4
v -0.8 1.6 -0.4
v -0.8 1.5 -0.5
v -0.8 1.6 -0.5
v -0.7 1.5 -0.5
v -0.7 1.6 -0.5
v -1.1 1.6 -0.8
v -1.1 1.7 -0.8
v -1 1.6 -0.8
v -1 1.7 -0.8
v -0.9 1.5 -0.8
v -0.9 1.6 -0.8
v -0.8 1.4 -0.8
v -0.8 1.5 -0.8
v -0.8 1.6 -0.8
v -0.7 1.4 -0.8
v -0.7 1.5 -0.8
v -0.7 1.6 -0.8
v -0.6 1.5 -0.8
v -0.6 1.6 -0.8
v -1 1.7 -0.9
v -1 1.8 -0.9
v -0.9 1.7 -0.9
v -0.9 1.8 -0.9
v -0.8 1.6 -0.9
v -0.8 1.7 -0.9
v -0.8 1.8 -0.9
v -0.8 1.9 -0.9
v -0.7 1.6 -0.9
v -0.7 1.7 -0.9
v -0.7 1.8 -0.9
v -0.7 1.9 -0.9
v -0.6 1.3 -0.9
v -0.6 1.4 -0.9
v -0.5 1.3 -0.9
v -0.5 1.4 -0.9
v -0.5 1.5 -0.9
v -0.4 1.4 -0.9
v -0.4 1.5 -0.9
v -0.9 1.8 -1
v -0.9 1.9 -1
v -0.8 1.1 -1
v -0.8 1.2 -1
v -0.8 1.8 -1
v -0.8 1.9 -1
v -0.7 1.1 -1
v -0.7 1.2 -1
v -0.7 1.3 -1
v -0.6 1.2 -1
v -0.6 1.3 -1
v -0.6 1.7 -1
v -0.6 1.8 -1
v -0.5 1.7 -1
v -0.5 1.8 -1
v -1.1 1.6 -1.1
v -1.1 1.7 -1.1
v -1 1.3 -1.1
v -1 1.4 -1.1
v -1 1.6 -1.1
v -1 1.7 -1.1
v -0.9 1.2 -1.1
v -0.9 1.3 -1.1
v -0.9 1.4 -1.1
v -0.8 1.3 -1.1
v -0.7 1.2 -1.1
v -0.7 1.3 -1.1
v -0.8 1.8 -1.2
v -0.8 1.9 -1.2
v -0.7 1.2 -1.2
v -0.7 1.3 -1.2
v -0.7 1.8 -1.2
v -0.7 1.9 -1.2
v -0.6 1.2 -1.2
v -0.6 1.3 -1.2
v -1.1 1.5 -1.3
v -1.1 1.6 -1.3
v -1 1.3 -1.3
v -1 1.4 -1.3
v -1 1.5 -1.3
v -1 1.6 -1.3
v -1 1.7 -1.3
v -1 1.8 -1.3
v -0.9 1.2 -1.3
v -0.9 1.3 -1.3
v -0.9 1.4 -1.3
v -0.9 1.7 -1.3
v -0.9 1.8 -1.3
v -0.9 1.9 -1.3
v -0.8 1.3 -1.3
v -0.8 1.8 -1.3
v -0.8 1.9 -1.3
v -0.7 1.2 -1.3
v -0.7 1.3 -1.3
v -0.7 1.8 -1.3
v -0.7 1.9 -1.3
v -0.6 1.3 -1.3
v -0.6 1.4 -1.3
v -0.6 1.7 -1.3
v -0.6 1.8 -1.3
v -0.6 1.9 -1.3
v -0.5 1.3 -1.3
v -0.5 1.4 -1.3
v -0.5 1.5 -1.3
v -0.5 1.6 -1.3
v -0.5 1.7 -1.3
v -0.5 1.8 -1.3
v -0.4 1.4 -1.3
v -0.4 1.5 -1.3
v -0.4 1.6 -1.3
v -0.4 1.7 -1.3
v -1 1.4 -1.4
v -1 1.5 -1.4
v -1 1.6 -1.4
v -1 1.7 -1.4
v -0.9 1.3 -1.4
v -0.9 1.4 -1.4
v -0.9 1.5 -1.4
v -0.9 1.6 -1.4
v -0.9 1.7 -1.4
v -0.9 1.8 -1.4
v -0.8 1.3 -1.4
v -0.8 1.4 -1.4
v -0.8 1.5 -1.4
v -0.8 1.6 -1.4
v -0.8 1.7 -1.4
v -0.7 1.3 -1.4
v -0.7 1.4 -1.4
v -0.7 1.5 -1.4
v -0.7 1.6 -1.4
v -0.7 1.7 -1.4
v -0.7 1.8 -1.4
v -0.6 1.3 -1.4
v -0.6 1.4 -1.4
v -0.6 1.5 -1.4
v -0.6 1.6 -1.4
v -0.6 1.7 -1.4
v -0.6 1.8 -1.4
v -0.5 1.4 -1.4
v -0.5 1.6 -1.4
v -0.5 1.7 -1.4
v -0.8 0.6 1
v -0.7 0.6 1
v -0.6 0.6 1
v -0.8 0.6 0.9
v -0.7 0.6 0.9
v -0.6 0.6 0.9
v -0.8 0.7 1.1
v -0.7 0.7 1.1
v -0.6 0.7 1.1
v -0.9 0.7 1
v -0.8 0.7 1
v -0.7 0.7 1
v -0.6 0.7 1
v -0.5 0.7 1
v -0.9 0.7 0.9
v -0.8 0.7 0.9
v -0.7 0.7 0.9
v -0.6 0.7 0.9
v -0.5 0.7 0.9
v -0.8 0.7 0.8
v -0.7 0.7 0.8
v -0.6 0.7 0.8
v -0.9 0.8 1.1
v -0.8 0.8 1.1
v -0.6 0.8 1.1
v -0.5 0.8 1.1
v -1 0.8 1
v -0.9 0.8 1
v -0.8 0.8 1
v -0.6 0.8 1
v -0.5 0.8 1
v -0.4 0.8 1
v -1 0.8 0.9
v -0.9 0.8 0.9
v -0.8 0.8 0.9
v -0.6 0.8 0.9
v -0.5 0.8 0.9
v -0.4 0.8 0.9
v -0.9 0.8 0.8
v -0.8 0.8 0.8
v -0.7 0.8 0.8
v -0.6 0.8 0.8
v -0.5 0.8 0.8
v -0.8 0.8 0.7
v -0.7 0.8 0.7
v -0.6 0.8 0.7
v -0.8 0.9 1.2
v -0.6 0.9 1.2
v -0.8 0.9 1.1
v -0.7 0.9 1.1
v -0.6 0.9 1.1
v -0.9 0.9 0.8
v -0.8 0.9 0.8
v -0.6 0.9 0.8
v -0.5 0.9 0.8
v -0.9 0.9 0.7
v -0.8 0.9 0.7
v -0.7 0.9 0.7
v -0.6 0.9 0.7
v -0.5 0.9 0.7
v -0.8 0.9 0.6
v -0.6 0.9 0.6
v -0.9 1 0.6
v -0.8 1 0.6
v -0.7 1 0.6
v -0.6 1 0.6
v -0.9 1 0.5
v -0.8 1 0.5
v -0.7 1 0.5
v -0.6 1 0.5
v -0.7 1.1 0.7
v -0.6 1.1 0.7
v -0.8 1.1 0.6
v -0.7 1.1 0.6
v -0.6 1.1 0.6
v -0.9 1.1 0.5
v -0.8 1.1 0.5
v -0.7 1.1 0.5
v -0.9 1.1 0.4
v -0.8 1.1 0.4
v -0.7 1.1 0.4
v -0.8 1.1 -0.9
v -0.7 1.1 -0.9
v -0.8 1.1 -1
v -0.7 1.1 -1
v -0.7 1.2 0.5
v -0.6 1.2 0.5
v -0.9 1.2 0.4
v -0.8 1.2 0.4
v -0.7 1.2 0.4
v -0.9 1.2 0.3
v -0.8 1.2 0.3
v -0.7 1.2 0.3
v -0.8 1.2 0.2
v -0.7 1.2 0.2
v -0.6 1.2 0.2
v -0.8 1.2 -0.8
v -0.6 1.2 -0.8
v -0.9 1.2 -0.9
v -0.8 1.2 -0.9
v -0.7 1.2 -0.9
v -0.8 1.2 -1
v -0.7 1.2 -1
v -0.6 1.2 -1
v -0.9 1.2 -1.1
v -0.7 1.2 -1.1
v -0.6 1.2 -1.1
v -0.9 1.2 -1.2
v -0.7 1.2 -1.2
v -0.6 1.2 -1.2
v -0.9 1.2 -1.3
v -0.7 1.2 -1.3
v -0.8 1.3 0.5
v -0.7 1.3 0.5
v -0.8 1.3 0.4
v -0.7 1.3 0.4
v -0.8 1.3 0.2
v -0.7 1.3 0.2
v -0.8 1.3 0.0999999
v -0.7 1.3 0.0999999
v -0.9 1.3 -0.7
v -0.8 1.3 -0.7
v -0.6 1.3 -0.7
v -0.5 1.3 -0.7
v -1 1.3 -0.8
v -0.9 1.3 -0.8
v -0.8 1.3 -0.8
v -0.6 1.3 -0.8
v -0.9 1.3 -0.9
v -0.8 1.3 -0.9
v -0.6 1.3 -0.9
v -0.5 1.3 -0.9
v -0.7 1.3 -1
v -0.6 1.3 -1
v -1 1.3 -1.1
v -0.9 1.3 -1.1
v -0.8 1.3 -1.1
v -0.7 1.3 -1.1
v -0.6 1.3 -1.1
v -1 1.3 -1.2
v -0.9 1.3 -1.2
v -0.8 1.3 -1.2
v -0.7 1.3 -1.2
v -0.6 1.3 -1.2
v -0.5 1.3 -1.2
v -1 1.3 -1.3
v -0.9 1.3 -1.3
v -0.8 1.3 -1.3
v -0.7 1.3 -1.3
v -0.6 1.3 -1.3
v -0.5 1.3 -1.3
v -0.9 1.3 -1.4
v -0.8 1.3 -1.4
v -0.7 1.3 -1.4
v -0.6 1.3 -1.4
v -0.9 1.4 0.3
v -0.8 1.4 0.3
v -0.9 1.4 0.2
v -0.8 1.4 0.2
v -0.7 1.4 0.2
v -0.6 1.4 0.2
v -0.9 1.4 0.0999999
v -0.8 1.4 0.0999999
v -0.7 1.4 0.0999999
v -0.6 1.4 0.0999999
v -0.9 1.4 -1.19209e-07
v -0.8 1.4 -1.19209e-07
v -0.7 1.4 -1.19209e-07
v -0.8 1.4 -0.1
v -0.7 1.4 -0.1
v -0.8 1.4 -0.2
v -0.7 1.4 -0.2
v -0.9 1.4 -0.3
v -0.8 1.4 -0.3
v -0.9 1.4 -0.4
v -0.8 1.4 -0.4
v -0.8 1.4 -0.5
v -0.7 1.4 -0.5
v -0.9 1.4 -0.6
v -0.8 1.4 -0.6
v -0.7 1.4 -0.6
v -0.6 1.4 -0.6
v -1 1.4 -0.7
v -0.9 1.4 -0.7
v -0.8 1.4 -0.7
v -0.7 1.4 -0.7
v -0.6 1.4 -0.7
v -0.5 1.4 -0.7
v -0.4 1.4 -0.7
v -1 1.4 -0.8
v -0.9 1.4 -0.8
v -0.5 1.4 -0.8
v -0.4 1.4 -0.8
v -0.6 1.4 -0.9
v -0.5 1.4 -0.9
v -0.4 1.4 -0.9
v -0.6 1.4 -1
v -0.5 1.4 -1
v -1 1.4 -1.1
v -0.9 1.4 -1.1
v -0.6 1.4 -1.1
v -1 1.4 -1.2
v -0.9 1.4 -1.2
v -0.6 1.4 -1.2
v -0.5 1.4 -1.2
v -0.4 1.4 -1.2
v -1 1.4 -1.3
v -0.9 1.4 -1.3
v -0.6 1.4 -1.3
v -0.5 1.4 -1.3
v -0.4 1.4 -1.3
v -1 1.4 -1.4
v -0.9 1.4 -1.4
v -0.6 1.4 -1.4
v -0.5 1.4 -1.4
v -0.9 1.5 0.2
v -0.7 1.5 0.2
v -0.9 1.5 0.0999999
v -0.7 1.5 0.0999999
v -0.9 1.5 -1.19209e-07
v -0.8 1.5 -1.19209e-07
v -0.7 1.5 -1.19209e-07
v -0.6 1.5 -1.19209e-07
v -0.9 1.5 -0.1
v -0.8 1.5 -0.1
v -0.7 1.5 -0.1
v -0.6 1.5 -0.1
v -0.9 1.5 -0.2
v -0.8 1.5 -0.2
v -0.7 1.5 -0.3
v -0.6 1.5 -0.3
v -0.7 1.5 -0.4
v -0.6 1.5 -0.4
v -0.9 1.5 -0.5
v -0.8 1.5 -0.5
v -0.7 1.5 -0.5
v -0.6 1.5 -0.5
v -1 1.5 -0.6
v -0.9 1.5 -0.6
v -0.8 1.5 -0.6
v -0.7 1.5 -0.6
v -0.6 1.5 -0.6
v -0.5 1.5 -0.6
v -1 1.5 -0.7
v -0.9 1.5 -0.7
v -0.6 1.5 -0.7
v -0.5 1.5 -0.7
v -1.1 1.5 -0.8
v -1 1.5 -0.8
v -1.1 1.5 -0.9
v -1 1.5 -0.9
v -0.5 1.5 -0.9
v -0.4 1.5 -0.9
v -1.1 1.5 -1
v -1 1.5 -1
v -0.5 1.5 -1
v -0.4 1.5 -1
v -1 1.5 -1.1
v -0.5 1.5 -1.1
v -0.4 1.5 -1.1
v -0.5 1.5 -1.2
v -0.4 1.5 -1.2
v -1.1 1.5 -1.3
v -1 1.5 -1.3
v -0.8 1.6 -0.5
v -0.7 1.6 -0.5
v -0.8 1.6 -0.6
v -0.7 1.6 -0.6
v -1.1 1.6 -0.7
v -1 1.6 -0.7
v -1.1 1.6 -0.8
v -1 1.6 -0.8
v -0.9 1.6 -0.8
v -0.8 1.6 -0.8
v -0.7 1.6 -0.8
v -0.6 1.6 -0.8
v -0.8 1.6 -0.9
v -0.7 1.6 -0.9
v -0.6 1.6 -0.9
v -0.9 1.6 -1
v -0.9 1.6 -1.1
v -0.7 1.6 -1.1
v -0.6 1.6 -1.1
v -0.9 1.6 -1.2
v -0.9 1.6 -1.4
v -0.8 1.6 -1.4
v -0.7 1.6 -1.4
v -0.6 1.6 -1.4
v -0.8 1.7 -0.9
v -0.7 1.7 -0.9
v -0.8 1.7 -1.1
v -0.7 1.7 -1.1
v -0.8 1.7 -1.3
v -0.7 1.7 -1.3
v -0.8 1.7 -1.4
v -0.7 1.7 -1.4
v -0.7 1 0.7
v -0.6 1 0.7
v -0.7 1 0.6
v -0.6 1 0.6
v -0.7 1.1 0.6
v -0.6 1.1 0.6
v -0.7 1.1 0.5
v -0.6 1.1 0.5
v -0.8 1.2 1.2
v -0.6 1.2 1.2
v -0.8 1.2 1.1
v -0.6 1.2 1.1
v -0.9 1.2 0.8
v -0.8 1.2 0.8
v -0.6 1.2 0.8
v -0.5 1.2 0.8
v -0.9 1.2 0.7
v -0.8 1.2 0.7
v -0.7 1.2 0.7
v -0.6 1.2 0.7
v -0.5 1.2 0.7
v -0.8 1.2 0.6
v -0.7 1.2 0.6
v -0.6 1.2 0.6
v -0.9 1.2 0.5
v -0.8 1.2 0.5
v -0.7 1.2 0.5
v -0.9 1.2 0.4
v -0.8 1.2 0.4
v -0.7 1.2 0.4
v -0.9 1.3 1.1
v -0.8 1.3 1.1
v -0.6 1.3 1.1
v -0.5 1.3 1.1
v -1 1.3 1
v -0.9 1.3 1
v -0.8 1.3 1
v -0.6 1.3 1
v -0.5 1.3 1
v -0.4 1.3 1
v -1 1.3 0.9
v -0.9 1.3 0.9
v -0.8 1.3 0.9
v -0.6 1.3 0.9
v -0.5 1.3 0.9
v -0.4 1.3 0.9
v -0.9 1.3 0.8
v -0.8 1.3 0.8
v -0.6 1.3 0.8
v -0.5 1.3 0.8
v -0.8 1.3 0.7
v -0.6 1.3 0.7
v -0.9 1.3 0.6
v -0.7 1.3 0.6
v -0.9 1.3 0.5
v -0.8 1.3 0.5
v -0.7 1.3 0.5
v -0.6 1.3 0.5
v -0.7 1.3 0.4
v -0.6 1.3 0.4
v -0.8 1.4 1.1
v -0.7 1.4 1.1
v -0.6 1.4 1.1
v -0.9 1.4 1
v -0.8 1.4 1
v -0.7 1.4 1
v -0.6 1.4 1
v -0.5 1.4 1
v -0.9 1.4 0.9
v -0.8 1.4 0.9
v -0.6 1.4 0.9
v -0.5 1.4 0.9
v -0.8 1.4 0.8
v -0.6 1.4 0.8
v -0.8 1.4 0.5
v -0.7 1.4 0.5
v -0.9 1.4 0.4
v -0.8 1.4 0.4
v -0.7 1.4 0.4
v -0.6 1.4 0.4
v -0.9 1.4 0.3
v -0.8 1.4 0.3
v -0.7 1.4 0.3
v -0.6 1.4 0.3
v -0.8 1.4 0.2
v -0.7 1.4 0.2
v -0.8 1.4 0.0999999
v -0.7 1.4 0.0999999
v -0.8 1.4 -0.8
v -0.7 1.4 -0.8
v -0.7 1.4 -0.9
v -0.8 1.4 -1
v -0.7 1.4 -1
v -0.7 1.4 -1.1
v -0.8 1.4 -1.2
v -0.7 1.4 -1.2
v -0.8 1.4 -1.3
v -0.7 1.4 -1.3
v -0.8 1.4 -1.4
v -0.7 1.4 -1.4
v -0.8 1.5 1
v -0.6 1.5 1
v -0.8 1.5 0.9
v -0.6 1.5 0.9
v -0.8 1.5 0.4
v -0.7 1.5 0.4
v -0.9 1.5 0.3
v -0.8 1.5 0.3
v -0.7 1.5 0.3
v -0.6 1.5 0.3
v -0.9 1.5 0.2
v -0.8 1.5 0.2
v -0.7 1.5 0.2
v -0.6 1.5 0.2
v -0.9 1.5 0.0999999
v -0.8 1.5 0.0999999
v -0.9 1.5 -1.19209e-07
v -0.8 1.5 -1.19209e-07
v -0.8 1.5 -0.5
v -0.7 1.5 -0.5
v -0.8 1.5 -0.6
v -0.7 1.5 -0.6
v -0.8 1.5 -0.7
v -0.7 1.5 -0.7
v -0.9 1.5 -0.8
v -0.8 1.5 -0.8
v -0.7 1.5 -0.8
v -0.6 1.5 -0.8
v -0.7 1.5 -0.9
v -0.6 1.5 -0.9
v -0.9 1.5 -1
v -0.9 1.5 -1.1
v -0.7 1.5 -1.1
v -0.6 1.5 -1.1
v -0.9 1.5 -1.2
v -0.9 1.5 -1.4
v -0.8 1.5 -1.4
v -0.7 1.5 -1.4
v -0.6 1.5 -1.4
v -0.8 1.6 0.3
v -0.7 1.6 0.3
v -0.9 1.6 0.2
v -0.8 1.6 0.2
v -0.7 1.6 0.2
v -0.6 1.6 0.2
v -0.9 1.6 0.0999999
v -0.8 1.6 0.0999999
v -0.7 1.6 0.0999999
v -0.6 1.6 0.0999999
v -0.9 1.6 -1.19209e-07
v -0.8 1.6 -1.19209e-07
v -0.7 1.6 -1.19209e-07
v -0.6 1.6 -1.19209e-07
v -0.9 1.6 -0.1
v -0.8 1.6 -0.1
v -0.7 1.6 -0.1
v -0.6 1.6 -0.1
v -0.9 1.6 -0.2
v -0.8 1.6 -0.2
v -0.9 1.6 -0.3
v -0.8 1.6 -0.3
v -0.7 1.6 -0.3
v -0.6 1.6 -0.3
v -0.9 1.6 -0.4
v -0.8 1.6 -0.4
v -0.7 1.6 -0.4
v -0.6 1.6 -0.4
v -0.9 1.6 -0.5
v -0.8 1.6 -0.5
v -0.7 1.6 -0.5
v -0.6 1.6 -0.5
v -1 1.6 -0.6
v -0.9 1.6 -0.6
v -0.8 1.6 -0.6
v -0.7 1.6 -0.6
v -0.6 1.6 -0.6
v -1 1.6 -0.7
v -0.9 1.6 -0.7
v -0.5 1.6 -0.7
v -0.4 1.6 -0.7
v -1.1 1.6 -0.8
v -1 1.6 -0.8
v -0.5 1.6 -0.8
v -0.4 1.6 -0.8
v -1.1 1.6 -0.9
v -1 1.6 -0.9
v -0.5 1.6 -0.9
v -0.4 1.6 -0.9
v -1.1 1.6 -1.1
v -1 1.6 -1.1
v -1 1.6 -1.2
v -1.1 1.6 -1.3
v -1 1.6 -1.3
v -0.8 1.7 0.2
v -0.7 1.7 0.2
v -0.8 1.7 -1.19209e-07
v -0.7 1.7 -1.19209e-07
v -0.8 1.7 -0.1
v -0.7 1.7 -0.1
v -0.8 1.7 -0.3
v -0.7 1.7 -0.3
v -0.8 1.7 -0.5
v -0.7 1.7 -0.5
v -0.9 1.7 -0.6
v -0.8 1.7 -0.6
v -0.7 1.7 -0.6
v -0.6 1.7 -0.6
v -0.5 1.7 -0.6
v -1.1 1.7 -0.7
v -1 1.7 -0.7
v -0.9 1.7 -0.7
v -0.8 1.7 -0.7
v -0.7 1.7 -0.7
v -0.6 1.7 -0.7
v -0.5 1.7 -0.7
v -1.1 1.7 -0.8
v -1 1.7 -0.8
v -0.6 1.7 -0.8
v -0.5 1.7 -0.8
v -1.1 1.7 -0.9
v -1 1.7 -0.9
v -0.9 1.7 -0.9
v -0.5 1.7 -0.9
v -0.4 1.7 -0.9
v -1.1 1.7 -1
v -1 1.7 -1
v -0.9 1.7 -1
v -0.6 1.7 -1
v -0.5 1.7 -1
v -1.1 1.7 -1.1
v -1 1.7 -1.1
v -0.9 1.7 -1.1
v -0.6 1.7 -1.1
v -0.5 1.7 -1.1
v -0.4 1.7 -1.1
v -0.5 1.7 -1.2
v -0.4 1.7 -1.2
v -1 1.7 -1.3
v -0.9 1.7 -1.3
v -0.6 1.7 -1.3
v -0.5 1.7 -1.3
v -0.4 1.7 -1.3
v -1 1.7 -1.4
v -0.9 1.7 -1.4
v -0.6 1.7 -1.4
v -0.5 1.7 -1.4
v -0.8 1.8 -0.6
v -0.7 1.8 -0.6
v -1 1.8 -0.7
v -0.9 1.8 -0.7
v -0.8 1.8 -0.7
v -0.7 1.8 -0.7
v -0.6 1.8 -0.7
v -1 1.8 -0.8
v -0.9 1.8 -0.8
v -0.8 1.8 -0.8
v -0.7 1.8 -0.8
v -0.6 1.8 -0.8
v -0.5 1.8 -0.8
v -1 1.8 -0.9
v -0.9 1.8 -0.9
v -0.8 1.8 -0.9
v -0.7 1.8 -0.9
v -0.6 1.8 -0.9
v -0.9 1.8 -1
v -0.8 1.8 -1
v -0.6 1.8 -1
v -0.5 1.8 -1
v -1 1.8 -1.1
v -0.9 1.8 -1.1
v -0.8 1.8 -1.1
v -0.7 1.8 -1.1
v -0.6 1.8 -1.1
v -0.5 1.8 -1.1
v -1 1.8 -1.2
v -0.9 1.8 -1.2
v -0.8 1.8 -1.2
v -0.7 1.8 -1.2
v -1 1.8 -1.3
v -0.9 1.8 -1.3
v -0.8 1.8 -1.3
v -0.7 1.8 -1.3
v -0.6 1.8 -1.3
v -0.5 1.8 -1.3
v -0.9 1.8 -1.4
v -0.7 1.8 -1.4
v -0.6 1.8 -1.4
v -0.8 1.9 -0.8
v -0.7 1.9 -0.8
v -0.9 1.9 -0.9
v -0.8 1.9 -0.9
v -0.7 1.9 -0.9
v -0.9 1.9 -1
v -0.8 1.9 -1
v -0.9 1.9 -1.1
v -0.6 1.9 -1.1
v -0.9 1.9 -1.2
v -0.8 1.9 -1.2
v -0.7 1.9 -1.2
v -0.9 1.9 -1.3
v -0.8 1.9 -1.3
v -0.7 1.9 -1.3
v -0.6 1.9 -1.3

# faces
f 6/1/1 2/1/1 1/1/1
f 7/2/1 3/2/1 2/2/1
f 7/1/1 2/1/1 6/1/1
f 8/1/1 4/1/1 3/1/1
f 9/1/1 4/1/1 8/1/1
f 10/1/1 6/1/1 5/1/1
f 11/1/1 6/1/1 10/1/1
f 12/2/1 3/2/1 7/2/1
f 13/1/1 8/1/1 3/1/1
f 13/2/1 3/2/1 12/2/1
f 14/1/1 8/1/1 13/1/1
f 17/5/1 16/5/1 15/5/1
f 18/5/1 16/5/1 17/5/1
f 19/6/1 18/6/1 17/6/1
f 20/6/1 18/6/1 19/6/1
f 26/2/1 22/2/1 21/2/1
f 27/2/1 22/2/1 26/2/1
f 28/1/1 24/1/1 23/1/1
f 29/1/1 24/1/1 28/1/1
f 32/1/1 27/1/1 26/1/1
f 32/1/1 26/1/1 25/1/1
f 33/1/1 27/1/1 32/1/1
f 34/1/1 27/1/1 33/1/1
f 35/1/1 27/1/1 34/1/1
f 36/2/1 30/2/1 29/2/1
f 36/1/1 27/1/1 35/1/1
f 36/2/1 29/2/1 28/2/1
f 36/2/1 28/2/1 27/2/1
f 37/2/1 30/2/1 36/2/1
f 38/2/1 30/2/1 37/2/1
f 39/2/1 33/2/1 32/2/1
f 39/2/1 32/2/1 31/2/1
f 40/2/1 33/2/1 39/2/1
f 41/2/1 33/2/1 40/2/1
f 45/1/1 38/1/1 37/1/1
f 46/1/1 38/1/1 45/1/1
f 48/2/1 42/2/1 41/2/1
f 49/2/1 42/2/1 48/2/1
f 50/1/1 44/1/1 43/1/1
f 51/2/1 46/2/1 45/2/1
f 51/2/1 45/2/1 44/2/1
f 52/2/1 46/2/1 51/2/1
f 53/1/1 48/1/1 47/1/1
f 54/2/1 49/2/1 48/2/1
f 54/1/1 48/1/1 53/1/1
f 55/2/1 49/2/1 54/2/1
f 56/1/1 44/1/1 50/1/1
f 57/2/1 51/2/1 44/2/1
f 57/1/1 44/1/1 56/1/1
f 58/2/1 51/2/1 57/2/1
f 62/6/1 60/6/1 59/6/1
f 63/6/1 60/6/1 62/6/1
f 65/6/1 62/6/1 61/6/1
f 66/6/1 62/6/1 65/6/1
f 67/6/1 64/6/1 63/6/1
f 68/6/1 64/6/1 67/6/1
f 72/5/1 66/5/1 65/5/1
f 73/5/1 66/5/1 72/5/1
f 74/6/1 68/6/1 67/6/1
f 75/5/1 69/5/1 68/5/1
f 75/6/1 68/6/1 74/6/1
f 76/5/1 69/5/1 75/5/1
f 77/4/1 71/4/1 70/4/1
f 78/4/1 71/4/1 77/4/1
f 80/6/1 73/6/1 72/6/1
f 81/6/1 73/6/1 80/6/1
f 82/6/1 76/6/1 75/6/1
f 82/5/1 75/5/1 74/5/1
f 83/6/1 76/6/1 82/6/1
f 84/3/1 79/3/1 78/3/1
f 84/3/1 78/3/1 77/3/1
f 85/3/1 79/3/1 84/3/1
f 86/3/1 79/3/1 85/3/1
f 92/5/1 81/5/1 80/5/1
f 93/5/1 81/5/1 92/5/1
f 94/5/1 82/5/1 74/5/1
f 95/5/1 82/5/1 94/5/1
f 96/4/1 85/4/1 84/4/1
f 97/4/1 85/4/1 96/4/1
f 98/4/1 87/4/1 86/4/1
f 99/4/1 87/4/1 98/4/1
f 102/2/1 89/2/1 88/2/1
f 103/2/1 89/2/1 102/2/1
f 104/2/1 91/2/1 90/2/1
f 105/2/1 91/2/1 104/2/1
f 107/6/1 94/6/1 93/6/1
f 108/6/1 94/6/1 107/6/1
f 109/3/1 99/3/1 98/3/1
f 110/3/1 99/3/1 109/3/1
f 117/1/1 101/1/1 100/1/1
f 118/1/1 101/1/1 117/1/1
f 119/2/1 104/2/1 103/2/1
f 120/2/1 104/2/1 119/2/1
f 121/2/1 106/2/1 105/2/1
f 122/2/1 106/2/1 121/2/1
f 123/4/1 111/4/1 110/4/1
f 124/4/1 111/4/1 123/4/1
f 125/4/1 113/4/1 112/4/1
f 126/4/1 113/4/1 125/4/1
f 129/3/1 115/3/1 114/3/1
f 130/3/1 115/3/1 129/3/1
f 132/2/1 117/2/1 116/2/1
f 133/2/1 117/2/1 132/2/1
f 134/4/1 125/4/1 124/4/1
f 135/4/1 125/4/1 134/4/1
f 136/3/1 127/3/1 126/3/1
f 137/4/1 128/4/1 127/4/1
f 137/3/1 127/3/1 136/3/1
f 138/4/1 128/4/1 137/4/1
f 139/4/1 130/4/1 129/4/1
f 140/4/1 130/4/1 139/4/1
f 141/4/1 132/4/1 131/4/1
f 142/4/1 132/4/1 141/4/1
f 144/2/1 143/2/1 142/2/1
f 145/2/1 143/2/1 144/2/1
f 151/1/1 147/1/1 146/1/1
f 151/1/1 148/1/1 147/1/1
f 152/1/1 148/1/1 151/1/1
f 153/1/1 148/1/1 152/1/1
f 155/2/1 150/2/1 149/2/1
f 156/2/1 150/2/1 155/2/1
f 157/1/1 152/1/1 151/1/1
f 158/1/1 152/1/1 157/1/1
f 159/1/1 154/1/1 153/1/1
f 160/2/1 155/2/1 154/2/1
f 160/1/1 154/1/1 159/1/1
f 161/2/1 155/2/1 160/2/1
f 165/5/1 163/5/1 162/5/1
f 166/5/1 163/5/1 165/5/1
f 168/6/1 165/6/1 164/6/1
f 169/6/1 165/6/1 168/6/1
f 170/5/1 167/5/1 166/5/1
f 171/5/1 167/5/1 170/5/1
f 175/5/1 172/5/1 171/5/1
f 176/5/1 172/5/1 175/5/1
f 178/6/1 174/6/1 173/6/1
f 179/6/1 174/6/1 178/6/1
f 180/4/1 177/4/1 176/4/1
f 181/5/1 179/5/1 178/5/1
f 182/5/1 179/5/1 181/5/1
f 183/4/1 180/4/1 176/4/1
f 184/4/1 180/4/1 183/4/1
f 187/6/1 182/6/1 181/6/1
f 188/6/1 182/6/1 187/6/1
f 190/3/1 184/3/1 183/3/1
f 191/3/1 184/3/1 190/3/1
f 195/2/1 186/2/1 185/2/1
f 196/2/1 186/2/1 195/2/1
f 200/6/1 190/6/1 189/6/1
f 201/6/1 190/6/1 200/6/1
f 204/3/1 193/3/1 192/3/1
f 205/3/1 193/3/1 204/3/1
f 207/2/1 195/2/1 194/2/1
f 208/2/1 195/2/1 207/2/1
f 209/5/1 198/5/1 197/5/1
f 210/5/1 198/5/1 209/5/1
f 211/6/1 200/6/1 199/6/1
f 212/6/1 200/6/1 211/6/1
f 213/4/1 203/4/1 202/4/1
f 214/4/1 203/4/1 213/4/1
f 215/4/1 206/4/1 205/4/1
f 215/4/1 205/4/1 204/4/1
f 216/4/1 206/4/1 215/4/1
f 217/4/1 206/4/1 216/4/1
f 225/6/1 211/6/1 210/6/1
f 226/6/1 211/6/1 225/6/1
f 227/3/1 215/3/1 214/3/1
f 228/3/1 215/3/1 227/3/1
f 231/3/1 219/3/1 218/3/1
f 232/4/1 220/4/1 219/4/1
f 232/3/1 219/3/1 231/3/1
f 233/3/1 221/3/1 220/3/1
f 233/4/1 220/4/1 232/4/1
f 234/3/1 221/3/1 233/3/1
f 235/3/1 223/3/1 222/3/1
f 236/4/1 224/4/1 223/4/1
f 236/3/1 223/3/1 235/3/1
f 237/4/1 224/4/1 236/4/1
f 238/4/1 229/4/1 228/4/1
f 239/4/1 229/4/1 238/4/1
f 240/4/1 231/4/1 230/4/1
f 241/4/1 231/4/1 240/4/1
f 243/4/1 234/4/1 233/4/1
f 244/4/1 234/4/1 243/4/1
f 245/4/1 236/4/1 235/4/1
f 246/4/1 236/4/1 245/4/1
f 248/4/1 240/4/1 239/4/1
f 248/4/1 241/4/1 240/4/1
f 249/3/1 242/3/1 241/3/1
f 249/4/1 241/4/1 248/4/1
f 250/4/1 244/4/1 243/4/1
f 250/3/1 242/3/1 249/3/1
f 250/4/1 243/4/1 242/4/1
f 251/3/1 246/3/1 245/3/1
f 251/4/1 244/4/1 250/4/1
f 251/3/1 245/3/1 244/3/1
f 252/4/1 247/4/1 246/4/1
f 252/3/1 246/3/1 251/3/1
f 253/4/1 247/4/1 252/4/1
f 255/2/1 254/2/1 253/2/1
f 256/2/1 254/2/1 255/2/1
f 259/2/1 258/2/1 257/2/1
f 260/2/1 258/2/1 259/2/1
f 263/4/1 262/4/1 261/4/1
f 264/4/1 262/4/1 263/4/1
f 269/4/1 266/4/1 265/4/1
f 270/4/1 266/4/1 269/4/1
f 271/2/1 268/2/1 267/2/1
f 272/2/1 268/2/1 271/2/1
f 282/3/1 274/3/1 273/3/1
f 283/3/1 274/3/1 282/3/1
f 287/2/1 276/2/1 275/2/1
f 288/1/1 277/1/1 276/1/1
f 288/1/1 278/1/1 277/1/1
f 288/2/1 276/2/1 287/2/1
f 289/2/1 279/2/1 278/2/1
f 289/1/1 278/1/1 288/1/1
f 289/2/1 281/2/1 280/2/1
f 289/2/1 280/2/1 279/2/1
f 290/2/1 281/2/1 289/2/1
f 291/4/1 285/4/1 284/4/1
f 292/2/1 286/2/1 285/2/1
f 292/4/1 285/4/1 291/4/1
f 292/2/1 287/2/1 286/2/1
f 293/2/1 287/2/1 292/2/1
f 297/1/1 295/1/1 294/1/1
f 298/2/1 296/2/1 295/2/1
f 298/1/1 295/1/1 297/1/1
f 299/2/1 296/2/1 298/2/1
f 300/2/1 296/2/1 299/2/1
f 303/1/1 302/1/1 301/1/1
f 304/1/1 302/1/1 303/1/1
f 309/2/1 306/2/1 305/2/1
f 310/1/1 307/1/1 306/1/1
f 310/2/1 306/2/1 309/2/1
f 311/2/1 308/2/1 307/2/1
f 311/1/1 307/1/1 310/1/1
f 312/2/1 308/2/1 311/2/1
f 313/2/2 314/2/2 318/2/2
f 314/1/2 315/1/2 319/1/2
f 318/2/2 314/2/2 319/2/2
f 315/2/2 316/2/2 320/2/2
f 319/1/2 315/1/2 320/1/2
f 316/1/2 317/1/2 321/1/2
f 320/2/2 316/2/2 321/2/2
f 321/1/2 317/1/2 322/1/2
f 323/4/2 324/4/2 325/4/2
f 325/4/2 324/4/2 326/4/2
f 327/2/2 328/2/2 335/2/2
f 328/2/2 329/2/2 335/2/2
f 329/2/2 330/2/2 335/2/2
f 330/2/2 331/2/2 335/2/2
f 335/2/2 331/2/2 336/2/2
f 332/4/2 333/4/2 337/4/2
f 333/2/2 334/2/2 338/2/2
f 337/4/2 333/4/2 338/4/2
f 334/2/2 335/2/2 338/2/2
f 338/2/2 335/2/2 339/2/2
f 340/2/2 341/2/2 342/2/2
f 342/2/2 341/2/2 343/2/2
f 343/2/2 341/2/2 344/2/2
f 344/2/2 341/2/2 345/2/2
f 346/1/2 347/1/2 350/1/2
f 350/1/2 347/1/2 351/1/2
f 348/2/2 349/2/2 352/2/2
f 352/2/2 349/2/2 353/2/2
f 354/4/2 355/4/2 356/4/2
f 356/4/2 355/4/2 357/4/2
f 357/4/2 358/4/2 362/4/2
f 358/4/2 359/4/2 362/4/2
f 362/4/2 359/4/2 363/4/2
f 363/4/2 359/4/2 364/4/2
f 360/2/2 361/2/2 365/2/2
f 365/2/2 361/2/2 366/2/2
f 362/4/2 363/4/2 370/4/2
f 370/4/2 363/4/2 371/4/2
f 366/2/2 367/2/2 375/2/2
f 375/2/2 367/2/2 376/2/2
f 368/2/2 369/2/2 377/2/2
f 377/2/2 369/2/2 378/2/2
f 371/4/2 372/4/2 379/4/2
f 379/4/2 372/4/2 380/4/2
f 373/4/2 374/4/2 382/4/2
f 382/4/2 374/4/2 383/4/2
f 380/3/2 381/3/2 389/3/2
f 389/3/2 381/3/2 390/3/2
f 383/4/2 384/4/2 392/4/2
f 384/3/2 385/3/2 393/3/2
f 392/4/2 384/4/2 393/4/2
f 385/4/2 386/4/2 394/4/2
f 393/3/2 385/3/2 394/3/2
f 386/3/2 387/3/2 395/3/2
f 394/4/2 386/4/2 395/4/2
f 395/3/2 387/3/2 396/3/2
f 396/3/2 387/3/2 397/3/2
f 387/4/2 388/4/2 398/4/2
f 397/3/2 387/3/2 398/3/2
f 398/4/2 388/4/2 399/4/2
f 390/4/2 391/4/2 400/4/2
f 400/4/2 391/4/2 401/4/2
f 392/4/2 393/4/2 402/4/2
f 402/4/2 393/4/2 403/4/2
f 395/4/2 396/4/2 404/4/2
f 394/4/2 395/4/2 404/4/2
f 404/4/2 396/4/2 405/4/2
f 402/4/2 403/4/2 409/4/2
f 401/4/2 402/4/2 409/4/2
f 403/3/2 404/3/2 410/3/2
f 409/4/2 403/4/2 410/4/2
f 404/4/2 405/4/2 411/4/2
f 410/3/2 404/3/2 411/3/2
f 406/3/2 407/3/2 412/3/2
f 411/4/2 405/4/2 412/4/2
f 405/3/2 406/3/2 412/3/2
f 407/4/2 408/4/2 413/4/2
f 412/3/2 407/3/2 413/3/2
f 413/4/2 408/4/2 414/4/2
f 414/2/2 415/2/2 416/2/2
f 416/2/2 415/2/2 417/2/2
f 418/2/2 419/2/2 420/2/2
f 420/2/2 419/2/2 421/2/2
f 422/6/2 423/6/2 425/6/2
f 425/6/2 423/6/2 426/6/2
f 424/5/2 425/5/2 428/5/2
f 428/5/2 425/5/2 429/5/2
f 426/6/2 427/6/2 430/6/2
f 430/6/2 427/6/2 431/6/2
f 431/6/2 432/6/2 435/6/2
f 435/6/2 432/6/2 436/6/2
f 433/6/2 434/6/2 438/6/2
f 436/4/2 437/4/2 439/4/2
f 439/4/2 437/4/2 440/4/2
f 440/4/2 441/4/2 443/4/2
f 443/4/2 441/4/2 444/4/2
f 433/6/2 438/6/2 445/6/2
f 445/6/2 438/6/2 446/6/2
f 442/4/2 443/4/2 448/4/2
f 448/4/2 443/4/2 449/4/2
f 447/6/2 448/6/2 459/6/2
f 459/6/2 448/6/2 460/6/2
f 450/4/2 451/4/2 461/4/2
f 461/4/2 451/4/2 462/4/2
f 452/2/2 453/2/2 463/2/2
f 463/2/2 453/2/2 464/2/2
f 464/2/2 453/2/2 465/2/2
f 454/2/2 455/2/2 466/2/2
f 466/2/2 455/2/2 467/2/2
f 456/6/2 457/6/2 470/6/2
f 470/6/2 457/6/2 471/6/2
f 458/6/2 459/6/2 472/6/2
f 472/6/2 459/6/2 473/6/2
f 462/4/2 451/4/2 474/4/2
f 474/4/2 451/4/2 475/4/2
f 475/4/2 451/4/2 476/4/2
f 464/1/2 465/1/2 480/1/2
f 465/1/2 466/1/2 480/1/2
f 480/1/2 466/1/2 481/1/2
f 466/2/2 467/2/2 482/2/2
f 481/1/2 466/1/2 482/1/2
f 482/2/2 467/2/2 483/2/2
f 468/2/2 469/2/2 484/2/2
f 484/2/2 469/2/2 485/2/2
f 471/6/2 472/6/2 486/6/2
f 486/6/2 472/6/2 487/6/2
f 475/4/2 476/4/2 488/4/2
f 476/3/2 477/3/2 489/3/2
f 488/4/2 476/4/2 489/4/2
f 489/3/2 477/3/2 490/3/2
f 478/2/2 479/2/2 496/2/2
f 496/2/2 479/2/2 497/2/2
f 489/4/2 490/4/2 498/4/2
f 498/4/2 490/4/2 499/4/2
f 491/4/2 492/4/2 500/4/2
f 500/4/2 492/4/2 501/4/2
f 493/4/2 494/4/2 502/4/2
f 494/3/2 495/3/2 503/3/2
f 502/4/2 494/4/2 503/4/2
f 495/4/2 496/4/2 504/4/2
f 503/3/2 495/3/2 504/3/2
f 504/4/2 496/4/2 505/4/2
f 506/2/2 507/2/2 512/2/2
f 512/2/2 507/2/2 513/2/2
f 508/1/2 509/1/2 514/1/2
f 514/1/2 509/1/2 515/1/2
f 510/1/2 511/1/2 516/1/2
f 516/1/2 511/1/2 517/1/2
f 515/1/2 516/1/2 518/1/2
f 518/1/2 516/1/2 519/1/2
f 520/5/2 521/5/2 523/5/2
f 523/5/2 521/5/2 524/5/2
f 522/6/2 523/6/2 526/6/2
f 526/6/2 523/6/2 527/6/2
f 524/6/2 525/6/2 528/6/2
f 526/5/2 527/5/2 530/5/2
f 530/5/2 527/5/2 531/5/2
f 528/6/2 529/6/2 532/6/2
f 524/6/2 528/6/2 532/6/2
f 530/6/2 531/6/2 533/6/2
f 532/6/2 529/6/2 534/6/2
f 530/6/2 533/6/2 535/6/2
f 535/6/2 533/6/2 536/6/2
f 534/6/2 529/6/2 537/6/2
f 537/6/2 529/6/2 538/6/2
f 535/5/2 536/5/2 539/5/2
f 539/5/2 536/5/2 540/5/2
f 534/6/2 537/6/2 541/6/2
f 541/6/2 537/6/2 542/6/2
f 540/5/2 541/5/2 547/5/2
f 547/5/2 541/5/2 548/5/2
f 543/1/2 544/1/2 549/1/2
f 549/1/2 544/1/2 550/1/2
f 550/1/2 544/1/2 551/1/2
f 545/1/2 546/1/2 553/1/2
f 553/1/2 546/1/2 554/1/2
f 551/1/2 552/1/2 558/1/2
f 552/2/2 553/2/2 559/2/2
f 558/1/2 552/1/2 559/1/2
f 559/2/2 553/2/2 560/2/2
f 560/2/2 553/2/2 561/2/2
f 554/2/2 555/2/2 562/2/2
f 556/2/2 557/2/2 563/2/2
f 563/2/2 557/2/2 564/2/2
f 562/2/2 555/2/2 567/2/2
f 567/2/2 555/2/2 568/2/2
f 563/1/2 564/1/2 569/1/2
f 565/2/2 566/2/2 570/2/2
f 569/1/2 564/1/2 570/1/2
f 564/2/2 565/2/2 570/2/2
f 570/2/2 566/2/2 571/2/2
f 571/2/2 566/2/2 572/2/2
f 567/1/2 568/1/2 576/1/2
f 576/1/2 568/1/2 577/1/2
f 571/1/2 572/1/2 578/1/2
f 572/1/2 573/1/2 578/1/2
f 578/1/2 573/1/2 579/1/2
f 574/1/2 575/1/2 580/1/2
f 575/1/2 576/1/2 580/1/2
f 580/1/2 576/1/2 581/1/2
f 582/6/2 583/6/2 584/6/2
f 584/6/2 583/6/2 585/6/2
f 584/5/2 585/5/2 586/5/2
f 586/5/2 585/5/2 587/5/2
f 586/6/2 587/6/2 588/6/2
f 588/6/2 587/6/2 589/6/2
f 591/2/2 592/2/2 595/2/2
f 593/1/2 594/1/2 598/1/2
f 598/1/2 594/1/2 599/1/2
f 590/1/2 591/1/2 600/1/2
f 591/2/2 595/2/2 601/2/2
f 600/1/2 591/1/2 601/1/2
f 595/1/2 596/1/2 602/1/2
f 601/2/2 595/2/2 602/2/2
f 596/2/2 597/2/2 603/2/2
f 602/1/2 596/1/2 603/1/2
f 597/1/2 598/1/2 604/1/2
f 603/2/2 597/2/2 604/2/2
f 598/2/2 599/2/2 605/2/2
f 604/1/2 598/1/2 605/1/2
f 605/2/2 599/2/2 606/2/2
f 602/1/2 603/1/2 607/1/2
f 603/1/2 604/1/2 607/1/2
f 604/2/2 605/2/2 608/2/2
f 607/1/2 604/1/2 608/1/2
f 605/1/2 606/1/2 609/1/2
f 608/2/2 605/2/2 609/2/2
f 609/1/2 606/1/2 610/1/2
f 615/6/3 612/6/3 611/6/3
f 615/5/3 613/5/3 612/5/3
f 616/6/3 614/6/3 613/6/3
f 616/5/3 613/5/3 615/5/3
f 617/6/3 615/6/3 611/6/3
f 617/6/3 616/6/3 615/6/3
f 618/6/3 614/6/3 616/6/3
f 618/6/3 616/6/3 617/6/3
f 625/6/3 620/6/3 619/6/3
f 626/5/3 621/5/3 620/5/3
f 626/6/3 620/6/3 625/6/3
f 627/5/3 621/5/3 626/5/3
f 628/6/3 622/6/3 621/6/3
f 628/5/3 621/5/3 627/5/3
f 629/5/3 623/5/3 622/5/3
f 629/6/3 622/6/3 628/6/3
f 630/5/3 623/5/3 629/5/3
f 632/6/3 625/6/3 624/6/3
f 632/6/3 626/6/3 625/6/3
f 633/6/3 626/6/3 632/6/3
f 634/5/3 631/5/3 630/5/3
f 634/6/3 630/6/3 629/6/3
f 635/5/3 631/5/3 634/5/3
f 636/5/3 633/5/3 632/5/3
f 637/5/3 633/5/3 636/5/3
f 638/5/3 633/5/3 637/5/3
f 640/6/3 634/6/3 629/6/3
f 640/6/3 635/6/3 634/6/3
f 641/6/3 635/6/3 640/6/3
f 642/6/3 635/6/3 641/6/3
f 643/6/3 638/6/3 637/6/3
f 644/5/3 639/5/3 638/5/3
f 644/6/3 638/6/3 643/6/3
f 645/6/3 640/6/3 639/6/3
f 645/5/3 639/5/3 644/5/3
f 646/5/3 641/5/3 640/5/3
f 646/6/3 640/6/3 645/6/3
f 647/5/3 641/5/3 646/5/3
f 652/5/3 649/5/3 648/5/3
f 653/6/3 650/6/3 649/6/3
f 653/5/3 649/5/3 652/5/3
f 654/6/3 650/6/3 653/6/3
f 655/6/3 650/6/3 654/6/3
f 656/6/3 650/6/3 655/6/3
f 659/6/3 652/6/3 651/6/3
f 660/6/3 652/6/3 659/6/3
f 661/6/3 657/6/3 656/6/3
f 662/6/3 657/6/3 661/6/3
f 664/5/3 659/5/3 658/5/3
f 665/5/3 659/5/3 664/5/3
f 666/6/3 663/6/3 662/6/3
f 667/6/3 665/6/3 664/6/3
f 668/6/3 665/6/3 667/6/3
f 671/6/3 663/6/3 666/6/3
f 672/6/3 663/6/3 671/6/3
f 673/5/3 669/5/3 668/5/3
f 674/5/3 669/5/3 673/5/3
f 679/5/3 671/5/3 670/5/3
f 680/5/3 671/5/3 679/5/3
f 681/6/3 675/6/3 674/6/3
f 681/6/3 676/6/3 675/6/3
f 682/5/3 677/5/3 676/5/3
f 682/6/3 676/6/3 681/6/3
f 683/6/3 678/6/3 677/6/3
f 683/5/3 677/5/3 682/5/3
f 683/6/3 679/6/3 678/6/3
f 684/6/3 679/6/3 683/6/3
f 689/4/3 686/4/3 685/4/3
f 690/3/3 687/3/3 686/3/3
f 690/4/3 686/4/3 689/4/3
f 691/4/3 688/4/3 687/4/3
f 691/3/3 687/3/3 690/3/3
f 694/4/3 688/4/3 691/4/3
f 695/4/3 688/4/3 694/4/3
f 696/4/3 693/4/3 692/4/3
f 697/4/3 693/4/3 696/4/3
f 701/4/3 699/4/3 698/4/3
f 702/4/3 699/4/3 701/4/3
f 703/4/3 701/4/3 700/4/3
f 704/4/3 701/4/3 703/4/3
f 708/4/3 706/4/3 705/4/3
f 709/3/3 707/3/3 706/3/3
f 709/4/3 706/4/3 708/4/3
f 710/3/3 707/3/3 709/3/3
f 712/4/3 709/4/3 708/4/3
f 713/4/3 709/4/3 712/4/3
f 714/3/3 711/3/3 710/3/3
f 715/3/3 711/3/3 714/3/3
f 716/4/3 714/4/3 713/4/3
f 717/4/3 714/4/3 716/4/3
f 720/4/3 719/4/3 718/4/3
f 721/4/3 719/4/3 720/4/3
f 724/4/3 722/4/3 721/4/3
f 725/4/3 722/4/3 724/4/3
f 726/4/3 724/4/3 723/4/3
f 727/4/3 724/4/3 726/4/3
f 730/4/3 729/4/3 728/4/3
f 731/4/3 729/4/3 730/4/3
f 734/4/3 732/4/3 731/4/3
f 735/4/3 732/4/3 734/4/3
f 736/4/3 734/4/3 733/4/3
f 737/4/3 734/4/3 736/4/3
f 740/4/3 739/4/3 738/4/3
f 741/4/3 739/4/3 740/4/3
f 742/4/3 739/4/3 741/4/3
f 745/3/3 744/3/3 743/3/3
f 746/3/3 744/3/3 745/3/3
f 749/4/3 748/4/3 747/4/3
f 750/4/3 748/4/3 749/4/3
f 754/3/3 752/3/3 751/3/3
f 755/4/3 753/4/3 752/4/3
f 755/3/3 752/3/3 754/3/3
f 756/4/3 753/4/3 755/4/3
f 759/4/3 758/4/3 757/4/3
f 760/4/3 758/4/3 759/4/3
f 763/4/3 762/4/3 761/4/3
f 764/4/3 762/4/3 763/4/3
f 768/2/3 766/2/3 765/2/3
f 769/2/3 766/2/3 768/2/3
f 771/2/3 768/2/3 767/2/3
f 772/2/3 768/2/3 771/2/3
f 773/2/3 770/2/3 769/2/3
f 774/2/3 770/2/3 773/2/3
f 779/2/3 775/2/3 774/2/3
f 780/2/3 775/2/3 779/2/3
f 781/2/3 777/2/3 776/2/3
f 782/2/3 777/2/3 781/2/3
f 783/2/3 779/2/3 778/2/3
f 784/2/3 779/2/3 783/2/3
f 785/2/3 783/2/3 782/2/3
f 786/1/3 784/1/3 783/1/3
f 786/2/3 783/2/3 785/2/3
f 787/1/3 784/1/3 786/1/3
f 792/1/3 789/1/3 788/1/3
f 793/1/3 789/1/3 792/1/3
f 796/1/3 791/1/3 790/1/3
f 797/1/3 791/1/3 796/1/3
f 798/2/3 793/2/3 792/2/3
f 799/1/3 794/1/3 793/1/3
f 799/2/3 793/2/3 798/2/3
f 800/1/3 794/1/3 799/1/3
f 801/1/3 796/1/3 795/1/3
f 802/1/3 796/1/3 801/1/3
f 803/2/3 800/2/3 799/2/3
f 804/2/3 800/2/3 803/2/3
f 805/2/3 802/2/3 801/2/3
f 808/2/3 805/2/3 801/2/3
f 809/2/3 805/2/3 808/2/3
f 811/2/3 807/2/3 806/2/3
f 812/2/3 807/2/3 811/2/3
f 813/1/3 809/1/3 808/1/3
f 814/2/3 810/2/3 809/2/3
f 814/1/3 809/1/3 813/1/3
f 815/2/3 810/2/3 814/2/3
f 817/1/3 816/1/3 815/1/3
f 817/1/3 815/1/3 814/1/3
f 818/1/3 816/1/3 817/1/3
f 823/1/3 820/1/3 819/1/3
f 824/1/3 820/1/3 823/1/3
f 825/2/3 822/2/3 821/2/3
f 826/2/3 822/2/3 825/2/3
f 831/2/3 830/2/3 829/2/3
f 832/2/3 830/2/3 831/2/3
f 833/2/3 828/2/3 827/2/3
f 834/2/3 828/2/3 833/2/3
f 837/1/3 836/1/3 835/1/3
f 838/1/3 836/1/3 837/1/3
f 841/2/3 840/2/3 839/2/3
f 842/2/3 840/2/3 841/2/3
f 848/2/3 844/2/3 843/2/3
f 849/2/3 844/2/3 848/2/3
f 850/1/3 846/1/3 845/1/3
f 851/1/3 846/1/3 850/1/3
f 852/2/3 848/2/3 847/2/3
f 853/2/3 848/2/3 852/2/3
f 856/1/3 855/1/3 854/1/3
f 857/1/3 855/1/3 856/1/3
f 860/1/3 859/1/3 858/1/3
f 861/1/3 859/1/3 860/1/3
f 863/1/3 862/1/3 861/1/3
f 866/1/3 862/1/3 863/1/3
f 867/2/3 865/2/3 864/2/3
f 868/2/3 865/2/3 867/2/3
f 870/1/3 862/1/3 866/1/3
f 871/1/3 862/1/3 870/1/3
f 872/1/3 870/1/3 869/1/3
f 873/1/3 870/1/3 872/1/3
f 877/1/3 875/1/3 874/1/3
f 878/1/3 875/1/3 877/1/3
f 879/2/3 877/2/3 876/2/3
f 880/2/3 879/2/3 876/2/3
f 881/2/3 879/2/3 880/2/3
f 884/1/3 883/1/3 882/1/3
f 885/1/3 883/1/3 884/1/3
f 887/1/3 886/1/3 885/1/3
f 888/1/3 886/1/3 887/1/3
f 889/5/4 890/5/4 893/5/4
f 890/6/4 891/6/4 894/6/4
f 893/5/4 890/5/4 894/5/4
f 894/6/4 891/6/4 895/6/4
f 895/6/4 891/6/4 896/6/4
f 892/6/4 893/6/4 899/6/4
f 899/6/4 893/6/4 900/6/4
f 896/6/4 897/6/4 901/6/4
f 901/6/4 897/6/4 902/6/4
f 898/5/4 899/5/4 904/5/4
f 904/5/4 899/5/4 905/5/4
f 904/6/4 905/6/4 906/6/4
f 906/6/4 905/6/4 907/6/4
f 902/6/4 903/6/4 910/6/4
f 910/6/4 903/6/4 911/6/4
f 907/5/4 908/5/4 912/5/4
f 912/5/4 908/5/4 913/5/4
f 909/5/4 910/5/4 916/5/4
f 916/5/4 910/5/4 917/5/4
f 913/6/4 914/6/4 918/6/4
f 914/5/4 915/5/4 919/5/4
f 918/6/4 914/6/4 919/6/4
f 915/6/4 916/6/4 920/6/4
f 919/5/4 915/5/4 920/5/4
f 920/6/4 916/6/4 921/6/4
f 922/6/4 923/6/4 927/6/4
f 927/6/4 923/6/4 928/6/4
f 924/5/4 925/5/4 929/5/4
f 929/5/4 925/5/4 930/5/4
f 926/5/4 927/5/4 932/5/4
f 932/5/4 927/5/4 933/5/4
f 932/6/4 933/6/4 934/6/4
f 934/6/4 933/6/4 935/6/4
f 930/6/4 931/6/4 938/6/4
f 938/6/4 931/6/4 939/6/4
f 935/6/4 936/6/4 940/6/4
f 940/6/4 936/6/4 941/6/4
f 937/6/4 938/6/4 942/6/4
f 942/6/4 938/6/4 943/6/4
f 944/5/4 945/5/4 948/5/4
f 945/6/4 946/6/4 949/6/4
f 948/5/4 945/5/4 949/5/4
f 949/6/4 946/6/4 950/6/4
f 947/5/4 948/5/4 952/5/4
f 952/5/4 948/5/4 953/5/4
f 950/6/4 951/6/4 956/6/4
f 952/6/4 953/6/4 957/6/4
f 957/6/4 953/6/4 958/6/4
f 954/6/4 955/6/4 959/6/4
f 959/6/4 955/6/4 960/6/4
f 956/6/4 951/6/4 961/6/4
f 961/6/4 951/6/4 962/6/4
f 959/6/4 960/6/4 963/6/4
f 960/6/4 961/6/4 963/6/4
f 958/6/4 959/6/4 963/6/4
f 963/6/4 961/6/4 964/6/4
f 965/4/4 966/4/4 968/4/4
f 966/4/4 967/4/4 968/4/4
f 968/4/4 967/4/4 969/4/4
f 965/4/4 968/4/4 971/4/4
f 971/4/4 968/4/4 972/4/4
f 969/4/4 970/4/4 973/4/4
f 973/4/4 970/4/4 974/4/4
f 975/4/4 976/4/4 979/4/4
f 979/4/4 976/4/4 980/4/4
f 977/4/4 978/4/4 981/4/4
f 981/4/4 978/4/4 982/4/4
f 981/4/4 982/4/4 985/4/4
f 985/4/4 982/4/4 986/4/4
f 983/4/4 984/4/4 987/4/4
f 987/4/4 984/4/4 988/4/4
f 989/3/4 990/3/4 991/3/4
f 991/3/4 990/3/4 992/3/4
f 991/4/4 992/4/4 993/4/4
f 993/4/4 992/4/4 994/4/4
f 995/4/4 996/4/4 998/4/4
f 996/3/4 997/3/4 999/3/4
f 998/4/4 996/4/4 999/4/4
f 999/3/4 997/3/4 1000/3/4
f 1001/4/4 1002/4/4 1005/4/4
f 1003/3/4 1004/3/4 1006/3/4
f 1006/3/4 1004/3/4 1007/3/4
f 1005/4/4 1002/4/4 1008/4/4
f 1008/4/4 1002/4/4 1009/4/4
f 1006/4/4 1007/4/4 1010/4/4
f 1007/4/4 1008/4/4 1010/4/4
f 1010/4/4 1008/4/4 1011/4/4
f 1012/4/4 1013/4/4 1016/4/4
f 1016/4/4 1013/4/4 1017/4/4
f 1014/4/4 1015/4/4 1018/4/4
f 1018/4/4 1015/4/4 1019/4/4
f 1019/3/4 1020/3/4 1022/3/4
f 1020/4/4 1021/4/4 1023/4/4
f 1022/3/4 1020/3/4 1023/3/4
f 1023/4/4 1021/4/4 1024/4/4
f 1025/4/4 1026/4/4 1027/4/4
f 1027/4/4 1026/4/4 1028/4/4
f 1029/4/4 1030/4/4 1031/4/4
f 1031/4/4 1030/4/4 1032/4/4
f 1033/4/4 1034/4/4 1035/4/4
f 1035/4/4 1034/4/4 1036/4/4
f 1037/3/4 1038/3/4 1040/3/4
f 1038/4/4 1039/4/4 1041/4/4
f 1040/3/4 1038/3/4 1041/3/4
f 1041/4/4 1039/4/4 1042/4/4
f 1043/4/4 1044/4/4 1045/4/4
f 1045/4/4 1044/4/4 1046/4/4
f 1047/1/4 1048/1/4 1049/1/4
f 1049/1/4 1048/1/4 1050/1/4
f 1051/2/4 1052/2/4 1054/2/4
f 1054/2/4 1052/2/4 1055/2/4
f 1053/2/4 1054/2/4 1056/2/4
f 1056/2/4 1054/2/4 1057/2/4
f 1057/2/4 1058/2/4 1059/2/4
f 1059/2/4 1058/2/4 1060/2/4
f 1061/2/4 1062/2/4 1063/2/4
f 1063/2/4 1062/2/4 1064/2/4
f 1065/2/4 1066/2/4 1069/2/4
f 1069/2/4 1066/2/4 1070/2/4
f 1067/2/4 1068/2/4 1071/2/4
f 1071/2/4 1068/2/4 1072/2/4
f 1073/1/4 1074/1/4 1075/1/4
f 1075/1/4 1074/1/4 1076/1/4
f 1076/2/4 1077/2/4 1078/2/4
f 1078/2/4 1077/2/4 1079/2/4
f 1080/1/4 1081/1/4 1084/1/4
f 1084/1/4 1081/1/4 1085/1/4
f 1082/2/4 1083/2/4 1086/2/4
f 1086/2/4 1083/2/4 1087/2/4
f 1087/2/4 1088/2/4 1089/2/4
f 1089/2/4 1088/2/4 1090/2/4
f 1091/1/4 1092/1/4 1093/1/4
f 1093/1/4 1092/1/4 1094/1/4
f 1095/1/4 1096/1/4 1099/1/4
f 1099/1/4 1096/1/4 1100/1/4
f 1097/2/4 1098/2/4 1102/2/4
f 1102/2/4 1098/2/4 1103/2/4
f 1101/2/4 1102/2/4 1104/2/4
f 1101/2/4 1104/2/4 1105/2/4
f 1105/2/4 1104/2/4 1106/2/4
f 1107/1/4 1108/1/4 1111/1/4
f 1111/1/4 1108/1/4 1112/1/4
f 1109/2/4 1110/2/4 1113/2/4
f 1113/2/4 1110/2/4 1114/2/4
f 1115/1/4 1116/1/4 1119/1/4
f 1119/1/4 1116/1/4 1120/1/4
f 1117/1/4 1118/1/4 1124/1/4
f 1124/1/4 1118/1/4 1125/1/4
f 1121/2/4 1122/2/4 1126/2/4
f 1126/2/4 1122/2/4 1127/2/4
f 1123/2/4 1124/2/4 1129/2/4
f 1127/2/4 1128/2/4 1130/2/4
f 1130/2/4 1128/2/4 1131/2/4
f 1123/2/4 1129/2/4 1132/2/4
f 1132/2/4 1129/2/4 1133/2/4
f 1134/1/4 1135/1/4 1139/1/4
f 1139/1/4 1135/1/4 1140/1/4
f 1136/1/4 1137/1/4 1141/1/4
f 1141/1/4 1137/1/4 1142/1/4
f 1138/1/4 1139/1/4 1145/1/4
f 1145/1/4 1139/1/4 1146/1/4
f 1142/1/4 1143/1/4 1147/1/4
f 1143/2/4 1144/2/4 1148/2/4
f 1147/1/4 1143/1/4 1148/1/4
f 1144/1/4 1145/1/4 1149/1/4
f 1148/2/4 1144/2/4 1149/2/4
f 1149/1/4 1145/1/4 1150/1/4
f 1151/2/4 1152/2/4 1156/2/4
f 1152/1/4 1153/1/4 1157/1/4
f 1156/2/4 1152/2/4 1157/2/4
f 1153/2/4 1154/2/4 1158/2/4
f 1157/1/4 1153/1/4 1158/1/4
f 1158/2/4 1154/2/4 1159/2/4
f 1156/2/4 1157/2/4 1161/2/4
f 1155/2/4 1156/2/4 1161/2/4
f 1161/2/4 1157/2/4 1162/2/4
f 1162/2/4 1157/2/4 1163/2/4
f 1159/2/4 1160/2/4 1164/2/4
f 1158/2/4 1159/2/4 1164/2/4
f 1164/2/4 1160/2/4 1165/2/4
f 1161/1/4 1162/1/4 1166/1/4
f 1166/1/4 1162/1/4 1167/1/4
f 1165/2/4 1160/2/4 1170/2/4
f 1170/2/4 1160/2/4 1171/2/4
f 1167/2/4 1168/2/4 1172/2/4
f 1166/2/4 1167/2/4 1172/2/4
f 1172/2/4 1168/2/4 1173/2/4
f 1173/2/4 1168/2/4 1174/2/4
f 1169/2/4 1170/2/4 1175/2/4
f 1170/1/4 1171/1/4 1176/1/4
f 1175/2/4 1170/2/4 1176/2/4
f 1176/1/4 1171/1/4 1177/1/4
f 1174/2/4 1175/2/4 1178/2/4
f 1173/2/4 1174/2/4 1178/2/4
f 1175/1/4 1176/1/4 1179/1/4
f 1178/2/4 1175/2/4 1179/2/4
f 1179/1/4 1176/1/4 1180/1/4
f 1184/5/5 1182/5/5 1181/5/5
f 1185/6/5 1183/6/5 1182/6/5
f 1185/5/5 1182/5/5 1184/5/5
f 1186/6/5 1183/6/5 1185/6/5
f 1191/6/5 1188/6/5 1187/6/5
f 1192/5/5 1189/5/5 1188/5/5
f 1192/6/5 1188/6/5 1191/6/5
f 1193/5/5 1189/5/5 1192/5/5
f 1195/6/5 1191/6/5 1190/6/5
f 1196/6/5 1191/6/5 1195/6/5
f 1198/5/5 1194/5/5 1193/5/5
f 1199/5/5 1194/5/5 1198/5/5
f 1200/5/5 1197/5/5 1196/5/5
f 1201/6/5 1198/6/5 1197/6/5
f 1201/5/5 1197/5/5 1200/5/5
f 1202/6/5 1198/6/5 1201/6/5
f 1208/6/5 1204/6/5 1203/6/5
f 1209/6/5 1204/6/5 1208/6/5
f 1210/6/5 1206/6/5 1205/6/5
f 1211/6/5 1206/6/5 1210/6/5
f 1213/5/5 1208/5/5 1207/5/5
f 1214/5/5 1208/5/5 1213/5/5
f 1217/6/5 1212/6/5 1211/6/5
f 1218/6/5 1212/6/5 1217/6/5
f 1219/6/5 1215/6/5 1214/6/5
f 1220/6/5 1215/6/5 1219/6/5
f 1222/6/5 1217/6/5 1216/6/5
f 1223/6/5 1217/6/5 1222/6/5
f 1224/5/5 1221/5/5 1220/5/5
f 1225/6/5 1222/6/5 1221/6/5
f 1225/5/5 1221/5/5 1224/5/5
f 1226/6/5 1222/6/5 1225/6/5
f 1229/6/5 1228/6/5 1227/6/5
f 1230/6/5 1228/6/5 1229/6/5
f 1231/6/5 1228/6/5 1230/6/5
f 1236/5/5 1233/5/5 1232/5/5
f 1237/5/5 1233/5/5 1236/5/5
f 1239/6/5 1235/6/5 1234/6/5
f 1240/6/5 1235/6/5 1239/6/5
f 1241/4/5 1238/4/5 1237/4/5
f 1241/4/5 1239/4/5 1238/4/5
f 1242/4/5 1239/4/5 1241/4/5
f 1247/4/5 1244/4/5 1243/4/5
f 1248/4/5 1244/4/5 1247/4/5
f 1249/4/5 1246/4/5 1245/4/5
f 1250/4/5 1246/4/5 1249/4/5
f 1254/4/5 1252/4/5 1251/4/5
f 1255/4/5 1252/4/5 1254/4/5
f 1257/4/5 1254/4/5 1253/4/5
f 1258/4/5 1254/4/5 1257/4/5
f 1259/3/5 1257/3/5 1256/3/5
f 1260/4/5 1258/4/5 1257/4/5
f 1260/3/5 1257/3/5 1259/3/5
f 1261/4/5 1258/4/5 1260/4/5
f 1264/2/5 1263/2/5 1262/2/5
f 1265/2/5 1263/2/5 1264/2/5
f 1270/4/5 1267/4/5 1266/4/5
f 1271/4/5 1269/4/5 1268/4/5
f 1271/4/5 1270/4/5 1269/4/5
f 1272/4/5 1270/4/5 1271/4/5
f 1273/4/5 1267/4/5 1270/4/5
f 1273/4/5 1270/4/5 1272/4/5
f 1274/3/5 1273/3/5 1272/3/5
f 1275/4/5 1267/4/5 1273/4/5
f 1275/3/5 1273/3/5 1274/3/5
f 1276/4/5 1267/4/5 1275/4/5
f 1280/2/5 1278/2/5 1277/2/5
f 1281/2/5 1278/2/5 1280/2/5
f 1282/2/5 1280/2/5 1279/2/5
f 1283/2/5 1278/2/5 1281/2/5
f 1284/2/5 1278/2/5 1283/2/5
f 1285/2/5 1282/2/5 1279/2/5
f 1285/2/5 1283/2/5 1282/2/5
f 1286/2/5 1283/2/5 1285/2/5
f 1289/2/5 1287/2/5 1286/2/5
f 1290/2/5 1287/2/5 1289/2/5
f 1291/2/5 1289/2/5 1288/2/5
f 1292/2/5 1289/2/5 1291/2/5
f 1295/4/5 1294/4/5 1293/4/5
f 1296/4/5 1294/4/5 1295/4/5
f 1299/4/5 1298/4/5 1297/4/5
f 1300/4/5 1298/4/5 1299/4/5
f 1306/1/5 1302/1/5 1301/1/5
f 1307/2/5 1303/2/5 1302/2/5
f 1307/1/5 1302/1/5 1306/1/5
f 1308/1/5 1304/1/5 1303/1/5
f 1308/2/5 1303/2/5 1307/2/5
f 1309/2/5 1307/2/5 1306/2/5
f 1309/2/5 1306/2/5 1305/2/5
f 1310/2/5 1307/2/5 1309/2/5
f 1311/1/5 1304/1/5 1308/1/5
f 1312/1/5 1304/1/5 1311/1/5
f 1315/2/5 1309/2/5 1305/2/5
f 1316/2/5 1309/2/5 1315/2/5
f 1318/1/5 1314/1/5 1313/1/5
f 1319/1/5 1314/1/5 1318/1/5
f 1321/2/5 1317/2/5 1316/2/5
f 1322/1/5 1318/1/5 1317/1/5
f 1322/2/5 1317/2/5 1321/2/5
f 1323/1/5 1318/1/5 1322/1/5
f 1326/1/5 1321/1/5 1320/1/5
f 1327/1/5 1321/1/5 1326/1/5
f 1329/2/5 1324/2/5 1323/2/5
f 1330/1/5 1325/1/5 1324/1/5
f 1330/2/5 1324/2/5 1329/2/5
f 1331/1/5 1325/1/5 1330/1/5
f 1332/2/5 1328/2/5 1327/2/5
f 1333/1/5 1329/1/5 1328/1/5
f 1333/2/5 1328/2/5 1332/2/5
f 1334/2/5 1330/2/5 1329/2/5
f 1334/1/5 1329/1/5 1333/1/5
f 1335/2/5 1330/2/5 1334/2/5
f 1338/4/5 1337/4/5 1336/4/5
f 1339/4/5 1337/4/5 1338/4/5
f 1344/3/5 1341/3/5 1340/3/5
f 1345/3/5 1341/3/5 1344/3/5
f 1346/4/5 1343/4/5 1342/4/5
f 1346/4/5 1344/4/5 1343/4/5
f 1347/4/5 1344/4/5 1346/4/5
f 1348/4/5 1344/4/5 1347/4/5
f 1349/3/5 1348/3/5 1347/3/5
f 1350/3/5 1348/3/5 1349/3/5
f 1351/4/5 1350/4/5 1349/4/5
f 1352/4/5 1350/4/5 1351/4/5
f 1354/3/5 1352/3/5 1351/3/5
f 1355/3/5 1354/3/5 1353/3/5
f 1356/3/5 1352/3/5 1354/3/5
f 1356/3/5 1354/3/5 1355/3/5
f 1357/3/5 1352/3/5 1356/3/5
f 1358/3/5 1352/3/5 1357/3/5
f 1360/4/5 1358/4/5 1357/4/5
f 1361/4/5 1358/4/5 1360/4/5
f 1364/2/5 1360/2/5 1359/2/5
f 1365/4/5 1361/4/5 1360/4/5
f 1365/2/5 1360/2/5 1364/2/5
f 1366/2/5 1362/2/5 1361/2/5
f 1366/4/5 1361/4/5 1365/4/5
f 1367/2/5 1362/2/5 1366/2/5
f 1370/1/5 1364/1/5 1363/1/5
f 1371/1/5 1364/1/5 1370/1/5
f 1372/1/5 1369/1/5 1368/1/5
f 1373/1/5 1369/1/5 1372/1/5
f 1375/2/5 1373/2/5 1372/2/5
f 1376/2/5 1373/2/5 1375/2/5
f 1377/1/5 1375/1/5 1374/1/5
f 1378/1/5 1375/1/5 1377/1/5
f 1381/2/5 1378/2/5 1377/2/5
f 1382/2/5 1380/2/5 1379/2/5
f 1383/2/5 1380/2/5 1382/2/5
f 1384/2/5 1378/2/5 1381/2/5
f 1385/2/5 1378/2/5 1384/2/5
f 1390/1/5 1386/1/5 1385/1/5
f 1391/1/5 1386/1/5 1390/1/5
f 1392/2/5 1388/2/5 1387/2/5
f 1393/2/5 1388/2/5 1392/2/5
f 1394/2/5 1390/2/5 1389/2/5
f 1395/2/5 1390/2/5 1394/2/5
f 1398/4/5 1397/4/5 1396/4/5
f 1399/4/5 1397/4/5 1398/4/5
f 1404/3/5 1401/3/5 1400/3/5
f 1405/3/5 1401/3/5 1404/3/5
f 1406/4/5 1403/4/5 1402/4/5
f 1407/4/5 1403/4/5 1406/4/5
f 1408/4/5 1405/4/5 1404/4/5
f 1409/4/5 1405/4/5 1408/4/5
f 1412/4/5 1411/4/5 1410/4/5
f 1413/4/5 1411/4/5 1412/4/5
f 1416/3/5 1413/3/5 1412/3/5
f 1417/3/5 1413/3/5 1416/3/5
f 1419/4/5 1415/4/5 1414/4/5
f 1420/4/5 1415/4/5 1419/4/5
f 1421/4/5 1417/4/5 1416/4/5
f 1422/4/5 1417/4/5 1421/4/5
f 1424/2/5 1419/2/5 1418/2/5
f 1425/2/5 1419/2/5 1424/2/5
f 1426/2/5 1423/2/5 1422/2/5
f 1427/2/5 1423/2/5 1426/2/5
f 1430/1/5 1429/1/5 1428/1/5
f 1431/1/5 1429/1/5 1430/1/5
f 1434/2/5 1431/2/5 1430/2/5
f 1435/2/5 1431/2/5 1434/2/5
f 1436/1/5 1433/1/5 1432/1/5
f 1437/1/5 1433/1/5 1436/1/5
f 1438/1/5 1435/1/5 1434/1/5
f 1439/2/5 1437/2/5 1436/2/5
f 1440/2/5 1437/2/5 1439/2/5
f 1441/1/5 1440/1/5 1439/1/5
f 1442/1/5 1440/1/5 1441/1/5
f 1443/1/5 1438/1/5 1434/1/5
f 1444/1/5 1438/1/5 1443/1/5
f 1447/4/5 1446/4/5 1445/4/5
f 1448/4/5 1446/4/5 1447/4/5
f 1451/1/5 1450/1/5 1449/1/5
f 1452/1/5 1450/1/5 1451/1/5
f 1454/2/5 1448/2/5 1447/2/5
f 1455/2/5 1448/2/5 1454/2/5
f 1457/2/5 1456/2/5 1455/2/5
f 1457/2/5 1454/2/5 1453/2/5
f 1457/2/5 1455/2/5 1454/2/5
f 1458/2/5 1456/2/5 1457/2/5
f 1459/2/5 1456/2/5 1458/2/5
f 1460/2/5 1457/2/5 1453/2/5
f 1461/2/5 1457/2/5 1460/2/5
f 1462/1/5 1459/1/5 1458/1/5
f 1463/1/5 1459/1/5 1462/1/5
f 1464/2/5 1457/2/5 1461/2/5
f 1465/2/5 1457/2/5 1464/2/5
f 1466/2/5 1457/2/5 1465/2/5
f 1467/2/5 1463/2/5 1462/2/5
f 1468/2/5 1463/2/5 1467/2/5
f 1471/2/5 1470/2/5 1469/2/5
f 1472/2/5 1470/2/5 1471/2/5
f 1473/1/5 1472/1/5 1471/1/5
f 1474/1/5 1472/1/5 1473/1/5
f 1475/2/5 1474/2/5 1473/2/5
f 1476/2/5 1474/2/5 1475/2/5
f 1477/4/6 1478/4/6 1479/4/6
f 1479/4/6 1478/4/6 1480/4/6
f 1481/4/6 1482/4/6 1483/4/6
f 1483/4/6 1482/4/6 1484/4/6
f 1485/6/6 1486/6/6 1487/6/6
f 1487/6/6 1486/6/6 1488/6/6
f 1489/6/6 1490/6/6 1493/6/6
f 1493/6/6 1490/6/6 1494/6/6
f 1491/6/6 1492/6/6 1496/6/6
f 1496/6/6 1492/6/6 1497/6/6
f 1494/3/6 1495/3/6 1498/3/6
f 1495/4/6 1496/4/6 1499/4/6
f 1498/3/6 1495/3/6 1499/3/6
f 1499/4/6 1496/4/6 1500/4/6
f 1501/3/6 1502/3/6 1504/3/6
f 1502/4/6 1503/4/6 1505/4/6
f 1504/3/6 1502/3/6 1505/3/6
f 1505/4/6 1503/4/6 1506/4/6
f 1507/5/6 1508/5/6 1512/5/6
f 1512/5/6 1508/5/6 1513/5/6
f 1509/5/6 1510/5/6 1514/5/6
f 1514/5/6 1510/5/6 1515/5/6
f 1511/6/6 1512/6/6 1517/6/6
f 1517/6/6 1512/6/6 1518/6/6
f 1515/6/6 1516/6/6 1521/6/6
f 1521/6/6 1516/6/6 1522/6/6
f 1518/5/6 1519/5/6 1523/5/6
f 1523/5/6 1519/5/6 1524/5/6
f 1520/6/6 1521/6/6 1525/6/6
f 1525/6/6 1521/6/6 1526/6/6
f 1524/6/6 1525/6/6 1527/6/6
f 1527/6/6 1525/6/6 1528/6/6
f 1529/4/6 1530/4/6 1531/4/6
f 1531/4/6 1530/4/6 1532/4/6
f 1532/4/6 1530/4/6 1533/4/6
f 1533/4/6 1534/4/6 1535/4/6
f 1535/4/6 1534/4/6 1536/4/6
f 1537/5/6 1538/5/6 1541/5/6
f 1538/6/6 1539/6/6 1542/6/6
f 1541/5/6 1538/5/6 1542/5/6
f 1542/6/6 1539/6/6 1543/6/6
f 1540/6/6 1541/6/6 1545/6/6
f 1545/6/6 1541/6/6 1546/6/6
f 1543/5/6 1544/5/6 1547/5/6
f 1547/5/6 1544/5/6 1548/5/6
f 1546/6/6 1547/6/6 1549/6/6
f 1549/6/6 1547/6/6 1550/6/6
f 1551/4/6 1552/4/6 1554/4/6
f 1554/4/6 1552/4/6 1555/4/6
f 1553/3/6 1554/3/6 1557/3/6
f 1557/3/6 1554/3/6 1558/3/6
f 1555/4/6 1556/4/6 1559/4/6
f 1559/4/6 1556/4/6 1560/4/6
f 1561/4/6 1562/4/6 1563/4/6
f 1563/4/6 1562/4/6 1564/4/6
f 1565/2/6 1566/2/6 1567/2/6
f 1565/2/6 1567/2/6 1568/2/6
f 1568/2/6 1567/2/6 1569/2/6
f 1568/1/6 1569/1/6 1570/1/6
f 1568/1/6 1570/1/6 1571/1/6
f 1571/1/6 1570/1/6 1572/1/6
f 1571/2/6 1572/2/6 1573/2/6
f 1573/2/6 1572/2/6 1574/2/6
f 1573/1/6 1574/1/6 1575/1/6
f 1575/1/6 1574/1/6 1576/1/6
f 1577/6/6 1578/6/6 1579/6/6
f 1579/6/6 1578/6/6 1580/6/6
f 1581/3/6 1582/3/6 1584/3/6
f 1584/3/6 1582/3/6 1585/3/6
f 1583/4/6 1584/4/6 1587/4/6
f 1587/4/6 1584/4/6 1588/4/6
f 1585/4/6 1586/4/6 1589/4/6
f 1589/4/6 1586/4/6 1590/4/6
f 1591/4/6 1592/4/6 1593/4/6
f 1593/4/6 1592/4/6 1594/4/6
f 1595/4/6 1596/4/6 1597/4/6
f 1597/4/6 1596/4/6 1598/4/6
f 1597/4/6 1598/4/6 1599/4/6
f 1599/4/6 1598/4/6 1600/4/6
f 1599/2/6 1600/2/6 1602/2/6
f 1602/2/6 1600/2/6 1603/2/6
f 1603/2/6 1604/2/6 1605/2/6
f 1605/2/6 1604/2/6 1606/2/6
f 1601/2/6 1602/2/6 1607/2/6
f 1607/2/6 1602/2/6 1608/2/6
f 1605/1/6 1606/1/6 1609/1/6
f 1609/1/6 1606/1/6 1610/1/6
f 1608/2/6 1602/2/6 1611/2/6
f 1611/2/6 1602/2/6 1612/2/6
f 1612/2/6 1602/2/6 1613/2/6
f 1609/2/6 1610/2/6 1614/2/6
f 1614/2/6 1610/2/6 1615/2/6
f 1616/4/6 1617/4/6 1619/4/6
f 1619/4/6 1617/4/6 1620/4/6
f 1618/4/6 1619/4/6 1622/4/6
f 1622/4/6 1619/4/6 1623/4/6
f 1620/4/6 1621/4/6 1624/4/6
f 1624/4/6 1621/4/6 1625/4/6
f 1626/3/6 1627/3/6 1630/3/6
f 1630/3/6 1627/3/6 1631/3/6
f 1628/4/6 1629/4/6 1632/4/6
f 1632/4/6 1629/4/6 1633/4/6
f 1630/4/6 1631/4/6 1634/4/6
f 1634/4/6 1631/4/6 1635/4/6
f 1636/4/6 1637/4/6 1640/4/6
f 1640/4/6 1637/4/6 1641/4/6
f 1638/4/6 1639/4/6 1642/4/6
f 1642/4/6 1639/4/6 1643/4/6
f 1642/3/6 1643/3/6 1646/3/6
f 1646/3/6 1643/3/6 1647/3/6
f 1644/4/6 1645/4/6 1649/4/6
f 1649/4/6 1645/4/6 1650/4/6
f 1646/4/6 1647/4/6 1651/4/6
f 1651/4/6 1647/4/6 1652/4/6
f 1648/2/6 1649/2/6 1653/2/6
f 1653/2/6 1649/2/6 1654/2/6
f 1655/1/6 1656/1/6 1659/1/6
f 1659/1/6 1656/1/6 1660/1/6
f 1657/1/6 1658/1/6 1661/1/6
f 1661/1/6 1658/1/6 1662/1/6
f 1659/2/6 1660/2/6 1663/2/6
f 1663/2/6 1660/2/6 1664/2/6
f 1665/1/6 1666/1/6 1667/1/6
f 1665/1/6 1667/1/6 1668/1/6
f 1668/1/6 1667/1/6 1669/1/6
f 1670/4/6 1671/4/6 1672/4/6
f 1672/4/6 1671/4/6 1673/4/6
f 1672/3/6 1673/3/6 1674/3/6
f 1674/3/6 1673/3/6 1675/3/6
f 1674/4/6 1675/4/6 1676/4/6
f 1676/4/6 1675/4/6 1677/4/6
f 1676/3/6 1677/3/6 1678/3/6
f 1678/3/6 1677/3/6 1679/3/6
f 1678/4/6 1679/4/6 1681/4/6
f 1681/4/6 1679/4/6 1682/4/6
f 1680/2/6 1681/2/6 1687/2/6
f 1687/2/6 1681/2/6 1688/2/6
f 1682/2/6 1683/2/6 1689/2/6
f 1683/1/6 1684/1/6 1690/1/6
f 1689/2/6 1683/2/6 1690/2/6
f 1690/1/6 1684/1/6 1691/1/6
f 1685/1/6 1686/1/6 1692/1/6
f 1692/1/6 1686/1/6 1693/1/6
f 1690/2/6 1691/2/6 1694/2/6
f 1694/2/6 1691/2/6 1695/2/6
f 1696/2/6 1697/2/6 1701/2/6
f 1697/1/6 1698/1/6 1702/1/6
f 1701/2/6 1697/2/6 1702/2/6
f 1702/1/6 1698/1/6 1703/1/6
f 1699/1/6 1700/1/6 1705/1/6
f 1701/1/6 1702/1/6 1706/1/6
f 1702/2/6 1703/2/6 1707/2/6
f 1706/1/6 1702/1/6 1707/1/6
f 1707/2/6 1703/2/6 1708/2/6
f 1704/1/6 1705/1/6 1709/1/6
f 1705/1/6 1700/1/6 1710/1/6
f 1709/1/6 1705/1/6 1710/1/6
f 1710/1/6 1700/1/6 1711/1/6
f 1710/2/6 1711/2/6 1712/2/6
f 1712/2/6 1711/2/6 1713/2/6
f 1712/1/6 1713/1/6 1717/1/6
f 1717/1/6 1713/1/6 1718/1/6
f 1714/2/6 1715/2/6 1719/2/6
f 1719/2/6 1715/2/6 1720/2/6
f 1716/1/6 1717/1/6 1721/1/6
f 1721/1/6 1717/1/6 1722/1/6
f 1723/2/6 1724/2/6 1727/2/6
f 1727/2/6 1724/2/6 1728/2/6
f 1725/1/6 1726/1/6 1730/1/6
f 1728/2/6 1729/2/6 1731/2/6
f 1730/1/6 1726/1/6 1731/1/6
f 1726/2/6 1727/2/6 1731/2/6
f 1727/2/6 1728/2/6 1731/2/6
f 1731/2/6 1729/2/6 1732/2/6
f 1732/2/6 1729/2/6 1733/2/6
f 1733/2/6 1729/2/6 1734/2/6
f 1730/2/6 1731/2/6 1736/2/6
f 1731/2/6 1732/2/6 1736/2/6
f 1736/2/6 1732/2/6 1737/2/6
f 1737/2/6 1732/2/6 1738/2/6
f 1733/2/6 1734/2/6 1739/2/6
f 1734/1/6 1735/1/6 1740/1/6
f 1739/2/6 1734/2/6 1740/2/6
f 1738/2/6 1739/2/6 1742/2/6
f 1740/1/6 1735/1/6 1743/1/6
f 1739/1/6 1740/1/6 1743/1/6
f 1743/1/6 1735/1/6 1744/1/6
f 1741/1/6 1742/1/6 1746/1/6
f 1742/2/6 1739/2/6 1747/2/6
f 1746/1/6 1742/1/6 1747/1/6
f 1739/1/6 1743/1/6 1748/1/6
f 1747/2/6 1739/2/6 1748/2/6
f 1748/1/6 1743/1/6 1749/1/6
f 1745/1/6 1746/1/6 1751/1/6
f 1751/1/6 1746/1/6 1752/1/6
f 1751/2/6 1752/2/6 1755/2/6
f 1755/2/6 1752/2/6 1756/2/6
f 1753/1/6 1754/1/6 1757/1/6
f 1757/1/6 1754/1/6 1758/1/6
f 1749/1/6 1750/1/6 1759/1/6
f 1759/1/6 1750/1/6 1760/1/6
f 1757/2/6 1758/2/6 1761/2/6
f 1756/2/6 1757/2/6 1761/2/6
f 1758/1/6 1759/1/6 1762/1/6
f 1761/2/6 1758/2/6 1762/2/6
f 1762/1/6 1759/1/6 1763/1/6
f 1764/2/6 1765/2/6 1767/2/6
f 1767/2/6 1765/2/6 1768/2/6
f 1766/1/6 1767/1/6 1769/1/6
f 1769/1/6 1767/1/6 1770/1/6
f 1771/1/6 1772/1/6 1773/1/6
f 1773/1/6 1772/1/6 1774/1/6
f 1774/1/6 1772/1/6 1775/1/6
f 1773/2/6 1774/2/6 1776/2/6
f 1776/2/6 1774/2/6 1777/2/6
f 1775/1/6 1772/1/6 1778/1/6
f 1778/1/6 1772/1/6 1779/1/6
