# MagicaVoxel @ Ephtracy

# group
o 

# material
mtllib krazer v.2.mtl
usemtl palette

# normals
vn -1 0 0
vn 1 0 0
vn 0 0 1
vn 0 0 -1
vn 0 -1 0
vn 0 1 0

# texcoords
vt 0.380859 0.5
vt 0.384766 0.5
vt 0.568359 0.5
vt 0.572266 0.5
vt 0.607422 0.5
vt 0.669922 0.5
vt 0.943359 0.5
vt 0.947266 0.5

# verts
v -1.1 0.8 0.7
v -1.1 0.8 0.5
v -1.1 0.8 0.4
v -1.1 0.8 0.3
v -1.1 0.8 0.2
v -1.1 0.8 0.1
v -1.1 0.9 0.7
v -1.1 0.9 0.5
v -1.1 0.9 0.4
v -1.1 0.9 0.3
v -1.1 0.9 0.2
v -1.1 0.9 0.1
v -1 0.8 0.8
v -1 0.8 0.7
v -1 0.9 0.8
v -1 0.9 0.7
v -0.8 0.8 0.9
v -0.8 0.8 0.8
v -0.8 0.9 0.9
v -0.8 0.9 0.8
v -0.4 0.8 0.4
v -0.4 0.8 0.3
v -0.4 0.9 0.4
v -0.4 0.9 0.3
v -0.3 0.8 0.5
v -0.3 0.8 0.4
v -0.3 0.9 0.5
v -0.3 0.9 0.4
v -0.2 0.7 0.6
v -0.2 0.7 0.4
v -0.2 0.7 0.3
v -0.2 0.7 0.2
v -0.2 0.7 0.1
v -0.2 0.7 -0.1
v -0.2 0.8 0.6
v -0.2 0.8 0.5
v -0.2 0.8 0.4
v -0.2 0.8 0.3
v -0.2 0.8 0.2
v -0.2 0.8 0.1
v -0.2 0.9 0.6
v -0.2 0.9 0.5
v -0.2 0.9 0.4
v -0.2 0.9 0.3
v -0.2 0.9 0.2
v -0.2 0.9 0.1
v -0.2 0.9 0
v -0.2 0.9 -0.1
v -0.2 1 0.6
v -0.2 1 0.5
v -0.2 1 0.4
v -0.2 1 0.3
v -0.2 1 0.2
v -0.2 1 0.1
v -0.2 1 0
v -0.2 1 -0.1
v -0.1 0.9 0.5
v -0.1 0.9 0.4
v -0.1 0.9 0.3
v -0.1 0.9 0.2
v -0.1 1 0.5
v -0.1 1 0.4
v -0.1 1 0.3
v -0.1 1 0.2
v 0 0.9 0.2
v 0 0.9 0.1
v 0 0.9 0
v 0 1 0.2
v 0 1 0
v 0.1 0.9 0.3
v 0.1 0.9 0.2
v 0.1 1 0.3
v 0.1 1 0.2
v 0.3 0.9 0.2
v 0.3 0.9 0.1
v 0.3 1 0.2
v 0.3 1 0.1
v 0.5 0.9 0.3
v 0.5 0.9 0.2
v 0.5 1 0.3
v 0.5 1 0.2
v 0.6 0.7 0.3
v 0.6 0.7 0.2
v 0.6 0.7 0.1
v 0.6 0.8 0.3
v 0.6 0.8 0.2
v 0.6 0.8 0.1
v 0.6 0.9 0.2
v 0.6 0.9 0.1
v 0.6 1 0.2
v 0.6 1 0.1
v 0.7 0.7 0.4
v 0.7 0.7 0.3
v 0.7 0.7 0.1
v 0.7 0.7 0
v 0.7 0.8 0.4
v 0.7 0.8 0.3
v 0.7 0.8 0.1
v 0.7 0.9 0.4
v 0.7 0.9 0.3
v 0.7 0.9 0.1
v 0.7 1 0.4
v 0.7 1 0.3
v 0.7 1 0.1
v 0.7 1 0
v 0.8 0.7 0.5
v 0.8 0.7 0.4
v 0.8 0.7 0
v 0.8 0.7 -0.1
v 0.8 0.8 0.4
v 0.8 0.8 0.3
v 0.8 0.8 0
v 0.8 0.8 -0.1
v 0.8 0.9 0.5
v 0.8 0.9 0.4
v 0.8 0.9 0.3
v 0.8 0.9 0.2
v 0.8 0.9 0.1
v 0.8 1 0.5
v 0.8 1 0.4
v 0.8 1 0.2
v 0.8 1 0.1
v 0.8 1 0
v 0.8 1 -0.1
v -0.9 0.8 0.5
v -0.9 0.8 0.3
v -0.9 0.9 0.5
v -0.9 0.9 0.3
v -0.8 0.8 0.6
v -0.8 0.8 0.5
v -0.8 0.9 0.6
v -0.8 0.9 0.5
v -0.7 0.8 0.8
v -0.7 0.8 0.6
v -0.7 0.9 0.8
v -0.7 0.9 0.6
v -0.6 0.8 0.9
v -0.6 0.8 0.8
v -0.6 0.9 0.9
v -0.6 0.9 0.8
v -0.1 0.7 0.6
v -0.1 0.7 0.5
v -0.1 0.7 0
v -0.1 0.7 -0.1
v -0.1 0.8 0.6
v -0.1 0.8 0.5
v -0.1 0.9 0.6
v -0.1 0.9 0.5
v -0.1 0.9 0.2
v -0.1 0.9 0.1
v -0.1 0.9 0
v -0.1 0.9 -0.1
v -0.1 1 0.6
v -0.1 1 0.5
v -0.1 1 0.2
v -0.1 1 0.1
v -0.1 1 0
v -0.1 1 -0.1
v 0 0.7 0.5
v 0 0.7 0.4
v 0 0.8 0.5
v 0 0.8 0.4
v 0 0.9 0.3
v 0 0.9 0.2
v 0 1 0.5
v 0 1 0.4
v 0 1 0.3
v 0 1 0.2
v 0.1 0.7 0.4
v 0.1 0.7 0.3
v 0.1 0.7 0.1
v 0.1 0.7 0
v 0.1 0.8 0.4
v 0.1 0.8 0.3
v 0.1 0.8 0.1
v 0.1 0.9 0.3
v 0.1 0.9 0.1
v 0.1 1 0.4
v 0.1 1 0.3
v 0.1 1 0.1
v 0.1 1 0
v 0.2 0.7 0.3
v 0.2 0.7 0.2
v 0.2 0.7 0.1
v 0.2 0.8 0.3
v 0.2 0.8 0.2
v 0.2 0.8 0.1
v 0.2 0.9 0.2
v 0.2 0.9 0.1
v 0.2 1 0.2
v 0.2 1 0.1
v 0.4 0.9 0.3
v 0.4 0.9 0.2
v 0.4 1 0.3
v 0.4 1 0.2
v 0.5 0.9 0.2
v 0.5 0.9 0.1
v 0.5 1 0.2
v 0.5 1 0.1
v 0.7 0.9 0.2
v 0.7 0.9 0.1
v 0.7 1 0.2
v 0.7 1 0.1
v 0.8 0.9 0.4
v 0.8 0.9 0.3
v 0.8 0.9 0.1
v 0.8 0.9 0
v 0.8 1 0.4
v 0.8 1 0.3
v 0.8 1 0.1
v 0.8 1 0
v 0.9 0.7 0.5
v 0.9 0.7 0.4
v 0.9 0.7 0.3
v 0.9 0.7 0.2
v 0.9 0.7 0.1
v 0.9 0.7 0
v 0.9 0.7 -0.1
v 0.9 0.8 0.2
v 0.9 0.8 0.1
v 0.9 0.8 0
v 0.9 0.8 -0.1
v 0.9 0.9 0.5
v 0.9 0.9 0.4
v 0.9 0.9 0.3
v 0.9 0.9 0.2
v 0.9 0.9 0.1
v 0.9 0.9 0
v 0.9 1 0.5
v 0.9 1 0.4
v 0.9 1 0.3
v 0.9 1 0.2
v 0.9 1 0.1
v 0.9 1 0
v 0.9 1 -0.1
v -0.8 0.8 0.9
v -0.8 0.9 0.9
v -0.6 0.8 0.9
v -0.6 0.9 0.9
v -1 0.8 0.8
v -1 0.9 0.8
v -0.8 0.8 0.8
v -0.8 0.9 0.8
v -1.1 0.8 0.7
v -1.1 0.9 0.7
v -1 0.8 0.7
v -1 0.9 0.7
v -0.2 0.7 0.6
v -0.2 0.8 0.6
v -0.2 0.9 0.6
v -0.2 1 0.6
v -0.1 0.7 0.6
v -0.1 0.8 0.6
v -0.1 0.9 0.6
v -0.1 1 0.6
v -0.3 0.8 0.5
v -0.3 0.9 0.5
v -0.2 0.8 0.5
v -0.2 0.9 0.5
v -0.1 0.7 0.5
v -0.1 0.8 0.5
v -0.1 0.9 0.5
v -0.1 1 0.5
v 0 0.7 0.5
v 0 0.8 0.5
v 0 1 0.5
v 0.8 0.7 0.5
v 0.8 0.9 0.5
v 0.8 1 0.5
v 0.9 0.7 0.5
v 0.9 0.9 0.5
v 0.9 1 0.5
v -0.4 0.8 0.4
v -0.4 0.9 0.4
v -0.3 0.8 0.4
v -0.3 0.9 0.4
v -0.2 0.9 0.4
v -0.2 1 0.4
v -0.1 0.9 0.4
v -0.1 1 0.4
v 0 0.7 0.4
v 0 0.8 0.4
v 0 1 0.4
v 0.1 0.7 0.4
v 0.1 0.8 0.4
v 0.1 1 0.4
v 0.7 0.7 0.4
v 0.7 0.8 0.4
v 0.7 0.9 0.4
v 0.7 1 0.4
v 0.8 0.7 0.4
v 0.8 0.8 0.4
v 0.8 0.9 0.4
v 0.8 1 0.4
v -0.9 0.8 0.3
v -0.9 0.9 0.3
v -0.8 0.8 0.3
v -0.8 0.9 0.3
v -0.7 0.8 0.3
v -0.7 0.9 0.3
v -0.6 0.8 0.3
v -0.6 0.9 0.3
v -0.5 0.8 0.3
v -0.5 0.9 0.3
v -0.4 0.8 0.3
v -0.4 0.9 0.3
v 0.1 0.7 0.3
v 0.1 0.8 0.3
v 0.1 0.9 0.3
v 0.1 1 0.3
v 0.2 0.7 0.3
v 0.2 0.8 0.3
v 0.2 0.9 0.3
v 0.2 1 0.3
v 0.3 0.8 0.3
v 0.3 0.9 0.3
v 0.4 0.8 0.3
v 0.4 0.9 0.3
v 0.4 1 0.3
v 0.5 0.8 0.3
v 0.5 0.9 0.3
v 0.5 1 0.3
v 0.6 0.7 0.3
v 0.6 0.8 0.3
v 0.6 0.9 0.3
v 0.6 1 0.3
v 0.7 0.7 0.3
v 0.7 0.8 0.3
v 0.7 0.9 0.3
v 0.7 1 0.3
v 0.8 0.8 0.3
v 0.8 0.9 0.3
v 0.8 1 0.3
v 0.9 0.9 0.3
v 0.9 1 0.3
v -0.2 0.9 0.2
v -0.2 1 0.2
v -0.1 0.9 0.2
v -0.1 1 0.2
v 0 0.9 0.2
v 0 1 0.2
v 0.1 0.9 0.2
v 0.1 1 0.2
v 0.4 0.9 0.2
v 0.4 1 0.2
v 0.5 0.9 0.2
v 0.5 1 0.2
v 0.7 0.9 0.1
v 0.7 1 0.1
v 0.8 0.9 0.1
v 0.8 1 0.1
v -0.2 0.9 0
v -0.2 1 0
v -0.1 0.9 0
v -0.1 1 0
v 0.8 0.9 0
v 0.8 1 0
v 0.9 0.9 0
v 0.9 1 0
v -0.7 0.8 0.8
v -0.7 0.9 0.8
v -0.6 0.8 0.8
v -0.6 0.9 0.8
v -0.8 0.8 0.6
v -0.8 0.9 0.6
v -0.7 0.8 0.6
v -0.7 0.9 0.6
v -0.9 0.8 0.5
v -0.9 0.9 0.5
v -0.8 0.8 0.5
v -0.8 0.9 0.5
v -0.2 0.9 0.5
v -0.2 1 0.5
v -0.1 0.9 0.5
v -0.1 1 0.5
v 0.8 0.9 0.4
v 0.8 1 0.4
v 0.9 0.9 0.4
v 0.9 1 0.4
v -0.2 0.9 0.3
v -0.2 1 0.3
v -0.1 0.9 0.3
v -0.1 1 0.3
v 0 0.9 0.3
v 0 1 0.3
v 0.1 0.9 0.3
v 0.1 1 0.3
v -0.1 0.9 0.2
v -0.1 1 0.2
v 0 0.9 0.2
v 0 1 0.2
v 0.2 0.9 0.2
v 0.2 1 0.2
v 0.3 0.9 0.2
v 0.3 1 0.2
v 0.5 0.9 0.2
v 0.5 1 0.2
v 0.6 0.9 0.2
v 0.6 1 0.2
v 0.7 0.9 0.2
v 0.7 1 0.2
v 0.8 0.9 0.2
v 0.8 1 0.2
v -1.1 0.8 0.1
v -1.1 0.9 0.1
v -1 0.8 0.1
v -1 0.9 0.1
v -0.9 0.8 0.1
v -0.9 0.9 0.1
v -0.8 0.8 0.1
v -0.8 0.9 0.1
v -0.7 0.8 0.1
v -0.7 0.9 0.1
v -0.5 0.8 0.1
v -0.5 0.9 0.1
v -0.4 0.8 0.1
v -0.4 0.9 0.1
v -0.2 0.8 0.1
v -0.2 0.9 0.1
v -0.2 1 0.1
v -0.1 0.9 0.1
v -0.1 1 0.1
v 0.1 0.7 0.1
v 0.1 0.8 0.1
v 0.1 0.9 0.1
v 0.1 1 0.1
v 0.2 0.7 0.1
v 0.2 0.8 0.1
v 0.2 0.9 0.1
v 0.2 1 0.1
v 0.3 0.9 0.1
v 0.3 1 0.1
v 0.4 0.8 0.1
v 0.4 0.9 0.1
v 0.5 0.8 0.1
v 0.5 0.9 0.1
v 0.5 1 0.1
v 0.6 0.7 0.1
v 0.6 0.8 0.1
v 0.6 0.9 0.1
v 0.6 1 0.1
v 0.7 0.7 0.1
v 0.7 0.8 0.1
v 0.7 0.9 0.1
v 0.7 1 0.1
v 0.8 0.9 0.1
v 0.8 1 0.1
v 0.9 0.9 0.1
v 0.9 1 0.1
v -0.1 0.7 0
v -0.1 0.9 0
v 0 0.7 0
v 0 0.9 0
v 0 1 0
v 0.1 0.7 0
v 0.1 1 0
v 0.7 0.7 0
v 0.7 1 0
v 0.8 0.7 0
v 0.8 0.8 0
v 0.8 1 0
v -0.2 0.7 -0.1
v -0.2 0.9 -0.1
v -0.2 1 -0.1
v -0.1 0.7 -0.1
v -0.1 0.9 -0.1
v -0.1 1 -0.1
v 0.8 0.7 -0.1
v 0.8 0.8 -0.1
v 0.8 1 -0.1
v 0.9 0.7 -0.1
v 0.9 0.8 -0.1
v 0.9 1 -0.1
v -0.2 0.7 0.6
v -0.1 0.7 0.6
v -0.1 0.7 0.5
v 0 0.7 0.5
v 0.8 0.7 0.5
v 0.9 0.7 0.5
v -0.2 0.7 0.4
v -0.1 0.7 0.4
v 0 0.7 0.4
v 0.1 0.7 0.4
v 0.7 0.7 0.4
v 0.8 0.7 0.4
v 0.9 0.7 0.4
v -0.2 0.7 0.3
v -0.1 0.7 0.3
v 0 0.7 0.3
v 0.1 0.7 0.3
v 0.2 0.7 0.3
v 0.6 0.7 0.3
v 0.7 0.7 0.3
v 0.8 0.7 0.3
v 0.9 0.7 0.3
v -0.2 0.7 0.2
v -0.1 0.7 0.2
v 0 0.7 0.2
v 0.1 0.7 0.2
v 0.2 0.7 0.2
v 0.6 0.7 0.2
v 0.7 0.7 0.2
v 0.8 0.7 0.2
v 0.9 0.7 0.2
v -0.2 0.7 0.1
v -0.1 0.7 0.1
v 0 0.7 0.1
v 0.1 0.7 0.1
v 0.2 0.7 0.1
v 0.6 0.7 0.1
v 0.7 0.7 0.1
v 0.8 0.7 0.1
v 0.9 0.7 0.1
v -0.1 0.7 0
v 0 0.7 0
v 0.1 0.7 0
v 0.7 0.7 0
v 0.8 0.7 0
v 0.9 0.7 0
v -0.2 0.7 -0.1
v -0.1 0.7 -0.1
v 0.8 0.7 -0.1
v 0.9 0.7 -0.1
v -0.8 0.8 0.9
v -0.6 0.8 0.9
v -1 0.8 0.8
v -0.8 0.8 0.8
v -0.7 0.8 0.8
v -0.6 0.8 0.8
v -1.1 0.8 0.7
v -1 0.8 0.7
v -0.8 0.8 0.7
v -0.8 0.8 0.6
v -0.7 0.8 0.6
v -1.1 0.8 0.5
v -1 0.8 0.5
v -0.9 0.8 0.5
v -0.8 0.8 0.5
v -0.3 0.8 0.5
v -0.2 0.8 0.5
v -1.1 0.8 0.4
v -1 0.8 0.4
v -0.4 0.8 0.4
v -0.3 0.8 0.4
v -0.2 0.8 0.4
v -1.1 0.8 0.3
v -1 0.8 0.3
v -0.9 0.8 0.3
v -0.8 0.8 0.3
v -0.7 0.8 0.3
v -0.6 0.8 0.3
v -0.5 0.8 0.3
v -0.4 0.8 0.3
v -0.2 0.8 0.3
v 0.2 0.8 0.3
v 0.3 0.8 0.3
v 0.4 0.8 0.3
v 0.5 0.8 0.3
v 0.6 0.8 0.3
v -1.1 0.8 0.2
v -1 0.8 0.2
v -0.9 0.8 0.2
v -0.6 0.8 0.2
v -0.5 0.8 0.2
v -0.4 0.8 0.2
v -0.3 0.8 0.2
v -0.2 0.8 0.2
v 0.2 0.8 0.2
v 0.3 0.8 0.2
v 0.4 0.8 0.2
v 0.5 0.8 0.2
v 0.6 0.8 0.2
v -1.1 0.8 0.1
v -1 0.8 0.1
v -0.9 0.8 0.1
v -0.8 0.8 0.1
v -0.7 0.8 0.1
v -0.5 0.8 0.1
v -0.4 0.8 0.1
v -0.2 0.8 0.1
v 0.2 0.8 0.1
v 0.4 0.8 0.1
v 0.5 0.8 0.1
v 0.6 0.8 0.1
v 0.7 0.9 0.4
v 0.8 0.9 0.4
v 0.7 0.9 0.3
v 0.8 0.9 0.3
v 0.7 0.8 0.4
v 0.8 0.8 0.4
v 0.7 0.8 0.3
v 0.8 0.8 0.3
v -0.8 0.9 0.9
v -0.6 0.9 0.9
v -1 0.9 0.8
v -0.8 0.9 0.8
v -0.7 0.9 0.8
v -0.6 0.9 0.8
v -1.1 0.9 0.7
v -1 0.9 0.7
v -0.8 0.9 0.7
v -0.8 0.9 0.6
v -0.7 0.9 0.6
v -1.1 0.9 0.5
v -1 0.9 0.5
v -0.9 0.9 0.5
v -0.8 0.9 0.5
v -0.3 0.9 0.5
v -0.2 0.9 0.5
v -0.1 0.9 0.5
v -1.1 0.9 0.4
v -1 0.9 0.4
v -0.4 0.9 0.4
v -0.3 0.9 0.4
v -0.2 0.9 0.4
v -0.1 0.9 0.4
v 0.8 0.9 0.4
v 0.9 0.9 0.4
v -1.1 0.9 0.3
v -1 0.9 0.3
v -0.9 0.9 0.3
v -0.8 0.9 0.3
v -0.7 0.9 0.3
v -0.6 0.9 0.3
v -0.5 0.9 0.3
v -0.4 0.9 0.3
v -0.2 0.9 0.3
v -0.1 0.9 0.3
v 0 0.9 0.3
v 0.1 0.9 0.3
v 0.4 0.9 0.3
v 0.5 0.9 0.3
v 0.8 0.9 0.3
v 0.9 0.9 0.3
v -1.1 0.9 0.2
v -1 0.9 0.2
v -0.9 0.9 0.2
v -0.6 0.9 0.2
v -0.5 0.9 0.2
v -0.4 0.9 0.2
v -0.3 0.9 0.2
v -0.2 0.9 0.2
v -0.1 0.9 0.2
v 0 0.9 0.2
v 0.1 0.9 0.2
v 0.2 0.9 0.2
v 0.3 0.9 0.2
v 0.4 0.9 0.2
v 0.5 0.9 0.2
v 0.6 0.9 0.2
v 0.7 0.9 0.2
v 0.8 0.9 0.2
v -1.1 0.9 0.1
v -1 0.9 0.1
v -0.9 0.9 0.1
v -0.8 0.9 0.1
v -0.7 0.9 0.1
v -0.5 0.9 0.1
v -0.4 0.9 0.1
v -0.2 0.9 0.1
v -0.1 0.9 0.1
v 0 0.9 0.1
v 0.2 0.9 0.1
v 0.3 0.9 0.1
v 0.5 0.9 0.1
v 0.6 0.9 0.1
v 0.7 0.9 0.1
v 0.8 0.9 0.1
v 0.9 0.9 0.1
v -0.2 0.9 0
v -0.1 0.9 0
v 0 0.9 0
v 0.8 0.9 0
v 0.9 0.9 0
v -0.2 1 0.6
v -0.1 1 0.6
v -0.2 1 0.5
v -0.1 1 0.5
v 0 1 0.5
v 0.8 1 0.5
v 0.9 1 0.5
v -0.2 1 0.4
v -0.1 1 0.4
v 0 1 0.4
v 0.1 1 0.4
v 0.7 1 0.4
v 0.8 1 0.4
v 0.9 1 0.4
v -0.2 1 0.3
v -0.1 1 0.3
v 0 1 0.3
v 0.1 1 0.3
v 0.2 1 0.3
v 0.4 1 0.3
v 0.5 1 0.3
v 0.6 1 0.3
v 0.7 1 0.3
v 0.8 1 0.3
v 0.9 1 0.3
v -0.2 1 0.2
v -0.1 1 0.2
v 0 1 0.2
v 0.1 1 0.2
v 0.2 1 0.2
v 0.3 1 0.2
v 0.4 1 0.2
v 0.5 1 0.2
v 0.6 1 0.2
v 0.7 1 0.2
v 0.8 1 0.2
v 0.9 1 0.2
v -0.2 1 0.1
v -0.1 1 0.1
v 0.1 1 0.1
v 0.2 1 0.1
v 0.3 1 0.1
v 0.5 1 0.1
v 0.6 1 0.1
v 0.7 1 0.1
v 0.8 1 0.1
v 0.9 1 0.1
v -0.2 1 0
v -0.1 1 0
v 0 1 0
v 0.1 1 0
v 0.7 1 0
v 0.8 1 0
v 0.9 1 0
v -0.2 1 -0.1
v -0.1 1 -0.1
v 0.8 1 -0.1
v 0.9 1 -0.1

# faces
f 7/8/1 2/8/1 1/8/1
f 8/7/1 3/7/1 2/7/1
f 8/8/1 2/8/1 7/8/1
f 9/8/1 4/8/1 3/8/1
f 9/7/1 3/7/1 8/7/1
f 10/7/1 5/7/1 4/7/1
f 10/8/1 4/8/1 9/8/1
f 11/8/1 6/8/1 5/8/1
f 11/7/1 5/7/1 10/7/1
f 12/8/1 6/8/1 11/8/1
f 15/8/1 14/8/1 13/8/1
f 16/8/1 14/8/1 15/8/1
f 19/8/1 18/8/1 17/8/1
f 20/8/1 18/8/1 19/8/1
f 23/7/1 22/7/1 21/7/1
f 24/7/1 22/7/1 23/7/1
f 27/7/1 26/7/1 25/7/1
f 28/7/1 26/7/1 27/7/1
f 35/4/1 30/4/1 29/4/1
f 36/4/1 30/4/1 35/4/1
f 37/3/1 31/3/1 30/3/1
f 37/4/1 30/4/1 36/4/1
f 38/4/1 32/4/1 31/4/1
f 38/3/1 31/3/1 37/3/1
f 39/3/1 33/3/1 32/3/1
f 39/4/1 32/4/1 38/4/1
f 40/4/1 34/4/1 33/4/1
f 40/3/1 33/3/1 39/3/1
f 41/3/1 36/3/1 35/3/1
f 42/3/1 36/3/1 41/3/1
f 46/4/1 34/4/1 40/4/1
f 47/4/1 34/4/1 46/4/1
f 48/4/1 34/4/1 47/4/1
f 49/4/1 42/4/1 41/4/1
f 50/4/1 42/4/1 49/4/1
f 51/3/1 44/3/1 43/3/1
f 52/3/1 44/3/1 51/3/1
f 53/4/1 46/4/1 45/4/1
f 54/4/1 46/4/1 53/4/1
f 55/3/1 48/3/1 47/3/1
f 56/3/1 48/3/1 55/3/1
f 61/4/1 58/4/1 57/4/1
f 62/4/1 58/4/1 61/4/1
f 63/4/1 60/4/1 59/4/1
f 64/4/1 60/4/1 63/4/1
f 68/4/1 66/4/1 65/4/1
f 68/4/1 67/4/1 66/4/1
f 69/4/1 67/4/1 68/4/1
f 72/3/1 71/3/1 70/3/1
f 73/3/1 71/3/1 72/3/1
f 76/1/1 75/1/1 74/1/1
f 77/1/1 75/1/1 76/1/1
f 80/1/1 79/1/1 78/1/1
f 81/1/1 79/1/1 80/1/1
f 85/1/1 83/1/1 82/1/1
f 86/2/1 84/2/1 83/2/1
f 86/1/1 83/1/1 85/1/1
f 87/2/1 84/2/1 86/2/1
f 90/1/1 89/1/1 88/1/1
f 91/1/1 89/1/1 90/1/1
f 96/2/1 93/2/1 92/2/1
f 97/2/1 93/2/1 96/2/1
f 98/2/1 95/2/1 94/2/1
f 101/2/1 95/2/1 98/2/1
f 102/2/1 100/2/1 99/2/1
f 103/2/1 100/2/1 102/2/1
f 104/2/1 95/2/1 101/2/1
f 105/2/1 95/2/1 104/2/1
f 110/2/1 107/2/1 106/2/1
f 112/1/1 109/1/1 108/1/1
f 113/1/1 109/1/1 112/1/1
f 114/2/1 110/2/1 106/2/1
f 115/1/1 111/1/1 110/1/1
f 115/2/1 110/2/1 114/2/1
f 116/1/1 111/1/1 115/1/1
f 119/1/1 115/1/1 114/1/1
f 120/1/1 115/1/1 119/1/1
f 121/2/1 118/2/1 117/2/1
f 122/2/1 118/2/1 121/2/1
f 123/2/1 113/2/1 112/2/1
f 124/2/1 113/2/1 123/2/1
f 125/7/2 126/7/2 127/7/2
f 127/7/2 126/7/2 128/7/2
f 129/7/2 130/7/2 131/7/2
f 131/7/2 130/7/2 132/7/2
f 133/7/2 134/7/2 135/7/2
f 135/7/2 134/7/2 136/7/2
f 137/8/2 138/8/2 139/8/2
f 139/8/2 138/8/2 140/8/2
f 141/4/2 142/4/2 145/4/2
f 145/4/2 142/4/2 146/4/2
f 145/3/2 146/3/2 147/3/2
f 147/3/2 146/3/2 148/3/2
f 143/4/2 144/4/2 151/4/2
f 151/4/2 144/4/2 152/4/2
f 147/4/2 148/4/2 153/4/2
f 153/4/2 148/4/2 154/4/2
f 149/4/2 150/4/2 155/4/2
f 155/4/2 150/4/2 156/4/2
f 151/3/2 152/3/2 157/3/2
f 157/3/2 152/3/2 158/3/2
f 159/3/2 160/3/2 161/3/2
f 161/3/2 160/3/2 162/3/2
f 161/4/2 162/4/2 165/4/2
f 165/4/2 162/4/2 166/4/2
f 163/4/2 164/4/2 167/4/2
f 167/4/2 164/4/2 168/4/2
f 169/3/2 170/3/2 173/3/2
f 173/3/2 170/3/2 174/3/2
f 171/4/2 172/4/2 175/4/2
f 173/4/2 174/4/2 176/4/2
f 175/4/2 172/4/2 177/4/2
f 173/4/2 176/4/2 178/4/2
f 178/4/2 176/4/2 179/4/2
f 177/4/2 172/4/2 180/4/2
f 180/4/2 172/4/2 181/4/2
f 182/3/2 183/3/2 185/3/2
f 183/4/2 184/4/2 186/4/2
f 185/3/2 183/3/2 186/3/2
f 186/4/2 184/4/2 187/4/2
f 188/4/2 189/4/2 190/4/2
f 190/4/2 189/4/2 191/4/2
f 192/1/2 193/1/2 194/1/2
f 194/1/2 193/1/2 195/1/2
f 196/1/2 197/1/2 198/1/2
f 198/1/2 197/1/2 199/1/2
f 200/1/2 201/1/2 202/1/2
f 202/1/2 201/1/2 203/1/2
f 204/2/2 205/2/2 208/2/2
f 208/2/2 205/2/2 209/2/2
f 206/2/2 207/2/2 210/2/2
f 210/2/2 207/2/2 211/2/2
f 214/2/2 215/2/2 219/2/2
f 215/1/2 216/1/2 219/1/2
f 216/2/2 217/2/2 220/2/2
f 219/1/2 216/1/2 220/1/2
f 217/1/2 218/1/2 221/1/2
f 220/2/2 217/2/2 221/2/2
f 221/1/2 218/1/2 222/1/2
f 212/2/2 213/2/2 223/2/2
f 213/1/2 214/1/2 224/1/2
f 223/2/2 213/2/2 224/2/2
f 219/2/2 220/2/2 225/2/2
f 224/1/2 214/1/2 225/1/2
f 214/2/2 219/2/2 225/2/2
f 225/2/2 220/2/2 226/2/2
f 220/1/2 221/1/2 227/1/2
f 226/2/2 220/2/2 227/2/2
f 221/2/2 222/2/2 228/2/2
f 227/1/2 221/1/2 228/1/2
f 223/1/2 224/1/2 229/1/2
f 229/1/2 224/1/2 230/1/2
f 225/1/2 226/1/2 231/1/2
f 226/2/2 227/2/2 232/2/2
f 231/1/2 226/1/2 232/1/2
f 232/2/2 227/2/2 233/2/2
f 228/2/2 222/2/2 234/2/2
f 234/2/2 222/2/2 235/2/2
f 238/8/3 237/8/3 236/8/3
f 239/8/3 237/8/3 238/8/3
f 242/8/3 241/8/3 240/8/3
f 243/8/3 241/8/3 242/8/3
f 246/8/3 245/8/3 244/8/3
f 247/8/3 245/8/3 246/8/3
f 252/4/3 249/4/3 248/4/3
f 253/3/3 250/3/3 249/3/3
f 253/4/3 249/4/3 252/4/3
f 254/4/3 251/4/3 250/4/3
f 254/3/3 250/3/3 253/3/3
f 255/4/3 251/4/3 254/4/3
f 258/7/3 257/7/3 256/7/3
f 259/7/3 257/7/3 258/7/3
f 264/3/3 261/3/3 260/3/3
f 265/4/3 262/4/3 261/4/3
f 265/3/3 261/3/3 264/3/3
f 265/4/3 263/4/3 262/4/3
f 266/4/3 263/4/3 265/4/3
f 270/2/3 268/2/3 267/2/3
f 271/1/3 269/1/3 268/1/3
f 271/2/3 268/2/3 270/2/3
f 272/1/3 269/1/3 271/1/3
f 275/7/3 274/7/3 273/7/3
f 276/7/3 274/7/3 275/7/3
f 279/3/3 278/3/3 277/3/3
f 280/3/3 278/3/3 279/3/3
f 284/3/3 282/3/3 281/3/3
f 285/4/3 283/4/3 282/4/3
f 285/3/3 282/3/3 284/3/3
f 286/4/3 283/4/3 285/4/3
f 291/2/3 288/2/3 287/2/3
f 292/2/3 288/2/3 291/2/3
f 293/2/3 290/2/3 289/2/3
f 294/2/3 290/2/3 293/2/3
f 297/8/3 296/8/3 295/8/3
f 298/8/3 296/8/3 297/8/3
f 299/7/3 298/7/3 297/7/3
f 300/7/3 298/7/3 299/7/3
f 301/8/3 300/8/3 299/8/3
f 302/8/3 300/8/3 301/8/3
f 303/7/3 302/7/3 301/7/3
f 304/7/3 302/7/3 303/7/3
f 305/8/3 304/8/3 303/8/3
f 306/8/3 304/8/3 305/8/3
f 311/3/3 308/3/3 307/3/3
f 312/4/3 309/4/3 308/4/3
f 312/3/3 308/3/3 311/3/3
f 313/3/3 310/3/3 309/3/3
f 313/4/3 309/4/3 312/4/3
f 314/3/3 310/3/3 313/3/3
f 315/2/3 313/2/3 312/2/3
f 316/1/3 314/1/3 313/1/3
f 316/2/3 313/2/3 315/2/3
f 317/1/3 316/1/3 315/1/3
f 318/1/3 314/1/3 316/1/3
f 318/1/3 316/1/3 317/1/3
f 319/1/3 314/1/3 318/1/3
f 320/2/3 318/2/3 317/2/3
f 321/2/3 318/2/3 320/2/3
f 324/1/3 321/1/3 320/1/3
f 324/1/3 322/1/3 321/1/3
f 325/1/3 322/1/3 324/1/3
f 326/1/3 322/1/3 325/1/3
f 327/1/3 324/1/3 323/1/3
f 327/1/3 325/1/3 324/1/3
f 328/1/3 325/1/3 327/1/3
f 329/2/3 326/2/3 325/2/3
f 329/1/3 325/1/3 328/1/3
f 330/2/3 326/2/3 329/2/3
f 331/2/3 329/2/3 328/2/3
f 332/2/3 329/2/3 331/2/3
f 334/1/3 333/1/3 332/1/3
f 335/1/3 333/1/3 334/1/3
f 338/4/3 337/4/3 336/4/3
f 339/4/3 337/4/3 338/4/3
f 342/4/3 341/4/3 340/4/3
f 343/4/3 341/4/3 342/4/3
f 346/1/3 345/1/3 344/1/3
f 347/1/3 345/1/3 346/1/3
f 350/2/3 349/2/3 348/2/3
f 351/2/3 349/2/3 350/2/3
f 354/3/3 353/3/3 352/3/3
f 355/3/3 353/3/3 354/3/3
f 358/2/3 357/2/3 356/2/3
f 359/2/3 357/2/3 358/2/3
f 360/8/4 361/8/4 362/8/4
f 362/8/4 361/8/4 363/8/4
f 364/7/4 365/7/4 366/7/4
f 366/7/4 365/7/4 367/7/4
f 368/7/4 369/7/4 370/7/4
f 370/7/4 369/7/4 371/7/4
f 372/4/4 373/4/4 374/4/4
f 374/4/4 373/4/4 375/4/4
f 376/1/4 377/1/4 378/1/4
f 378/1/4 377/1/4 379/1/4
f 380/3/4 381/3/4 382/3/4
f 382/3/4 381/3/4 383/3/4
f 384/4/4 385/4/4 386/4/4
f 386/4/4 385/4/4 387/4/4
f 388/4/4 389/4/4 390/4/4
f 390/4/4 389/4/4 391/4/4
f 392/1/4 393/1/4 394/1/4
f 394/1/4 393/1/4 395/1/4
f 396/1/4 397/1/4 398/1/4
f 398/1/4 397/1/4 399/1/4
f 400/2/4 401/2/4 402/2/4
f 402/2/4 401/2/4 403/2/4
f 404/8/4 405/8/4 406/8/4
f 406/8/4 405/8/4 407/8/4
f 406/7/4 407/7/4 408/7/4
f 408/7/4 407/7/4 409/7/4
f 408/8/4 409/8/4 410/8/4
f 410/8/4 409/8/4 411/8/4
f 410/7/4 411/7/4 412/7/4
f 412/7/4 411/7/4 413/7/4
f 412/8/4 413/8/4 414/8/4
f 414/8/4 413/8/4 415/8/4
f 414/7/4 415/7/4 416/7/4
f 416/7/4 415/7/4 417/7/4
f 416/8/4 417/8/4 418/8/4
f 418/8/4 417/8/4 419/8/4
f 419/4/4 420/4/4 421/4/4
f 421/4/4 420/4/4 422/4/4
f 423/4/4 424/4/4 427/4/4
f 424/5/4 425/5/4 428/5/4
f 427/4/4 424/4/4 428/4/4
f 425/4/4 426/4/4 429/4/4
f 428/5/4 425/5/4 429/5/4
f 429/4/4 426/4/4 430/4/4
f 428/2/4 429/2/4 431/2/4
f 428/2/4 431/2/4 433/2/4
f 431/1/4 432/1/4 434/1/4
f 433/2/4 431/2/4 434/2/4
f 433/1/4 434/1/4 435/1/4
f 434/1/4 432/1/4 436/1/4
f 435/1/4 434/1/4 436/1/4
f 436/1/4 432/1/4 437/1/4
f 435/2/4 436/2/4 439/2/4
f 439/2/4 436/2/4 440/2/4
f 438/2/4 439/2/4 442/2/4
f 439/6/4 440/6/4 443/6/4
f 442/2/4 439/2/4 443/2/4
f 440/1/4 441/1/4 444/1/4
f 443/6/4 440/6/4 444/6/4
f 444/1/4 441/1/4 445/1/4
f 446/2/4 447/2/4 448/2/4
f 448/2/4 447/2/4 449/2/4
f 450/3/4 451/3/4 452/3/4
f 452/3/4 451/3/4 453/3/4
f 452/4/4 453/4/4 455/4/4
f 453/4/4 454/4/4 455/4/4
f 455/4/4 454/4/4 456/4/4
f 457/2/4 458/2/4 459/2/4
f 459/2/4 458/2/4 460/2/4
f 460/2/4 458/2/4 461/2/4
f 462/4/4 463/4/4 465/4/4
f 463/3/4 464/3/4 466/3/4
f 465/4/4 463/4/4 466/4/4
f 466/3/4 464/3/4 467/3/4
f 468/1/4 469/1/4 471/1/4
f 469/2/4 470/2/4 472/2/4
f 471/1/4 469/1/4 472/1/4
f 472/2/4 470/2/4 473/2/4
f 476/4/5 475/4/5 474/4/5
f 480/4/5 476/4/5 474/4/5
f 481/3/5 477/3/5 476/3/5
f 481/4/5 476/4/5 480/4/5
f 482/3/5 477/3/5 481/3/5
f 485/2/5 479/2/5 478/2/5
f 486/2/5 479/2/5 485/2/5
f 487/3/5 481/3/5 480/3/5
f 488/4/5 482/4/5 481/4/5
f 488/3/5 481/3/5 487/3/5
f 489/3/5 483/3/5 482/3/5
f 489/4/5 482/4/5 488/4/5
f 490/3/5 483/3/5 489/3/5
f 493/2/5 485/2/5 484/2/5
f 494/1/5 486/1/5 485/1/5
f 494/2/5 485/2/5 493/2/5
f 495/1/5 486/1/5 494/1/5
f 496/4/5 488/4/5 487/4/5
f 496/4/5 489/4/5 488/4/5
f 496/4/5 490/4/5 489/4/5
f 497/4/5 490/4/5 496/4/5
f 498/4/5 490/4/5 497/4/5
f 499/3/5 491/3/5 490/3/5
f 499/4/5 490/4/5 498/4/5
f 500/3/5 491/3/5 499/3/5
f 501/1/5 493/1/5 492/1/5
f 502/2/5 495/2/5 494/2/5
f 502/1/5 493/1/5 501/1/5
f 502/2/5 494/2/5 493/2/5
f 503/2/5 495/2/5 502/2/5
f 504/2/5 495/2/5 503/2/5
f 505/3/5 497/3/5 496/3/5
f 506/4/5 498/4/5 497/4/5
f 506/3/5 497/3/5 505/3/5
f 507/3/5 499/3/5 498/3/5
f 507/4/5 498/4/5 506/4/5
f 508/4/5 500/4/5 499/4/5
f 508/3/5 499/3/5 507/3/5
f 509/4/5 500/4/5 508/4/5
f 510/2/5 502/2/5 501/2/5
f 510/2/5 503/2/5 502/2/5
f 511/2/5 503/2/5 510/2/5
f 512/1/5 504/1/5 503/1/5
f 512/2/5 503/2/5 511/2/5
f 513/1/5 504/1/5 512/1/5
f 514/3/5 507/3/5 506/3/5
f 514/4/5 506/4/5 505/4/5
f 515/4/5 508/4/5 507/4/5
f 515/3/5 507/3/5 514/3/5
f 516/4/5 508/4/5 515/4/5
f 517/2/5 513/2/5 512/2/5
f 517/2/5 512/2/5 511/2/5
f 518/2/5 513/2/5 517/2/5
f 519/2/5 513/2/5 518/2/5
f 520/4/5 514/4/5 505/4/5
f 521/4/5 514/4/5 520/4/5
f 522/1/5 519/1/5 518/1/5
f 523/1/5 519/1/5 522/1/5
f 527/8/5 525/8/5 524/8/5
f 528/8/5 525/8/5 527/8/5
f 529/8/5 525/8/5 528/8/5
f 531/8/5 527/8/5 526/8/5
f 532/7/5 528/7/5 527/7/5
f 532/8/5 527/8/5 531/8/5
f 533/7/5 532/7/5 531/7/5
f 533/7/5 528/7/5 532/7/5
f 534/7/5 528/7/5 533/7/5
f 535/8/5 531/8/5 530/8/5
f 536/7/5 533/7/5 531/7/5
f 536/8/5 531/8/5 535/8/5
f 537/7/5 533/7/5 536/7/5
f 538/7/5 533/7/5 537/7/5
f 541/7/5 537/7/5 536/7/5
f 541/7/5 536/7/5 535/7/5
f 542/7/5 537/7/5 541/7/5
f 544/7/5 540/7/5 539/7/5
f 545/7/5 540/7/5 544/7/5
f 546/8/5 542/8/5 541/8/5
f 547/7/5 537/7/5 542/7/5
f 547/8/5 542/8/5 546/8/5
f 548/7/5 537/7/5 547/7/5
f 553/7/5 544/7/5 543/7/5
f 554/8/5 545/8/5 544/8/5
f 560/7/5 547/7/5 546/7/5
f 561/8/5 548/8/5 547/8/5
f 561/7/5 547/7/5 560/7/5
f 561/8/5 549/8/5 548/8/5
f 562/8/5 549/8/5 561/8/5
f 563/7/5 552/7/5 551/7/5
f 563/8/5 551/8/5 550/8/5
f 564/8/5 553/8/5 552/8/5
f 564/7/5 552/7/5 563/7/5
f 565/7/5 544/7/5 553/7/5
f 565/8/5 553/8/5 564/8/5
f 566/8/5 554/8/5 544/8/5
f 566/7/5 544/7/5 565/7/5
f 567/8/5 554/8/5 566/8/5
f 568/2/5 556/2/5 555/2/5
f 569/1/5 557/1/5 556/1/5
f 569/2/5 556/2/5 568/2/5
f 570/2/5 558/2/5 557/2/5
f 570/1/5 557/1/5 569/1/5
f 571/1/5 559/1/5 558/1/5
f 571/2/5 558/2/5 570/2/5
f 572/1/5 559/1/5 571/1/5
f 573/8/5 561/8/5 560/8/5
f 574/7/5 562/7/5 561/7/5
f 574/8/5 561/8/5 573/8/5
f 575/8/5 549/8/5 562/8/5
f 575/7/5 562/7/5 574/7/5
f 576/7/5 550/7/5 549/7/5
f 576/8/5 549/8/5 575/8/5
f 577/8/5 563/8/5 550/8/5
f 577/7/5 550/7/5 576/7/5
f 577/8/5 564/8/5 563/8/5
f 578/7/5 565/7/5 564/7/5
f 578/8/5 564/8/5 577/8/5
f 579/8/5 567/8/5 566/8/5
f 579/7/5 565/7/5 578/7/5
f 579/8/5 566/8/5 565/8/5
f 580/8/5 567/8/5 579/8/5
f 581/2/5 570/2/5 569/2/5
f 581/2/5 569/2/5 568/2/5
f 582/1/5 571/1/5 570/1/5
f 582/2/5 570/2/5 581/2/5
f 583/2/5 572/2/5 571/2/5
f 583/1/5 571/1/5 582/1/5
f 584/2/5 572/2/5 583/2/5
f 587/2/5 586/2/5 585/2/5
f 588/2/5 586/2/5 587/2/5
f 589/2/6 590/2/6 591/2/6
f 591/2/6 590/2/6 592/2/6
f 593/8/6 594/8/6 596/8/6
f 596/8/6 594/8/6 597/8/6
f 597/8/6 594/8/6 598/8/6
f 595/8/6 596/8/6 600/8/6
f 596/7/6 597/7/6 601/7/6
f 600/8/6 596/8/6 601/8/6
f 600/7/6 601/7/6 602/7/6
f 601/7/6 597/7/6 602/7/6
f 602/7/6 597/7/6 603/7/6
f 599/8/6 600/8/6 604/8/6
f 600/7/6 602/7/6 605/7/6
f 604/8/6 600/8/6 605/8/6
f 605/7/6 602/7/6 606/7/6
f 606/7/6 602/7/6 607/7/6
f 605/7/6 606/7/6 611/7/6
f 604/7/6 605/7/6 611/7/6
f 611/7/6 606/7/6 612/7/6
f 608/7/6 609/7/6 614/7/6
f 609/3/6 610/3/6 615/3/6
f 614/7/6 609/7/6 615/7/6
f 615/3/6 610/3/6 616/3/6
f 611/8/6 612/8/6 619/8/6
f 612/7/6 606/7/6 620/7/6
f 619/8/6 612/8/6 620/8/6
f 620/7/6 606/7/6 621/7/6
f 613/7/6 614/7/6 626/7/6
f 614/8/6 615/8/6 627/8/6
f 617/1/6 618/1/6 633/1/6
f 633/1/6 618/1/6 634/1/6
f 619/7/6 620/7/6 635/7/6
f 620/8/6 621/8/6 636/8/6
f 635/7/6 620/7/6 636/7/6
f 621/8/6 622/8/6 636/8/6
f 636/8/6 622/8/6 637/8/6
f 624/7/6 625/7/6 638/7/6
f 623/8/6 624/8/6 638/8/6
f 625/8/6 626/8/6 639/8/6
f 638/7/6 625/7/6 639/7/6
f 626/7/6 614/7/6 640/7/6
f 639/8/6 626/8/6 640/8/6
f 614/8/6 627/8/6 641/8/6
f 640/7/6 614/7/6 641/7/6
f 627/3/6 628/3/6 642/3/6
f 641/8/6 627/8/6 642/8/6
f 642/3/6 628/3/6 643/3/6
f 629/3/6 630/3/6 644/3/6
f 644/3/6 630/3/6 645/3/6
f 631/2/6 632/2/6 648/2/6
f 648/2/6 632/2/6 649/2/6
f 635/8/6 636/8/6 653/8/6
f 636/7/6 637/7/6 654/7/6
f 653/8/6 636/8/6 654/8/6
f 637/8/6 622/8/6 655/8/6
f 654/7/6 637/7/6 655/7/6
f 622/7/6 623/7/6 656/7/6
f 655/8/6 622/8/6 656/8/6
f 623/8/6 638/8/6 657/8/6
f 656/7/6 623/7/6 657/7/6
f 638/8/6 639/8/6 657/8/6
f 639/7/6 640/7/6 658/7/6
f 657/8/6 639/8/6 658/8/6
f 640/8/6 641/8/6 659/8/6
f 658/7/6 640/7/6 659/7/6
f 641/8/6 642/8/6 659/8/6
f 659/8/6 642/8/6 660/8/6
f 643/4/6 644/4/6 661/4/6
f 661/4/6 644/4/6 662/4/6
f 646/2/6 647/2/6 663/2/6
f 663/2/6 647/2/6 664/2/6
f 649/2/6 650/2/6 665/2/6
f 665/2/6 650/2/6 666/2/6
f 651/2/6 652/2/6 667/2/6
f 667/2/6 652/2/6 668/2/6
f 660/4/6 661/4/6 670/4/6
f 661/3/6 662/3/6 671/3/6
f 670/4/6 661/4/6 671/4/6
f 671/3/6 662/3/6 672/3/6
f 668/1/6 669/1/6 673/1/6
f 673/1/6 669/1/6 674/1/6
f 675/4/6 676/4/6 677/4/6
f 677/4/6 676/4/6 678/4/6
f 678/4/6 679/4/6 683/4/6
f 683/4/6 679/4/6 684/4/6
f 680/1/6 681/1/6 687/1/6
f 687/1/6 681/1/6 688/1/6
f 682/3/6 683/3/6 689/3/6
f 684/4/6 685/4/6 690/4/6
f 689/3/6 683/3/6 690/3/6
f 683/4/6 684/4/6 690/4/6
f 690/4/6 685/4/6 691/4/6
f 691/4/6 685/4/6 692/4/6
f 686/2/6 687/2/6 697/2/6
f 697/2/6 687/2/6 698/2/6
f 690/4/6 691/4/6 701/4/6
f 701/4/6 691/4/6 702/4/6
f 692/3/6 693/3/6 703/3/6
f 693/1/6 694/1/6 704/1/6
f 703/3/6 693/3/6 704/3/6
f 704/1/6 694/1/6 705/1/6
f 705/1/6 694/1/6 706/1/6
f 695/1/6 696/1/6 707/1/6
f 696/2/6 697/2/6 708/2/6
f 697/2/6 698/2/6 708/2/6
f 707/1/6 696/1/6 708/1/6
f 708/2/6 698/2/6 709/2/6
f 698/1/6 699/1/6 710/1/6
f 709/2/6 698/2/6 710/2/6
f 710/1/6 699/1/6 711/1/6
f 700/4/6 701/4/6 712/4/6
f 712/4/6 701/4/6 713/4/6
f 702/4/6 703/4/6 714/4/6
f 703/4/6 704/4/6 714/4/6
f 714/4/6 704/4/6 715/4/6
f 705/1/6 706/1/6 716/1/6
f 706/1/6 707/1/6 716/1/6
f 716/1/6 707/1/6 717/1/6
f 708/1/6 709/1/6 718/1/6
f 718/1/6 709/1/6 719/1/6
f 710/2/6 711/2/6 720/2/6
f 720/2/6 711/2/6 721/2/6
f 702/4/6 714/4/6 724/4/6
f 724/4/6 714/4/6 725/4/6
f 719/2/6 720/2/6 726/2/6
f 726/2/6 720/2/6 727/2/6
f 722/3/6 723/3/6 729/3/6
f 729/3/6 723/3/6 730/3/6
f 727/2/6 728/2/6 731/2/6
f 731/2/6 728/2/6 732/2/6
