# MagicaVoxel @ Ephtracy

# group
o 

# material
mtllib kreuzhacke v.3.mtl
usemtl palette

# normals
vn -1 0 0
vn 1 0 0
vn 0 0 1
vn 0 0 -1
vn 0 -1 0
vn 0 1 0

# texcoords
vt 0.0175781 0.5
vt 0.0605469 0.5
vt 0.0878906 0.5
vt 0.0917969 0.5
vt 0.298828 0.5
vt 0.564453 0.5
vt 0.568359 0.5
vt 0.572266 0.5

# verts
v -1.5 0.6 0.5
v -1.5 0.6 0.4
v -1.5 0.6 0.3
v -1.5 0.7 0.5
v -1.5 0.7 0.4
v -1.5 0.8 0.4
v -1.5 0.8 0.3
v -1.4 0.5 0.6
v -1.4 0.5 0.2
v -1.4 0.6 1.1
v -1.4 0.6 1
v -1.4 0.6 0.8
v -1.4 0.6 0.6
v -1.4 0.6 0.5
v -1.4 0.6 0.4
v -1.4 0.6 0.3
v -1.4 0.6 0.2
v -1.4 0.6 0
v -1.4 0.7 1.1
v -1.4 0.7 1
v -1.4 0.7 0.9
v -1.4 0.7 0.5
v -1.4 0.7 0.4
v -1.4 0.7 0.1
v -1.4 0.7 0
v -1.4 0.8 1.1
v -1.4 0.8 1
v -1.4 0.8 0.9
v -1.4 0.8 0.8
v -1.4 0.8 0.6
v -1.4 0.8 0.4
v -1.4 0.8 0.3
v -1.4 0.8 0.2
v -1.4 0.8 0.1
v -1.4 0.8 0
v -1.4 0.9 0.6
v -1.4 0.9 0.2
v -1.3 0.6 0
v -1.3 0.6 -0.1
v -1.3 0.7 0
v -1.3 0.8 0
v -1.3 0.8 -0.1
v -1.2 0.6 -0.1
v -1.2 0.6 -0.2
v -1.2 0.8 -0.1
v -1.2 0.8 -0.2
v -1.1 0.6 -0.2
v -1.1 0.6 -0.3
v -1.1 0.7 0.5
v -1.1 0.7 0.4
v -1.1 0.8 0.5
v -1.1 0.8 0.4
v -1.1 0.8 -0.2
v -1.1 0.8 -0.3
v -1 0.6 -0.3
v -1 0.6 -0.4
v -1 0.7 -0.3
v -1 0.7 -0.4
v -1 0.8 -0.3
v -1 0.8 -0.4
v -0.9 0.6 0.5
v -0.9 0.6 0.4
v -0.9 0.7 0.5
v -0.9 0.7 0.4
v -0.9 0.7 0.3
v -0.9 0.8 0.4
v -0.9 0.8 0.3
v -0.7 0.7 0.5
v -0.7 0.7 0.4
v -0.7 0.8 0.5
v -0.7 0.8 0.4
v -0.5 0.6 0.5
v -0.5 0.6 0.4
v -0.5 0.7 0.5
v -0.5 0.7 0.4
v -0.5 0.7 0.3
v -0.5 0.8 0.4
v -0.5 0.8 0.3
v -0.3 0.7 0.5
v -0.3 0.7 0.4
v -0.3 0.8 0.5
v -0.3 0.8 0.4
v -0.1 0.6 0.5
v -0.1 0.6 0.4
v -0.1 0.7 0.5
v -0.1 0.7 0.4
v 0 0.7 0.4
v 0 0.7 0.3
v 0 0.8 0.4
v 0 0.8 0.3
v 0.1 0.5 0.5
v 0.1 0.5 0.4
v 0.1 0.5 0.3
v 0.1 0.6 0.6
v 0.1 0.6 0.5
v 0.1 0.6 0.4
v 0.1 0.6 0.3
v 0.1 0.6 0.2
v 0.1 0.7 0.6
v 0.1 0.7 0.5
v 0.1 0.7 0.4
v 0.1 0.7 0.3
v 0.1 0.7 0.2
v 0.1 0.8 0.6
v 0.1 0.8 0.5
v 0.1 0.8 0.4
v 0.1 0.8 0.3
v 0.1 0.8 0.2
v 0.1 0.9 0.5
v 0.1 0.9 0.3
v 0.2 0.4 0.5
v 0.2 0.4 0.4
v 0.2 0.4 0.3
v 0.2 0.5 0.6
v 0.2 0.5 0.5
v 0.2 0.5 0.4
v 0.2 0.5 0.3
v 0.2 0.5 0.2
v 0.2 0.6 0.7
v 0.2 0.6 0.6
v 0.2 0.6 0.5
v 0.2 0.6 0.3
v 0.2 0.6 0.2
v 0.2 0.6 0.1
v 0.2 0.7 0.7
v 0.2 0.7 0.6
v 0.2 0.7 0.2
v 0.2 0.8 0.7
v 0.2 0.8 0.6
v 0.2 0.8 0.5
v 0.2 0.8 0.3
v 0.2 0.8 0.2
v 0.2 0.8 0.1
v 0.2 0.9 0.6
v 0.2 0.9 0.5
v 0.2 0.9 0.4
v 0.2 0.9 0.3
v 0.2 0.9 0.2
v 0.2 1 0.5
v 0.2 1 0.4
v 0.2 1 0.3
v -1.3 0.7 1.1
v -1.3 0.7 1
v -1.3 0.8 1.1
v -1.3 0.8 1
v -1.2 0.5 0.6
v -1.2 0.5 0.2
v -1.2 0.6 1.1
v -1.2 0.6 1
v -1.2 0.6 0.8
v -1.2 0.6 0.7
v -1.2 0.6 0.6
v -1.2 0.6 0.5
v -1.2 0.6 0.4
v -1.2 0.6 0.3
v -1.2 0.6 0.2
v -1.2 0.6 0
v -1.2 0.7 1.1
v -1.2 0.7 1
v -1.2 0.7 0.9
v -1.2 0.7 0.8
v -1.2 0.7 0.7
v -1.2 0.7 0.6
v -1.2 0.7 0.5
v -1.2 0.7 0.4
v -1.2 0.7 0.1
v -1.2 0.7 0
v -1.2 0.8 1
v -1.2 0.8 0.9
v -1.2 0.8 0.8
v -1.2 0.8 0.7
v -1.2 0.8 0.6
v -1.2 0.8 0.4
v -1.2 0.8 0.3
v -1.2 0.8 0.2
v -1.2 0.8 0.1
v -1.2 0.8 0
v -1.2 0.9 0.6
v -1.2 0.9 0.2
v -1.1 0.6 0
v -1.1 0.6 -0.1
v -1.1 0.7 0
v -1.1 0.7 -0.1
v -1.1 0.8 0
v -1.1 0.8 -0.1
v -1 0.6 0.5
v -1 0.6 0.4
v -1 0.6 -0.1
v -1 0.6 -0.2
v -1 0.7 0.5
v -1 0.7 0.4
v -1 0.7 0.3
v -1 0.7 -0.1
v -1 0.7 -0.2
v -1 0.8 0.4
v -1 0.8 0.3
v -1 0.8 -0.1
v -1 0.8 -0.2
v -0.9 0.6 -0.2
v -0.9 0.6 -0.4
v -0.9 0.7 -0.2
v -0.9 0.7 -0.4
v -0.9 0.8 -0.2
v -0.9 0.8 -0.4
v -0.8 0.7 0.5
v -0.8 0.7 0.4
v -0.8 0.8 0.5
v -0.8 0.8 0.4
v -0.6 0.6 0.5
v -0.6 0.6 0.4
v -0.6 0.7 0.5
v -0.6 0.7 0.4
v -0.6 0.7 0.3
v -0.6 0.8 0.4
v -0.6 0.8 0.3
v -0.4 0.7 0.5
v -0.4 0.7 0.4
v -0.4 0.8 0.5
v -0.4 0.8 0.4
v -0.2 0.6 0.5
v -0.2 0.6 0.4
v -0.2 0.7 0.5
v -0.2 0.7 0.4
v -0.2 0.7 0.3
v -0.2 0.8 0.4
v -0.2 0.8 0.3
v 0 0.7 0.5
v 0 0.7 0.4
v 0 0.8 0.5
v 0 0.8 0.4
v 0.3 0.9 0.5
v 0.3 0.9 0.4
v 0.3 1 0.5
v 0.3 1 0.4
v 0.4 0.4 0.5
v 0.4 0.4 0.4
v 0.4 0.4 0.3
v 0.4 0.5 0.6
v 0.4 0.5 0.5
v 0.4 0.5 0.4
v 0.4 0.5 0.3
v 0.4 0.5 0.2
v 0.4 0.6 0.7
v 0.4 0.6 0.6
v 0.4 0.6 0.5
v 0.4 0.6 0.3
v 0.4 0.6 0.2
v 0.4 0.6 0.1
v 0.4 0.7 0.7
v 0.4 0.7 0.6
v 0.4 0.7 0.2
v 0.4 0.7 0.1
v 0.4 0.8 0.7
v 0.4 0.8 0.6
v 0.4 0.8 0.5
v 0.4 0.8 0.3
v 0.4 0.8 0.2
v 0.4 0.8 0.1
v 0.4 0.9 0.6
v 0.4 0.9 0.5
v 0.4 0.9 0.4
v 0.4 0.9 0.3
v 0.4 0.9 0.2
v 0.4 1 0.4
v 0.4 1 0.3
v 0.5 0.5 0.5
v 0.5 0.5 0.3
v 0.5 0.6 0.6
v 0.5 0.6 0.5
v 0.5 0.6 0.4
v 0.5 0.6 0.3
v 0.5 0.6 0.2
v 0.5 0.7 0.6
v 0.5 0.7 0.5
v 0.5 0.7 0.3
v 0.5 0.7 0.2
v 0.5 0.8 0.6
v 0.5 0.8 0.5
v 0.5 0.8 0.4
v 0.5 0.8 0.3
v 0.5 0.8 0.2
v 0.5 0.9 0.5
v 0.5 0.9 0.4
v 0.5 0.9 0.3
v 0.6 0.6 0.5
v 0.6 0.6 0.4
v 0.6 0.6 0.3
v 0.6 0.7 0.5
v 0.6 0.7 0.4
v 0.6 0.7 0.3
v 0.6 0.8 0.5
v 0.6 0.8 0.4
v 0.6 0.8 0.3
v -1.4 0.6 1.1
v -1.4 0.7 1.1
v -1.4 0.8 1.1
v -1.3 0.7 1.1
v -1.3 0.8 1.1
v -1.2 0.6 1.1
v -1.2 0.7 1.1
v -1.3 0.7 1
v -1.3 0.8 1
v -1.2 0.7 1
v -1.2 0.8 1
v 0.2 0.6 0.7
v 0.2 0.7 0.7
v 0.2 0.8 0.7
v 0.3 0.6 0.7
v 0.3 0.7 0.7
v 0.3 0.8 0.7
v 0.4 0.6 0.7
v 0.4 0.7 0.7
v 0.4 0.8 0.7
v -1.4 0.5 0.6
v -1.4 0.6 0.6
v -1.4 0.8 0.6
v -1.4 0.9 0.6
v -1.3 0.6 0.6
v -1.2 0.5 0.6
v -1.2 0.6 0.6
v -1.2 0.8 0.6
v -1.2 0.9 0.6
v 0.1 0.6 0.6
v 0.1 0.7 0.6
v 0.1 0.8 0.6
v 0.2 0.5 0.6
v 0.2 0.6 0.6
v 0.2 0.7 0.6
v 0.2 0.8 0.6
v 0.2 0.9 0.6
v 0.3 0.5 0.6
v 0.3 0.6 0.6
v 0.3 0.8 0.6
v 0.3 0.9 0.6
v 0.4 0.5 0.6
v 0.4 0.6 0.6
v 0.4 0.7 0.6
v 0.4 0.8 0.6
v 0.4 0.9 0.6
v 0.5 0.6 0.6
v 0.5 0.7 0.6
v 0.5 0.8 0.6
v -1.5 0.6 0.5
v -1.5 0.7 0.5
v -1.4 0.6 0.5
v -1.4 0.7 0.5
v -1.2 0.6 0.5
v -1.2 0.7 0.5
v -1.1 0.6 0.5
v -1.1 0.7 0.5
v -1.1 0.8 0.5
v -1 0.6 0.5
v -1 0.7 0.5
v -0.9 0.6 0.5
v -0.9 0.7 0.5
v -0.8 0.6 0.5
v -0.8 0.7 0.5
v -0.8 0.8 0.5
v -0.7 0.6 0.5
v -0.7 0.7 0.5
v -0.7 0.8 0.5
v -0.6 0.6 0.5
v -0.6 0.7 0.5
v -0.5 0.6 0.5
v -0.5 0.7 0.5
v -0.4 0.6 0.5
v -0.4 0.7 0.5
v -0.4 0.8 0.5
v -0.3 0.6 0.5
v -0.3 0.7 0.5
v -0.3 0.8 0.5
v -0.2 0.6 0.5
v -0.2 0.7 0.5
v -0.1 0.6 0.5
v -0.1 0.7 0.5
v 0 0.6 0.5
v 0 0.7 0.5
v 0 0.8 0.5
v 0.1 0.5 0.5
v 0.1 0.6 0.5
v 0.1 0.7 0.5
v 0.1 0.8 0.5
v 0.1 0.9 0.5
v 0.2 0.4 0.5
v 0.2 0.5 0.5
v 0.2 0.6 0.5
v 0.2 0.8 0.5
v 0.2 0.9 0.5
v 0.2 1 0.5
v 0.3 0.4 0.5
v 0.3 0.5 0.5
v 0.3 0.9 0.5
v 0.3 1 0.5
v 0.4 0.4 0.5
v 0.4 0.5 0.5
v 0.4 0.6 0.5
v 0.4 0.8 0.5
v 0.4 0.9 0.5
v 0.5 0.5 0.5
v 0.5 0.6 0.5
v 0.5 0.7 0.5
v 0.5 0.8 0.5
v 0.5 0.9 0.5
v 0.6 0.6 0.5
v 0.6 0.7 0.5
v 0.6 0.8 0.5
v -1.5 0.7 0.4
v -1.5 0.8 0.4
v -1.4 0.7 0.4
v -1.4 0.8 0.4
v -1.2 0.7 0.4
v -1.2 0.8 0.4
v -1.1 0.7 0.4
v -1.1 0.8 0.4
v -1 0.6 0.4
v -1 0.7 0.4
v -0.9 0.6 0.4
v -0.9 0.7 0.4
v -0.8 0.7 0.4
v -0.8 0.8 0.4
v -0.7 0.7 0.4
v -0.7 0.8 0.4
v -0.6 0.6 0.4
v -0.6 0.7 0.4
v -0.5 0.6 0.4
v -0.5 0.7 0.4
v -0.4 0.7 0.4
v -0.4 0.8 0.4
v -0.3 0.7 0.4
v -0.3 0.8 0.4
v -0.2 0.6 0.4
v -0.2 0.7 0.4
v -0.1 0.6 0.4
v -0.1 0.7 0.4
v 0 0.7 0.4
v 0 0.8 0.4
v 0.1 0.7 0.4
v 0.1 0.8 0.4
v 0.3 0.9 0.4
v 0.3 1 0.4
v 0.4 0.9 0.4
v 0.4 1 0.4
v -1.2 0.6 0
v -1.2 0.7 0
v -1.2 0.8 0
v -1.1 0.6 0
v -1.1 0.7 0
v -1.1 0.8 0
v -1.1 0.6 -0.1
v -1.1 0.7 -0.1
v -1.1 0.8 -0.1
v -1 0.6 -0.1
v -1 0.7 -0.1
v -1 0.8 -0.1
v -1 0.6 -0.2
v -1 0.7 -0.2
v -1 0.8 -0.2
v -0.9 0.6 -0.2
v -0.9 0.7 -0.2
v -0.9 0.8 -0.2
v -1 0.7 0.4
v -1 0.8 0.4
v -0.9 0.7 0.4
v -0.9 0.8 0.4
v -0.6 0.7 0.4
v -0.6 0.8 0.4
v -0.5 0.7 0.4
v -0.5 0.8 0.4
v -0.2 0.7 0.4
v -0.2 0.8 0.4
v 0 0.7 0.4
v 0 0.8 0.4
v -1.5 0.6 0.3
v -1.5 0.8 0.3
v -1.4 0.6 0.3
v -1.4 0.8 0.3
v -1.2 0.6 0.3
v -1.2 0.8 0.3
v -1 0.6 0.3
v -1 0.7 0.3
v -1 0.8 0.3
v -0.9 0.6 0.3
v -0.9 0.7 0.3
v -0.9 0.8 0.3
v -0.6 0.6 0.3
v -0.6 0.7 0.3
v -0.6 0.8 0.3
v -0.5 0.6 0.3
v -0.5 0.7 0.3
v -0.5 0.8 0.3
v -0.2 0.6 0.3
v -0.2 0.7 0.3
v -0.2 0.8 0.3
v 0 0.6 0.3
v 0 0.7 0.3
v 0 0.8 0.3
v 0.1 0.5 0.3
v 0.1 0.6 0.3
v 0.1 0.7 0.3
v 0.1 0.8 0.3
v 0.1 0.9 0.3
v 0.2 0.4 0.3
v 0.2 0.5 0.3
v 0.2 0.6 0.3
v 0.2 0.8 0.3
v 0.2 0.9 0.3
v 0.2 1 0.3
v 0.3 0.4 0.3
v 0.3 0.5 0.3
v 0.3 0.9 0.3
v 0.3 1 0.3
v 0.4 0.4 0.3
v 0.4 0.5 0.3
v 0.4 0.6 0.3
v 0.4 0.8 0.3
v 0.4 0.9 0.3
v 0.4 1 0.3
v 0.5 0.5 0.3
v 0.5 0.6 0.3
v 0.5 0.7 0.3
v 0.5 0.8 0.3
v 0.5 0.9 0.3
v 0.6 0.6 0.3
v 0.6 0.7 0.3
v 0.6 0.8 0.3
v -1.4 0.5 0.2
v -1.4 0.6 0.2
v -1.4 0.8 0.2
v -1.4 0.9 0.2
v -1.2 0.5 0.2
v -1.2 0.6 0.2
v -1.2 0.8 0.2
v -1.2 0.9 0.2
v 0.1 0.6 0.2
v 0.1 0.7 0.2
v 0.1 0.8 0.2
v 0.2 0.5 0.2
v 0.2 0.6 0.2
v 0.2 0.7 0.2
v 0.2 0.8 0.2
v 0.2 0.9 0.2
v 0.3 0.5 0.2
v 0.3 0.6 0.2
v 0.3 0.8 0.2
v 0.3 0.9 0.2
v 0.4 0.5 0.2
v 0.4 0.6 0.2
v 0.4 0.7 0.2
v 0.4 0.8 0.2
v 0.4 0.9 0.2
v 0.5 0.6 0.2
v 0.5 0.7 0.2
v 0.5 0.8 0.2
v 0.2 0.6 0.1
v 0.2 0.8 0.1
v 0.3 0.6 0.1
v 0.3 0.7 0.1
v 0.4 0.6 0.1
v 0.4 0.7 0.1
v 0.4 0.8 0.1
v -1.4 0.6 0
v -1.4 0.7 0
v -1.4 0.8 0
v -1.3 0.6 0
v -1.3 0.7 0
v -1.3 0.8 0
v -1.3 0.6 -0.1
v -1.3 0.8 -0.1
v -1.2 0.6 -0.1
v -1.2 0.8 -0.1
v -1.2 0.6 -0.2
v -1.2 0.8 -0.2
v -1.1 0.6 -0.2
v -1.1 0.8 -0.2
v -1.1 0.6 -0.3
v -1.1 0.8 -0.3
v -1 0.6 -0.3
v -1 0.7 -0.3
v -1 0.8 -0.3
v -1 0.6 -0.4
v -1 0.7 -0.4
v -1 0.8 -0.4
v -0.9 0.6 -0.4
v -0.9 0.7 -0.4
v -0.9 0.8 -0.4
v 0.2 0.4 0.5
v 0.3 0.4 0.5
v 0.4 0.4 0.5
v 0.2 0.4 0.4
v 0.3 0.4 0.4
v 0.4 0.4 0.4
v 0.2 0.4 0.3
v 0.3 0.4 0.3
v 0.4 0.4 0.3
v -1.4 0.5 0.6
v -1.2 0.5 0.6
v 0.2 0.5 0.6
v 0.3 0.5 0.6
v 0.4 0.5 0.6
v 0.1 0.5 0.5
v 0.2 0.5 0.5
v 0.3 0.5 0.5
v 0.4 0.5 0.5
v 0.5 0.5 0.5
v 0.1 0.5 0.4
v 0.2 0.5 0.4
v 0.4 0.5 0.4
v 0.1 0.5 0.3
v 0.2 0.5 0.3
v 0.3 0.5 0.3
v 0.4 0.5 0.3
v 0.5 0.5 0.3
v -1.4 0.5 0.2
v -1.2 0.5 0.2
v 0.2 0.5 0.2
v 0.3 0.5 0.2
v 0.4 0.5 0.2
v -1.4 0.6 1.1
v -1.2 0.6 1.1
v -1.4 0.6 1
v -1.2 0.6 1
v -1.4 0.6 0.8
v -1.2 0.6 0.8
v -1.3 0.6 0.7
v -1.2 0.6 0.7
v 0.2 0.6 0.7
v 0.3 0.6 0.7
v 0.4 0.6 0.7
v -1.4 0.6 0.6
v -1.3 0.6 0.6
v -1.2 0.6 0.6
v 0.1 0.6 0.6
v 0.2 0.6 0.6
v 0.3 0.6 0.6
v 0.4 0.6 0.6
v 0.5 0.6 0.6
v -1.5 0.6 0.5
v -1.4 0.6 0.5
v -1.2 0.6 0.5
v -1.1 0.6 0.5
v -1 0.6 0.5
v -0.9 0.6 0.5
v -0.8 0.6 0.5
v -0.7 0.6 0.5
v -0.6 0.6 0.5
v -0.5 0.6 0.5
v -0.4 0.6 0.5
v -0.3 0.6 0.5
v -0.2 0.6 0.5
v -0.1 0.6 0.5
v 0 0.6 0.5
v 0.1 0.6 0.5
v 0.2 0.6 0.5
v 0.4 0.6 0.5
v 0.5 0.6 0.5
v 0.6 0.6 0.5
v -1.5 0.6 0.4
v -1.4 0.6 0.4
v -1.2 0.6 0.4
v -1.1 0.6 0.4
v -1 0.6 0.4
v -0.9 0.6 0.4
v -0.8 0.6 0.4
v -0.7 0.6 0.4
v -0.6 0.6 0.4
v -0.5 0.6 0.4
v -0.4 0.6 0.4
v -0.3 0.6 0.4
v -0.2 0.6 0.4
v -0.1 0.6 0.4
v 0 0.6 0.4
v 0.1 0.6 0.4
v 0.5 0.6 0.4
v 0.6 0.6 0.4
v -1.5 0.6 0.3
v -1.4 0.6 0.3
v -1.2 0.6 0.3
v -1 0.6 0.3
v -0.9 0.6 0.3
v -0.6 0.6 0.3
v -0.5 0.6 0.3
v -0.2 0.6 0.3
v 0 0.6 0.3
v 0.1 0.6 0.3
v 0.2 0.6 0.3
v 0.4 0.6 0.3
v 0.5 0.6 0.3
v 0.6 0.6 0.3
v -1.4 0.6 0.2
v -1.2 0.6 0.2
v 0.1 0.6 0.2
v 0.2 0.6 0.2
v 0.3 0.6 0.2
v 0.4 0.6 0.2
v 0.5 0.6 0.2
v 0.2 0.6 0.1
v 0.3 0.6 0.1
v 0.4 0.6 0.1
v -1.4 0.6 0
v -1.3 0.6 0
v -1.2 0.6 0
v -1.1 0.6 0
v -1.3 0.6 -0.1
v -1.2 0.6 -0.1
v -1.1 0.6 -0.1
v -1 0.6 -0.1
v -1.2 0.6 -0.2
v -1.1 0.6 -0.2
v -1 0.6 -0.2
v -0.9 0.6 -0.2
v -1.1 0.6 -0.3
v -1 0.6 -0.3
v -1 0.6 -0.4
v -0.9 0.6 -0.4
v -1 0.7 0.5
v -0.9 0.7 0.5
v -0.6 0.7 0.5
v -0.5 0.7 0.5
v -0.2 0.7 0.5
v -0.1 0.7 0.5
v -1 0.7 0.4
v -0.9 0.7 0.4
v -0.6 0.7 0.4
v -0.5 0.7 0.4
v -0.2 0.7 0.4
v -0.1 0.7 0.4
v -1.3 0.7 1.1
v -1.2 0.7 1.1
v -1.3 0.7 1
v -1.2 0.7 1
v -1.5 0.7 0.5
v -1.4 0.7 0.5
v -1.2 0.7 0.5
v -1.1 0.7 0.5
v -0.8 0.7 0.5
v -0.7 0.7 0.5
v -0.4 0.7 0.5
v -0.3 0.7 0.5
v 0 0.7 0.5
v 0.1 0.7 0.5
v -1.5 0.7 0.4
v -1.4 0.7 0.4
v -1.2 0.7 0.4
v -1.1 0.7 0.4
v -1 0.7 0.4
v -0.9 0.7 0.4
v -0.8 0.7 0.4
v -0.7 0.7 0.4
v -0.6 0.7 0.4
v -0.5 0.7 0.4
v -0.4 0.7 0.4
v -0.3 0.7 0.4
v -0.2 0.7 0.4
v 0 0.7 0.4
v 0.1 0.7 0.4
v -1 0.7 0.3
v -0.9 0.7 0.3
v -0.6 0.7 0.3
v -0.5 0.7 0.3
v -0.2 0.7 0.3
v 0 0.7 0.3
v -1.4 0.8 1.1
v -1.3 0.8 1.1
v -1.4 0.8 1
v -1.3 0.8 1
v -1.2 0.8 1
v -1.4 0.8 0.9
v -1.3 0.8 0.9
v -1.2 0.8 0.9
v -1.4 0.8 0.8
v -1.3 0.8 0.8
v -1.2 0.8 0.8
v -1.3 0.8 0.7
v -1.2 0.8 0.7
v 0.2 0.8 0.7
v 0.3 0.8 0.7
v 0.4 0.8 0.7
v -1.4 0.8 0.6
v -1.2 0.8 0.6
v 0.1 0.8 0.6
v 0.2 0.8 0.6
v 0.3 0.8 0.6
v 0.4 0.8 0.6
v 0.5 0.8 0.6
v -1.1 0.8 0.5
v -0.8 0.8 0.5
v -0.7 0.8 0.5
v -0.4 0.8 0.5
v -0.3 0.8 0.5
v 0 0.8 0.5
v 0.1 0.8 0.5
v 0.2 0.8 0.5
v 0.4 0.8 0.5
v 0.5 0.8 0.5
v 0.6 0.8 0.5
v -1.5 0.8 0.4
v -1.4 0.8 0.4
v -1.2 0.8 0.4
v -1.1 0.8 0.4
v -1 0.8 0.4
v -0.9 0.8 0.4
v -0.8 0.8 0.4
v -0.7 0.8 0.4
v -0.6 0.8 0.4
v -0.5 0.8 0.4
v -0.4 0.8 0.4
v -0.3 0.8 0.4
v -0.2 0.8 0.4
v 0 0.8 0.4
v 0.1 0.8 0.4
v 0.5 0.8 0.4
v 0.6 0.8 0.4
v -1.5 0.8 0.3
v -1.4 0.8 0.3
v -1.2 0.8 0.3
v -1 0.8 0.3
v -0.9 0.8 0.3
v -0.6 0.8 0.3
v -0.5 0.8 0.3
v -0.2 0.8 0.3
v 0 0.8 0.3
v 0.1 0.8 0.3
v 0.2 0.8 0.3
v 0.4 0.8 0.3
v 0.5 0.8 0.3
v 0.6 0.8 0.3
v -1.4 0.8 0.2
v -1.2 0.8 0.2
v 0.1 0.8 0.2
v 0.2 0.8 0.2
v 0.3 0.8 0.2
v 0.4 0.8 0.2
v 0.5 0.8 0.2
v -1.4 0.8 0.1
v -1.2 0.8 0.1
v 0.2 0.8 0.1
v 0.4 0.8 0.1
v -1.4 0.8 0
v -1.3 0.8 0
v -1.2 0.8 0
v -1.1 0.8 0
v -1.3 0.8 -0.1
v -1.2 0.8 -0.1
v -1.1 0.8 -0.1
v -1 0.8 -0.1
v -1.2 0.8 -0.2
v -1.1 0.8 -0.2
v -1 0.8 -0.2
v -0.9 0.8 -0.2
v -1.1 0.8 -0.3
v -1 0.8 -0.3
v -1 0.8 -0.4
v -0.9 0.8 -0.4
v -1.4 0.9 0.6
v -1.2 0.9 0.6
v 0.2 0.9 0.6
v 0.3 0.9 0.6
v 0.4 0.9 0.6
v 0.1 0.9 0.5
v 0.2 0.9 0.5
v 0.3 0.9 0.5
v 0.4 0.9 0.5
v 0.5 0.9 0.5
v 0.2 0.9 0.4
v 0.3 0.9 0.4
v 0.4 0.9 0.4
v 0.5 0.9 0.4
v 0.1 0.9 0.3
v 0.2 0.9 0.3
v 0.3 0.9 0.3
v 0.4 0.9 0.3
v 0.5 0.9 0.3
v -1.4 0.9 0.2
v -1.2 0.9 0.2
v 0.2 0.9 0.2
v 0.3 0.9 0.2
v 0.4 0.9 0.2
v 0.2 1 0.5
v 0.3 1 0.5
v 0.2 1 0.4
v 0.3 1 0.4
v 0.4 1 0.4
v 0.2 1 0.3
v 0.3 1 0.3
v 0.4 1 0.3

# faces
f 4/3/1 2/3/1 1/3/1
f 5/4/1 3/4/1 2/4/1
f 5/3/1 2/3/1 4/3/1
f 6/4/1 3/4/1 5/4/1
f 7/4/1 3/4/1 6/4/1
f 13/8/1 9/8/1 8/8/1
f 14/8/1 9/8/1 13/8/1
f 15/8/1 9/8/1 14/8/1
f 16/8/1 9/8/1 15/8/1
f 17/8/1 9/8/1 16/8/1
f 19/6/1 11/6/1 10/6/1
f 20/7/1 12/7/1 11/7/1
f 20/6/1 11/6/1 19/6/1
f 21/7/1 12/7/1 20/7/1
f 22/8/1 14/8/1 13/8/1
f 24/7/1 18/7/1 17/7/1
f 25/7/1 18/7/1 24/7/1
f 26/7/1 20/7/1 19/7/1
f 27/6/1 21/6/1 20/6/1
f 27/7/1 20/7/1 26/7/1
f 28/7/1 12/7/1 21/7/1
f 28/6/1 21/6/1 27/6/1
f 29/6/1 13/6/1 12/6/1
f 29/7/1 12/7/1 28/7/1
f 30/8/1 23/8/1 22/8/1
f 30/6/1 13/6/1 29/6/1
f 30/8/1 22/8/1 13/8/1
f 31/8/1 23/8/1 30/8/1
f 32/8/1 17/8/1 16/8/1
f 33/7/1 24/7/1 17/7/1
f 33/8/1 17/8/1 32/8/1
f 34/6/1 25/6/1 24/6/1
f 34/7/1 24/7/1 33/7/1
f 35/6/1 25/6/1 34/6/1
f 36/8/1 32/8/1 31/8/1
f 36/8/1 33/8/1 32/8/1
f 36/8/1 31/8/1 30/8/1
f 37/8/1 33/8/1 36/8/1
f 40/7/1 39/7/1 38/7/1
f 41/7/1 39/7/1 40/7/1
f 42/7/1 39/7/1 41/7/1
f 45/7/1 44/7/1 43/7/1
f 46/7/1 44/7/1 45/7/1
f 51/4/1 50/4/1 49/4/1
f 52/4/1 50/4/1 51/4/1
f 53/7/1 48/7/1 47/7/1
f 54/7/1 48/7/1 53/7/1
f 57/6/1 56/6/1 55/6/1
f 58/6/1 56/6/1 57/6/1
f 59/7/1 58/7/1 57/7/1
f 60/7/1 58/7/1 59/7/1
f 63/4/1 62/4/1 61/4/1
f 64/4/1 62/4/1 63/4/1
f 66/4/1 65/4/1 64/4/1
f 67/4/1 65/4/1 66/4/1
f 70/4/1 69/4/1 68/4/1
f 71/4/1 69/4/1 70/4/1
f 74/4/1 73/4/1 72/4/1
f 75/4/1 73/4/1 74/4/1
f 77/4/1 76/4/1 75/4/1
f 78/4/1 76/4/1 77/4/1
f 81/4/1 80/4/1 79/4/1
f 82/4/1 80/4/1 81/4/1
f 85/4/1 84/4/1 83/4/1
f 86/4/1 84/4/1 85/4/1
f 89/4/1 88/4/1 87/4/1
f 90/4/1 88/4/1 89/4/1
f 95/1/1 92/1/1 91/1/1
f 96/2/1 93/2/1 92/2/1
f 96/1/1 92/1/1 95/1/1
f 97/2/1 93/2/1 96/2/1
f 99/2/1 95/2/1 94/2/1
f 100/2/1 95/2/1 99/2/1
f 102/2/1 98/2/1 97/2/1
f 103/2/1 98/2/1 102/2/1
f 104/1/1 100/1/1 99/1/1
f 105/2/1 101/2/1 100/2/1
f 105/1/1 100/1/1 104/1/1
f 106/2/1 101/2/1 105/2/1
f 107/1/1 103/1/1 102/1/1
f 108/1/1 103/1/1 107/1/1
f 109/2/1 106/2/1 105/2/1
f 109/2/1 107/2/1 106/2/1
f 110/2/1 107/2/1 109/2/1
f 115/2/1 112/2/1 111/2/1
f 116/1/1 113/1/1 112/1/1
f 116/2/1 112/2/1 115/2/1
f 117/1/1 113/1/1 116/1/1
f 120/2/1 115/2/1 114/2/1
f 121/2/1 115/2/1 120/2/1
f 122/2/1 118/2/1 117/2/1
f 123/2/1 118/2/1 122/2/1
f 125/2/1 120/2/1 119/2/1
f 126/2/1 120/2/1 125/2/1
f 127/2/1 124/2/1 123/2/1
f 128/1/1 126/1/1 125/1/1
f 129/1/1 126/1/1 128/1/1
f 132/2/1 124/2/1 127/2/1
f 133/2/1 124/2/1 132/2/1
f 134/2/1 130/2/1 129/2/1
f 135/2/1 130/2/1 134/2/1
f 137/2/1 132/2/1 131/2/1
f 138/2/1 132/2/1 137/2/1
f 139/2/1 136/2/1 135/2/1
f 140/1/1 137/1/1 136/1/1
f 140/2/1 136/2/1 139/2/1
f 141/1/1 137/1/1 140/1/1
f 142/7/2 143/7/2 144/7/2
f 144/7/2 143/7/2 145/7/2
f 146/8/2 147/8/2 152/8/2
f 152/8/2 147/8/2 153/8/2
f 153/8/2 147/8/2 154/8/2
f 154/8/2 147/8/2 155/8/2
f 155/8/2 147/8/2 156/8/2
f 148/6/2 149/6/2 158/6/2
f 149/7/2 150/7/2 159/7/2
f 158/6/2 149/6/2 159/6/2
f 159/7/2 150/7/2 160/7/2
f 150/6/2 151/6/2 161/6/2
f 160/7/2 150/7/2 161/7/2
f 151/7/2 152/7/2 162/7/2
f 161/6/2 151/6/2 162/6/2
f 152/8/2 153/8/2 163/8/2
f 162/7/2 152/7/2 163/7/2
f 163/8/2 153/8/2 164/8/2
f 156/7/2 157/7/2 166/7/2
f 166/7/2 157/7/2 167/7/2
f 159/7/2 160/7/2 168/7/2
f 160/6/2 161/6/2 169/6/2
f 168/7/2 160/7/2 169/7/2
f 161/7/2 162/7/2 170/7/2
f 169/6/2 161/6/2 170/6/2
f 162/6/2 163/6/2 171/6/2
f 170/7/2 162/7/2 171/7/2
f 164/8/2 165/8/2 172/8/2
f 171/6/2 163/6/2 172/6/2
f 163/8/2 164/8/2 172/8/2
f 172/8/2 165/8/2 173/8/2
f 155/8/2 156/8/2 174/8/2
f 156/7/2 166/7/2 175/7/2
f 174/8/2 156/8/2 175/8/2
f 166/6/2 167/6/2 176/6/2
f 175/7/2 166/7/2 176/7/2
f 176/6/2 167/6/2 177/6/2
f 172/8/2 173/8/2 178/8/2
f 173/8/2 174/8/2 178/8/2
f 174/8/2 175/8/2 178/8/2
f 178/8/2 175/8/2 179/8/2
f 180/7/2 181/7/2 182/7/2
f 182/7/2 181/7/2 183/7/2
f 182/6/2 183/6/2 184/6/2
f 184/6/2 183/6/2 185/6/2
f 186/4/2 187/4/2 190/4/2
f 190/4/2 187/4/2 191/4/2
f 188/7/2 189/7/2 193/7/2
f 193/7/2 189/7/2 194/7/2
f 191/4/2 192/4/2 195/4/2
f 195/4/2 192/4/2 196/4/2
f 193/6/2 194/6/2 197/6/2
f 197/6/2 194/6/2 198/6/2
f 199/6/2 200/6/2 201/6/2
f 201/6/2 200/6/2 202/6/2
f 201/7/2 202/7/2 203/7/2
f 203/7/2 202/7/2 204/7/2
f 205/4/2 206/4/2 207/4/2
f 207/4/2 206/4/2 208/4/2
f 209/4/2 210/4/2 211/4/2
f 211/4/2 210/4/2 212/4/2
f 212/4/2 213/4/2 214/4/2
f 214/4/2 213/4/2 215/4/2
f 216/4/2 217/4/2 218/4/2
f 218/4/2 217/4/2 219/4/2
f 220/4/2 221/4/2 222/4/2
f 222/4/2 221/4/2 223/4/2
f 223/4/2 224/4/2 225/4/2
f 225/4/2 224/4/2 226/4/2
f 227/4/2 228/4/2 229/4/2
f 229/4/2 228/4/2 230/4/2
f 231/2/2 232/2/2 233/2/2
f 233/2/2 232/2/2 234/2/2
f 235/1/2 236/1/2 239/1/2
f 236/2/2 237/2/2 240/2/2
f 239/1/2 236/1/2 240/1/2
f 240/2/2 237/2/2 241/2/2
f 238/1/2 239/1/2 244/1/2
f 244/1/2 239/1/2 245/1/2
f 241/1/2 242/1/2 246/1/2
f 246/1/2 242/1/2 247/1/2
f 243/1/2 244/1/2 249/1/2
f 249/1/2 244/1/2 250/1/2
f 247/1/2 248/1/2 251/1/2
f 251/1/2 248/1/2 252/1/2
f 249/2/2 250/2/2 253/2/2
f 253/2/2 250/2/2 254/2/2
f 251/2/2 252/2/2 257/2/2
f 257/2/2 252/2/2 258/2/2
f 254/1/2 255/1/2 259/1/2
f 259/1/2 255/1/2 260/1/2
f 256/1/2 257/1/2 262/1/2
f 262/1/2 257/1/2 263/1/2
f 261/2/2 262/2/2 264/2/2
f 264/2/2 262/2/2 265/2/2
f 266/2/2 267/2/2 269/2/2
f 269/2/2 267/2/2 270/2/2
f 270/2/2 267/2/2 271/2/2
f 268/2/2 269/2/2 273/2/2
f 273/2/2 269/2/2 274/2/2
f 271/1/2 272/1/2 275/1/2
f 275/1/2 272/1/2 276/1/2
f 273/1/2 274/1/2 277/1/2
f 277/1/2 274/1/2 278/1/2
f 275/2/2 276/2/2 280/2/2
f 280/2/2 276/2/2 281/2/2
f 278/2/2 279/2/2 282/2/2
f 279/1/2 280/1/2 283/1/2
f 282/2/2 279/2/2 283/2/2
f 283/1/2 280/1/2 284/1/2
f 285/2/2 286/2/2 288/2/2
f 286/1/2 287/1/2 289/1/2
f 288/2/2 286/2/2 289/2/2
f 289/1/2 287/1/2 290/1/2
f 288/1/2 289/1/2 291/1/2
f 289/2/2 290/2/2 292/2/2
f 291/1/2 289/1/2 292/1/2
f 292/2/2 290/2/2 293/2/2
f 297/6/3 295/6/3 294/6/3
f 297/7/3 296/7/3 295/7/3
f 298/7/3 296/7/3 297/7/3
f 299/6/3 297/6/3 294/6/3
f 300/6/3 297/6/3 299/6/3
f 303/7/3 302/7/3 301/7/3
f 304/7/3 302/7/3 303/7/3
f 308/2/3 306/2/3 305/2/3
f 309/1/3 307/1/3 306/1/3
f 309/2/3 306/2/3 308/2/3
f 310/1/3 307/1/3 309/1/3
f 311/1/3 309/1/3 308/1/3
f 312/2/3 310/2/3 309/2/3
f 312/1/3 309/1/3 311/1/3
f 313/2/3 310/2/3 312/2/3
f 318/8/3 315/8/3 314/8/3
f 319/8/3 318/8/3 314/8/3
f 320/8/3 318/8/3 319/8/3
f 321/8/3 317/8/3 316/8/3
f 322/8/3 317/8/3 321/8/3
f 327/2/3 324/2/3 323/2/3
f 328/1/3 325/1/3 324/1/3
f 328/2/3 324/2/3 327/2/3
f 329/1/3 325/1/3 328/1/3
f 331/2/3 327/2/3 326/2/3
f 332/2/3 327/2/3 331/2/3
f 333/2/3 330/2/3 329/2/3
f 334/2/3 330/2/3 333/2/3
f 335/1/3 332/1/3 331/1/3
f 336/1/3 332/1/3 335/1/3
f 338/1/3 334/1/3 333/1/3
f 339/1/3 334/1/3 338/1/3
f 340/2/3 337/2/3 336/2/3
f 341/1/3 338/1/3 337/1/3
f 341/2/3 337/2/3 340/2/3
f 342/1/3 338/1/3 341/1/3
f 345/3/3 344/3/3 343/3/3
f 346/3/3 344/3/3 345/3/3
f 349/3/3 348/3/3 347/3/3
f 350/3/3 348/3/3 349/3/3
f 352/4/3 350/4/3 349/4/3
f 352/4/3 351/4/3 350/4/3
f 353/4/3 351/4/3 352/4/3
f 355/4/3 351/4/3 353/4/3
f 356/4/3 355/4/3 354/4/3
f 357/4/3 351/4/3 355/4/3
f 357/4/3 355/4/3 356/4/3
f 358/4/3 351/4/3 357/4/3
f 359/3/3 357/3/3 356/3/3
f 360/3/3 357/3/3 359/3/3
f 362/4/3 360/4/3 359/4/3
f 362/4/3 361/4/3 360/4/3
f 363/4/3 361/4/3 362/4/3
f 365/4/3 361/4/3 363/4/3
f 366/4/3 365/4/3 364/4/3
f 367/4/3 361/4/3 365/4/3
f 367/4/3 365/4/3 366/4/3
f 368/4/3 361/4/3 367/4/3
f 369/3/3 367/3/3 366/3/3
f 370/3/3 367/3/3 369/3/3
f 372/4/3 370/4/3 369/4/3
f 372/4/3 371/4/3 370/4/3
f 373/4/3 371/4/3 372/4/3
f 375/4/3 371/4/3 373/4/3
f 376/4/3 375/4/3 374/4/3
f 377/4/3 371/4/3 375/4/3
f 377/4/3 375/4/3 376/4/3
f 378/4/3 371/4/3 377/4/3
f 380/3/3 377/3/3 376/3/3
f 381/3/3 377/3/3 380/3/3
f 385/1/3 380/1/3 379/1/3
f 386/1/3 380/1/3 385/1/3
f 387/2/3 383/2/3 382/2/3
f 388/2/3 383/2/3 387/2/3
f 390/2/3 385/2/3 384/2/3
f 391/2/3 385/2/3 390/2/3
f 392/2/3 389/2/3 388/2/3
f 393/2/3 389/2/3 392/2/3
f 394/1/3 391/1/3 390/1/3
f 395/1/3 391/1/3 394/1/3
f 399/2/3 396/2/3 395/2/3
f 400/2/3 396/2/3 399/2/3
f 402/2/3 398/2/3 397/2/3
f 403/2/3 398/2/3 402/2/3
f 404/2/3 401/2/3 400/2/3
f 405/1/3 402/1/3 401/1/3
f 405/2/3 401/2/3 404/2/3
f 406/1/3 402/1/3 405/1/3
f 409/4/3 408/4/3 407/4/3
f 410/4/3 408/4/3 409/4/3
f 413/4/3 412/4/3 411/4/3
f 414/4/3 412/4/3 413/4/3
f 417/3/3 416/3/3 415/3/3
f 418/3/3 416/3/3 417/3/3
f 421/4/3 420/4/3 419/4/3
f 422/4/3 420/4/3 421/4/3
f 425/3/3 424/3/3 423/3/3
f 426/3/3 424/3/3 425/3/3
f 429/4/3 428/4/3 427/4/3
f 430/4/3 428/4/3 429/4/3
f 433/3/3 432/3/3 431/3/3
f 434/3/3 432/3/3 433/3/3
f 437/4/3 436/4/3 435/4/3
f 438/4/3 436/4/3 437/4/3
f 441/2/3 440/2/3 439/2/3
f 442/2/3 440/2/3 441/2/3
f 446/7/3 444/7/3 443/7/3
f 447/6/3 445/6/3 444/6/3
f 447/7/3 444/7/3 446/7/3
f 448/6/3 445/6/3 447/6/3
f 452/7/3 450/7/3 449/7/3
f 453/6/3 451/6/3 450/6/3
f 453/7/3 450/7/3 452/7/3
f 454/6/3 451/6/3 453/6/3
f 458/6/3 456/6/3 455/6/3
f 459/7/3 457/7/3 456/7/3
f 459/6/3 456/6/3 458/6/3
f 460/7/3 457/7/3 459/7/3
f 461/4/4 462/4/4 463/4/4
f 463/4/4 462/4/4 464/4/4
f 465/4/4 466/4/4 467/4/4
f 467/4/4 466/4/4 468/4/4
f 469/4/4 470/4/4 471/4/4
f 471/4/4 470/4/4 472/4/4
f 473/4/4 474/4/4 475/4/4
f 475/4/4 474/4/4 476/4/4
f 477/4/4 478/4/4 479/4/4
f 479/4/4 478/4/4 480/4/4
f 480/4/4 478/4/4 481/4/4
f 479/3/4 480/3/4 482/3/4
f 482/3/4 480/3/4 483/3/4
f 482/4/4 483/4/4 485/4/4
f 483/4/4 484/4/4 485/4/4
f 485/4/4 484/4/4 486/4/4
f 486/4/4 484/4/4 487/4/4
f 485/3/4 486/3/4 488/3/4
f 488/3/4 486/3/4 489/3/4
f 488/4/4 489/4/4 491/4/4
f 489/4/4 490/4/4 491/4/4
f 491/4/4 490/4/4 492/4/4
f 492/4/4 490/4/4 493/4/4
f 491/3/4 492/3/4 494/3/4
f 494/3/4 492/3/4 495/3/4
f 494/4/4 495/4/4 498/4/4
f 495/4/4 496/4/4 498/4/4
f 498/4/4 496/4/4 499/4/4
f 499/4/4 496/4/4 500/4/4
f 497/2/4 498/2/4 503/2/4
f 503/2/4 498/2/4 504/2/4
f 500/2/4 501/2/4 505/2/4
f 505/2/4 501/2/4 506/2/4
f 502/1/4 503/1/4 508/1/4
f 508/1/4 503/1/4 509/1/4
f 506/1/4 507/1/4 510/1/4
f 510/1/4 507/1/4 511/1/4
f 508/2/4 509/2/4 512/2/4
f 512/2/4 509/2/4 513/2/4
f 510/2/4 511/2/4 516/2/4
f 516/2/4 511/2/4 517/2/4
f 513/2/4 514/2/4 518/2/4
f 518/2/4 514/2/4 519/2/4
f 515/1/4 516/1/4 521/1/4
f 521/1/4 516/1/4 522/1/4
f 519/1/4 520/1/4 523/1/4
f 520/2/4 521/2/4 524/2/4
f 523/1/4 520/1/4 524/1/4
f 524/2/4 521/2/4 525/2/4
f 526/8/4 527/8/4 530/8/4
f 530/8/4 527/8/4 531/8/4
f 528/8/4 529/8/4 532/8/4
f 532/8/4 529/8/4 533/8/4
f 534/2/4 535/2/4 538/2/4
f 535/1/4 536/1/4 539/1/4
f 538/2/4 535/2/4 539/2/4
f 539/1/4 536/1/4 540/1/4
f 537/2/4 538/2/4 542/2/4
f 542/2/4 538/2/4 543/2/4
f 540/2/4 541/2/4 544/2/4
f 544/2/4 541/2/4 545/2/4
f 542/1/4 543/1/4 546/1/4
f 546/1/4 543/1/4 547/1/4
f 544/1/4 545/1/4 549/1/4
f 549/1/4 545/1/4 550/1/4
f 547/1/4 548/1/4 551/1/4
f 548/2/4 549/2/4 552/2/4
f 551/1/4 548/1/4 552/1/4
f 552/2/4 549/2/4 553/2/4
f 554/2/4 555/2/4 556/2/4
f 556/2/4 555/2/4 557/2/4
f 556/1/4 557/1/4 558/1/4
f 557/2/4 555/2/4 559/2/4
f 558/1/4 557/1/4 559/1/4
f 559/2/4 555/2/4 560/2/4
f 561/7/4 562/7/4 564/7/4
f 562/6/4 563/6/4 565/6/4
f 564/7/4 562/7/4 565/7/4
f 565/6/4 563/6/4 566/6/4
f 567/7/4 568/7/4 569/7/4
f 569/7/4 568/7/4 570/7/4
f 571/7/4 572/7/4 573/7/4
f 573/7/4 572/7/4 574/7/4
f 575/7/4 576/7/4 577/7/4
f 577/7/4 576/7/4 578/7/4
f 578/7/4 576/7/4 579/7/4
f 580/6/4 581/6/4 583/6/4
f 581/7/4 582/7/4 584/7/4
f 583/6/4 581/6/4 584/6/4
f 584/7/4 582/7/4 585/7/4
f 589/2/5 587/2/5 586/2/5
f 590/1/5 588/1/5 587/1/5
f 590/2/5 587/2/5 589/2/5
f 591/1/5 588/1/5 590/1/5
f 592/1/5 590/1/5 589/1/5
f 593/2/5 591/2/5 590/2/5
f 593/1/5 590/1/5 592/1/5
f 594/2/5 591/2/5 593/2/5
f 601/2/5 598/2/5 597/2/5
f 602/1/5 599/1/5 598/1/5
f 602/2/5 598/2/5 601/2/5
f 603/1/5 599/1/5 602/1/5
f 605/1/5 601/1/5 600/1/5
f 606/1/5 601/1/5 605/1/5
f 607/2/5 604/2/5 603/2/5
f 608/2/5 606/2/5 605/2/5
f 609/2/5 606/2/5 608/2/5
f 611/2/5 604/2/5 607/2/5
f 612/2/5 604/2/5 611/2/5
f 613/8/5 596/8/5 595/8/5
f 614/8/5 596/8/5 613/8/5
f 615/2/5 610/2/5 609/2/5
f 616/1/5 611/1/5 610/1/5
f 616/2/5 610/2/5 615/2/5
f 617/1/5 611/1/5 616/1/5
f 620/6/5 619/6/5 618/6/5
f 621/6/5 619/6/5 620/6/5
f 622/7/5 621/7/5 620/7/5
f 623/7/5 621/7/5 622/7/5
f 624/6/5 623/6/5 622/6/5
f 625/6/5 623/6/5 624/6/5
f 629/6/5 624/6/5 622/6/5
f 630/7/5 625/7/5 624/7/5
f 630/6/5 624/6/5 629/6/5
f 631/7/5 625/7/5 630/7/5
f 633/2/5 627/2/5 626/2/5
f 634/1/5 628/1/5 627/1/5
f 634/2/5 627/2/5 633/2/5
f 635/1/5 628/1/5 634/1/5
f 652/2/5 633/2/5 632/2/5
f 653/2/5 633/2/5 652/2/5
f 654/2/5 636/2/5 635/2/5
f 655/2/5 636/2/5 654/2/5
f 657/3/5 638/3/5 637/3/5
f 658/3/5 638/3/5 657/3/5
f 659/3/5 640/3/5 639/3/5
f 660/4/5 641/4/5 640/4/5
f 660/3/5 640/3/5 659/3/5
f 661/4/5 641/4/5 660/4/5
f 662/4/5 643/4/5 642/4/5
f 663/3/5 644/3/5 643/3/5
f 663/4/5 643/4/5 662/4/5
f 664/4/5 645/4/5 644/4/5
f 664/3/5 644/3/5 663/3/5
f 665/4/5 645/4/5 664/4/5
f 666/4/5 647/4/5 646/4/5
f 667/3/5 648/3/5 647/3/5
f 667/4/5 647/4/5 666/4/5
f 668/4/5 649/4/5 648/4/5
f 668/3/5 648/3/5 667/3/5
f 669/4/5 649/4/5 668/4/5
f 670/4/5 651/4/5 650/4/5
f 671/3/5 652/3/5 651/3/5
f 671/4/5 651/4/5 670/4/5
f 672/3/5 652/3/5 671/3/5
f 673/2/5 656/2/5 655/2/5
f 674/2/5 656/2/5 673/2/5
f 675/4/5 658/4/5 657/4/5
f 676/4/5 658/4/5 675/4/5
f 677/4/5 661/4/5 660/4/5
f 677/4/5 660/4/5 659/4/5
f 678/3/5 662/3/5 661/3/5
f 678/4/5 661/4/5 677/4/5
f 679/4/5 663/4/5 662/4/5
f 679/3/5 662/3/5 678/3/5
f 679/4/5 665/4/5 664/4/5
f 679/4/5 664/4/5 663/4/5
f 680/3/5 666/3/5 665/3/5
f 680/4/5 665/4/5 679/4/5
f 681/4/5 669/4/5 668/4/5
f 681/3/5 666/3/5 680/3/5
f 681/4/5 667/4/5 666/4/5
f 681/4/5 668/4/5 667/4/5
f 682/3/5 671/3/5 670/3/5
f 682/4/5 669/4/5 681/4/5
f 682/3/5 670/3/5 669/3/5
f 683/4/5 672/4/5 671/4/5
f 683/3/5 671/3/5 682/3/5
f 684/4/5 672/4/5 683/4/5
f 687/1/5 674/1/5 673/1/5
f 688/1/5 674/1/5 687/1/5
f 691/2/5 685/2/5 684/2/5
f 692/2/5 685/2/5 691/2/5
f 694/1/5 687/1/5 686/1/5
f 695/1/5 687/1/5 694/1/5
f 696/2/5 693/2/5 692/2/5
f 697/1/5 694/1/5 693/1/5
f 697/2/5 693/2/5 696/2/5
f 698/1/5 694/1/5 697/1/5
f 699/7/5 690/7/5 689/7/5
f 700/7/5 690/7/5 699/7/5
f 701/7/5 690/7/5 700/7/5
f 703/7/5 702/7/5 701/7/5
f 703/7/5 701/7/5 700/7/5
f 704/7/5 702/7/5 703/7/5
f 705/7/5 702/7/5 704/7/5
f 707/7/5 706/7/5 705/7/5
f 707/7/5 705/7/5 704/7/5
f 708/7/5 706/7/5 707/7/5
f 709/7/5 706/7/5 708/7/5
f 711/7/5 709/7/5 708/7/5
f 712/6/5 710/6/5 709/6/5
f 712/7/5 709/7/5 711/7/5
f 713/6/5 710/6/5 712/6/5
f 714/6/5 710/6/5 713/6/5
f 721/4/5 716/4/5 715/4/5
f 722/4/5 716/4/5 721/4/5
f 723/4/5 718/4/5 717/4/5
f 724/4/5 718/4/5 723/4/5
f 725/4/5 720/4/5 719/4/5
f 726/4/5 720/4/5 725/4/5
f 727/6/6 728/6/6 729/6/6
f 729/6/6 728/6/6 730/6/6
f 731/3/6 732/3/6 741/3/6
f 741/3/6 732/3/6 742/3/6
f 733/3/6 734/3/6 743/3/6
f 743/3/6 734/3/6 744/3/6
f 735/3/6 736/3/6 747/3/6
f 747/3/6 736/3/6 748/3/6
f 737/3/6 738/3/6 751/3/6
f 751/3/6 738/3/6 752/3/6
f 739/3/6 740/3/6 754/3/6
f 754/3/6 740/3/6 755/3/6
f 745/3/6 746/3/6 756/3/6
f 756/3/6 746/3/6 757/3/6
f 749/3/6 750/3/6 758/3/6
f 758/3/6 750/3/6 759/3/6
f 753/3/6 754/3/6 760/3/6
f 760/3/6 754/3/6 761/3/6
f 762/7/6 763/7/6 764/7/6
f 764/7/6 763/7/6 765/7/6
f 764/6/6 765/6/6 767/6/6
f 765/7/6 766/7/6 768/7/6
f 767/6/6 765/6/6 768/6/6
f 768/7/6 766/7/6 769/7/6
f 767/7/6 768/7/6 770/7/6
f 768/6/6 769/6/6 771/6/6
f 770/7/6 768/7/6 771/7/6
f 771/6/6 769/6/6 772/6/6
f 770/6/6 771/6/6 773/6/6
f 771/7/6 772/7/6 773/7/6
f 773/7/6 772/7/6 774/7/6
f 773/6/6 774/6/6 778/6/6
f 770/6/6 773/6/6 778/6/6
f 778/6/6 774/6/6 779/6/6
f 775/1/6 776/1/6 781/1/6
f 776/2/6 777/2/6 782/2/6
f 781/1/6 776/1/6 782/1/6
f 782/2/6 777/2/6 783/2/6
f 780/1/6 781/1/6 791/1/6
f 791/1/6 781/1/6 792/1/6
f 783/1/6 784/1/6 793/1/6
f 793/1/6 784/1/6 794/1/6
f 785/4/6 786/4/6 799/4/6
f 799/4/6 786/4/6 800/4/6
f 800/4/6 786/4/6 801/4/6
f 801/4/6 786/4/6 802/4/6
f 787/4/6 788/4/6 803/4/6
f 803/4/6 788/4/6 804/4/6
f 804/4/6 788/4/6 805/4/6
f 805/4/6 788/4/6 806/4/6
f 789/4/6 790/4/6 807/4/6
f 807/4/6 790/4/6 808/4/6
f 808/4/6 790/4/6 809/4/6
f 794/1/6 795/1/6 811/1/6
f 811/1/6 795/1/6 812/1/6
f 796/4/6 797/4/6 813/4/6
f 813/4/6 797/4/6 814/4/6
f 798/4/6 799/4/6 815/4/6
f 799/4/6 800/4/6 815/4/6
f 815/4/6 800/4/6 816/4/6
f 801/4/6 802/4/6 817/4/6
f 802/4/6 803/4/6 817/4/6
f 803/4/6 804/4/6 817/4/6
f 817/4/6 804/4/6 818/4/6
f 805/4/6 806/4/6 819/4/6
f 807/4/6 808/4/6 819/4/6
f 806/4/6 807/4/6 819/4/6
f 819/4/6 808/4/6 820/4/6
f 809/4/6 810/4/6 821/4/6
f 821/4/6 810/4/6 822/4/6
f 811/2/6 812/2/6 825/2/6
f 825/2/6 812/2/6 826/2/6
f 822/1/6 823/1/6 829/1/6
f 829/1/6 823/1/6 830/1/6
f 824/2/6 825/2/6 832/2/6
f 832/2/6 825/2/6 833/2/6
f 827/7/6 828/7/6 834/7/6
f 834/7/6 828/7/6 835/7/6
f 830/2/6 831/2/6 836/2/6
f 831/2/6 832/2/6 836/2/6
f 836/2/6 832/2/6 837/2/6
f 834/6/6 835/6/6 838/6/6
f 838/6/6 835/6/6 839/6/6
f 839/6/6 835/6/6 840/6/6
f 839/7/6 840/7/6 842/7/6
f 840/6/6 841/6/6 843/6/6
f 842/7/6 840/7/6 843/7/6
f 843/6/6 841/6/6 844/6/6
f 843/7/6 844/7/6 846/7/6
f 844/6/6 845/6/6 847/6/6
f 846/7/6 844/7/6 847/7/6
f 847/6/6 845/6/6 848/6/6
f 848/7/6 849/7/6 850/7/6
f 847/7/6 848/7/6 850/7/6
f 850/7/6 849/7/6 851/7/6
f 851/7/6 849/7/6 852/7/6
f 852/7/6 849/7/6 853/7/6
f 856/2/6 857/2/6 860/2/6
f 857/1/6 858/1/6 861/1/6
f 860/2/6 857/2/6 861/2/6
f 861/1/6 858/1/6 862/1/6
f 859/2/6 860/2/6 864/2/6
f 861/1/6 862/1/6 865/1/6
f 862/2/6 863/2/6 866/2/6
f 865/1/6 862/1/6 866/1/6
f 866/2/6 863/2/6 867/2/6
f 859/2/6 864/2/6 868/2/6
f 868/2/6 864/2/6 869/2/6
f 866/1/6 867/1/6 871/1/6
f 871/1/6 867/1/6 872/1/6
f 854/8/6 855/8/6 873/8/6
f 873/8/6 855/8/6 874/8/6
f 869/2/6 870/2/6 875/2/6
f 870/1/6 871/1/6 876/1/6
f 875/2/6 870/2/6 876/2/6
f 876/1/6 871/1/6 877/1/6
f 878/2/6 879/2/6 880/2/6
f 880/2/6 879/2/6 881/2/6
f 880/1/6 881/1/6 883/1/6
f 881/2/6 882/2/6 884/2/6
f 883/1/6 881/1/6 884/1/6
f 884/2/6 882/2/6 885/2/6
