# MagicaVoxel @ Ephtracy

# group
o 

# material
mtllib onion base2.mtl
usemtl palette

# normals
vn -1 0 0
vn 1 0 0
vn 0 0 1
vn 0 0 -1
vn 0 -1 0
vn 0 1 0

# texcoords
vt 0.876953 0.5
vt 0.908203 0.5
vt 0.912109 0.5
vt 0.916016 0.5
vt 0.939453 0.5
vt 0.943359 0.5
vt 0.947266 0.5
vt 0.970703 0.5
vt 0.974609 0.5
vt 0.978516 0.5
vt 0.986328 0.5

# verts
v -1.1 0.7 0.3
v -1.1 0.7 0.2
v -1.1 0.7 0.1
v -1.1 0.8 0.4
v -1.1 0.8 0.3
v -1.1 0.8 0.2
v -1.1 0.8 0.1
v -1.1 0.8 0
v -1.1 0.9 0.4
v -1.1 0.9 0.3
v -1.1 0.9 0.1
v -1.1 0.9 0
v -1.1 1 0.4
v -1.1 1 0.3
v -1.1 1 0.2
v -1.1 1 0.1
v -1.1 1 0
v -1.1 1.1 0.3
v -1.1 1.1 0.2
v -1.1 1.1 0.1
v -1.1 2 0.4
v -1.1 2 0.3
v -1.1 2.1 0.4
v -1.1 2.1 0.3
v -1 0.1 0.3
v -1 0.1 0.2
v -1 0.2 0.3
v -1 0.2 0.2
v -1 0.6 0.4
v -1 0.6 0.3
v -1 0.6 0.2
v -1 0.6 0
v -1 0.7 0.5
v -1 0.7 0.4
v -1 0.7 0.3
v -1 0.7 0.2
v -1 0.7 0.1
v -1 0.7 0
v -1 0.7 -0.1
v -1 0.8 0.5
v -1 0.8 0.4
v -1 0.8 0.3
v -1 0.8 0.1
v -1 0.8 0
v -1 0.9 0.4
v -1 0.9 0
v -1 0.9 -0.1
v -1 1 0.5
v -1 1 0.4
v -1 1 0.3
v -1 1 0.1
v -1 1 0
v -1 1.1 0.5
v -1 1.1 0.4
v -1 1.1 0.3
v -1 1.1 0.2
v -1 1.1 0.1
v -1 1.1 0
v -1 1.1 -0.1
v -1 1.2 0.4
v -1 1.2 0.3
v -1 1.2 0.2
v -1 1.2 0
v -1 1.9 0.5
v -1 1.9 0.3
v -1 1.9 0.2
v -1 1.9 0.1
v -1 2 0.5
v -1 2 0.4
v -1 2 0.3
v -1 2 0.2
v -1 2 0.1
v -1 2.1 0.4
v -1 2.1 0.3
v -1 2.1 0.2
v -1 2.2 0.4
v -1 2.2 0.3
v -0.9 0.1 0.5
v -0.9 0.1 0.4
v -0.9 0.1 0.2
v -0.9 0.1 0.1
v -0.9 0.2 0.5
v -0.9 0.2 0.4
v -0.9 0.2 0.2
v -0.9 0.2 0.1
v -0.9 0.5 0.4
v -0.9 0.5 0.2
v -0.9 0.5 0.1
v -0.9 0.5 0
v -0.9 0.6 0.5
v -0.9 0.6 0.4
v -0.9 0.6 0.3
v -0.9 0.6 0.2
v -0.9 0.6 0.1
v -0.9 0.6 0
v -0.9 0.6 -0.1
v -0.9 0.7 0.6
v -0.9 0.7 0.5
v -0.9 0.7 0.4
v -0.9 0.7 0
v -0.9 0.7 -0.1
v -0.9 0.7 -0.2
v -0.9 0.8 0.5
v -0.9 0.8 -0.1
v -0.9 0.8 -0.2
v -0.9 0.9 -0.1
v -0.9 1 0.5
v -0.9 1 -0.1
v -0.9 1 -0.2
v -0.9 1.1 0.6
v -0.9 1.1 0.5
v -0.9 1.1 0.4
v -0.9 1.1 0
v -0.9 1.1 -0.1
v -0.9 1.1 -0.2
v -0.9 1.2 0.5
v -0.9 1.2 0.4
v -0.9 1.2 0.3
v -0.9 1.2 0.2
v -0.9 1.2 0
v -0.9 1.2 -0.1
v -0.9 1.3 0.4
v -0.9 1.3 0
v -0.9 1.7 0.4
v -0.9 1.7 0.2
v -0.9 1.8 0.4
v -0.9 1.8 0.2
v -0.9 1.8 0.1
v -0.9 1.9 0.3
v -0.9 1.9 0.2
v -0.9 1.9 0.1
v -0.9 1.9 0
v -0.9 2 0.3
v -0.9 2 0.2
v -0.9 2 0.1
v -0.9 2 0
v -0.9 2.1 0.2
v -0.9 2.1 0.1
v -0.9 2.2 0.2
v -0.9 2.2 0.1
v -0.8 0.1 0.4
v -0.8 0.1 0.3
v -0.8 0.1 -0.3
v -0.8 0.1 -0.4
v -0.8 0.2 0.4
v -0.8 0.2 0.3
v -0.8 0.2 0.2
v -0.8 0.2 -0.3
v -0.8 0.2 -0.4
v -0.8 0.3 0.3
v -0.8 0.3 0.2
v -0.8 0.4 0.3
v -0.8 0.4 0.2
v -0.8 0.4 0.1
v -0.8 0.5 0.5
v -0.8 0.5 0.4
v -0.8 0.5 0.3
v -0.8 0.5 0.2
v -0.8 0.5 0.1
v -0.8 0.5 0
v -0.8 0.5 -0.1
v -0.8 0.6 0.6
v -0.8 0.6 0.5
v -0.8 0.6 0.4
v -0.8 0.6 0
v -0.8 0.6 -0.1
v -0.8 0.6 -0.2
v -0.8 0.7 0.6
v -0.8 0.7 0.5
v -0.8 0.7 -0.1
v -0.8 0.7 -0.2
v -0.8 0.8 0.7
v -0.8 0.8 0.6
v -0.8 0.8 -0.2
v -0.8 0.8 -0.3
v -0.8 0.9 -0.2
v -0.8 0.9 -0.3
v -0.8 1 0.7
v -0.8 1 0.6
v -0.8 1 -0.2
v -0.8 1 -0.3
v -0.8 1.1 0.7
v -0.8 1.1 0.6
v -0.8 1.1 0.5
v -0.8 1.1 -0.1
v -0.8 1.1 -0.2
v -0.8 1.2 0.6
v -0.8 1.2 0.5
v -0.8 1.2 0.4
v -0.8 1.2 0
v -0.8 1.2 -0.1
v -0.8 1.2 -0.2
v -0.8 1.3 0.5
v -0.8 1.3 0.4
v -0.8 1.3 0.2
v -0.8 1.3 0
v -0.8 1.3 -0.1
v -0.8 1.4 0.4
v -0.8 1.4 0.2
v -0.8 1.4 0
v -0.8 1.7 0.1
v -0.8 1.7 0
v -0.8 1.8 0.4
v -0.8 1.8 0.3
v -0.8 1.8 0.2
v -0.8 1.8 0.1
v -0.8 1.8 0
v -0.8 1.9 0.4
v -0.8 1.9 0.3
v -0.8 1.9 0.2
v -0.8 1.9 0
v -0.8 1.9 -0.1
v -0.8 2 0.4
v -0.8 2 0.3
v -0.8 2 0
v -0.8 2 -0.1
v -0.8 2.1 0.4
v -0.8 2.1 0.3
v -0.8 2.1 0.2
v -0.8 2.2 0.3
v -0.8 2.2 0.2
v -0.7 0.1 0.3
v -0.7 0.1 0.2
v -0.7 0.1 -0.2
v -0.7 0.1 -0.3
v -0.7 0.2 0.6
v -0.7 0.2 0.5
v -0.7 0.2 0.4
v -0.7 0.2 0.3
v -0.7 0.2 0.2
v -0.7 0.2 0.1
v -0.7 0.2 0
v -0.7 0.2 -0.2
v -0.7 0.2 -0.3
v -0.7 0.3 0.6
v -0.7 0.3 0.5
v -0.7 0.3 0.4
v -0.7 0.3 0.3
v -0.7 0.3 0.2
v -0.7 0.3 0.1
v -0.7 0.3 0
v -0.7 0.4 0.4
v -0.7 0.4 0.3
v -0.7 0.4 0.2
v -0.7 0.4 0.1
v -0.7 0.4 0
v -0.7 0.5 0.6
v -0.7 0.5 0.5
v -0.7 0.5 0.4
v -0.7 0.5 0.3
v -0.7 0.5 0.1
v -0.7 0.5 0
v -0.7 0.5 -0.1
v -0.7 0.5 -0.2
v -0.7 0.6 0.6
v -0.7 0.6 0.5
v -0.7 0.6 -0.1
v -0.7 0.6 -0.2
v -0.7 0.7 0.7
v -0.7 0.7 0.6
v -0.7 0.7 -0.2
v -0.7 0.7 -0.3
v -0.7 0.8 0.7
v -0.7 0.8 0.6
v -0.7 0.8 -0.2
v -0.7 0.8 -0.3
v -0.7 1 -0.2
v -0.7 1 -0.3
v -0.7 1.1 0.7
v -0.7 1.1 0.6
v -0.7 1.1 -0.2
v -0.7 1.1 -0.3
v -0.7 1.2 0.7
v -0.7 1.2 0.6
v -0.7 1.2 0.5
v -0.7 1.2 -0.1
v -0.7 1.2 -0.2
v -0.7 1.3 0.6
v -0.7 1.3 0.5
v -0.7 1.3 0.4
v -0.7 1.3 0
v -0.7 1.3 -0.1
v -0.7 1.3 -0.2
v -0.7 1.4 0.5
v -0.7 1.4 0.4
v -0.7 1.4 0.3
v -0.7 1.4 0.2
v -0.7 1.4 0.1
v -0.7 1.4 0
v -0.7 1.4 -0.1
v -0.7 1.5 0.3
v -0.7 1.5 0.2
v -0.7 1.5 0.1
v -0.7 1.6 0.4
v -0.7 1.6 0.3
v -0.7 1.7 0.4
v -0.7 1.7 0.3
v -0.7 1.7 0.2
v -0.7 1.7 0.1
v -0.7 1.8 0.2
v -0.7 1.8 0.1
v -0.7 1.8 0
v -0.7 1.8 -0.1
v -0.7 1.9 0.2
v -0.7 1.9 0.1
v -0.7 1.9 0
v -0.7 1.9 -0.1
v -0.7 2 0.1
v -0.7 2 0
v -0.7 2.1 0.1
v -0.7 2.1 0
v -0.6 0.1 0.8
v -0.6 0.1 0.7
v -0.6 0.1 -0.1
v -0.6 0.1 -0.2
v -0.6 0.2 0.8
v -0.6 0.2 0.7
v -0.6 0.2 0.6
v -0.6 0.2 0.5
v -0.6 0.2 0.4
v -0.6 0.2 0.2
v -0.6 0.2 0.1
v -0.6 0.2 0
v -0.6 0.2 -0.1
v -0.6 0.2 -0.2
v -0.6 0.3 0.7
v -0.6 0.3 0.6
v -0.6 0.3 0.5
v -0.6 0.3 0.4
v -0.6 0.3 0.3
v -0.6 0.3 0.2
v -0.6 0.3 0.1
v -0.6 0.3 0
v -0.6 0.3 -0.1
v -0.6 0.4 0.5
v -0.6 0.4 0.4
v -0.6 0.4 0.3
v -0.6 0.4 0.2
v -0.6 0.4 0.1
v -0.6 0.4 0
v -0.6 0.4 -0.1
v -0.6 0.5 0.5
v -0.6 0.5 0.4
v -0.6 0.5 0
v -0.6 0.5 -0.1
v -0.6 1.4 0.4
v -0.6 1.4 0.3
v -0.6 1.4 0.1
v -0.6 1.4 0
v -0.6 1.5 0.4
v -0.6 1.5 0.3
v -0.6 1.5 0.2
v -0.6 1.5 0.1
v -0.6 1.5 0
v -0.6 1.6 0.3
v -0.6 1.7 0.4
v -0.6 1.7 0.3
v -0.6 1.7 0.2
v -0.6 1.7 0.1
v -0.6 1.7 0
v -0.6 1.8 0.4
v -0.6 1.8 0.3
v -0.6 1.8 0.2
v -0.6 1.8 0.1
v -0.6 1.8 0
v -0.6 1.9 0.4
v -0.6 1.9 0.3
v -0.6 1.9 0.2
v -0.6 2 0.4
v -0.6 2 0.3
v -0.6 2 0.2
v -0.6 2.1 0.3
v -0.6 2.1 0.2
v -0.5 0.1 0.9
v -0.5 0.1 0.8
v -0.5 0.1 0.2
v -0.5 0.1 0
v -0.5 0.2 0.9
v -0.5 0.2 0.8
v -0.5 0.2 0.2
v -0.5 0.2 0.1
v -0.5 0.2 0
v -0.5 0.3 0.4
v -0.5 0.3 0.3
v -0.5 0.4 0.4
v -0.5 0.4 0.3
v -0.5 1.6 0.4
v -0.5 1.6 0.3
v -0.5 1.6 0.2
v -0.5 1.6 0.1
v -0.5 1.7 0.4
v -0.5 1.7 0.3
v -0.5 1.7 0.2
v -0.5 1.7 0.1
v -0.5 1.8 0.4
v -0.5 1.8 0.3
v -0.5 1.8 0.2
v -0.5 1.8 0.1
v -0.5 1.9 0.5
v -0.5 1.9 0.4
v -0.5 1.9 0.3
v -0.5 1.9 0.2
v -0.5 1.9 0.1
v -0.5 1.9 0
v -0.5 2 0.5
v -0.5 2 0.4
v -0.5 2 0.3
v -0.5 2 0.2
v -0.5 2 0.1
v -0.5 2 0
v -0.5 2.1 0.5
v -0.5 2.1 0.4
v -0.5 2.1 0.3
v -0.5 2.1 0.2
v -0.5 2.1 0.1
v -0.5 2.2 0.5
v -0.5 2.2 0.4
v -0.5 2.2 0.3
v -0.5 2.2 0.2
v -0.5 2.3 0.4
v -0.5 2.3 0.3
v -0.4 0.2 0.4
v -0.4 0.2 0.3
v -0.4 0.2 0.1
v -0.4 0.2 0
v -0.4 0.3 0.4
v -0.4 0.3 0.3
v -0.4 0.3 0.1
v -0.4 0.3 0
v -0.4 1.1 0.7
v -0.4 1.1 0.6
v -0.4 1.2 0.7
v -0.4 1.2 0.6
v -0.4 1.8 0.1
v -0.4 1.8 0
v -0.4 1.9 0.1
v -0.4 1.9 0
v -0.4 2 0.5
v -0.4 2 0.4
v -0.4 2 0.1
v -0.4 2 0
v -0.4 2.1 0.5
v -0.4 2.1 0.4
v -0.4 2.1 0.2
v -0.4 2.1 0.1
v -0.4 2.1 0
v -0.4 2.2 0.5
v -0.4 2.2 0.4
v -0.4 2.2 0.2
v -0.4 2.2 0.1
v -0.4 2.3 0.5
v -0.4 2.3 0.4
v -0.4 2.3 0.3
v -0.4 2.4 0.4
v -0.4 2.4 0.3
v -0.4 2.4 0.2
v -0.4 2.5 0.3
v -0.4 2.5 0.2
v -0.3 0.1 0.4
v -0.3 0.1 0.3
v -0.3 0.2 0.4
v -0.3 0.2 0.3
v -0.3 0.2 0
v -0.3 0.2 -0.1
v -0.3 0.3 0
v -0.3 0.3 -0.1
v -0.3 2.2 0.4
v -0.3 2.2 0.3
v -0.3 2.2 0.2
v -0.3 2.2 0.1
v -0.3 2.3 0.4
v -0.3 2.3 0.3
v -0.3 2.3 0.2
v -0.3 2.3 0.1
v -0.2 0.1 0.6
v -0.2 0.1 0.4
v -0.2 0.1 0
v -0.2 0.1 -0.1
v -0.2 0.2 0.6
v -0.2 0.2 0.4
v -0.2 0.2 0
v -0.2 0.2 -0.1
v -0.2 2.2 0.5
v -0.2 2.2 0.4
v -0.2 2.3 0.5
v -0.2 2.3 0.4
v -0.1 0.1 -0.1
v -0.1 0.1 -0.2
v -0.1 0.2 -0.1
v -0.1 0.2 -0.2
v -0.1 2.3 0.4
v -0.1 2.3 0.3
v -0.1 2.4 0.4
v -0.1 2.4 0.3
v -1 2 0.4
v -1 2 0.3
v -1 2.1 0.4
v -1 2.1 0.3
v -0.9 0.1 0.3
v -0.9 0.1 0.2
v -0.9 0.2 0.3
v -0.9 0.2 0.2
v -0.9 1.9 0.5
v -0.9 1.9 0.4
v -0.9 2 0.5
v -0.9 2 0.4
v -0.9 2.1 0.4
v -0.9 2.1 0.3
v -0.9 2.2 0.4
v -0.9 2.2 0.3
v -0.8 0.1 0.5
v -0.8 0.1 0.4
v -0.8 0.2 0.5
v -0.8 0.2 0.4
v -0.8 1.7 0.4
v -0.8 1.7 0.3
v -0.8 1.8 0.4
v -0.8 1.8 0.3
v -0.8 1.8 0.2
v -0.8 1.8 0.1
v -0.8 1.9 0.4
v -0.8 1.9 0.3
v -0.8 1.9 0.2
v -0.8 1.9 0.1
v -0.8 2 0.4
v -0.8 2 0.3
v -0.7 0.1 0.4
v -0.7 0.1 0.3
v -0.7 0.1 0.2
v -0.7 0.1 0.1
v -0.7 0.1 -0.3
v -0.7 0.1 -0.4
v -0.7 0.2 0.4
v -0.7 0.2 0.3
v -0.7 0.2 0.2
v -0.7 0.2 0.1
v -0.7 0.2 -0.3
v -0.7 0.2 -0.4
v -0.7 1.7 0.3
v -0.7 1.7 0.2
v -0.7 1.7 0.1
v -0.7 1.7 0
v -0.7 1.8 0.4
v -0.7 1.8 0.3
v -0.7 1.8 0.2
v -0.7 1.8 0.1
v -0.7 1.8 0
v -0.7 1.9 0.4
v -0.7 1.9 0.3
v -0.7 1.9 0.2
v -0.7 1.9 0
v -0.7 1.9 -0.1
v -0.7 2 0.4
v -0.7 2 0.3
v -0.7 2 0.2
v -0.7 2 0.1
v -0.7 2 0
v -0.7 2 -0.1
v -0.7 2.1 0.4
v -0.7 2.1 0.3
v -0.7 2.1 0.2
v -0.7 2.1 0.1
v -0.7 2.2 0.3
v -0.7 2.2 0.2
v -0.7 2.2 0.1
v -0.6 0.1 0.3
v -0.6 0.1 0.2
v -0.6 0.1 -0.2
v -0.6 0.1 -0.3
v -0.6 0.2 0.3
v -0.6 0.2 0.2
v -0.6 0.2 -0.2
v -0.6 0.2 -0.3
v -0.6 1.1 0.7
v -0.6 1.1 0.6
v -0.6 1.2 0.7
v -0.6 1.2 0.6
v -0.6 1.6 0.4
v -0.6 1.6 0.3
v -0.6 1.7 0.4
v -0.6 1.7 0.3
v -0.6 1.7 0.2
v -0.6 1.7 0.1
v -0.6 1.8 0.2
v -0.6 1.8 0.1
v -0.6 1.8 0
v -0.6 1.8 -0.1
v -0.6 1.9 0.2
v -0.6 1.9 0.1
v -0.6 1.9 0
v -0.6 1.9 -0.1
v -0.6 2 0.1
v -0.6 2 0
v -0.6 2.1 0.1
v -0.6 2.1 0
v -0.5 0.1 0.8
v -0.5 0.1 0.7
v -0.5 0.1 -0.1
v -0.5 0.1 -0.2
v -0.5 0.2 0.8
v -0.5 0.2 0.7
v -0.5 0.2 0.5
v -0.5 0.2 0.3
v -0.5 0.2 0.1
v -0.5 0.2 0
v -0.5 0.2 -0.1
v -0.5 0.2 -0.2
v -0.5 0.3 0.7
v -0.5 0.3 0.5
v -0.5 0.3 0.3
v -0.5 0.3 0.2
v -0.5 0.3 0.1
v -0.5 0.3 0
v -0.5 0.3 -0.1
v -0.5 0.4 0.5
v -0.5 0.4 0.4
v -0.5 0.4 0.3
v -0.5 0.4 0.2
v -0.5 0.4 0
v -0.5 0.4 -0.1
v -0.5 0.5 0.5
v -0.5 0.5 0.4
v -0.5 0.5 0
v -0.5 0.5 -0.1
v -0.5 1.4 0.4
v -0.5 1.4 0.3
v -0.5 1.4 0.1
v -0.5 1.4 0
v -0.5 1.5 0.4
v -0.5 1.5 0.3
v -0.5 1.5 0.2
v -0.5 1.5 0.1
v -0.5 1.5 0
v -0.5 1.6 0.3
v -0.5 1.6 0.2
v -0.5 1.7 0.4
v -0.5 1.7 0.3
v -0.5 1.7 0.2
v -0.5 1.7 0.1
v -0.5 1.7 0
v -0.5 1.8 0.4
v -0.5 1.8 0.3
v -0.5 1.8 0.1
v -0.5 1.8 0
v -0.4 0.1 0.9
v -0.4 0.1 0.8
v -0.4 0.1 0.2
v -0.4 0.1 0
v -0.4 0.2 0.9
v -0.4 0.2 0.8
v -0.4 0.2 0.3
v -0.4 0.2 0.2
v -0.4 0.2 0.1
v -0.4 0.2 0
v -0.4 0.3 0.5
v -0.4 0.3 0.4
v -0.4 0.3 0.3
v -0.4 0.3 0.2
v -0.4 0.3 0.1
v -0.4 0.3 0
v -0.4 0.4 0.5
v -0.4 0.4 0.4
v -0.4 0.4 0.3
v -0.4 0.4 0.2
v -0.4 0.4 0.1
v -0.4 0.4 0
v -0.4 1.4 0.3
v -0.4 1.4 0.2
v -0.4 1.4 0.1
v -0.4 1.5 0.3
v -0.4 1.5 0.2
v -0.4 1.5 0.1
v -0.4 1.6 0.4
v -0.4 1.6 0.3
v -0.4 1.6 0.2
v -0.4 1.6 0.1
v -0.4 1.7 0.4
v -0.4 1.7 0.3
v -0.4 1.7 0.2
v -0.4 1.7 0.1
v -0.4 1.8 0.4
v -0.4 1.8 0.3
v -0.4 1.8 0.2
v -0.4 1.8 0.1
v -0.4 1.9 0.5
v -0.4 1.9 0.4
v -0.4 1.9 0.3
v -0.4 1.9 0.2
v -0.4 1.9 0.1
v -0.4 1.9 0
v -0.4 2 0.5
v -0.4 2 0.4
v -0.4 2 0.3
v -0.4 2 0.2
v -0.4 2 0.1
v -0.4 2 0
v -0.4 2.1 0.5
v -0.4 2.1 0.4
v -0.4 2.1 0.3
v -0.4 2.1 0.2
v -0.4 2.1 0.1
v -0.4 2.2 0.5
v -0.4 2.2 0.4
v -0.4 2.2 0.3
v -0.4 2.3 0.4
v -0.4 2.3 0.3
v -0.3 0.2 0.4
v -0.3 0.2 0.3
v -0.3 0.2 0.2
v -0.3 0.2 0.1
v -0.3 0.2 0
v -0.3 0.3 0.4
v -0.3 0.3 0.3
v -0.3 0.3 0.2
v -0.3 0.3 0.1
v -0.3 0.3 0
v -0.3 0.4 0.4
v -0.3 0.4 0.2
v -0.3 0.4 0.1
v -0.3 0.4 0
v -0.3 0.5 0.6
v -0.3 0.5 0.5
v -0.3 0.5 0.4
v -0.3 0.5 0.2
v -0.3 0.5 0.1
v -0.3 0.5 0
v -0.3 0.5 -0.1
v -0.3 0.5 -0.2
v -0.3 0.6 0.6
v -0.3 0.6 0.5
v -0.3 0.6 -0.1
v -0.3 0.6 -0.2
v -0.3 0.7 0.7
v -0.3 0.7 0.6
v -0.3 0.7 -0.2
v -0.3 0.7 -0.3
v -0.3 0.8 0.7
v -0.3 0.8 0.6
v -0.3 0.8 -0.2
v -0.3 0.8 -0.3
v -0.3 1 -0.2
v -0.3 1 -0.3
v -0.3 1.1 0.7
v -0.3 1.1 0.6
v -0.3 1.1 -0.2
v -0.3 1.1 -0.3
v -0.3 1.2 0.7
v -0.3 1.2 0.6
v -0.3 1.2 0.5
v -0.3 1.2 -0.1
v -0.3 1.2 -0.2
v -0.3 1.3 0.6
v -0.3 1.3 0.5
v -0.3 1.3 0.4
v -0.3 1.3 0
v -0.3 1.3 -0.1
v -0.3 1.3 -0.2
v -0.3 1.4 0.5
v -0.3 1.4 0.4
v -0.3 1.4 0
v -0.3 1.4 -0.1
v -0.3 1.8 0.3
v -0.3 1.8 0.2
v -0.3 1.8 0.1
v -0.3 1.8 0
v -0.3 1.9 0.4
v -0.3 1.9 0.3
v -0.3 1.9 0.2
v -0.3 1.9 0.1
v -0.3 1.9 0
v -0.3 2 0.5
v -0.3 2 0.4
v -0.3 2 0.3
v -0.3 2 0.2
v -0.3 2 0.1
v -0.3 2 0
v -0.3 2.1 0.5
v -0.3 2.1 0.4
v -0.3 2.1 0.3
v -0.3 2.1 0.2
v -0.3 2.1 0.1
v -0.3 2.1 0
v -0.3 2.2 0.5
v -0.3 2.2 0.4
v -0.3 2.2 0.3
v -0.3 2.2 0.2
v -0.3 2.2 0.1
v -0.3 2.3 0.5
v -0.3 2.3 0.4
v -0.3 2.3 0.3
v -0.3 2.4 0.4
v -0.3 2.4 0.3
v -0.3 2.4 0.2
v -0.3 2.5 0.3
v -0.3 2.5 0.2
v -0.2 0.1 0.4
v -0.2 0.1 0.3
v -0.2 0.2 0.4
v -0.2 0.2 0.3
v -0.2 0.2 0
v -0.2 0.2 -0.1
v -0.2 0.3 0
v -0.2 0.3 -0.1
v -0.2 0.5 0.5
v -0.2 0.5 0.4
v -0.2 0.5 0
v -0.2 0.5 -0.1
v -0.2 0.6 0.6
v -0.2 0.6 0.5
v -0.2 0.6 0.4
v -0.2 0.6 0
v -0.2 0.6 -0.1
v -0.2 0.6 -0.2
v -0.2 0.7 0.6
v -0.2 0.7 0.5
v -0.2 0.7 -0.1
v -0.2 0.7 -0.2
v -0.2 0.8 0.7
v -0.2 0.8 0.6
v -0.2 0.8 -0.2
v -0.2 0.8 -0.3
v -0.2 0.9 -0.2
v -0.2 0.9 -0.3
v -0.2 1 0.7
v -0.2 1 0.6
v -0.2 1 -0.2
v -0.2 1 -0.3
v -0.2 1.1 0.7
v -0.2 1.1 0.6
v -0.2 1.1 0.5
v -0.2 1.1 -0.1
v -0.2 1.1 -0.2
v -0.2 1.2 0.6
v -0.2 1.2 0.5
v -0.2 1.2 0.4
v -0.2 1.2 0
v -0.2 1.2 -0.1
v -0.2 1.2 -0.2
v -0.2 1.3 0.5
v -0.2 1.3 0.4
v -0.2 1.3 0.3
v -0.2 1.3 0
v -0.2 1.3 -0.1
v -0.2 1.4 0.4
v -0.2 1.4 0.3
v -0.2 1.4 0
v -0.2 2.1 0.3
v -0.2 2.1 0.2
v -0.2 2.2 0.4
v -0.2 2.2 0.3
v -0.2 2.2 0.2
v -0.2 2.2 0.1
v -0.2 2.3 0.4
v -0.2 2.3 0.3
v -0.2 2.3 0.2
v -0.2 2.3 0.1
v -0.1 0.1 0.6
v -0.1 0.1 0.4
v -0.1 0.1 0
v -0.1 0.1 -0.1
v -0.1 0.2 0.6
v -0.1 0.2 0.4
v -0.1 0.2 0
v -0.1 0.2 -0.1
v -0.1 0.5 0.4
v -0.1 0.5 0.2
v -0.1 0.5 0
v -0.1 0.6 0.5
v -0.1 0.6 0.4
v -0.1 0.6 0.2
v -0.1 0.6 0
v -0.1 0.6 -0.1
v -0.1 0.7 0.6
v -0.1 0.7 0.5
v -0.1 0.7 0.4
v -0.1 0.7 0
v -0.1 0.7 -0.1
v -0.1 0.7 -0.2
v -0.1 0.8 0.6
v -0.1 0.8 0.5
v -0.1 0.8 -0.1
v -0.1 0.9 -0.1
v -0.1 0.9 -0.2
v -0.1 1 0.6
v -0.1 1 0.5
v -0.1 1 -0.1
v -0.1 1 -0.2
v -0.1 1.1 0.6
v -0.1 1.1 0.5
v -0.1 1.1 0.4
v -0.1 1.1 0
v -0.1 1.1 -0.1
v -0.1 1.1 -0.2
v -0.1 1.2 0.5
v -0.1 1.2 0.4
v -0.1 1.2 0.3
v -0.1 1.2 0.1
v -0.1 1.2 0
v -0.1 1.2 -0.1
v -0.1 1.3 0.4
v -0.1 1.3 0
v -0.1 2.2 0.5
v -0.1 2.2 0.4
v -0.1 2.3 0.5
v -0.1 2.3 0.4
v 0 0.1 -0.1
v 0 0.1 -0.2
v 0 0.2 -0.1
v 0 0.2 -0.2
v 0 0.6 0.4
v 0 0.6 0
v 0 0.7 0.5
v 0 0.7 0.4
v 0 0.7 0.3
v 0 0.7 0.2
v 0 0.7 0.1
v 0 0.7 0
v 0 0.7 -0.1
v 0 0.8 0.5
v 0 0.8 0.4
v 0 0.8 0.3
v 0 0.8 0.1
v 0 0.8 0
v 0 0.8 -0.1
v 0 0.9 0.4
v 0 1 0.5
v 0 1 0.4
v 0 1 0.3
v 0 1 0.1
v 0 1 0
v 0 1 -0.1
v 0 1.1 0.5
v 0 1.1 0.4
v 0 1.1 0.3
v 0 1.1 0.1
v 0 1.1 0
v 0 1.1 -0.1
v 0 1.2 0.4
v 0 1.2 0.3
v 0 1.2 0.1
v 0 1.2 0
v 0 2.3 0.4
v 0 2.3 0.3
v 0 2.4 0.4
v 0 2.4 0.3
v 0.1 0.7 0.3
v 0.1 0.7 0.2
v 0.1 0.7 0.1
v 0.1 0.8 0.4
v 0.1 0.8 0.3
v 0.1 0.8 0.2
v 0.1 0.8 0.1
v 0.1 0.8 0
v 0.1 0.9 0.4
v 0.1 0.9 0.3
v 0.1 0.9 0.2
v 0.1 1 0.4
v 0.1 1 0.3
v 0.1 1 0.1
v 0.1 1 0
v 0.1 1.1 0.3
v 0.1 1.1 0.1
v -0.5 0.1 0.9
v -0.5 0.2 0.9
v -0.4 0.1 0.9
v -0.4 0.2 0.9
v -0.6 0.1 0.8
v -0.6 0.2 0.8
v -0.5 0.1 0.8
v -0.5 0.2 0.8
v -0.8 0.8 0.7
v -0.8 1 0.7
v -0.8 1.1 0.7
v -0.7 0.7 0.7
v -0.7 0.8 0.7
v -0.7 1 0.7
v -0.7 1.1 0.7
v -0.7 1.2 0.7
v -0.6 0.2 0.7
v -0.6 0.3 0.7
v -0.6 0.7 0.7
v -0.6 0.8 0.7
v -0.6 1 0.7
v -0.6 1.1 0.7
v -0.6 1.2 0.7
v -0.5 0.2 0.7
v -0.5 0.3 0.7
v -0.5 1 0.7
v -0.5 1.1 0.7
v -0.4 1 0.7
v -0.4 1.1 0.7
v -0.4 1.2 0.7
v -0.3 0.7 0.7
v -0.3 0.8 0.7
v -0.3 1 0.7
v -0.3 1.1 0.7
v -0.3 1.2 0.7
v -0.2 0.8 0.7
v -0.2 1 0.7
v -0.2 1.1 0.7
v -0.9 0.7 0.6
v -0.9 1.1 0.6
v -0.8 0.6 0.6
v -0.8 0.7 0.6
v -0.8 0.8 0.6
v -0.8 1 0.6
v -0.8 1.1 0.6
v -0.8 1.2 0.6
v -0.7 0.2 0.6
v -0.7 0.3 0.6
v -0.7 0.5 0.6
v -0.7 0.6 0.6
v -0.7 0.7 0.6
v -0.7 0.8 0.6
v -0.7 1.1 0.6
v -0.7 1.2 0.6
v -0.7 1.3 0.6
v -0.6 0.2 0.6
v -0.6 0.3 0.6
v -0.6 0.6 0.6
v -0.6 0.7 0.6
v -0.6 1.1 0.6
v -0.6 1.2 0.6
v -0.6 1.3 0.6
v -0.5 0.6 0.6
v -0.5 0.7 0.6
v -0.5 1.1 0.6
v -0.4 0.5 0.6
v -0.4 0.6 0.6
v -0.4 1.1 0.6
v -0.4 1.2 0.6
v -0.3 0.5 0.6
v -0.3 0.6 0.6
v -0.3 0.7 0.6
v -0.3 0.8 0.6
v -0.3 1.1 0.6
v -0.3 1.2 0.6
v -0.3 1.3 0.6
v -0.2 0.1 0.6
v -0.2 0.2 0.6
v -0.2 0.6 0.6
v -0.2 0.7 0.6
v -0.2 0.8 0.6
v -0.2 1 0.6
v -0.2 1.1 0.6
v -0.2 1.2 0.6
v -0.1 0.1 0.6
v -0.1 0.2 0.6
v -0.1 0.7 0.6
v -0.1 0.8 0.6
v -0.1 1 0.6
v -0.1 1.1 0.6
v -1 0.7 0.5
v -1 0.8 0.5
v -1 1 0.5
v -1 1.1 0.5
v -1 1.9 0.5
v -1 2 0.5
v -0.9 0.1 0.5
v -0.9 0.2 0.5
v -0.9 0.6 0.5
v -0.9 0.7 0.5
v -0.9 0.8 0.5
v -0.9 1 0.5
v -0.9 1.1 0.5
v -0.9 1.2 0.5
v -0.9 1.9 0.5
v -0.9 2 0.5
v -0.8 0.1 0.5
v -0.8 0.2 0.5
v -0.8 0.5 0.5
v -0.8 0.6 0.5
v -0.8 0.7 0.5
v -0.8 1.1 0.5
v -0.8 1.2 0.5
v -0.8 1.3 0.5
v -0.7 0.5 0.5
v -0.7 0.6 0.5
v -0.7 1.2 0.5
v -0.7 1.3 0.5
v -0.7 1.4 0.5
v -0.6 0.3 0.5
v -0.6 0.4 0.5
v -0.6 0.5 0.5
v -0.6 1.3 0.5
v -0.6 1.4 0.5
v -0.5 0.3 0.5
v -0.5 0.4 0.5
v -0.5 0.5 0.5
v -0.5 1.9 0.5
v -0.5 2 0.5
v -0.5 2.1 0.5
v -0.5 2.2 0.5
v -0.4 0.3 0.5
v -0.4 0.4 0.5
v -0.4 1.3 0.5
v -0.4 1.4 0.5
v -0.4 1.9 0.5
v -0.4 2 0.5
v -0.4 2.1 0.5
v -0.4 2.2 0.5
v -0.4 2.3 0.5
v -0.3 0.5 0.5
v -0.3 0.6 0.5
v -0.3 1.2 0.5
v -0.3 1.3 0.5
v -0.3 1.4 0.5
v -0.3 2 0.5
v -0.3 2.1 0.5
v -0.3 2.2 0.5
v -0.3 2.3 0.5
v -0.2 0.5 0.5
v -0.2 0.6 0.5
v -0.2 0.7 0.5
v -0.2 1.1 0.5
v -0.2 1.2 0.5
v -0.2 1.3 0.5
v -0.2 2.2 0.5
v -0.2 2.3 0.5
v -0.1 0.6 0.5
v -0.1 0.7 0.5
v -0.1 0.8 0.5
v -0.1 1 0.5
v -0.1 1.1 0.5
v -0.1 1.2 0.5
v -0.1 2.2 0.5
v -0.1 2.3 0.5
v 0 0.7 0.5
v 0 0.8 0.5
v 0 1 0.5
v 0 1.1 0.5
v -1.1 0.8 0.4
v -1.1 0.9 0.4
v -1.1 1 0.4
v -1.1 2 0.4
v -1.1 2.1 0.4
v -1 0.6 0.4
v -1 0.7 0.4
v -1 0.8 0.4
v -1 0.9 0.4
v -1 1 0.4
v -1 1.1 0.4
v -1 1.2 0.4
v -1 2 0.4
v -1 2.1 0.4
v -1 2.2 0.4
v -0.9 0.5 0.4
v -0.9 0.6 0.4
v -0.9 0.7 0.4
v -0.9 1.1 0.4
v -0.9 1.2 0.4
v -0.9 1.3 0.4
v -0.9 1.7 0.4
v -0.9 1.8 0.4
v -0.9 1.9 0.4
v -0.9 2 0.4
v -0.9 2.1 0.4
v -0.9 2.2 0.4
v -0.8 0.1 0.4
v -0.8 0.2 0.4
v -0.8 0.5 0.4
v -0.8 0.6 0.4
v -0.8 1.2 0.4
v -0.8 1.3 0.4
v -0.8 1.4 0.4
v -0.8 1.7 0.4
v -0.8 1.8 0.4
v -0.8 1.9 0.4
v -0.8 2 0.4
v -0.8 2.1 0.4
v -0.7 0.1 0.4
v -0.7 0.2 0.4
v -0.7 0.3 0.4
v -0.7 0.4 0.4
v -0.7 0.5 0.4
v -0.7 1.3 0.4
v -0.7 1.4 0.4
v -0.7 1.6 0.4
v -0.7 1.7 0.4
v -0.7 1.8 0.4
v -0.7 1.9 0.4
v -0.7 2 0.4
v -0.7 2.1 0.4
v -0.6 0.2 0.4
v -0.6 0.3 0.4
v -0.6 0.4 0.4
v -0.6 0.5 0.4
v -0.6 1.4 0.4
v -0.6 1.5 0.4
v -0.6 1.6 0.4
v -0.6 1.7 0.4
v -0.6 1.8 0.4
v -0.6 1.9 0.4
v -0.6 2 0.4
v -0.5 0.4 0.4
v -0.5 0.5 0.4
v -0.5 1.4 0.4
v -0.5 1.5 0.4
v -0.5 1.6 0.4
v -0.5 1.7 0.4
v -0.5 1.8 0.4
v -0.5 1.9 0.4
v -0.5 2 0.4
v -0.5 2.1 0.4
v -0.5 2.2 0.4
v -0.5 2.3 0.4
v -0.4 0.2 0.4
v -0.4 0.3 0.4
v -0.4 0.4 0.4
v -0.4 0.5 0.4
v -0.4 1.6 0.4
v -0.4 1.7 0.4
v -0.4 1.8 0.4
v -0.4 1.9 0.4
v -0.4 2 0.4
v -0.4 2.1 0.4
v -0.4 2.2 0.4
v -0.4 2.3 0.4
v -0.4 2.4 0.4
v -0.3 0.1 0.4
v -0.3 0.2 0.4
v -0.3 0.3 0.4
v -0.3 0.4 0.4
v -0.3 0.5 0.4
v -0.3 1.3 0.4
v -0.3 1.4 0.4
v -0.3 1.9 0.4
v -0.3 2 0.4
v -0.3 2.1 0.4
v -0.3 2.2 0.4
v -0.3 2.3 0.4
v -0.3 2.4 0.4
v -0.2 0.1 0.4
v -0.2 0.2 0.4
v -0.2 0.5 0.4
v -0.2 0.6 0.4
v -0.2 1.2 0.4
v -0.2 1.3 0.4
v -0.2 1.4 0.4
v -0.2 2.2 0.4
v -0.2 2.3 0.4
v -0.1 0.5 0.4
v -0.1 0.6 0.4
v -0.1 0.7 0.4
v -0.1 1.1 0.4
v -0.1 1.2 0.4
v -0.1 1.3 0.4
v -0.1 2.3 0.4
v -0.1 2.4 0.4
v 0 0.6 0.4
v 0 0.7 0.4
v 0 0.8 0.4
v 0 0.9 0.4
v 0 1 0.4
v 0 1.1 0.4
v 0 1.2 0.4
v 0 2.3 0.4
v 0 2.4 0.4
v 0.1 0.8 0.4
v 0.1 0.9 0.4
v 0.1 1 0.4
v -1.1 0.7 0.3
v -1.1 0.8 0.3
v -1.1 1 0.3
v -1.1 1.1 0.3
v -1 0.1 0.3
v -1 0.2 0.3
v -1 0.7 0.3
v -1 0.8 0.3
v -1 1 0.3
v -1 1.1 0.3
v -1 2 0.3
v -1 2.1 0.3
v -0.9 0.1 0.3
v -0.9 0.2 0.3
v -0.9 2 0.3
v -0.9 2.1 0.3
v -0.8 0.2 0.3
v -0.8 0.3 0.3
v -0.8 0.4 0.3
v -0.8 0.5 0.3
v -0.8 1.7 0.3
v -0.8 1.8 0.3
v -0.8 1.9 0.3
v -0.8 2 0.3
v -0.8 2.1 0.3
v -0.8 2.2 0.3
v -0.7 0.1 0.3
v -0.7 0.2 0.3
v -0.7 0.3 0.3
v -0.7 0.4 0.3
v -0.7 0.5 0.3
v -0.7 1.4 0.3
v -0.7 1.5 0.3
v -0.7 1.7 0.3
v -0.7 1.8 0.3
v -0.7 1.9 0.3
v -0.7 2 0.3
v -0.7 2.1 0.3
v -0.7 2.2 0.3
v -0.6 0.1 0.3
v -0.6 0.2 0.3
v -0.6 0.3 0.3
v -0.6 0.4 0.3
v -0.6 1.4 0.3
v -0.6 1.5 0.3
v -0.6 1.6 0.3
v -0.6 1.7 0.3
v -0.6 1.8 0.3
v -0.6 1.9 0.3
v -0.6 2 0.3
v -0.6 2.1 0.3
v -0.5 0.2 0.3
v -0.5 0.3 0.3
v -0.5 0.4 0.3
v -0.5 1.4 0.3
v -0.5 1.5 0.3
v -0.5 1.6 0.3
v -0.5 1.7 0.3
v -0.5 1.8 0.3
v -0.5 1.9 0.3
v -0.5 2 0.3
v -0.5 2.1 0.3
v -0.4 0.2 0.3
v -0.4 0.3 0.3
v -0.4 1.4 0.3
v -0.4 1.5 0.3
v -0.4 1.7 0.3
v -0.4 1.8 0.3
v -0.4 1.9 0.3
v -0.4 2 0.3
v -0.4 2.1 0.3
v -0.4 2.4 0.3
v -0.4 2.5 0.3
v -0.3 1.8 0.3
v -0.3 1.9 0.3
v -0.3 2 0.3
v -0.3 2.1 0.3
v -0.3 2.2 0.3
v -0.3 2.4 0.3
v -0.3 2.5 0.3
v -0.2 2.1 0.3
v -0.2 2.2 0.3
v 0 0.7 0.3
v 0 0.8 0.3
v 0 1 0.3
v 0 1.1 0.3
v 0.1 0.7 0.3
v 0.1 0.8 0.3
v 0.1 1 0.3
v 0.1 1.1 0.3
v -1 1.9 0.2
v -1 2 0.2
v -0.9 0.1 0.2
v -0.9 0.2 0.2
v -0.9 1.8 0.2
v -0.9 1.9 0.2
v -0.9 2 0.2
v -0.9 2.1 0.2
v -0.9 2.2 0.2
v -0.8 0.1 0.2
v -0.8 0.2 0.2
v -0.8 1.8 0.2
v -0.8 1.9 0.2
v -0.8 2.1 0.2
v -0.8 2.2 0.2
v -0.7 0.1 0.2
v -0.7 0.2 0.2
v -0.7 0.3 0.2
v -0.7 0.4 0.2
v -0.7 1.7 0.2
v -0.7 1.8 0.2
v -0.7 1.9 0.2
v -0.7 2 0.2
v -0.6 0.3 0.2
v -0.6 0.4 0.2
v -0.6 1.7 0.2
v -0.6 1.8 0.2
v -0.6 1.9 0.2
v -0.6 2 0.2
v -0.5 0.1 0.2
v -0.5 0.2 0.2
v -0.5 0.3 0.2
v -0.5 0.4 0.2
v -0.5 1.6 0.2
v -0.5 1.7 0.2
v -0.4 0.1 0.2
v -0.4 0.2 0.2
v -0.4 0.3 0.2
v -0.4 0.4 0.2
v -0.4 1.6 0.2
v -0.4 1.7 0.2
v -0.4 1.9 0.2
v -0.4 2 0.2
v -0.3 0.2 0.2
v -0.3 0.3 0.2
v -0.3 1.9 0.2
v -0.3 2 0.2
v -0.3 2.2 0.2
v -0.3 2.3 0.2
v -0.2 2.2 0.2
v -0.2 2.3 0.2
v -0.8 1.7 0.1
v -0.8 1.8 0.1
v -0.7 0.2 0.1
v -0.7 0.3 0.1
v -0.7 1.7 0.1
v -0.7 1.8 0.1
v -0.7 2 0.1
v -0.7 2.1 0.1
v -0.6 0.2 0.1
v -0.6 0.3 0.1
v -0.6 1.7 0.1
v -0.6 1.8 0.1
v -0.6 2 0.1
v -0.6 2.1 0.1
v -0.5 1.7 0.1
v -0.5 1.8 0.1
v -0.4 1.8 0.1
v -0.4 1.9 0.1
v -0.4 2 0.1
v -0.4 2.1 0.1
v -0.3 1.8 0.1
v -0.3 1.9 0.1
v -0.3 2 0.1
v -0.3 2.1 0.1
v -0.3 0.2 0
v -0.3 0.3 0
v -0.2 0.1 0
v -0.2 0.2 0
v -0.2 0.3 0
v -0.1 0.1 0
v -0.1 0.2 0
v -0.6 0.1 -0.1
v -0.6 0.2 -0.1
v -0.5 0.1 -0.1
v -0.5 0.2 -0.1
v -0.1 0.1 -0.1
v -0.1 0.2 -0.1
v 0 0.1 -0.1
v 0 0.2 -0.1
v -0.7 0.1 -0.2
v -0.7 0.2 -0.2
v -0.6 0.1 -0.2
v -0.6 0.2 -0.2
v -0.8 0.1 -0.3
v -0.8 0.2 -0.3
v -0.7 0.1 -0.3
v -0.7 0.2 -0.3
v -0.5 0.1 0.8
v -0.5 0.2 0.8
v -0.4 0.1 0.8
v -0.4 0.2 0.8
v -0.6 0.1 0.7
v -0.6 0.2 0.7
v -0.5 0.1 0.7
v -0.5 0.2 0.7
v -0.7 0.2 0.5
v -0.7 0.3 0.5
v -0.6 0.2 0.5
v -0.6 0.3 0.5
v -0.9 0.1 0.4
v -0.9 0.2 0.4
v -0.8 0.1 0.4
v -0.8 0.2 0.4
v -0.6 0.3 0.4
v -0.6 0.4 0.4
v -0.5 0.3 0.4
v -0.5 0.4 0.4
v -0.4 2 0.4
v -0.4 2.1 0.4
v -0.4 2.2 0.4
v -0.4 2.3 0.4
v -0.3 2 0.4
v -0.3 2.1 0.4
v -0.3 2.2 0.4
v -0.3 2.3 0.4
v -0.2 0.1 0.4
v -0.2 0.2 0.4
v -0.2 2.2 0.4
v -0.2 2.3 0.4
v -0.1 0.1 0.4
v -0.1 0.2 0.4
v -0.1 2.2 0.4
v -0.1 2.3 0.4
v -1.1 2 0.3
v -1.1 2.1 0.3
v -1 1.9 0.3
v -1 2 0.3
v -1 2.1 0.3
v -1 2.2 0.3
v -0.9 1.9 0.3
v -0.9 2 0.3
v -0.9 2.1 0.3
v -0.9 2.2 0.3
v -0.8 0.1 0.3
v -0.8 0.2 0.3
v -0.7 0.1 0.3
v -0.7 0.2 0.3
v -0.7 1.6 0.3
v -0.7 1.7 0.3
v -0.6 1.6 0.3
v -0.6 1.7 0.3
v -0.5 0.3 0.3
v -0.5 0.4 0.3
v -0.5 1.6 0.3
v -0.5 1.7 0.3
v -0.5 2.2 0.3
v -0.5 2.3 0.3
v -0.4 0.2 0.3
v -0.4 0.3 0.3
v -0.4 0.4 0.3
v -0.4 1.6 0.3
v -0.4 1.7 0.3
v -0.4 1.9 0.3
v -0.4 2 0.3
v -0.4 2.2 0.3
v -0.4 2.3 0.3
v -0.4 2.4 0.3
v -0.3 0.1 0.3
v -0.3 0.2 0.3
v -0.3 0.3 0.3
v -0.3 1.9 0.3
v -0.3 2 0.3
v -0.3 2.2 0.3
v -0.3 2.3 0.3
v -0.3 2.4 0.3
v -0.2 0.1 0.3
v -0.2 0.2 0.3
v -0.2 2.2 0.3
v -0.2 2.3 0.3
v -0.1 2.3 0.3
v -0.1 2.4 0.3
v 0 2.3 0.3
v 0 2.4 0.3
v -1 0.1 0.2
v -1 0.2 0.2
v -1 2 0.2
v -1 2.1 0.2
v -0.9 0.1 0.2
v -0.9 0.2 0.2
v -0.9 1.7 0.2
v -0.9 1.8 0.2
v -0.9 2 0.2
v -0.9 2.1 0.2
v -0.8 0.2 0.2
v -0.8 0.3 0.2
v -0.8 1.7 0.2
v -0.8 1.8 0.2
v -0.8 1.9 0.2
v -0.7 0.1 0.2
v -0.7 0.2 0.2
v -0.7 0.3 0.2
v -0.7 1.7 0.2
v -0.7 1.8 0.2
v -0.7 1.9 0.2
v -0.6 0.1 0.2
v -0.6 0.2 0.2
v -0.6 0.3 0.2
v -0.6 1.5 0.2
v -0.6 1.7 0.2
v -0.6 1.8 0.2
v -0.6 1.9 0.2
v -0.6 2 0.2
v -0.6 2.1 0.2
v -0.5 1.5 0.2
v -0.5 1.6 0.2
v -0.5 1.7 0.2
v -0.5 1.8 0.2
v -0.5 1.9 0.2
v -0.5 2 0.2
v -0.5 2.1 0.2
v -0.5 2.2 0.2
v -0.4 1.7 0.2
v -0.4 1.8 0.2
v -0.4 1.9 0.2
v -0.4 2 0.2
v -0.4 2.1 0.2
v -0.4 2.2 0.2
v -0.4 2.4 0.2
v -0.4 2.5 0.2
v -0.3 1.8 0.2
v -0.3 1.9 0.2
v -0.3 2 0.2
v -0.3 2.1 0.2
v -0.3 2.2 0.2
v -0.3 2.4 0.2
v -0.3 2.5 0.2
v -0.2 2.1 0.2
v -0.2 2.2 0.2
v -1.1 0.7 0.1
v -1.1 0.8 0.1
v -1.1 1 0.1
v -1.1 1.1 0.1
v -1 0.7 0.1
v -1 0.8 0.1
v -1 1 0.1
v -1 1.1 0.1
v -1 1.9 0.1
v -1 2 0.1
v -0.9 0.1 0.1
v -0.9 0.2 0.1
v -0.9 1.8 0.1
v -0.9 1.9 0.1
v -0.9 2 0.1
v -0.9 2.1 0.1
v -0.9 2.2 0.1
v -0.8 0.1 0.1
v -0.8 0.2 0.1
v -0.8 0.4 0.1
v -0.8 0.5 0.1
v -0.8 1.8 0.1
v -0.8 1.9 0.1
v -0.8 2 0.1
v -0.8 2.1 0.1
v -0.8 2.2 0.1
v -0.7 0.1 0.1
v -0.7 0.2 0.1
v -0.7 0.3 0.1
v -0.7 0.4 0.1
v -0.7 0.5 0.1
v -0.7 1.4 0.1
v -0.7 1.5 0.1
v -0.7 1.7 0.1
v -0.7 1.8 0.1
v -0.7 2 0.1
v -0.7 2.1 0.1
v -0.7 2.2 0.1
v -0.6 0.3 0.1
v -0.6 0.4 0.1
v -0.6 1.4 0.1
v -0.6 1.5 0.1
v -0.6 1.7 0.1
v -0.6 1.8 0.1
v -0.6 1.9 0.1
v -0.6 2 0.1
v -0.5 0.2 0.1
v -0.5 0.3 0.1
v -0.5 1.4 0.1
v -0.5 1.5 0.1
v -0.5 1.6 0.1
v -0.5 1.7 0.1
v -0.5 1.8 0.1
v -0.5 1.9 0.1
v -0.5 2 0.1
v -0.5 2.1 0.1
v -0.4 0.2 0.1
v -0.4 0.3 0.1
v -0.4 1.4 0.1
v -0.4 1.5 0.1
v -0.4 1.6 0.1
v -0.4 1.7 0.1
v -0.4 1.8 0.1
v -0.4 1.9 0.1
v -0.4 2 0.1
v -0.4 2.1 0.1
v -0.4 2.2 0.1
v -0.3 1.9 0.1
v -0.3 2 0.1
v -0.3 2.1 0.1
v -0.3 2.2 0.1
v -0.3 2.3 0.1
v -0.2 2.2 0.1
v -0.2 2.3 0.1
v 0 0.7 0.1
v 0 0.8 0.1
v 0 1 0.1
v 0 1.1 0.1
v 0.1 0.7 0.1
v 0.1 0.8 0.1
v 0.1 1 0.1
v 0.1 1.1 0.1
v -1.1 0.8 0
v -1.1 0.9 0
v -1.1 1 0
v -1 0.6 0
v -1 0.7 0
v -1 0.8 0
v -1 0.9 0
v -1 1 0
v -1 1.1 0
v -1 1.2 0
v -0.9 0.5 0
v -0.9 0.6 0
v -0.9 0.7 0
v -0.9 1.1 0
v -0.9 1.2 0
v -0.9 1.3 0
v -0.9 1.9 0
v -0.9 2 0
v -0.8 0.5 0
v -0.8 0.6 0
v -0.8 1.2 0
v -0.8 1.3 0
v -0.8 1.4 0
v -0.8 1.7 0
v -0.8 1.8 0
v -0.8 1.9 0
v -0.8 2 0
v -0.7 0.2 0
v -0.7 0.3 0
v -0.7 0.4 0
v -0.7 0.5 0
v -0.7 1.3 0
v -0.7 1.4 0
v -0.7 1.7 0
v -0.7 1.8 0
v -0.7 1.9 0
v -0.7 2 0
v -0.7 2.1 0
v -0.6 0.2 0
v -0.6 0.3 0
v -0.6 0.4 0
v -0.6 0.5 0
v -0.6 1.4 0
v -0.6 1.5 0
v -0.6 1.7 0
v -0.6 1.8 0
v -0.6 1.9 0
v -0.6 2 0
v -0.6 2.1 0
v -0.5 0.1 0
v -0.5 0.2 0
v -0.5 0.3 0
v -0.5 0.4 0
v -0.5 0.5 0
v -0.5 1.4 0
v -0.5 1.5 0
v -0.5 1.7 0
v -0.5 1.8 0
v -0.5 1.9 0
v -0.5 2 0
v -0.4 0.1 0
v -0.4 0.2 0
v -0.4 0.3 0
v -0.4 0.4 0
v -0.4 1.8 0
v -0.4 1.9 0
v -0.4 2 0
v -0.4 2.1 0
v -0.3 0.2 0
v -0.3 0.3 0
v -0.3 0.4 0
v -0.3 0.5 0
v -0.3 1.3 0
v -0.3 1.4 0
v -0.3 1.8 0
v -0.3 1.9 0
v -0.3 2 0
v -0.3 2.1 0
v -0.2 0.5 0
v -0.2 0.6 0
v -0.2 1.2 0
v -0.2 1.3 0
v -0.2 1.4 0
v -0.1 0.5 0
v -0.1 0.6 0
v -0.1 0.7 0
v -0.1 1.1 0
v -0.1 1.2 0
v -0.1 1.3 0
v 0 0.6 0
v 0 0.7 0
v 0 0.8 0
v 0 1 0
v 0 1.1 0
v 0 1.2 0
v 0.1 0.8 0
v 0.1 1 0
v -1 0.7 -0.1
v -1 0.9 -0.1
v -1 1.1 -0.1
v -0.9 0.6 -0.1
v -0.9 0.7 -0.1
v -0.9 0.8 -0.1
v -0.9 0.9 -0.1
v -0.9 1 -0.1
v -0.9 1.1 -0.1
v -0.9 1.2 -0.1
v -0.8 0.5 -0.1
v -0.8 0.6 -0.1
v -0.8 0.7 -0.1
v -0.8 1.1 -0.1
v -0.8 1.2 -0.1
v -0.8 1.3 -0.1
v -0.8 1.9 -0.1
v -0.8 2 -0.1
v -0.7 0.5 -0.1
v -0.7 0.6 -0.1
v -0.7 1.2 -0.1
v -0.7 1.3 -0.1
v -0.7 1.4 -0.1
v -0.7 1.8 -0.1
v -0.7 1.9 -0.1
v -0.7 2 -0.1
v -0.6 0.2 -0.1
v -0.6 0.3 -0.1
v -0.6 0.4 -0.1
v -0.6 0.5 -0.1
v -0.6 1.3 -0.1
v -0.6 1.4 -0.1
v -0.6 1.8 -0.1
v -0.6 1.9 -0.1
v -0.5 0.2 -0.1
v -0.5 0.3 -0.1
v -0.5 0.4 -0.1
v -0.5 0.5 -0.1
v -0.5 1.3 -0.1
v -0.5 1.4 -0.1
v -0.4 1.3 -0.1
v -0.4 1.4 -0.1
v -0.3 0.2 -0.1
v -0.3 0.3 -0.1
v -0.3 0.5 -0.1
v -0.3 0.6 -0.1
v -0.3 1.2 -0.1
v -0.3 1.3 -0.1
v -0.3 1.4 -0.1
v -0.2 0.1 -0.1
v -0.2 0.2 -0.1
v -0.2 0.3 -0.1
v -0.2 0.5 -0.1
v -0.2 0.6 -0.1
v -0.2 0.7 -0.1
v -0.2 1.1 -0.1
v -0.2 1.2 -0.1
v -0.2 1.3 -0.1
v -0.1 0.1 -0.1
v -0.1 0.2 -0.1
v -0.1 0.6 -0.1
v -0.1 0.7 -0.1
v -0.1 0.8 -0.1
v -0.1 0.9 -0.1
v -0.1 1 -0.1
v -0.1 1.1 -0.1
v -0.1 1.2 -0.1
v 0 0.7 -0.1
v 0 0.8 -0.1
v 0 1 -0.1
v 0 1.1 -0.1
v -0.9 0.7 -0.2
v -0.9 0.8 -0.2
v -0.9 1 -0.2
v -0.9 1.1 -0.2
v -0.8 0.6 -0.2
v -0.8 0.7 -0.2
v -0.8 0.8 -0.2
v -0.8 0.9 -0.2
v -0.8 1 -0.2
v -0.8 1.1 -0.2
v -0.8 1.2 -0.2
v -0.7 0.5 -0.2
v -0.7 0.6 -0.2
v -0.7 0.7 -0.2
v -0.7 0.8 -0.2
v -0.7 1 -0.2
v -0.7 1.1 -0.2
v -0.7 1.2 -0.2
v -0.7 1.3 -0.2
v -0.6 0.1 -0.2
v -0.6 0.2 -0.2
v -0.6 0.6 -0.2
v -0.6 0.7 -0.2
v -0.6 1.1 -0.2
v -0.6 1.2 -0.2
v -0.6 1.3 -0.2
v -0.5 0.1 -0.2
v -0.5 0.2 -0.2
v -0.5 0.5 -0.2
v -0.5 0.6 -0.2
v -0.5 0.7 -0.2
v -0.5 1.2 -0.2
v -0.5 1.3 -0.2
v -0.4 1.1 -0.2
v -0.4 1.2 -0.2
v -0.4 1.3 -0.2
v -0.3 0.5 -0.2
v -0.3 0.6 -0.2
v -0.3 0.7 -0.2
v -0.3 0.8 -0.2
v -0.3 1 -0.2
v -0.3 1.1 -0.2
v -0.3 1.2 -0.2
v -0.3 1.3 -0.2
v -0.2 0.6 -0.2
v -0.2 0.7 -0.2
v -0.2 0.8 -0.2
v -0.2 0.9 -0.2
v -0.2 1 -0.2
v -0.2 1.1 -0.2
v -0.2 1.2 -0.2
v -0.1 0.1 -0.2
v -0.1 0.2 -0.2
v -0.1 0.7 -0.2
v -0.1 0.9 -0.2
v -0.1 1 -0.2
v -0.1 1.1 -0.2
v 0 0.1 -0.2
v 0 0.2 -0.2
v -0.8 0.8 -0.3
v -0.8 0.9 -0.3
v -0.8 1 -0.3
v -0.7 0.1 -0.3
v -0.7 0.2 -0.3
v -0.7 0.7 -0.3
v -0.7 0.8 -0.3
v -0.7 0.9 -0.3
v -0.7 1 -0.3
v -0.7 1.1 -0.3
v -0.6 0.1 -0.3
v -0.6 0.2 -0.3
v -0.6 0.8 -0.3
v -0.6 0.9 -0.3
v -0.6 1 -0.3
v -0.6 1.1 -0.3
v -0.5 0.7 -0.3
v -0.5 0.8 -0.3
v -0.5 0.9 -0.3
v -0.4 0.8 -0.3
v -0.4 0.9 -0.3
v -0.4 1 -0.3
v -0.4 1.1 -0.3
v -0.3 0.7 -0.3
v -0.3 0.8 -0.3
v -0.3 0.9 -0.3
v -0.3 1 -0.3
v -0.3 1.1 -0.3
v -0.2 0.8 -0.3
v -0.2 0.9 -0.3
v -0.2 1 -0.3
v -0.8 0.1 -0.4
v -0.8 0.2 -0.4
v -0.7 0.1 -0.4
v -0.7 0.2 -0.4
v -0.5 0.1 0.9
v -0.4 0.1 0.9
v -0.6 0.1 0.8
v -0.5 0.1 0.8
v -0.4 0.1 0.8
v -0.6 0.1 0.7
v -0.5 0.1 0.7
v -0.2 0.1 0.6
v -0.1 0.1 0.6
v -0.9 0.1 0.5
v -0.8 0.1 0.5
v -0.9 0.1 0.4
v -0.8 0.1 0.4
v -0.7 0.1 0.4
v -0.3 0.1 0.4
v -0.2 0.1 0.4
v -0.1 0.1 0.4
v -1 0.1 0.3
v -0.9 0.1 0.3
v -0.8 0.1 0.3
v -0.7 0.1 0.3
v -0.6 0.1 0.3
v -0.3 0.1 0.3
v -0.2 0.1 0.3
v -1 0.1 0.2
v -0.9 0.1 0.2
v -0.8 0.1 0.2
v -0.7 0.1 0.2
v -0.6 0.1 0.2
v -0.5 0.1 0.2
v -0.4 0.1 0.2
v -0.9 0.1 0.1
v -0.8 0.1 0.1
v -0.7 0.1 0.1
v -0.5 0.1 0
v -0.4 0.1 0
v -0.2 0.1 0
v -0.1 0.1 0
v -0.6 0.1 -0.1
v -0.5 0.1 -0.1
v -0.2 0.1 -0.1
v -0.1 0.1 -0.1
v 0 0.1 -0.1
v -0.7 0.1 -0.2
v -0.6 0.1 -0.2
v -0.5 0.1 -0.2
v -0.1 0.1 -0.2
v 0 0.1 -0.2
v -0.8 0.1 -0.3
v -0.7 0.1 -0.3
v -0.6 0.1 -0.3
v -0.8 0.1 -0.4
v -0.7 0.1 -0.4
v -0.6 0.2 0.7
v -0.5 0.2 0.7
v -0.7 0.2 0.6
v -0.6 0.2 0.6
v -0.7 0.2 0.5
v -0.6 0.2 0.5
v -0.5 0.2 0.5
v -0.7 0.2 0.4
v -0.6 0.2 0.4
v -0.4 0.2 0.4
v -0.3 0.2 0.4
v -0.8 0.2 0.3
v -0.7 0.2 0.3
v -0.6 0.2 0.3
v -0.5 0.2 0.3
v -0.4 0.2 0.3
v -0.3 0.2 0.3
v -0.8 0.2 0.2
v -0.7 0.2 0.2
v -0.6 0.2 0.2
v -0.5 0.2 0.2
v -0.4 0.2 0.2
v -0.3 0.2 0.2
v -0.7 0.2 0.1
v -0.6 0.2 0.1
v -0.5 0.2 0.1
v -0.4 0.2 0.1
v -0.3 0.2 0.1
v -0.7 0.2 0
v -0.6 0.2 0
v -0.5 0.2 0
v -0.4 0.2 0
v -0.3 0.2 0
v -0.2 0.2 0
v -0.6 0.2 -0.1
v -0.5 0.2 -0.1
v -0.3 0.2 -0.1
v -0.2 0.2 -0.1
v -0.5 0.3 0.5
v -0.4 0.3 0.5
v -0.4 0.3 0.4
v -0.5 0.3 0.3
v -0.4 0.3 0.3
v -0.7 0.3 0.2
v -0.6 0.3 0.2
v -0.7 0.3 0.1
v -0.6 0.3 0.1
v -0.5 0.3 0.1
v -0.4 0.3 0.1
v -0.5 0.3 0
v -0.4 0.3 0
v -0.7 0.4 0.4
v -0.6 0.4 0.4
v -0.5 0.4 0.4
v -0.4 0.4 0.4
v -0.3 0.4 0.4
v -0.8 0.4 0.3
v -0.7 0.4 0.3
v -0.6 0.4 0.3
v -0.5 0.4 0.3
v -0.4 0.4 0.3
v -0.8 0.4 0.2
v -0.7 0.4 0.2
v -0.6 0.4 0.2
v -0.5 0.4 0.2
v -0.4 0.4 0.2
v -0.3 0.4 0.2
v -0.8 0.4 0.1
v -0.7 0.4 0.1
v -0.6 0.4 0.1
v -0.4 0.4 0.1
v -0.3 0.4 0.1
v -0.7 0.4 0
v -0.6 0.4 0
v -0.5 0.4 0
v -0.4 0.4 0
v -0.3 0.4 0
v -0.6 0.4 -0.1
v -0.5 0.4 -0.1
v -0.7 0.5 0.6
v -0.4 0.5 0.6
v -0.3 0.5 0.6
v -0.8 0.5 0.5
v -0.7 0.5 0.5
v -0.6 0.5 0.5
v -0.5 0.5 0.5
v -0.4 0.5 0.5
v -0.3 0.5 0.5
v -0.2 0.5 0.5
v -0.9 0.5 0.4
v -0.8 0.5 0.4
v -0.7 0.5 0.4
v -0.6 0.5 0.4
v -0.5 0.5 0.4
v -0.4 0.5 0.4
v -0.3 0.5 0.4
v -0.2 0.5 0.4
v -0.1 0.5 0.4
v -0.8 0.5 0.3
v -0.7 0.5 0.3
v -0.9 0.5 0.2
v -0.8 0.5 0.2
v -0.3 0.5 0.2
v -0.2 0.5 0.2
v -0.1 0.5 0.2
v -0.9 0.5 0.1
v -0.8 0.5 0.1
v -0.7 0.5 0.1
v -0.3 0.5 0.1
v -0.2 0.5 0.1
v -0.9 0.5 0
v -0.8 0.5 0
v -0.7 0.5 0
v -0.6 0.5 0
v -0.5 0.5 0
v -0.3 0.5 0
v -0.2 0.5 0
v -0.1 0.5 0
v -0.8 0.5 -0.1
v -0.7 0.5 -0.1
v -0.6 0.5 -0.1
v -0.5 0.5 -0.1
v -0.3 0.5 -0.1
v -0.2 0.5 -0.1
v -0.7 0.5 -0.2
v -0.5 0.5 -0.2
v -0.3 0.5 -0.2
v -0.8 0.6 0.6
v -0.7 0.6 0.6
v -0.3 0.6 0.6
v -0.2 0.6 0.6
v -0.9 0.6 0.5
v -0.8 0.6 0.5
v -0.7 0.6 0.5
v -0.3 0.6 0.5
v -0.2 0.6 0.5
v -0.1 0.6 0.5
v -1 0.6 0.4
v -0.9 0.6 0.4
v -0.8 0.6 0.4
v -0.2 0.6 0.4
v -0.1 0.6 0.4
v 0 0.6 0.4
v -1 0.6 0.3
v -0.9 0.6 0.3
v -1 0.6 0.2
v -0.9 0.6 0.2
v -0.1 0.6 0.2
v -0.9 0.6 0.1
v -1 0.6 0
v -0.9 0.6 0
v -0.8 0.6 0
v -0.2 0.6 0
v -0.1 0.6 0
v 0 0.6 0
v -0.9 0.6 -0.1
v -0.8 0.6 -0.1
v -0.7 0.6 -0.1
v -0.3 0.6 -0.1
v -0.2 0.6 -0.1
v -0.1 0.6 -0.1
v -0.8 0.6 -0.2
v -0.7 0.6 -0.2
v -0.3 0.6 -0.2
v -0.2 0.6 -0.2
v -0.7 0.7 0.7
v -0.6 0.7 0.7
v -0.3 0.7 0.7
v -0.9 0.7 0.6
v -0.8 0.7 0.6
v -0.7 0.7 0.6
v -0.6 0.7 0.6
v -0.5 0.7 0.6
v -0.3 0.7 0.6
v -0.2 0.7 0.6
v -0.1 0.7 0.6
v -1 0.7 0.5
v -0.9 0.7 0.5
v -0.8 0.7 0.5
v -0.2 0.7 0.5
v -0.1 0.7 0.5
v 0 0.7 0.5
v -1 0.7 0.4
v -0.9 0.7 0.4
v -0.1 0.7 0.4
v 0 0.7 0.4
v -1.1 0.7 0.3
v -1 0.7 0.3
v 0 0.7 0.3
v 0.1 0.7 0.3
v -1.1 0.7 0.2
v -1 0.7 0.2
v 0 0.7 0.2
v 0.1 0.7 0.2
v -1.1 0.7 0.1
v -1 0.7 0.1
v 0 0.7 0.1
v 0.1 0.7 0.1
v -1 0.7 0
v -0.9 0.7 0
v -0.1 0.7 0
v 0 0.7 0
v -1 0.7 -0.1
v -0.9 0.7 -0.1
v -0.8 0.7 -0.1
v -0.2 0.7 -0.1
v -0.1 0.7 -0.1
v 0 0.7 -0.1
v -0.9 0.7 -0.2
v -0.8 0.7 -0.2
v -0.7 0.7 -0.2
v -0.6 0.7 -0.2
v -0.5 0.7 -0.2
v -0.3 0.7 -0.2
v -0.2 0.7 -0.2
v -0.1 0.7 -0.2
v -0.7 0.7 -0.3
v -0.5 0.7 -0.3
v -0.3 0.7 -0.3
v -0.8 0.8 0.7
v -0.7 0.8 0.7
v -0.3 0.8 0.7
v -0.2 0.8 0.7
v -0.8 0.8 0.6
v -0.7 0.8 0.6
v -0.3 0.8 0.6
v -0.2 0.8 0.6
v -1.1 0.8 0.4
v -1 0.8 0.4
v 0 0.8 0.4
v 0.1 0.8 0.4
v -1.1 0.8 0.3
v -1 0.8 0.3
v 0 0.8 0.3
v 0.1 0.8 0.3
v -1.1 0.8 0.1
v -1 0.8 0.1
v 0 0.8 0.1
v 0.1 0.8 0.1
v -1.1 0.8 0
v -1 0.8 0
v 0 0.8 0
v 0.1 0.8 0
v -0.8 0.8 -0.2
v -0.7 0.8 -0.2
v -0.3 0.8 -0.2
v -0.2 0.8 -0.2
v -0.8 0.8 -0.3
v -0.7 0.8 -0.3
v -0.3 0.8 -0.3
v -0.2 0.8 -0.3
v -0.7 1.6 0.4
v -0.6 1.6 0.4
v -0.5 1.6 0.4
v -0.4 1.6 0.4
v -0.7 1.6 0.3
v -0.6 1.6 0.3
v -0.5 1.6 0.3
v -0.4 1.6 0.3
v -0.5 1.6 0.2
v -0.4 1.6 0.2
v -0.5 1.6 0.1
v -0.4 1.6 0.1
v -0.9 1.7 0.4
v -0.8 1.7 0.4
v -0.6 1.7 0.4
v -0.5 1.7 0.4
v -0.8 1.7 0.3
v -0.7 1.7 0.3
v -0.6 1.7 0.3
v -0.5 1.7 0.3
v -0.4 1.7 0.3
v -0.9 1.7 0.2
v -0.8 1.7 0.2
v -0.7 1.7 0.2
v -0.6 1.7 0.2
v -0.5 1.7 0.2
v -0.4 1.7 0.2
v -0.8 1.7 0.1
v -0.7 1.7 0.1
v -0.6 1.7 0.1
v -0.5 1.7 0.1
v -0.8 1.7 0
v -0.7 1.7 0
v -0.6 1.7 0
v -0.5 1.7 0
v -0.8 1.8 0.4
v -0.7 1.8 0.4
v -0.5 1.8 0.4
v -0.4 1.8 0.4
v -0.8 1.8 0.3
v -0.7 1.8 0.3
v -0.6 1.8 0.3
v -0.5 1.8 0.3
v -0.4 1.8 0.3
v -0.3 1.8 0.3
v -0.9 1.8 0.2
v -0.8 1.8 0.2
v -0.7 1.8 0.2
v -0.6 1.8 0.2
v -0.5 1.8 0.2
v -0.4 1.8 0.2
v -0.3 1.8 0.2
v -0.9 1.8 0.1
v -0.8 1.8 0.1
v -0.7 1.8 0.1
v -0.6 1.8 0.1
v -0.5 1.8 0.1
v -0.4 1.8 0.1
v -0.3 1.8 0.1
v -0.7 1.8 0
v -0.6 1.8 0
v -0.4 1.8 0
v -0.3 1.8 0
v -0.7 1.8 -0.1
v -0.6 1.8 -0.1
v -1 1.9 0.5
v -0.9 1.9 0.5
v -0.5 1.9 0.5
v -0.4 1.9 0.5
v -0.9 1.9 0.4
v -0.8 1.9 0.4
v -0.6 1.9 0.4
v -0.5 1.9 0.4
v -0.4 1.9 0.4
v -0.3 1.9 0.4
v -1 1.9 0.3
v -0.9 1.9 0.3
v -0.8 1.9 0.3
v -0.6 1.9 0.3
v -0.5 1.9 0.3
v -0.4 1.9 0.3
v -0.3 1.9 0.3
v -1 1.9 0.2
v -0.9 1.9 0.2
v -0.8 1.9 0.2
v -0.7 1.9 0.2
v -0.6 1.9 0.2
v -0.5 1.9 0.2
v -0.4 1.9 0.2
v -0.3 1.9 0.2
v -1 1.9 0.1
v -0.9 1.9 0.1
v -0.8 1.9 0.1
v -0.7 1.9 0.1
v -0.6 1.9 0.1
v -0.5 1.9 0.1
v -0.4 1.9 0.1
v -0.3 1.9 0.1
v -0.9 1.9 0
v -0.8 1.9 0
v -0.7 1.9 0
v -0.5 1.9 0
v -0.4 1.9 0
v -0.8 1.9 -0.1
v -0.7 1.9 -0.1
v -0.4 2 0.5
v -0.3 2 0.5
v -1.1 2 0.4
v -1 2 0.4
v -0.8 2 0.4
v -0.7 2 0.4
v -0.4 2 0.4
v -0.3 2 0.4
v -1.1 2 0.3
v -1 2 0.3
v -0.9 2 0.3
v -0.8 2 0.3
v -0.7 2 0.3
v -0.4 2 0.3
v -0.3 2 0.3
v -1 2 0.2
v -0.9 2 0.2
v -0.4 2 0.2
v -0.3 2 0.2
v -0.4 2 0.1
v -0.3 2 0.1
v -0.4 2 0
v -0.3 2 0
v -0.5 2.1 0.5
v -0.4 2.1 0.5
v -1 2.1 0.4
v -0.9 2.1 0.4
v -0.5 2.1 0.4
v -0.4 2.1 0.4
v -0.3 2.1 0.4
v -1 2.1 0.3
v -0.9 2.1 0.3
v -0.4 2.1 0.3
v -0.3 2.1 0.3
v -0.2 2.1 0.3
v -0.4 2.1 0.2
v -0.3 2.1 0.2
v -0.2 2.1 0.2
v -0.4 2.1 0.1
v -0.3 2.1 0.1
v -0.4 2.2 0.5
v -0.3 2.2 0.5
v -0.2 2.2 0.5
v -0.1 2.2 0.5
v -0.4 2.2 0.4
v -0.3 2.2 0.4
v -0.2 2.2 0.4
v -0.1 2.2 0.4
v -0.3 2.2 0.3
v -0.2 2.2 0.3
v -0.3 2.2 0.2
v -0.2 2.2 0.2
v -0.3 2.2 0.1
v -0.2 2.2 0.1
v -0.4 2.3 0.4
v -0.3 2.3 0.4
v -0.1 2.3 0.4
v 0 2.3 0.4
v -0.4 2.3 0.3
v -0.3 2.3 0.3
v -0.1 2.3 0.3
v 0 2.3 0.3
v -0.4 2.4 0.3
v -0.3 2.4 0.3
v -0.4 2.4 0.2
v -0.3 2.4 0.2
v -0.5 0.2 0.9
v -0.4 0.2 0.9
v -0.6 0.2 0.8
v -0.5 0.2 0.8
v -0.4 0.2 0.8
v -0.6 0.2 0.7
v -0.5 0.2 0.7
v -0.2 0.2 0.6
v -0.1 0.2 0.6
v -0.9 0.2 0.5
v -0.8 0.2 0.5
v -0.9 0.2 0.4
v -0.8 0.2 0.4
v -0.7 0.2 0.4
v -0.3 0.2 0.4
v -0.2 0.2 0.4
v -0.1 0.2 0.4
v -1 0.2 0.3
v -0.9 0.2 0.3
v -0.8 0.2 0.3
v -0.7 0.2 0.3
v -0.3 0.2 0.3
v -0.2 0.2 0.3
v -1 0.2 0.2
v -0.9 0.2 0.2
v -0.8 0.2 0.2
v -0.7 0.2 0.2
v -0.9 0.2 0.1
v -0.8 0.2 0.1
v -0.7 0.2 0.1
v -0.5 0.2 0.1
v -0.4 0.2 0.1
v -0.5 0.2 0
v -0.4 0.2 0
v -0.2 0.2 0
v -0.1 0.2 0
v -0.6 0.2 -0.1
v -0.5 0.2 -0.1
v -0.2 0.2 -0.1
v -0.1 0.2 -0.1
v 0 0.2 -0.1
v -0.7 0.2 -0.2
v -0.6 0.2 -0.2
v -0.5 0.2 -0.2
v -0.1 0.2 -0.2
v 0 0.2 -0.2
v -0.8 0.2 -0.3
v -0.7 0.2 -0.3
v -0.6 0.2 -0.3
v -0.8 0.2 -0.4
v -0.7 0.2 -0.4
v -0.6 0.3 0.7
v -0.5 0.3 0.7
v -0.7 0.3 0.6
v -0.6 0.3 0.6
v -0.7 0.3 0.5
v -0.6 0.3 0.5
v -0.5 0.3 0.5
v -0.7 0.3 0.4
v -0.6 0.3 0.4
v -0.5 0.3 0.4
v -0.4 0.3 0.4
v -0.3 0.3 0.4
v -0.8 0.3 0.3
v -0.7 0.3 0.3
v -0.6 0.3 0.3
v -0.5 0.3 0.3
v -0.4 0.3 0.3
v -0.3 0.3 0.3
v -0.8 0.3 0.2
v -0.7 0.3 0.2
v -0.6 0.3 0.2
v -0.5 0.3 0.2
v -0.4 0.3 0.2
v -0.3 0.3 0.2
v -0.7 0.3 0.1
v -0.6 0.3 0.1
v -0.4 0.3 0.1
v -0.3 0.3 0.1
v -0.7 0.3 0
v -0.6 0.3 0
v -0.5 0.3 0
v -0.4 0.3 0
v -0.3 0.3 0
v -0.2 0.3 0
v -0.6 0.3 -0.1
v -0.5 0.3 -0.1
v -0.3 0.3 -0.1
v -0.2 0.3 -0.1
v -0.5 0.4 0.5
v -0.4 0.4 0.5
v -0.5 0.4 0.4
v -0.4 0.4 0.4
v -1.1 1 0.4
v -1 1 0.4
v 0 1 0.4
v 0.1 1 0.4
v -1.1 1 0.3
v -1 1 0.3
v 0 1 0.3
v 0.1 1 0.3
v -1.1 1 0.1
v -1 1 0.1
v 0 1 0.1
v 0.1 1 0.1
v -1.1 1 0
v -1 1 0
v 0 1 0
v 0.1 1 0
v -0.8 1 -0.2
v -0.7 1 -0.2
v -0.3 1 -0.2
v -0.2 1 -0.2
v -0.8 1 -0.3
v -0.7 1 -0.3
v -0.3 1 -0.3
v -0.2 1 -0.3
v -0.8 1.1 0.7
v -0.7 1.1 0.7
v -0.6 1.1 0.7
v -0.5 1.1 0.7
v -0.4 1.1 0.7
v -0.3 1.1 0.7
v -0.2 1.1 0.7
v -0.9 1.1 0.6
v -0.8 1.1 0.6
v -0.7 1.1 0.6
v -0.6 1.1 0.6
v -0.5 1.1 0.6
v -0.4 1.1 0.6
v -0.3 1.1 0.6
v -0.2 1.1 0.6
v -0.1 1.1 0.6
v -1 1.1 0.5
v -0.9 1.1 0.5
v -0.8 1.1 0.5
v -0.2 1.1 0.5
v -0.1 1.1 0.5
v 0 1.1 0.5
v -1 1.1 0.4
v -0.9 1.1 0.4
v -0.1 1.1 0.4
v 0 1.1 0.4
v -1.1 1.1 0.3
v -1 1.1 0.3
v 0 1.1 0.3
v 0.1 1.1 0.3
v -1.1 1.1 0.2
v -1 1.1 0.2
v -1.1 1.1 0.1
v -1 1.1 0.1
v 0 1.1 0.1
v 0.1 1.1 0.1
v -1 1.1 0
v -0.9 1.1 0
v -0.1 1.1 0
v 0 1.1 0
v -1 1.1 -0.1
v -0.9 1.1 -0.1
v -0.8 1.1 -0.1
v -0.2 1.1 -0.1
v -0.1 1.1 -0.1
v 0 1.1 -0.1
v -0.9 1.1 -0.2
v -0.8 1.1 -0.2
v -0.7 1.1 -0.2
v -0.6 1.1 -0.2
v -0.4 1.1 -0.2
v -0.3 1.1 -0.2
v -0.2 1.1 -0.2
v -0.1 1.1 -0.2
v -0.7 1.1 -0.3
v -0.6 1.1 -0.3
v -0.4 1.1 -0.3
v -0.3 1.1 -0.3
v -0.7 1.2 0.7
v -0.6 1.2 0.7
v -0.4 1.2 0.7
v -0.3 1.2 0.7
v -0.8 1.2 0.6
v -0.7 1.2 0.6
v -0.6 1.2 0.6
v -0.4 1.2 0.6
v -0.3 1.2 0.6
v -0.2 1.2 0.6
v -0.9 1.2 0.5
v -0.8 1.2 0.5
v -0.7 1.2 0.5
v -0.3 1.2 0.5
v -0.2 1.2 0.5
v -0.1 1.2 0.5
v -1 1.2 0.4
v -0.9 1.2 0.4
v -0.8 1.2 0.4
v -0.2 1.2 0.4
v -0.1 1.2 0.4
v 0 1.2 0.4
v -1 1.2 0.3
v -0.9 1.2 0.3
v -0.1 1.2 0.3
v 0 1.2 0.3
v -1 1.2 0.2
v -0.9 1.2 0.2
v -0.1 1.2 0.1
v 0 1.2 0.1
v -1 1.2 0
v -0.9 1.2 0
v -0.8 1.2 0
v -0.2 1.2 0
v -0.1 1.2 0
v 0 1.2 0
v -0.9 1.2 -0.1
v -0.8 1.2 -0.1
v -0.7 1.2 -0.1
v -0.3 1.2 -0.1
v -0.2 1.2 -0.1
v -0.1 1.2 -0.1
v -0.8 1.2 -0.2
v -0.7 1.2 -0.2
v -0.3 1.2 -0.2
v -0.2 1.2 -0.2
v -0.7 1.3 0.6
v -0.6 1.3 0.6
v -0.3 1.3 0.6
v -0.8 1.3 0.5
v -0.7 1.3 0.5
v -0.6 1.3 0.5
v -0.4 1.3 0.5
v -0.3 1.3 0.5
v -0.2 1.3 0.5
v -0.9 1.3 0.4
v -0.8 1.3 0.4
v -0.7 1.3 0.4
v -0.3 1.3 0.4
v -0.2 1.3 0.4
v -0.1 1.3 0.4
v -0.2 1.3 0.3
v -0.8 1.3 0.2
v -0.9 1.3 0
v -0.8 1.3 0
v -0.7 1.3 0
v -0.3 1.3 0
v -0.2 1.3 0
v -0.1 1.3 0
v -0.8 1.3 -0.1
v -0.7 1.3 -0.1
v -0.6 1.3 -0.1
v -0.5 1.3 -0.1
v -0.4 1.3 -0.1
v -0.3 1.3 -0.1
v -0.2 1.3 -0.1
v -0.7 1.3 -0.2
v -0.6 1.3 -0.2
v -0.5 1.3 -0.2
v -0.4 1.3 -0.2
v -0.3 1.3 -0.2
v -0.7 1.4 0.5
v -0.6 1.4 0.5
v -0.4 1.4 0.5
v -0.3 1.4 0.5
v -0.8 1.4 0.4
v -0.7 1.4 0.4
v -0.6 1.4 0.4
v -0.5 1.4 0.4
v -0.4 1.4 0.4
v -0.3 1.4 0.4
v -0.2 1.4 0.4
v -0.7 1.4 0.3
v -0.6 1.4 0.3
v -0.5 1.4 0.3
v -0.4 1.4 0.3
v -0.3 1.4 0.3
v -0.2 1.4 0.3
v -0.8 1.4 0.2
v -0.7 1.4 0.2
v -0.4 1.4 0.2
v -0.3 1.4 0.2
v -0.7 1.4 0.1
v -0.6 1.4 0.1
v -0.5 1.4 0.1
v -0.4 1.4 0.1
v -0.3 1.4 0.1
v -0.8 1.4 0
v -0.7 1.4 0
v -0.6 1.4 0
v -0.5 1.4 0
v -0.4 1.4 0
v -0.3 1.4 0
v -0.2 1.4 0
v -0.7 1.4 -0.1
v -0.6 1.4 -0.1
v -0.5 1.4 -0.1
v -0.4 1.4 -0.1
v -0.3 1.4 -0.1
v -0.6 1.5 0.4
v -0.5 1.5 0.4
v -0.7 1.5 0.3
v -0.6 1.5 0.3
v -0.5 1.5 0.3
v -0.4 1.5 0.3
v -0.7 1.5 0.2
v -0.6 1.5 0.2
v -0.5 1.5 0.2
v -0.4 1.5 0.2
v -0.7 1.5 0.1
v -0.6 1.5 0.1
v -0.5 1.5 0.1
v -0.4 1.5 0.1
v -0.6 1.5 0
v -0.5 1.5 0
v -0.7 1.7 0.4
v -0.6 1.7 0.4
v -0.5 1.7 0.4
v -0.4 1.7 0.4
v -0.7 1.7 0.3
v -0.6 1.7 0.3
v -0.5 1.7 0.3
v -0.4 1.7 0.3
v -0.5 1.7 0.2
v -0.4 1.7 0.2
v -0.5 1.7 0.1
v -0.4 1.7 0.1
v -0.9 1.8 0.4
v -0.8 1.8 0.4
v -0.6 1.8 0.4
v -0.5 1.8 0.4
v -0.8 1.8 0.3
v -0.6 1.8 0.3
v -0.5 1.8 0.3
v -0.9 1.8 0.2
v -0.8 1.8 0.2
v -0.8 1.8 0.1
v -0.7 1.8 0.1
v -0.6 1.8 0.1
v -0.5 1.8 0.1
v -0.8 1.8 0
v -0.7 1.8 0
v -0.6 1.8 0
v -0.5 1.8 0
v -0.8 1.9 0.4
v -0.7 1.9 0.4
v -0.8 1.9 0.3
v -0.7 1.9 0.3
v -0.6 1.9 0.3
v -0.4 1.9 0.3
v -0.3 1.9 0.3
v -0.7 1.9 0.2
v -0.6 1.9 0.2
v -0.4 1.9 0.2
v -0.3 1.9 0.2
v -0.4 1.9 0.1
v -0.3 1.9 0.1
v -0.7 1.9 0
v -0.6 1.9 0
v -0.4 1.9 0
v -0.3 1.9 0
v -0.7 1.9 -0.1
v -0.6 1.9 -0.1
v -1 2 0.5
v -0.9 2 0.5
v -0.5 2 0.5
v -0.4 2 0.5
v -1 2 0.4
v -0.9 2 0.4
v -0.8 2 0.4
v -0.6 2 0.4
v -0.5 2 0.4
v -0.4 2 0.4
v -0.3 2 0.4
v -1 2 0.3
v -0.9 2 0.3
v -0.8 2 0.3
v -0.6 2 0.3
v -0.5 2 0.3
v -0.4 2 0.3
v -0.3 2 0.3
v -1 2 0.2
v -0.9 2 0.2
v -0.7 2 0.2
v -0.6 2 0.2
v -0.5 2 0.2
v -0.4 2 0.2
v -0.3 2 0.2
v -1 2 0.1
v -0.9 2 0.1
v -0.8 2 0.1
v -0.7 2 0.1
v -0.6 2 0.1
v -0.5 2 0.1
v -0.4 2 0.1
v -0.3 2 0.1
v -0.9 2 0
v -0.8 2 0
v -0.7 2 0
v -0.5 2 0
v -0.4 2 0
v -0.8 2 -0.1
v -0.7 2 -0.1
v -0.4 2.1 0.5
v -0.3 2.1 0.5
v -1.1 2.1 0.4
v -1 2.1 0.4
v -0.8 2.1 0.4
v -0.7 2.1 0.4
v -0.4 2.1 0.4
v -0.3 2.1 0.4
v -1.1 2.1 0.3
v -1 2.1 0.3
v -0.9 2.1 0.3
v -0.8 2.1 0.3
v -0.7 2.1 0.3
v -0.6 2.1 0.3
v -0.5 2.1 0.3
v -1 2.1 0.2
v -0.9 2.1 0.2
v -0.8 2.1 0.2
v -0.6 2.1 0.2
v -0.5 2.1 0.2
v -0.4 2.1 0.2
v -0.7 2.1 0.1
v -0.6 2.1 0.1
v -0.5 2.1 0.1
v -0.4 2.1 0.1
v -0.3 2.1 0.1
v -0.7 2.1 0
v -0.6 2.1 0
v -0.4 2.1 0
v -0.3 2.1 0
v -0.5 2.2 0.5
v -0.4 2.2 0.5
v -1 2.2 0.4
v -0.9 2.2 0.4
v -0.5 2.2 0.4
v -0.4 2.2 0.4
v -0.3 2.2 0.4
v -1 2.2 0.3
v -0.9 2.2 0.3
v -0.8 2.2 0.3
v -0.7 2.2 0.3
v -0.5 2.2 0.3
v -0.4 2.2 0.3
v -0.3 2.2 0.3
v -0.2 2.2 0.3
v -0.9 2.2 0.2
v -0.8 2.2 0.2
v -0.7 2.2 0.2
v -0.5 2.2 0.2
v -0.4 2.2 0.2
v -0.3 2.2 0.2
v -0.2 2.2 0.2
v -0.9 2.2 0.1
v -0.8 2.2 0.1
v -0.7 2.2 0.1
v -0.4 2.2 0.1
v -0.3 2.2 0.1
v -0.4 2.3 0.5
v -0.3 2.3 0.5
v -0.2 2.3 0.5
v -0.1 2.3 0.5
v -0.5 2.3 0.4
v -0.4 2.3 0.4
v -0.3 2.3 0.4
v -0.2 2.3 0.4
v -0.1 2.3 0.4
v -0.5 2.3 0.3
v -0.4 2.3 0.3
v -0.3 2.3 0.3
v -0.2 2.3 0.3
v -0.3 2.3 0.2
v -0.2 2.3 0.2
v -0.3 2.3 0.1
v -0.2 2.3 0.1
v -0.4 2.4 0.4
v -0.3 2.4 0.4
v -0.1 2.4 0.4
v 0 2.4 0.4
v -0.4 2.4 0.3
v -0.3 2.4 0.3
v -0.1 2.4 0.3
v 0 2.4 0.3
v -0.4 2.5 0.3
v -0.3 2.5 0.3
v -0.4 2.5 0.2
v -0.3 2.5 0.2

# faces
f 5/2/1 2/2/1 1/2/1
f 6/8/1 3/8/1 2/8/1
f 6/2/1 2/2/1 5/2/1
f 7/8/1 3/8/1 6/8/1
f 9/5/1 5/5/1 4/5/1
f 10/8/1 6/8/1 5/8/1
f 10/5/1 5/5/1 9/5/1
f 10/8/1 7/8/1 6/8/1
f 11/2/1 8/2/1 7/2/1
f 11/8/1 7/8/1 10/8/1
f 12/2/1 8/2/1 11/2/1
f 13/2/1 10/2/1 9/2/1
f 14/8/1 11/8/1 10/8/1
f 14/2/1 10/2/1 13/2/1
f 15/8/1 11/8/1 14/8/1
f 16/5/1 12/5/1 11/5/1
f 16/8/1 11/8/1 15/8/1
f 17/5/1 12/5/1 16/5/1
f 18/8/1 15/8/1 14/8/1
f 19/5/1 16/5/1 15/5/1
f 19/8/1 15/8/1 18/8/1
f 20/5/1 16/5/1 19/5/1
f 23/3/1 22/3/1 21/3/1
f 24/3/1 22/3/1 23/3/1
f 27/10/1 26/10/1 25/10/1
f 28/10/1 26/10/1 27/10/1
f 34/5/1 30/5/1 29/5/1
f 35/8/1 31/8/1 30/8/1
f 35/5/1 30/5/1 34/5/1
f 36/5/1 32/5/1 31/5/1
f 36/8/1 31/8/1 35/8/1
f 37/5/1 32/5/1 36/5/1
f 38/5/1 32/5/1 37/5/1
f 40/8/1 34/8/1 33/8/1
f 40/8/1 35/8/1 34/8/1
f 41/8/1 35/8/1 40/8/1
f 42/8/1 35/8/1 41/8/1
f 43/5/1 38/5/1 37/5/1
f 44/2/1 39/2/1 38/2/1
f 44/5/1 38/5/1 43/5/1
f 45/5/1 41/5/1 40/5/1
f 46/2/1 39/2/1 44/2/1
f 47/2/1 39/2/1 46/2/1
f 48/5/1 45/5/1 40/5/1
f 49/5/1 45/5/1 48/5/1
f 52/5/1 47/5/1 46/5/1
f 53/2/1 50/2/1 49/2/1
f 53/2/1 49/2/1 48/2/1
f 54/2/1 50/2/1 53/2/1
f 55/2/1 50/2/1 54/2/1
f 57/8/1 52/8/1 51/8/1
f 58/5/1 47/5/1 52/5/1
f 58/8/1 52/8/1 57/8/1
f 59/5/1 47/5/1 58/5/1
f 60/2/1 55/2/1 54/2/1
f 61/8/1 56/8/1 55/8/1
f 61/2/1 55/2/1 60/2/1
f 62/5/1 57/5/1 56/5/1
f 62/8/1 56/8/1 61/8/1
f 62/5/1 58/5/1 57/5/1
f 63/5/1 58/5/1 62/5/1
f 68/9/1 65/9/1 64/9/1
f 69/9/1 65/9/1 68/9/1
f 70/9/1 65/9/1 69/9/1
f 71/9/1 67/9/1 66/9/1
f 72/9/1 67/9/1 71/9/1
f 74/3/1 71/3/1 70/3/1
f 75/3/1 71/3/1 74/3/1
f 76/3/1 74/3/1 73/3/1
f 77/3/1 74/3/1 76/3/1
f 82/4/1 79/4/1 78/4/1
f 83/4/1 79/4/1 82/4/1
f 84/10/1 81/10/1 80/10/1
f 85/10/1 81/10/1 84/10/1
f 91/5/1 87/5/1 86/5/1
f 92/5/1 87/5/1 91/5/1
f 93/8/1 88/8/1 87/8/1
f 93/5/1 87/5/1 92/5/1
f 94/5/1 89/5/1 88/5/1
f 94/8/1 88/8/1 93/8/1
f 95/5/1 89/5/1 94/5/1
f 98/5/1 91/5/1 90/5/1
f 99/5/1 91/5/1 98/5/1
f 100/2/1 96/2/1 95/2/1
f 101/2/1 96/2/1 100/2/1
f 103/8/1 98/8/1 97/8/1
f 104/2/1 102/2/1 101/2/1
f 105/2/1 102/2/1 104/2/1
f 106/5/1 105/5/1 104/5/1
f 107/8/1 103/8/1 97/8/1
f 108/5/1 105/5/1 106/5/1
f 109/5/1 105/5/1 108/5/1
f 110/8/1 107/8/1 97/8/1
f 111/8/1 107/8/1 110/8/1
f 114/8/1 109/8/1 108/8/1
f 115/8/1 109/8/1 114/8/1
f 116/5/1 112/5/1 111/5/1
f 117/5/1 112/5/1 116/5/1
f 120/5/1 114/5/1 113/5/1
f 121/5/1 114/5/1 120/5/1
f 122/5/1 119/5/1 118/5/1
f 122/5/1 120/5/1 119/5/1
f 122/5/1 118/5/1 117/5/1
f 123/5/1 120/5/1 122/5/1
f 126/9/1 125/9/1 124/9/1
f 127/9/1 125/9/1 126/9/1
f 130/3/1 128/3/1 127/3/1
f 131/3/1 128/3/1 130/3/1
f 133/9/1 130/9/1 129/9/1
f 134/9/1 130/9/1 133/9/1
f 135/3/1 132/3/1 131/3/1
f 136/3/1 132/3/1 135/3/1
f 137/6/1 135/6/1 134/6/1
f 138/6/1 135/6/1 137/6/1
f 139/3/1 138/3/1 137/3/1
f 140/3/1 138/3/1 139/3/1
f 145/7/1 142/7/1 141/7/1
f 146/7/1 142/7/1 145/7/1
f 148/4/1 144/4/1 143/4/1
f 149/4/1 144/4/1 148/4/1
f 150/10/1 147/10/1 146/10/1
f 151/10/1 147/10/1 150/10/1
f 157/2/1 153/2/1 152/2/1
f 158/5/1 154/5/1 153/5/1
f 158/2/1 153/2/1 157/2/1
f 159/5/1 154/5/1 158/5/1
f 163/5/1 156/5/1 155/5/1
f 164/5/1 156/5/1 163/5/1
f 165/2/1 161/2/1 160/2/1
f 166/2/1 161/2/1 165/2/1
f 168/2/1 163/2/1 162/2/1
f 169/2/1 163/2/1 168/2/1
f 170/5/1 167/5/1 166/5/1
f 171/5/1 167/5/1 170/5/1
f 176/8/1 175/8/1 174/8/1
f 177/8/1 175/8/1 176/8/1
f 178/5/1 173/5/1 172/5/1
f 179/5/1 173/5/1 178/5/1
f 180/5/1 177/5/1 176/5/1
f 181/5/1 177/5/1 180/5/1
f 182/1/1 179/1/1 178/1/1
f 183/1/1 179/1/1 182/1/1
f 187/1/1 184/1/1 183/1/1
f 188/1/1 184/1/1 187/1/1
f 191/8/1 186/8/1 185/8/1
f 192/8/1 186/8/1 191/8/1
f 193/8/1 189/8/1 188/8/1
f 194/8/1 189/8/1 193/8/1
f 196/8/1 191/8/1 190/8/1
f 197/8/1 191/8/1 196/8/1
f 198/8/1 195/8/1 194/8/1
f 199/5/1 196/5/1 195/5/1
f 199/8/1 195/8/1 198/8/1
f 200/5/1 196/5/1 199/5/1
f 206/9/1 202/9/1 201/9/1
f 207/9/1 202/9/1 206/9/1
f 208/6/1 204/6/1 203/6/1
f 209/9/1 205/9/1 204/9/1
f 209/6/1 204/6/1 208/6/1
f 210/9/1 205/9/1 209/9/1
f 215/9/1 212/9/1 211/9/1
f 216/9/1 212/9/1 215/9/1
f 217/9/1 214/9/1 213/9/1
f 218/9/1 214/9/1 217/9/1
f 220/3/1 219/3/1 218/3/1
f 221/3/1 219/3/1 220/3/1
f 229/4/1 223/4/1 222/4/1
f 230/4/1 223/4/1 229/4/1
f 233/10/1 225/10/1 224/10/1
f 234/10/1 225/10/1 233/10/1
f 235/4/1 227/4/1 226/4/1
f 236/4/1 227/4/1 235/4/1
f 237/4/1 229/4/1 228/4/1
f 238/4/1 229/4/1 237/4/1
f 240/7/1 232/7/1 231/7/1
f 241/7/1 232/7/1 240/7/1
f 244/4/1 240/4/1 239/4/1
f 245/4/1 240/4/1 244/4/1
f 249/2/1 243/2/1 242/2/1
f 250/2/1 243/2/1 249/2/1
f 251/5/1 246/5/1 245/5/1
f 252/5/1 246/5/1 251/5/1
f 255/5/1 248/5/1 247/5/1
f 256/5/1 248/5/1 255/5/1
f 257/2/1 254/2/1 253/2/1
f 258/2/1 254/2/1 257/2/1
f 263/5/1 260/5/1 259/5/1
f 264/5/1 260/5/1 263/5/1
f 265/5/1 262/5/1 261/5/1
f 266/5/1 262/5/1 265/5/1
f 271/5/1 268/5/1 267/5/1
f 272/5/1 268/5/1 271/5/1
f 273/1/1 270/1/1 269/1/1
f 274/1/1 270/1/1 273/1/1
f 278/5/1 275/5/1 274/5/1
f 279/5/1 275/5/1 278/5/1
f 282/8/1 277/8/1 276/8/1
f 283/8/1 277/8/1 282/8/1
f 284/5/1 280/5/1 279/5/1
f 285/5/1 280/5/1 284/5/1
f 289/8/1 282/8/1 281/8/1
f 290/8/1 282/8/1 289/8/1
f 291/2/1 287/2/1 286/2/1
f 292/5/1 288/5/1 287/5/1
f 292/2/1 287/2/1 291/2/1
f 293/5/1 288/5/1 292/5/1
f 296/6/1 295/6/1 294/6/1
f 297/6/1 295/6/1 296/6/1
f 300/3/1 299/3/1 298/3/1
f 301/3/1 299/3/1 300/3/1
f 304/3/1 301/3/1 300/3/1
f 304/3/1 302/3/1 301/3/1
f 305/3/1 302/3/1 304/3/1
f 306/6/1 303/6/1 302/6/1
f 306/3/1 302/3/1 305/3/1
f 307/6/1 303/6/1 306/6/1
f 310/9/1 309/9/1 308/9/1
f 311/9/1 309/9/1 310/9/1
f 316/7/1 313/7/1 312/7/1
f 317/7/1 313/7/1 316/7/1
f 324/10/1 315/10/1 314/10/1
f 325/10/1 315/10/1 324/10/1
f 326/7/1 318/7/1 317/7/1
f 327/7/1 318/7/1 326/7/1
f 328/4/1 320/4/1 319/4/1
f 329/4/1 320/4/1 328/4/1
f 331/7/1 322/7/1 321/7/1
f 332/7/1 322/7/1 331/7/1
f 333/10/1 324/10/1 323/10/1
f 334/10/1 324/10/1 333/10/1
f 335/7/1 329/7/1 328/7/1
f 336/7/1 329/7/1 335/7/1
f 337/4/1 331/4/1 330/4/1
f 338/4/1 331/4/1 337/4/1
f 339/7/1 333/7/1 332/7/1
f 340/7/1 333/7/1 339/7/1
f 342/5/1 336/5/1 335/5/1
f 343/5/1 336/5/1 342/5/1
f 344/2/1 341/2/1 340/2/1
f 345/2/1 341/2/1 344/2/1
f 350/8/1 347/8/1 346/8/1
f 351/8/1 347/8/1 350/8/1
f 353/2/1 349/2/1 348/2/1
f 354/2/1 349/2/1 353/2/1
f 355/6/1 352/6/1 351/6/1
f 357/6/1 352/6/1 355/6/1
f 358/6/1 352/6/1 357/6/1
f 361/9/1 357/9/1 356/9/1
f 361/9/1 358/9/1 357/9/1
f 362/9/1 358/9/1 361/9/1
f 363/9/1 358/9/1 362/9/1
f 364/3/1 360/3/1 359/3/1
f 365/3/1 360/3/1 364/3/1
f 369/9/1 367/9/1 366/9/1
f 369/9/1 368/9/1 367/9/1
f 370/9/1 368/9/1 369/9/1
f 371/9/1 368/9/1 370/9/1
f 372/6/1 371/6/1 370/6/1
f 373/6/1 371/6/1 372/6/1
f 378/10/1 375/10/1 374/10/1
f 379/10/1 375/10/1 378/10/1
f 380/4/1 377/4/1 376/4/1
f 381/4/1 377/4/1 380/4/1
f 382/4/1 377/4/1 381/4/1
f 385/4/1 384/4/1 383/4/1
f 386/4/1 384/4/1 385/4/1
f 391/6/1 388/6/1 387/6/1
f 392/6/1 388/6/1 391/6/1
f 393/9/1 390/9/1 389/9/1
f 394/9/1 390/9/1 393/9/1
f 400/6/1 396/6/1 395/6/1
f 401/6/1 396/6/1 400/6/1
f 402/3/1 398/3/1 397/3/1
f 403/3/1 398/3/1 402/3/1
f 405/9/1 400/9/1 399/9/1
f 406/9/1 400/9/1 405/9/1
f 409/6/1 404/6/1 403/6/1
f 410/6/1 404/6/1 409/6/1
f 412/6/1 407/6/1 406/6/1
f 413/6/1 407/6/1 412/6/1
f 414/9/1 409/9/1 408/9/1
f 415/9/1 409/9/1 414/9/1
f 416/9/1 413/9/1 412/9/1
f 416/9/1 412/9/1 411/9/1
f 417/9/1 413/9/1 416/9/1
f 418/6/1 414/6/1 413/6/1
f 418/9/1 413/9/1 417/9/1
f 419/6/1 414/6/1 418/6/1
f 420/6/1 418/6/1 417/6/1
f 421/6/1 418/6/1 420/6/1
f 426/4/1 423/4/1 422/4/1
f 427/4/1 423/4/1 426/4/1
f 428/10/1 425/10/1 424/10/1
f 429/10/1 425/10/1 428/10/1
f 432/1/1 431/1/1 430/1/1
f 433/1/1 431/1/1 432/1/1
f 436/3/1 435/3/1 434/3/1
f 437/3/1 435/3/1 436/3/1
f 442/6/1 439/6/1 438/6/1
f 443/6/1 439/6/1 442/6/1
f 445/6/1 441/6/1 440/6/1
f 446/6/1 441/6/1 445/6/1
f 449/6/1 445/6/1 444/6/1
f 450/6/1 445/6/1 449/6/1
f 451/6/1 448/6/1 447/6/1
f 452/6/1 448/6/1 451/6/1
f 454/6/1 453/6/1 452/6/1
f 455/6/1 453/6/1 454/6/1
f 457/9/1 456/9/1 455/9/1
f 458/9/1 456/9/1 457/9/1
f 461/10/1 460/10/1 459/10/1
f 462/10/1 460/10/1 461/10/1
f 465/7/1 464/7/1 463/7/1
f 466/7/1 464/7/1 465/7/1
f 471/9/1 468/9/1 467/9/1
f 472/9/1 468/9/1 471/9/1
f 473/9/1 470/9/1 469/9/1
f 474/9/1 470/9/1 473/9/1
f 479/10/1 476/10/1 475/10/1
f 480/10/1 476/10/1 479/10/1
f 481/10/1 478/10/1 477/10/1
f 482/10/1 478/10/1 481/10/1
f 485/9/1 484/9/1 483/9/1
f 486/9/1 484/9/1 485/9/1
f 489/7/1 488/7/1 487/7/1
f 490/7/1 488/7/1 489/7/1
f 493/9/1 492/9/1 491/9/1
f 494/9/1 492/9/1 493/9/1
f 495/3/2 496/3/2 497/3/2
f 497/3/2 496/3/2 498/3/2
f 499/10/2 500/10/2 501/10/2
f 501/10/2 500/10/2 502/10/2
f 503/9/2 504/9/2 505/9/2
f 505/9/2 504/9/2 506/9/2
f 507/3/2 508/3/2 509/3/2
f 509/3/2 508/3/2 510/3/2
f 511/4/2 512/4/2 513/4/2
f 513/4/2 512/4/2 514/4/2
f 515/9/2 516/9/2 517/9/2
f 517/9/2 516/9/2 518/9/2
f 519/3/2 520/3/2 523/3/2
f 523/3/2 520/3/2 524/3/2
f 521/6/2 522/6/2 525/6/2
f 525/6/2 522/6/2 526/6/2
f 527/7/2 528/7/2 533/7/2
f 533/7/2 528/7/2 534/7/2
f 529/4/2 530/4/2 535/4/2
f 535/4/2 530/4/2 536/4/2
f 531/4/2 532/4/2 537/4/2
f 537/4/2 532/4/2 538/4/2
f 539/3/2 540/3/2 544/3/2
f 544/3/2 540/3/2 545/3/2
f 541/9/2 542/9/2 546/9/2
f 546/9/2 542/9/2 547/9/2
f 543/6/2 544/6/2 548/6/2
f 548/6/2 544/6/2 549/6/2
f 549/6/2 550/6/2 554/6/2
f 554/6/2 550/6/2 555/6/2
f 551/9/2 552/9/2 557/9/2
f 557/9/2 552/9/2 558/9/2
f 555/9/2 556/9/2 559/9/2
f 553/9/2 554/9/2 559/9/2
f 554/9/2 555/9/2 559/9/2
f 559/9/2 556/9/2 560/9/2
f 560/9/2 556/9/2 561/9/2
f 561/9/2 556/9/2 562/9/2
f 560/3/2 561/3/2 563/3/2
f 561/6/2 562/6/2 564/6/2
f 563/3/2 561/3/2 564/3/2
f 564/6/2 562/6/2 565/6/2
f 566/4/2 567/4/2 570/4/2
f 570/4/2 567/4/2 571/4/2
f 568/10/2 569/10/2 572/10/2
f 572/10/2 569/10/2 573/10/2
f 574/1/2 575/1/2 576/1/2
f 576/1/2 575/1/2 577/1/2
f 578/6/2 579/6/2 580/6/2
f 580/6/2 579/6/2 581/6/2
f 582/3/2 583/3/2 584/3/2
f 584/3/2 583/3/2 585/3/2
f 584/3/2 585/3/2 588/3/2
f 585/3/2 586/3/2 588/3/2
f 588/3/2 586/3/2 589/3/2
f 586/6/2 587/6/2 590/6/2
f 589/3/2 586/3/2 590/3/2
f 590/6/2 587/6/2 591/6/2
f 589/6/2 590/6/2 592/6/2
f 592/6/2 590/6/2 593/6/2
f 592/9/2 593/9/2 594/9/2
f 594/9/2 593/9/2 595/9/2
f 596/7/2 597/7/2 600/7/2
f 600/7/2 597/7/2 601/7/2
f 598/10/2 599/10/2 606/10/2
f 606/10/2 599/10/2 607/10/2
f 601/7/2 602/7/2 608/7/2
f 602/4/2 603/4/2 609/4/2
f 608/7/2 602/7/2 609/7/2
f 609/4/2 603/4/2 610/4/2
f 604/4/2 605/4/2 612/4/2
f 605/10/2 606/10/2 613/10/2
f 612/4/2 605/4/2 613/4/2
f 613/10/2 606/10/2 614/10/2
f 610/4/2 611/4/2 617/4/2
f 617/4/2 611/4/2 618/4/2
f 615/5/2 616/5/2 621/5/2
f 621/5/2 616/5/2 622/5/2
f 619/2/2 620/2/2 623/2/2
f 623/2/2 620/2/2 624/2/2
f 625/8/2 626/8/2 629/8/2
f 629/8/2 626/8/2 630/8/2
f 627/2/2 628/2/2 632/2/2
f 632/2/2 628/2/2 633/2/2
f 630/6/2 631/6/2 634/6/2
f 634/6/2 631/6/2 635/6/2
f 634/6/2 635/6/2 637/6/2
f 637/6/2 635/6/2 638/6/2
f 636/9/2 637/9/2 641/9/2
f 641/9/2 637/9/2 642/9/2
f 639/3/2 640/3/2 643/3/2
f 643/3/2 640/3/2 644/3/2
f 645/10/2 646/10/2 649/10/2
f 649/10/2 646/10/2 650/10/2
f 647/4/2 648/4/2 652/4/2
f 652/4/2 648/4/2 653/4/2
f 653/4/2 648/4/2 654/4/2
f 651/4/2 652/4/2 657/4/2
f 657/4/2 652/4/2 658/4/2
f 655/4/2 656/4/2 661/4/2
f 656/4/2 657/4/2 661/4/2
f 661/4/2 657/4/2 662/4/2
f 662/4/2 657/4/2 663/4/2
f 658/4/2 659/4/2 664/4/2
f 659/7/2 660/7/2 665/7/2
f 664/4/2 659/4/2 665/4/2
f 665/7/2 660/7/2 666/7/2
f 667/5/2 668/5/2 670/5/2
f 668/2/2 669/2/2 671/2/2
f 670/5/2 668/5/2 671/5/2
f 671/2/2 669/2/2 672/2/2
f 673/6/2 674/6/2 677/6/2
f 677/6/2 674/6/2 678/6/2
f 675/9/2 676/9/2 679/9/2
f 679/9/2 676/9/2 680/9/2
f 678/6/2 679/6/2 682/6/2
f 682/6/2 679/6/2 683/6/2
f 681/6/2 682/6/2 686/6/2
f 686/6/2 682/6/2 687/6/2
f 683/3/2 684/3/2 688/3/2
f 688/3/2 684/3/2 689/3/2
f 685/9/2 686/9/2 691/9/2
f 691/9/2 686/9/2 692/9/2
f 687/3/2 688/3/2 693/3/2
f 693/3/2 688/3/2 694/3/2
f 689/6/2 690/6/2 695/6/2
f 695/6/2 690/6/2 696/6/2
f 692/6/2 693/6/2 698/6/2
f 698/6/2 693/6/2 699/6/2
f 694/9/2 695/9/2 700/9/2
f 700/9/2 695/9/2 701/9/2
f 697/9/2 698/9/2 702/9/2
f 702/9/2 698/9/2 703/9/2
f 703/6/2 704/6/2 705/6/2
f 705/6/2 704/6/2 706/6/2
f 707/4/2 708/4/2 712/4/2
f 712/4/2 708/4/2 713/4/2
f 709/4/2 710/4/2 714/4/2
f 710/10/2 711/10/2 715/10/2
f 714/4/2 710/4/2 715/4/2
f 715/10/2 711/10/2 716/10/2
f 717/2/2 718/2/2 723/2/2
f 718/5/2 719/5/2 724/5/2
f 723/2/2 718/2/2 724/2/2
f 719/2/2 720/2/2 725/2/2
f 724/5/2 719/5/2 725/5/2
f 725/2/2 720/2/2 726/2/2
f 721/2/2 722/2/2 729/2/2
f 729/2/2 722/2/2 730/2/2
f 727/5/2 728/5/2 731/5/2
f 731/5/2 728/5/2 732/5/2
f 733/8/2 734/8/2 737/8/2
f 737/8/2 734/8/2 738/8/2
f 735/8/2 736/8/2 739/8/2
f 739/8/2 736/8/2 740/8/2
f 741/5/2 742/5/2 745/5/2
f 745/5/2 742/5/2 746/5/2
f 743/1/2 744/1/2 747/1/2
f 747/1/2 744/1/2 748/1/2
f 748/8/2 749/8/2 752/8/2
f 752/8/2 749/8/2 753/8/2
f 750/2/2 751/2/2 756/2/2
f 756/2/2 751/2/2 757/2/2
f 753/5/2 754/5/2 758/5/2
f 758/5/2 754/5/2 759/5/2
f 755/2/2 756/2/2 760/2/2
f 760/2/2 756/2/2 761/2/2
f 762/6/2 763/6/2 767/6/2
f 767/6/2 763/6/2 768/6/2
f 764/3/2 765/3/2 769/3/2
f 769/3/2 765/3/2 770/3/2
f 766/6/2 767/6/2 772/6/2
f 772/6/2 767/6/2 773/6/2
f 768/3/2 769/3/2 774/3/2
f 774/3/2 769/3/2 775/3/2
f 771/6/2 772/6/2 777/6/2
f 777/6/2 772/6/2 778/6/2
f 773/3/2 774/3/2 779/3/2
f 779/3/2 774/3/2 780/3/2
f 775/6/2 776/6/2 781/6/2
f 781/6/2 776/6/2 782/6/2
f 778/9/2 779/9/2 784/9/2
f 784/9/2 779/9/2 785/9/2
f 780/6/2 781/6/2 786/6/2
f 786/6/2 781/6/2 787/6/2
f 783/6/2 784/6/2 788/6/2
f 788/6/2 784/6/2 789/6/2
f 789/6/2 790/6/2 791/6/2
f 791/6/2 790/6/2 792/6/2
f 792/9/2 793/9/2 794/9/2
f 794/9/2 793/9/2 795/9/2
f 796/10/2 797/10/2 798/10/2
f 798/10/2 797/10/2 799/10/2
f 800/7/2 801/7/2 802/7/2
f 802/7/2 801/7/2 803/7/2
f 804/2/2 805/2/2 809/2/2
f 809/2/2 805/2/2 810/2/2
f 806/8/2 807/8/2 811/8/2
f 811/8/2 807/8/2 812/8/2
f 808/5/2 809/5/2 814/5/2
f 814/5/2 809/5/2 815/5/2
f 812/5/2 813/5/2 816/5/2
f 816/5/2 813/5/2 817/5/2
f 820/8/2 821/8/2 822/8/2
f 822/8/2 821/8/2 823/8/2
f 818/8/2 819/8/2 824/8/2
f 824/8/2 819/8/2 825/8/2
f 822/2/2 823/2/2 826/2/2
f 826/2/2 823/2/2 827/2/2
f 824/1/2 825/1/2 828/1/2
f 828/1/2 825/1/2 829/1/2
f 829/1/2 830/1/2 833/1/2
f 833/1/2 830/1/2 834/1/2
f 831/2/2 832/2/2 837/2/2
f 837/2/2 832/2/2 838/2/2
f 834/2/2 835/2/2 839/2/2
f 839/2/2 835/2/2 840/2/2
f 836/2/2 837/2/2 842/2/2
f 842/2/2 837/2/2 843/2/2
f 840/5/2 841/5/2 844/5/2
f 841/8/2 842/8/2 845/8/2
f 844/5/2 841/5/2 845/5/2
f 845/8/2 842/8/2 846/8/2
f 847/3/2 848/3/2 850/3/2
f 850/3/2 848/3/2 851/3/2
f 849/9/2 850/9/2 853/9/2
f 853/9/2 850/9/2 854/9/2
f 851/9/2 852/9/2 855/9/2
f 855/9/2 852/9/2 856/9/2
f 857/10/2 858/10/2 861/10/2
f 861/10/2 858/10/2 862/10/2
f 859/10/2 860/10/2 863/10/2
f 863/10/2 860/10/2 864/10/2
f 865/5/2 866/5/2 869/5/2
f 866/2/2 867/2/2 870/2/2
f 869/5/2 866/5/2 870/5/2
f 870/2/2 867/2/2 871/2/2
f 868/2/2 869/2/2 874/2/2
f 874/2/2 869/2/2 875/2/2
f 871/8/2 872/8/2 876/8/2
f 876/8/2 872/8/2 877/8/2
f 873/2/2 874/2/2 879/2/2
f 879/2/2 874/2/2 880/2/2
f 877/2/2 878/2/2 881/2/2
f 881/2/2 878/2/2 882/2/2
f 882/2/2 878/2/2 883/2/2
f 879/5/2 880/5/2 884/5/2
f 884/5/2 880/5/2 885/5/2
f 882/8/2 883/8/2 886/8/2
f 886/8/2 883/8/2 887/8/2
f 884/8/2 885/8/2 888/8/2
f 888/8/2 885/8/2 889/8/2
f 886/2/2 887/2/2 892/2/2
f 892/2/2 887/2/2 893/2/2
f 889/5/2 890/5/2 894/5/2
f 894/5/2 890/5/2 895/5/2
f 891/2/2 892/2/2 898/2/2
f 898/2/2 892/2/2 899/2/2
f 896/2/2 897/2/2 900/2/2
f 897/2/2 898/2/2 900/2/2
f 895/2/2 896/2/2 900/2/2
f 900/2/2 898/2/2 901/2/2
f 902/9/2 903/9/2 904/9/2
f 904/9/2 903/9/2 905/9/2
f 906/7/2 907/7/2 908/7/2
f 908/7/2 907/7/2 909/7/2
f 910/8/2 911/8/2 913/8/2
f 913/8/2 911/8/2 914/8/2
f 914/8/2 911/8/2 915/8/2
f 915/8/2 911/8/2 916/8/2
f 916/8/2 911/8/2 917/8/2
f 912/2/2 913/2/2 919/2/2
f 913/8/2 914/8/2 920/8/2
f 919/2/2 913/2/2 920/2/2
f 920/8/2 914/8/2 921/8/2
f 917/8/2 918/8/2 922/8/2
f 916/8/2 917/8/2 922/8/2
f 922/8/2 918/8/2 923/8/2
f 923/8/2 918/8/2 924/8/2
f 919/8/2 920/8/2 925/8/2
f 919/8/2 925/8/2 926/8/2
f 926/8/2 925/8/2 927/8/2
f 923/5/2 924/5/2 930/5/2
f 930/5/2 924/5/2 931/5/2
f 927/5/2 928/5/2 932/5/2
f 926/5/2 927/5/2 932/5/2
f 932/5/2 928/5/2 933/5/2
f 933/5/2 928/5/2 934/5/2
f 929/5/2 930/5/2 935/5/2
f 930/8/2 931/8/2 936/8/2
f 935/5/2 930/5/2 936/5/2
f 936/8/2 931/8/2 937/8/2
f 933/5/2 934/5/2 938/5/2
f 934/8/2 935/8/2 939/8/2
f 938/5/2 934/5/2 939/5/2
f 935/5/2 936/5/2 940/5/2
f 939/8/2 935/8/2 940/8/2
f 940/5/2 936/5/2 941/5/2
f 942/9/2 943/9/2 944/9/2
f 944/9/2 943/9/2 945/9/2
f 946/8/2 947/8/2 950/8/2
f 947/5/2 948/5/2 951/5/2
f 950/8/2 947/8/2 951/8/2
f 951/5/2 948/5/2 952/5/2
f 949/8/2 950/8/2 954/8/2
f 950/5/2 951/5/2 955/5/2
f 954/8/2 950/8/2 955/8/2
f 952/8/2 953/8/2 956/8/2
f 955/5/2 951/5/2 956/5/2
f 951/8/2 952/8/2 956/8/2
f 954/5/2 955/5/2 957/5/2
f 955/8/2 956/8/2 958/8/2
f 957/5/2 955/5/2 958/5/2
f 956/8/2 953/8/2 959/8/2
f 958/8/2 956/8/2 959/8/2
f 959/8/2 953/8/2 960/8/2
f 958/8/2 959/8/2 961/8/2
f 961/8/2 959/8/2 962/8/2
f 965/10/3 964/10/3 963/10/3
f 966/10/3 964/10/3 965/10/3
f 969/7/3 968/7/3 967/7/3
f 970/7/3 968/7/3 969/7/3
f 975/5/3 972/5/3 971/5/3
f 976/1/3 973/1/3 972/1/3
f 976/5/3 972/5/3 975/5/3
f 977/1/3 973/1/3 976/1/3
f 981/5/3 975/5/3 974/5/3
f 982/8/3 976/8/3 975/8/3
f 982/5/3 975/5/3 981/5/3
f 983/11/3 977/11/3 976/11/3
f 983/8/3 976/8/3 982/8/3
f 984/1/3 978/1/3 977/1/3
f 984/11/3 977/11/3 983/11/3
f 985/1/3 978/1/3 984/1/3
f 986/7/3 980/7/3 979/7/3
f 987/7/3 980/7/3 986/7/3
f 988/8/3 982/8/3 981/8/3
f 988/8/3 983/8/3 982/8/3
f 988/5/3 984/5/3 983/5/3
f 989/5/3 984/5/3 988/5/3
f 990/8/3 988/8/3 981/8/3
f 990/8/3 989/8/3 988/8/3
f 991/8/3 989/8/3 990/8/3
f 993/8/3 990/8/3 981/8/3
f 994/8/3 990/8/3 993/8/3
f 995/11/3 991/11/3 990/11/3
f 995/8/3 990/8/3 994/8/3
f 996/1/3 992/1/3 991/1/3
f 996/11/3 991/11/3 995/11/3
f 997/1/3 992/1/3 996/1/3
f 998/8/3 995/8/3 994/8/3
f 999/1/3 996/1/3 995/1/3
f 999/8/3 995/8/3 998/8/3
f 1000/1/3 996/1/3 999/1/3
f 1004/8/3 1002/8/3 1001/8/3
f 1005/8/3 1002/8/3 1004/8/3
f 1006/8/3 1002/8/3 1005/8/3
f 1007/8/3 1002/8/3 1006/8/3
f 1012/2/3 1004/2/3 1003/2/3
f 1013/5/3 1005/5/3 1004/5/3
f 1013/2/3 1004/2/3 1012/2/3
f 1014/5/3 1005/5/3 1013/5/3
f 1015/1/3 1008/1/3 1007/1/3
f 1016/1/3 1008/1/3 1015/1/3
f 1018/4/3 1010/4/3 1009/4/3
f 1019/4/3 1010/4/3 1018/4/3
f 1020/5/3 1012/5/3 1011/5/3
f 1020/5/3 1013/5/3 1012/5/3
f 1021/5/3 1013/5/3 1020/5/3
f 1023/5/3 1017/5/3 1016/5/3
f 1024/5/3 1017/5/3 1023/5/3
f 1025/8/3 1021/8/3 1020/8/3
f 1025/5/3 1020/5/3 1011/5/3
f 1026/8/3 1021/8/3 1025/8/3
f 1027/8/3 1024/8/3 1023/8/3
f 1027/8/3 1023/8/3 1022/8/3
f 1028/5/3 1026/5/3 1025/5/3
f 1028/5/3 1025/5/3 1011/5/3
f 1029/5/3 1026/5/3 1028/5/3
f 1030/8/3 1024/8/3 1027/8/3
f 1031/8/3 1024/8/3 1030/8/3
f 1032/2/3 1029/2/3 1028/2/3
f 1033/5/3 1026/5/3 1029/5/3
f 1033/2/3 1029/2/3 1032/2/3
f 1034/5/3 1026/5/3 1033/5/3
f 1037/8/3 1024/8/3 1031/8/3
f 1038/8/3 1024/8/3 1037/8/3
f 1041/5/3 1034/5/3 1033/5/3
f 1042/8/3 1035/8/3 1034/8/3
f 1042/5/3 1034/5/3 1041/5/3
f 1043/8/3 1035/8/3 1042/8/3
f 1045/1/3 1037/1/3 1036/1/3
f 1046/1/3 1037/1/3 1045/1/3
f 1047/10/3 1040/10/3 1039/10/3
f 1048/10/3 1040/10/3 1047/10/3
f 1049/2/3 1043/2/3 1042/2/3
f 1050/5/3 1044/5/3 1043/5/3
f 1050/2/3 1043/2/3 1049/2/3
f 1051/8/3 1045/8/3 1044/8/3
f 1051/5/3 1044/5/3 1050/5/3
f 1052/8/3 1045/8/3 1051/8/3
f 1062/8/3 1054/8/3 1053/8/3
f 1063/5/3 1055/5/3 1054/5/3
f 1063/8/3 1054/8/3 1062/8/3
f 1064/2/3 1056/2/3 1055/2/3
f 1064/5/3 1055/5/3 1063/5/3
f 1065/2/3 1056/2/3 1064/2/3
f 1067/9/3 1058/9/3 1057/9/3
f 1068/9/3 1058/9/3 1067/9/3
f 1069/4/3 1060/4/3 1059/4/3
f 1070/4/3 1060/4/3 1069/4/3
f 1072/5/3 1062/5/3 1061/5/3
f 1073/5/3 1062/5/3 1072/5/3
f 1074/5/3 1066/5/3 1065/5/3
f 1075/5/3 1066/5/3 1074/5/3
f 1077/5/3 1072/5/3 1071/5/3
f 1078/5/3 1072/5/3 1077/5/3
f 1079/8/3 1076/8/3 1075/8/3
f 1080/8/3 1076/8/3 1079/8/3
f 1085/5/3 1081/5/3 1080/5/3
f 1086/5/3 1081/5/3 1085/5/3
f 1087/7/3 1083/7/3 1082/7/3
f 1088/5/3 1084/5/3 1083/5/3
f 1088/7/3 1083/7/3 1087/7/3
f 1089/5/3 1084/5/3 1088/5/3
f 1094/4/3 1088/4/3 1087/4/3
f 1095/4/3 1088/4/3 1094/4/3
f 1096/8/3 1086/8/3 1085/8/3
f 1097/8/3 1086/8/3 1096/8/3
f 1098/9/3 1091/9/3 1090/9/3
f 1099/9/3 1091/9/3 1098/9/3
f 1100/9/3 1093/9/3 1092/9/3
f 1101/9/3 1093/9/3 1100/9/3
f 1106/5/3 1097/5/3 1096/5/3
f 1107/5/3 1097/5/3 1106/5/3
f 1108/6/3 1100/6/3 1099/6/3
f 1109/6/3 1100/6/3 1108/6/3
f 1110/6/3 1102/6/3 1101/6/3
f 1111/6/3 1102/6/3 1110/6/3
f 1112/2/3 1104/2/3 1103/2/3
f 1113/2/3 1104/2/3 1112/2/3
f 1116/2/3 1106/2/3 1105/2/3
f 1117/2/3 1106/2/3 1116/2/3
f 1120/2/3 1114/2/3 1113/2/3
f 1121/2/3 1114/2/3 1120/2/3
f 1124/5/3 1116/5/3 1115/5/3
f 1125/5/3 1116/5/3 1124/5/3
f 1126/9/3 1119/9/3 1118/9/3
f 1127/9/3 1119/9/3 1126/9/3
f 1128/2/3 1122/2/3 1121/2/3
f 1129/8/3 1123/8/3 1122/8/3
f 1129/2/3 1122/2/3 1128/2/3
f 1130/5/3 1124/5/3 1123/5/3
f 1130/8/3 1123/8/3 1129/8/3
f 1131/5/3 1124/5/3 1130/5/3
f 1139/5/3 1133/5/3 1132/5/3
f 1140/2/3 1134/2/3 1133/2/3
f 1140/5/3 1133/5/3 1139/5/3
f 1141/2/3 1134/2/3 1140/2/3
f 1144/3/3 1136/3/3 1135/3/3
f 1145/3/3 1136/3/3 1144/3/3
f 1148/5/3 1138/5/3 1137/5/3
f 1149/5/3 1138/5/3 1148/5/3
f 1150/2/3 1143/2/3 1142/2/3
f 1151/2/3 1143/2/3 1150/2/3
f 1157/3/3 1146/3/3 1145/3/3
f 1158/3/3 1146/3/3 1157/3/3
f 1161/5/3 1148/5/3 1147/5/3
f 1162/5/3 1148/5/3 1161/5/3
f 1163/5/3 1152/5/3 1151/5/3
f 1164/5/3 1152/5/3 1163/5/3
f 1166/9/3 1154/9/3 1153/9/3
f 1167/9/3 1154/9/3 1166/9/3
f 1168/6/3 1156/6/3 1155/6/3
f 1169/6/3 1156/6/3 1168/6/3
f 1171/7/3 1160/7/3 1159/7/3
f 1172/7/3 1160/7/3 1171/7/3
f 1176/8/3 1165/8/3 1164/8/3
f 1177/8/3 1165/8/3 1176/8/3
f 1180/6/3 1168/6/3 1167/6/3
f 1181/6/3 1168/6/3 1180/6/3
f 1182/9/3 1170/9/3 1169/9/3
f 1183/9/3 1170/9/3 1182/9/3
f 1184/4/3 1173/4/3 1172/4/3
f 1185/4/3 1173/4/3 1184/4/3
f 1186/2/3 1175/2/3 1174/2/3
f 1187/2/3 1175/2/3 1186/2/3
f 1190/6/3 1179/6/3 1178/6/3
f 1191/6/3 1179/6/3 1190/6/3
f 1197/8/3 1189/8/3 1188/8/3
f 1198/8/3 1189/8/3 1197/8/3
f 1200/9/3 1192/9/3 1191/9/3
f 1201/9/3 1192/9/3 1200/9/3
f 1202/9/3 1194/9/3 1193/9/3
f 1203/9/3 1194/9/3 1202/9/3
f 1209/8/3 1196/8/3 1195/8/3
f 1210/8/3 1196/8/3 1209/8/3
f 1211/6/3 1200/6/3 1199/6/3
f 1212/6/3 1200/6/3 1211/6/3
f 1213/6/3 1202/6/3 1201/6/3
f 1214/6/3 1202/6/3 1213/6/3
f 1215/6/3 1204/6/3 1203/6/3
f 1216/6/3 1204/6/3 1215/6/3
f 1217/6/3 1206/6/3 1205/6/3
f 1218/6/3 1206/6/3 1217/6/3
f 1221/4/3 1208/4/3 1207/4/3
f 1222/4/3 1208/4/3 1221/4/3
f 1223/2/3 1210/2/3 1209/2/3
f 1224/2/3 1210/2/3 1223/2/3
f 1227/6/3 1215/6/3 1214/6/3
f 1228/6/3 1215/6/3 1227/6/3
f 1229/9/3 1217/9/3 1216/9/3
f 1230/9/3 1217/9/3 1229/9/3
f 1231/6/3 1219/6/3 1218/6/3
f 1232/6/3 1219/6/3 1231/6/3
f 1233/10/3 1221/10/3 1220/10/3
f 1234/10/3 1221/10/3 1233/10/3
f 1238/5/3 1226/5/3 1225/5/3
f 1239/5/3 1226/5/3 1238/5/3
f 1240/9/3 1231/9/3 1230/9/3
f 1241/9/3 1231/9/3 1240/9/3
f 1242/5/3 1236/5/3 1235/5/3
f 1243/5/3 1236/5/3 1242/5/3
f 1246/2/3 1238/2/3 1237/2/3
f 1247/2/3 1238/2/3 1246/2/3
f 1250/8/3 1244/8/3 1243/8/3
f 1251/8/3 1244/8/3 1250/8/3
f 1255/5/3 1246/5/3 1245/5/3
f 1256/5/3 1246/5/3 1255/5/3
f 1257/9/3 1249/9/3 1248/9/3
f 1258/9/3 1249/9/3 1257/9/3
f 1259/8/3 1253/8/3 1252/8/3
f 1260/5/3 1254/5/3 1253/5/3
f 1260/8/3 1253/8/3 1259/8/3
f 1261/5/3 1254/5/3 1260/5/3
f 1268/2/3 1263/2/3 1262/2/3
f 1269/2/3 1263/2/3 1268/2/3
f 1270/8/3 1265/8/3 1264/8/3
f 1271/8/3 1265/8/3 1270/8/3
f 1274/10/3 1267/10/3 1266/10/3
f 1275/10/3 1267/10/3 1274/10/3
f 1276/3/3 1273/3/3 1272/3/3
f 1277/3/3 1273/3/3 1276/3/3
f 1285/3/3 1277/3/3 1276/3/3
f 1286/3/3 1277/3/3 1285/3/3
f 1289/10/3 1279/10/3 1278/10/3
f 1290/10/3 1279/10/3 1289/10/3
f 1291/2/3 1281/2/3 1280/2/3
f 1292/2/3 1281/2/3 1291/2/3
f 1295/3/3 1283/3/3 1282/3/3
f 1296/3/3 1283/3/3 1295/3/3
f 1297/6/3 1285/6/3 1284/6/3
f 1298/6/3 1285/6/3 1297/6/3
f 1299/3/3 1287/3/3 1286/3/3
f 1300/3/3 1287/3/3 1299/3/3
f 1301/4/3 1289/4/3 1288/4/3
f 1302/4/3 1289/4/3 1301/4/3
f 1305/2/3 1294/2/3 1293/2/3
f 1306/2/3 1294/2/3 1305/2/3
f 1309/3/3 1297/3/3 1296/3/3
f 1310/3/3 1297/3/3 1309/3/3
f 1314/4/3 1304/4/3 1303/4/3
f 1315/4/3 1304/4/3 1314/4/3
f 1317/6/3 1308/6/3 1307/6/3
f 1317/6/3 1307/6/3 1306/6/3
f 1318/6/3 1308/6/3 1317/6/3
f 1319/6/3 1308/6/3 1318/6/3
f 1320/3/3 1310/3/3 1309/3/3
f 1321/3/3 1310/3/3 1320/3/3
f 1322/6/3 1312/6/3 1311/6/3
f 1323/6/3 1312/6/3 1322/6/3
f 1324/4/3 1314/4/3 1313/4/3
f 1325/4/3 1314/4/3 1324/4/3
f 1326/5/3 1317/5/3 1316/5/3
f 1327/5/3 1317/5/3 1326/5/3
f 1328/6/3 1320/6/3 1319/6/3
f 1329/6/3 1320/6/3 1328/6/3
f 1335/6/3 1330/6/3 1329/6/3
f 1336/6/3 1330/6/3 1335/6/3
f 1337/3/3 1332/3/3 1331/3/3
f 1338/3/3 1332/3/3 1337/3/3
f 1340/9/3 1334/9/3 1333/9/3
f 1341/9/3 1334/9/3 1340/9/3
f 1342/3/3 1339/3/3 1338/3/3
f 1343/3/3 1339/3/3 1342/3/3
f 1348/8/3 1345/8/3 1344/8/3
f 1349/8/3 1345/8/3 1348/8/3
f 1350/8/3 1347/8/3 1346/8/3
f 1351/8/3 1347/8/3 1350/8/3
f 1357/9/3 1353/9/3 1352/9/3
f 1358/9/3 1353/9/3 1357/9/3
f 1361/10/3 1355/10/3 1354/10/3
f 1362/10/3 1355/10/3 1361/10/3
f 1363/3/3 1357/3/3 1356/3/3
f 1364/3/3 1357/3/3 1363/3/3
f 1365/3/3 1360/3/3 1359/3/3
f 1366/3/3 1360/3/3 1365/3/3
f 1367/4/3 1362/4/3 1361/4/3
f 1368/4/3 1362/4/3 1367/4/3
f 1375/4/3 1370/4/3 1369/4/3
f 1376/4/3 1370/4/3 1375/4/3
f 1377/3/3 1372/3/3 1371/3/3
f 1378/3/3 1372/3/3 1377/3/3
f 1379/3/3 1374/3/3 1373/3/3
f 1380/3/3 1374/3/3 1379/3/3
f 1387/4/3 1382/4/3 1381/4/3
f 1388/4/3 1382/4/3 1387/4/3
f 1389/4/3 1384/4/3 1383/4/3
f 1390/4/3 1384/4/3 1389/4/3
f 1391/9/3 1386/9/3 1385/9/3
f 1392/9/3 1386/9/3 1391/9/3
f 1395/4/3 1389/4/3 1388/4/3
f 1396/4/3 1389/4/3 1395/4/3
f 1397/3/3 1394/3/3 1393/3/3
f 1398/3/3 1394/3/3 1397/3/3
f 1401/9/3 1400/9/3 1399/9/3
f 1402/9/3 1400/9/3 1401/9/3
f 1407/9/3 1404/9/3 1403/9/3
f 1408/9/3 1404/9/3 1407/9/3
f 1411/7/3 1406/7/3 1405/7/3
f 1412/7/3 1406/7/3 1411/7/3
f 1415/9/3 1410/9/3 1409/9/3
f 1416/9/3 1410/9/3 1415/9/3
f 1417/3/3 1414/3/3 1413/3/3
f 1418/3/3 1414/3/3 1417/3/3
f 1423/3/3 1420/3/3 1419/3/3
f 1424/3/3 1420/3/3 1423/3/3
f 1425/6/3 1422/6/3 1421/6/3
f 1426/6/3 1422/6/3 1425/6/3
f 1430/7/3 1428/7/3 1427/7/3
f 1431/7/3 1428/7/3 1430/7/3
f 1432/10/3 1430/10/3 1429/10/3
f 1433/10/3 1430/10/3 1432/10/3
f 1436/10/3 1435/10/3 1434/10/3
f 1437/10/3 1435/10/3 1436/10/3
f 1440/7/3 1439/7/3 1438/7/3
f 1441/7/3 1439/7/3 1440/7/3
f 1444/10/3 1443/10/3 1442/10/3
f 1445/10/3 1443/10/3 1444/10/3
f 1448/4/3 1447/4/3 1446/4/3
f 1449/4/3 1447/4/3 1448/4/3
f 1450/10/4 1451/10/4 1452/10/4
f 1452/10/4 1451/10/4 1453/10/4
f 1454/7/4 1455/7/4 1456/7/4
f 1456/7/4 1455/7/4 1457/7/4
f 1458/4/4 1459/4/4 1460/4/4
f 1460/4/4 1459/4/4 1461/4/4
f 1462/4/4 1463/4/4 1464/4/4
f 1464/4/4 1463/4/4 1465/4/4
f 1466/7/4 1467/7/4 1468/7/4
f 1468/7/4 1467/7/4 1469/7/4
f 1470/6/4 1471/6/4 1474/6/4
f 1474/6/4 1471/6/4 1475/6/4
f 1472/6/4 1473/6/4 1476/6/4
f 1476/6/4 1473/6/4 1477/6/4
f 1478/10/4 1479/10/4 1482/10/4
f 1482/10/4 1479/10/4 1483/10/4
f 1480/9/4 1481/9/4 1484/9/4
f 1484/9/4 1481/9/4 1485/9/4
f 1486/3/4 1487/3/4 1489/3/4
f 1489/3/4 1487/3/4 1490/3/4
f 1488/9/4 1489/9/4 1492/9/4
f 1492/9/4 1489/9/4 1493/9/4
f 1490/3/4 1491/3/4 1494/3/4
f 1494/3/4 1491/3/4 1495/3/4
f 1496/7/4 1497/7/4 1498/7/4
f 1498/7/4 1497/7/4 1499/7/4
f 1500/6/4 1501/6/4 1502/6/4
f 1502/6/4 1501/6/4 1503/6/4
f 1504/4/4 1505/4/4 1511/4/4
f 1511/4/4 1505/4/4 1512/4/4
f 1506/6/4 1507/6/4 1513/6/4
f 1513/6/4 1507/6/4 1514/6/4
f 1508/6/4 1509/6/4 1517/6/4
f 1517/6/4 1509/6/4 1518/6/4
f 1510/4/4 1511/4/4 1521/4/4
f 1521/4/4 1511/4/4 1522/4/4
f 1515/6/4 1516/6/4 1523/6/4
f 1523/6/4 1516/6/4 1524/6/4
f 1518/6/4 1519/6/4 1526/6/4
f 1526/6/4 1519/6/4 1527/6/4
f 1520/10/4 1521/10/4 1528/10/4
f 1528/10/4 1521/10/4 1529/10/4
f 1525/9/4 1526/9/4 1530/9/4
f 1530/9/4 1526/9/4 1531/9/4
f 1532/9/4 1533/9/4 1534/9/4
f 1534/9/4 1533/9/4 1535/9/4
f 1536/10/4 1537/10/4 1540/10/4
f 1540/10/4 1537/10/4 1541/10/4
f 1538/3/4 1539/3/4 1544/3/4
f 1544/3/4 1539/3/4 1545/3/4
f 1542/9/4 1543/9/4 1548/9/4
f 1548/9/4 1543/9/4 1549/9/4
f 1546/10/4 1547/10/4 1552/10/4
f 1552/10/4 1547/10/4 1553/10/4
f 1548/3/4 1549/3/4 1554/3/4
f 1549/9/4 1550/9/4 1555/9/4
f 1554/3/4 1549/3/4 1555/3/4
f 1555/9/4 1550/9/4 1556/9/4
f 1551/4/4 1552/4/4 1557/4/4
f 1552/7/4 1553/7/4 1558/7/4
f 1557/4/4 1552/4/4 1558/4/4
f 1558/7/4 1553/7/4 1559/7/4
f 1560/6/4 1561/6/4 1566/6/4
f 1566/6/4 1561/6/4 1567/6/4
f 1561/9/4 1562/9/4 1568/9/4
f 1567/6/4 1561/6/4 1568/6/4
f 1562/3/4 1563/3/4 1569/3/4
f 1568/9/4 1562/9/4 1569/9/4
f 1569/3/4 1563/3/4 1570/3/4
f 1564/6/4 1565/6/4 1571/6/4
f 1571/6/4 1565/6/4 1572/6/4
f 1568/6/4 1569/6/4 1574/6/4
f 1574/6/4 1569/6/4 1575/6/4
f 1572/6/4 1573/6/4 1578/6/4
f 1578/6/4 1573/6/4 1579/6/4
f 1575/6/4 1576/6/4 1582/6/4
f 1582/6/4 1576/6/4 1583/6/4
f 1577/3/4 1578/3/4 1584/3/4
f 1584/3/4 1578/3/4 1585/3/4
f 1580/9/4 1581/9/4 1587/9/4
f 1587/9/4 1581/9/4 1588/9/4
f 1585/3/4 1586/3/4 1589/3/4
f 1589/3/4 1586/3/4 1590/3/4
f 1591/8/4 1592/8/4 1595/8/4
f 1595/8/4 1592/8/4 1596/8/4
f 1593/5/4 1594/5/4 1597/5/4
f 1597/5/4 1594/5/4 1598/5/4
f 1599/9/4 1600/9/4 1604/9/4
f 1604/9/4 1600/9/4 1605/9/4
f 1601/10/4 1602/10/4 1608/10/4
f 1608/10/4 1602/10/4 1609/10/4
f 1603/3/4 1604/3/4 1612/3/4
f 1612/3/4 1604/3/4 1613/3/4
f 1605/6/4 1606/6/4 1614/6/4
f 1606/3/4 1607/3/4 1615/3/4
f 1614/6/4 1606/6/4 1615/6/4
f 1615/3/4 1607/3/4 1616/3/4
f 1608/4/4 1609/4/4 1617/4/4
f 1617/4/4 1609/4/4 1618/4/4
f 1610/5/4 1611/5/4 1620/5/4
f 1620/5/4 1611/5/4 1621/5/4
f 1614/9/4 1615/9/4 1626/9/4
f 1615/6/4 1616/6/4 1627/6/4
f 1626/9/4 1615/9/4 1627/9/4
f 1627/6/4 1616/6/4 1628/6/4
f 1619/4/4 1620/4/4 1629/4/4
f 1629/4/4 1620/4/4 1630/4/4
f 1622/5/4 1623/5/4 1631/5/4
f 1631/5/4 1623/5/4 1632/5/4
f 1624/3/4 1625/3/4 1633/3/4
f 1633/3/4 1625/3/4 1634/3/4
f 1635/6/4 1636/6/4 1644/6/4
f 1644/6/4 1636/6/4 1645/6/4
f 1637/7/4 1638/7/4 1647/7/4
f 1647/7/4 1638/7/4 1648/7/4
f 1639/2/4 1640/2/4 1649/2/4
f 1649/2/4 1640/2/4 1650/2/4
f 1641/9/4 1642/9/4 1651/9/4
f 1651/9/4 1642/9/4 1652/9/4
f 1643/3/4 1644/3/4 1653/3/4
f 1653/3/4 1644/3/4 1654/3/4
f 1645/9/4 1646/9/4 1655/9/4
f 1655/9/4 1646/9/4 1656/9/4
f 1654/3/4 1655/3/4 1658/3/4
f 1658/3/4 1655/3/4 1659/3/4
f 1656/6/4 1657/6/4 1660/6/4
f 1660/6/4 1657/6/4 1661/6/4
f 1661/9/4 1662/9/4 1663/9/4
f 1663/9/4 1662/9/4 1664/9/4
f 1665/5/4 1666/5/4 1669/5/4
f 1669/5/4 1666/5/4 1670/5/4
f 1667/8/4 1668/8/4 1671/8/4
f 1671/8/4 1668/8/4 1672/8/4
f 1673/2/4 1674/2/4 1678/2/4
f 1674/5/4 1675/5/4 1679/5/4
f 1678/2/4 1674/2/4 1679/2/4
f 1679/5/4 1675/5/4 1680/5/4
f 1676/5/4 1677/5/4 1684/5/4
f 1684/5/4 1677/5/4 1685/5/4
f 1681/5/4 1682/5/4 1686/5/4
f 1686/5/4 1682/5/4 1687/5/4
f 1683/5/4 1684/5/4 1691/5/4
f 1691/5/4 1684/5/4 1692/5/4
f 1687/5/4 1688/5/4 1693/5/4
f 1693/5/4 1688/5/4 1694/5/4
f 1689/3/4 1690/3/4 1698/3/4
f 1698/3/4 1690/3/4 1699/3/4
f 1694/5/4 1695/5/4 1704/5/4
f 1704/5/4 1695/5/4 1705/5/4
f 1696/9/4 1697/9/4 1706/9/4
f 1706/9/4 1697/9/4 1707/9/4
f 1700/7/4 1701/7/4 1711/7/4
f 1711/7/4 1701/7/4 1712/7/4
f 1702/5/4 1703/5/4 1713/5/4
f 1713/5/4 1703/5/4 1714/5/4
f 1708/6/4 1709/6/4 1719/6/4
f 1709/9/4 1710/9/4 1720/9/4
f 1719/6/4 1709/6/4 1720/6/4
f 1720/9/4 1710/9/4 1721/9/4
f 1712/7/4 1713/7/4 1724/7/4
f 1724/7/4 1713/7/4 1725/7/4
f 1715/2/4 1716/2/4 1727/2/4
f 1727/2/4 1716/2/4 1728/2/4
f 1717/3/4 1718/3/4 1729/3/4
f 1729/3/4 1718/3/4 1730/3/4
f 1722/4/4 1723/4/4 1733/4/4
f 1733/4/4 1723/4/4 1734/4/4
f 1724/7/4 1725/7/4 1735/7/4
f 1725/2/4 1726/2/4 1736/2/4
f 1735/7/4 1725/7/4 1736/7/4
f 1731/6/4 1732/6/4 1738/6/4
f 1738/6/4 1732/6/4 1739/6/4
f 1734/10/4 1735/10/4 1741/10/4
f 1741/10/4 1735/10/4 1742/10/4
f 1736/2/4 1726/2/4 1743/2/4
f 1743/2/4 1726/2/4 1744/2/4
f 1737/3/4 1738/3/4 1747/3/4
f 1747/3/4 1738/3/4 1748/3/4
f 1739/6/4 1740/6/4 1749/6/4
f 1749/6/4 1740/6/4 1750/6/4
f 1745/8/4 1746/8/4 1754/8/4
f 1754/8/4 1746/8/4 1755/8/4
f 1751/2/4 1752/2/4 1756/2/4
f 1756/2/4 1752/2/4 1757/2/4
f 1753/2/4 1754/2/4 1760/2/4
f 1760/2/4 1754/2/4 1761/2/4
f 1757/8/4 1758/8/4 1762/8/4
f 1762/8/4 1758/8/4 1763/8/4
f 1759/5/4 1760/5/4 1766/5/4
f 1766/5/4 1760/5/4 1767/5/4
f 1764/8/4 1765/8/4 1768/8/4
f 1768/8/4 1765/8/4 1769/8/4
f 1770/2/4 1771/2/4 1774/2/4
f 1774/2/4 1771/2/4 1775/2/4
f 1771/5/4 1772/5/4 1776/5/4
f 1775/2/4 1771/2/4 1776/2/4
f 1776/5/4 1772/5/4 1777/5/4
f 1777/5/4 1772/5/4 1778/5/4
f 1773/2/4 1774/2/4 1781/2/4
f 1781/2/4 1774/2/4 1782/2/4
f 1778/5/4 1779/5/4 1783/5/4
f 1783/5/4 1779/5/4 1784/5/4
f 1780/2/4 1781/2/4 1788/2/4
f 1788/2/4 1781/2/4 1789/2/4
f 1784/8/4 1785/8/4 1790/8/4
f 1790/8/4 1785/8/4 1791/8/4
f 1786/9/4 1787/9/4 1794/9/4
f 1794/9/4 1787/9/4 1795/9/4
f 1791/8/4 1792/8/4 1800/8/4
f 1800/8/4 1792/8/4 1801/8/4
f 1793/6/4 1794/6/4 1802/6/4
f 1802/6/4 1794/6/4 1803/6/4
f 1796/10/4 1797/10/4 1804/10/4
f 1804/10/4 1797/10/4 1805/10/4
f 1798/2/4 1799/2/4 1806/2/4
f 1806/2/4 1799/2/4 1807/2/4
f 1800/5/4 1801/5/4 1808/5/4
f 1808/5/4 1801/5/4 1809/5/4
f 1808/8/4 1809/8/4 1810/8/4
f 1810/8/4 1809/8/4 1811/8/4
f 1810/2/4 1811/2/4 1817/2/4
f 1817/2/4 1811/2/4 1818/2/4
f 1812/7/4 1813/7/4 1820/7/4
f 1820/7/4 1813/7/4 1821/7/4
f 1814/8/4 1815/8/4 1822/8/4
f 1822/8/4 1815/8/4 1823/8/4
f 1816/2/4 1817/2/4 1826/2/4
f 1826/2/4 1817/2/4 1827/2/4
f 1819/10/4 1820/10/4 1828/10/4
f 1828/10/4 1820/10/4 1829/10/4
f 1823/8/4 1824/8/4 1830/8/4
f 1830/8/4 1824/8/4 1831/8/4
f 1825/2/4 1826/2/4 1835/2/4
f 1835/2/4 1826/2/4 1836/2/4
f 1831/8/4 1832/8/4 1837/8/4
f 1833/5/4 1834/5/4 1838/5/4
f 1837/8/4 1832/8/4 1838/8/4
f 1832/5/4 1833/5/4 1838/5/4
f 1834/8/4 1835/8/4 1839/8/4
f 1838/5/4 1834/5/4 1839/5/4
f 1839/8/4 1835/8/4 1840/8/4
f 1841/2/4 1842/2/4 1846/2/4
f 1842/5/4 1843/5/4 1847/5/4
f 1846/2/4 1842/2/4 1847/2/4
f 1847/5/4 1843/5/4 1848/5/4
f 1843/8/4 1844/8/4 1849/8/4
f 1848/5/4 1843/5/4 1849/5/4
f 1849/8/4 1844/8/4 1850/8/4
f 1845/5/4 1846/5/4 1853/5/4
f 1846/8/4 1847/8/4 1854/8/4
f 1853/5/4 1846/5/4 1854/5/4
f 1854/8/4 1847/8/4 1855/8/4
f 1849/5/4 1850/5/4 1856/5/4
f 1850/8/4 1851/8/4 1857/8/4
f 1856/5/4 1850/5/4 1857/5/4
f 1857/8/4 1851/8/4 1858/8/4
f 1852/2/4 1853/2/4 1862/2/4
f 1853/5/4 1854/5/4 1862/5/4
f 1862/5/4 1854/5/4 1863/5/4
f 1857/5/4 1858/5/4 1864/5/4
f 1858/8/4 1859/8/4 1865/8/4
f 1864/5/4 1858/5/4 1865/5/4
f 1865/8/4 1859/8/4 1866/8/4
f 1860/10/4 1861/10/4 1867/10/4
f 1867/10/4 1861/10/4 1868/10/4
f 1852/2/4 1862/2/4 1869/2/4
f 1862/8/4 1863/8/4 1870/8/4
f 1869/2/4 1862/2/4 1870/2/4
f 1870/8/4 1863/8/4 1871/8/4
f 1864/8/4 1865/8/4 1872/8/4
f 1865/5/4 1866/5/4 1872/5/4
f 1872/5/4 1866/5/4 1873/5/4
f 1864/8/4 1872/8/4 1874/8/4
f 1872/8/4 1873/8/4 1874/8/4
f 1874/8/4 1873/8/4 1875/8/4
f 1875/8/4 1873/8/4 1876/8/4
f 1869/5/4 1870/5/4 1877/5/4
f 1870/2/4 1871/2/4 1878/2/4
f 1877/5/4 1870/5/4 1878/5/4
f 1878/2/4 1871/2/4 1879/2/4
f 1874/8/4 1875/8/4 1882/8/4
f 1875/2/4 1876/2/4 1883/2/4
f 1882/8/4 1875/8/4 1883/8/4
f 1883/2/4 1876/2/4 1884/2/4
f 1878/5/4 1879/5/4 1885/5/4
f 1879/8/4 1880/8/4 1886/8/4
f 1885/5/4 1879/5/4 1886/5/4
f 1886/8/4 1880/8/4 1887/8/4
f 1881/5/4 1882/5/4 1889/5/4
f 1882/2/4 1883/2/4 1890/2/4
f 1889/5/4 1882/5/4 1890/5/4
f 1890/2/4 1883/2/4 1891/2/4
f 1887/2/4 1888/2/4 1894/2/4
f 1886/2/4 1887/2/4 1894/2/4
f 1888/8/4 1889/8/4 1895/8/4
f 1894/2/4 1888/2/4 1895/2/4
f 1889/2/4 1890/2/4 1896/2/4
f 1895/8/4 1889/8/4 1896/8/4
f 1896/2/4 1890/2/4 1897/2/4
f 1892/7/4 1893/7/4 1898/7/4
f 1898/7/4 1893/7/4 1899/7/4
f 1900/8/4 1901/8/4 1906/8/4
f 1901/5/4 1902/5/4 1907/5/4
f 1906/8/4 1901/8/4 1907/8/4
f 1907/5/4 1902/5/4 1908/5/4
f 1903/10/4 1904/10/4 1910/10/4
f 1910/10/4 1904/10/4 1911/10/4
f 1905/5/4 1906/5/4 1912/5/4
f 1906/5/4 1907/5/4 1912/5/4
f 1907/8/4 1908/8/4 1913/8/4
f 1912/5/4 1907/5/4 1913/5/4
f 1908/5/4 1909/5/4 1914/5/4
f 1913/8/4 1908/8/4 1914/8/4
f 1914/5/4 1909/5/4 1915/5/4
f 1905/5/4 1912/5/4 1916/5/4
f 1912/8/4 1913/8/4 1917/8/4
f 1916/5/4 1912/5/4 1917/5/4
f 1914/8/4 1915/8/4 1917/8/4
f 1913/8/4 1914/8/4 1917/8/4
f 1917/8/4 1915/8/4 1918/8/4
f 1916/8/4 1917/8/4 1919/8/4
f 1917/5/4 1918/5/4 1919/5/4
f 1918/8/4 1915/8/4 1920/8/4
f 1919/5/4 1918/5/4 1920/5/4
f 1920/8/4 1915/8/4 1921/8/4
f 1921/8/4 1915/8/4 1922/8/4
f 1916/8/4 1919/8/4 1923/8/4
f 1919/8/4 1920/8/4 1923/8/4
f 1920/8/4 1921/8/4 1923/8/4
f 1923/8/4 1921/8/4 1924/8/4
f 1924/8/4 1921/8/4 1925/8/4
f 1921/5/4 1922/5/4 1926/5/4
f 1925/8/4 1921/8/4 1926/8/4
f 1926/5/4 1922/5/4 1927/5/4
f 1924/8/4 1925/8/4 1928/8/4
f 1925/2/4 1926/2/4 1929/2/4
f 1928/8/4 1925/8/4 1929/8/4
f 1929/2/4 1926/2/4 1930/2/4
f 1931/4/4 1932/4/4 1933/4/4
f 1933/4/4 1932/4/4 1934/4/4
f 1938/10/5 1936/10/5 1935/10/5
f 1939/10/5 1936/10/5 1938/10/5
f 1940/7/5 1938/7/5 1937/7/5
f 1941/7/5 1938/7/5 1940/7/5
f 1946/4/5 1945/4/5 1944/4/5
f 1947/4/5 1945/4/5 1946/4/5
f 1950/10/5 1943/10/5 1942/10/5
f 1951/10/5 1943/10/5 1950/10/5
f 1954/7/5 1948/7/5 1947/7/5
f 1955/7/5 1948/7/5 1954/7/5
f 1957/10/5 1950/10/5 1949/10/5
f 1958/10/5 1950/10/5 1957/10/5
f 1959/10/5 1953/10/5 1952/10/5
f 1960/10/5 1953/10/5 1959/10/5
f 1962/4/5 1956/4/5 1955/4/5
f 1963/4/5 1956/4/5 1962/4/5
f 1966/10/5 1961/10/5 1960/10/5
f 1967/4/5 1962/4/5 1961/4/5
f 1967/10/5 1961/10/5 1966/10/5
f 1968/4/5 1962/4/5 1967/4/5
f 1969/4/5 1965/4/5 1964/4/5
f 1970/4/5 1965/4/5 1969/4/5
f 1975/10/5 1972/10/5 1971/10/5
f 1976/10/5 1972/10/5 1975/10/5
f 1979/10/5 1974/10/5 1973/10/5
f 1980/10/5 1974/10/5 1979/10/5
f 1981/7/5 1977/7/5 1976/7/5
f 1982/7/5 1977/7/5 1981/7/5
f 1984/10/5 1979/10/5 1978/10/5
f 1985/10/5 1979/10/5 1984/10/5
f 1986/4/5 1984/4/5 1983/4/5
f 1987/4/5 1984/4/5 1986/4/5
f 1991/7/5 1989/7/5 1988/7/5
f 1992/4/5 1991/4/5 1990/4/5
f 1993/7/5 1989/7/5 1991/7/5
f 1993/4/5 1991/4/5 1992/4/5
f 1994/7/5 1989/7/5 1993/7/5
f 1996/4/5 1994/4/5 1993/4/5
f 2000/4/5 1996/4/5 1995/4/5
f 2001/4/5 1994/4/5 1996/4/5
f 2001/4/5 1996/4/5 2000/4/5
f 2002/4/5 1994/4/5 2001/4/5
f 2003/4/5 1998/4/5 1997/4/5
f 2004/4/5 1998/4/5 2003/4/5
f 2005/10/5 2000/10/5 1999/10/5
f 2006/10/5 2000/10/5 2005/10/5
f 2007/7/5 2002/7/5 2001/7/5
f 2008/4/5 2003/4/5 2002/4/5
f 2008/7/5 2002/7/5 2007/7/5
f 2009/4/5 2003/4/5 2008/4/5
f 2012/7/5 2008/7/5 2007/7/5
f 2013/7/5 2008/7/5 2012/7/5
f 2014/4/5 2010/4/5 2009/4/5
f 2015/4/5 2010/4/5 2014/4/5
f 2016/7/5 2012/7/5 2011/7/5
f 2017/4/5 2013/4/5 2012/4/5
f 2017/7/5 2012/7/5 2016/7/5
f 2018/4/5 2013/4/5 2017/4/5
f 2019/10/5 2015/10/5 2014/10/5
f 2020/10/5 2015/10/5 2019/10/5
f 2022/10/5 2018/10/5 2017/10/5
f 2023/10/5 2018/10/5 2022/10/5
f 2024/7/5 2021/7/5 2020/7/5
f 2025/7/5 2021/7/5 2024/7/5
f 2028/4/5 2027/4/5 2026/4/5
f 2029/4/5 2028/4/5 2026/4/5
f 2030/4/5 2028/4/5 2029/4/5
f 2033/4/5 2032/4/5 2031/4/5
f 2034/4/5 2032/4/5 2033/4/5
f 2037/7/5 2036/7/5 2035/7/5
f 2038/7/5 2036/7/5 2037/7/5
f 2045/2/5 2040/2/5 2039/2/5
f 2046/8/5 2041/8/5 2040/8/5
f 2046/2/5 2040/2/5 2045/2/5
f 2047/8/5 2041/8/5 2046/8/5
f 2048/2/5 2043/2/5 2042/2/5
f 2049/2/5 2045/2/5 2044/2/5
f 2050/8/5 2046/8/5 2045/8/5
f 2050/2/5 2045/2/5 2049/2/5
f 2051/8/5 2046/8/5 2050/8/5
f 2052/8/5 2048/8/5 2047/8/5
f 2053/2/5 2043/2/5 2048/2/5
f 2053/8/5 2048/8/5 2052/8/5
f 2054/2/5 2043/2/5 2053/2/5
f 2055/5/5 2050/5/5 2049/5/5
f 2056/5/5 2050/5/5 2055/5/5
f 2058/5/5 2054/5/5 2053/5/5
f 2059/5/5 2054/5/5 2058/5/5
f 2060/5/5 2057/5/5 2056/5/5
f 2061/5/5 2057/5/5 2060/5/5
f 2063/2/5 2059/2/5 2058/2/5
f 2064/2/5 2059/2/5 2063/2/5
f 2065/2/5 2062/2/5 2061/2/5
f 2066/2/5 2062/2/5 2065/2/5
f 2071/5/5 2068/5/5 2067/5/5
f 2072/5/5 2068/5/5 2071/5/5
f 2073/5/5 2068/5/5 2072/5/5
f 2074/2/5 2069/2/5 2068/2/5
f 2074/5/5 2068/5/5 2073/5/5
f 2075/2/5 2069/2/5 2074/2/5
f 2078/5/5 2071/5/5 2070/5/5
f 2079/8/5 2072/8/5 2071/8/5
f 2079/5/5 2071/5/5 2078/5/5
f 2080/8/5 2072/8/5 2079/8/5
f 2081/8/5 2075/8/5 2074/8/5
f 2081/8/5 2074/8/5 2073/8/5
f 2082/8/5 2075/8/5 2081/8/5
f 2083/2/5 2076/2/5 2075/2/5
f 2083/8/5 2075/8/5 2082/8/5
f 2084/2/5 2076/2/5 2083/2/5
f 2086/5/5 2078/5/5 2077/5/5
f 2086/8/5 2079/8/5 2078/8/5
f 2087/8/5 2079/8/5 2086/8/5
f 2088/5/5 2086/5/5 2077/5/5
f 2089/5/5 2086/5/5 2088/5/5
f 2090/8/5 2084/8/5 2083/8/5
f 2091/5/5 2085/5/5 2084/5/5
f 2091/8/5 2084/8/5 2090/8/5
f 2092/5/5 2085/5/5 2091/5/5
f 2093/8/5 2089/8/5 2088/8/5
f 2094/8/5 2089/8/5 2093/8/5
f 2096/8/5 2091/8/5 2090/8/5
f 2097/2/5 2092/2/5 2091/2/5
f 2097/8/5 2091/8/5 2096/8/5
f 2098/5/5 2094/5/5 2093/5/5
f 2099/8/5 2095/8/5 2094/8/5
f 2099/5/5 2094/5/5 2098/5/5
f 2100/8/5 2095/8/5 2099/8/5
f 2103/2/5 2097/2/5 2096/2/5
f 2104/2/5 2092/2/5 2097/2/5
f 2104/2/5 2097/2/5 2103/2/5
f 2105/2/5 2092/2/5 2104/2/5
f 2106/2/5 2100/2/5 2099/2/5
f 2107/8/5 2101/8/5 2100/8/5
f 2107/2/5 2100/2/5 2106/2/5
f 2108/8/5 2101/8/5 2107/8/5
f 2109/8/5 2103/8/5 2102/8/5
f 2109/8/5 2104/8/5 2103/8/5
f 2110/8/5 2104/8/5 2109/8/5
f 2111/8/5 2104/8/5 2110/8/5
f 2112/2/5 2108/2/5 2107/2/5
f 2112/2/5 2109/2/5 2108/2/5
f 2113/5/5 2110/5/5 2109/5/5
f 2113/2/5 2109/2/5 2112/2/5
f 2114/5/5 2110/5/5 2113/5/5
f 2120/2/5 2116/2/5 2115/2/5
f 2121/2/5 2116/2/5 2120/2/5
f 2122/5/5 2118/5/5 2117/5/5
f 2123/5/5 2118/5/5 2122/5/5
f 2126/5/5 2120/5/5 2119/5/5
f 2127/5/5 2120/5/5 2126/5/5
f 2128/2/5 2124/2/5 2123/2/5
f 2129/2/5 2124/2/5 2128/2/5
f 2131/5/5 2126/5/5 2125/5/5
f 2132/5/5 2126/5/5 2131/5/5
f 2133/8/5 2132/8/5 2131/8/5
f 2134/8/5 2132/8/5 2133/8/5
f 2135/8/5 2130/8/5 2129/8/5
f 2136/5/5 2134/5/5 2133/5/5
f 2137/5/5 2136/5/5 2133/5/5
f 2138/5/5 2136/5/5 2137/5/5
f 2141/8/5 2130/8/5 2135/8/5
f 2142/8/5 2130/8/5 2141/8/5
f 2143/2/5 2139/2/5 2138/2/5
f 2144/2/5 2139/2/5 2143/2/5
f 2147/8/5 2141/8/5 2140/8/5
f 2148/8/5 2141/8/5 2147/8/5
f 2149/5/5 2145/5/5 2144/5/5
f 2150/5/5 2145/5/5 2149/5/5
f 2151/5/5 2147/5/5 2146/5/5
f 2152/5/5 2147/5/5 2151/5/5
f 2158/5/5 2154/5/5 2153/5/5
f 2159/8/5 2155/8/5 2154/8/5
f 2159/5/5 2154/5/5 2158/5/5
f 2160/8/5 2155/8/5 2159/8/5
f 2161/8/5 2155/8/5 2160/8/5
f 2165/8/5 2157/8/5 2156/8/5
f 2166/8/5 2157/8/5 2165/8/5
f 2167/2/5 2163/2/5 2162/2/5
f 2168/2/5 2163/2/5 2167/2/5
f 2170/8/5 2165/8/5 2164/8/5
f 2171/8/5 2165/8/5 2170/8/5
f 2172/2/5 2169/2/5 2168/2/5
f 2173/2/5 2169/2/5 2172/2/5
f 2178/2/5 2175/2/5 2174/2/5
f 2179/2/5 2175/2/5 2178/2/5
f 2180/8/5 2177/8/5 2176/8/5
f 2181/8/5 2177/8/5 2180/8/5
f 2182/8/5 2179/8/5 2178/8/5
f 2183/8/5 2179/8/5 2182/8/5
f 2184/5/5 2181/5/5 2180/5/5
f 2185/5/5 2181/5/5 2184/5/5
f 2190/2/5 2187/2/5 2186/2/5
f 2191/2/5 2187/2/5 2190/2/5
f 2194/8/5 2189/8/5 2188/8/5
f 2195/8/5 2189/8/5 2194/8/5
f 2196/2/5 2192/2/5 2191/2/5
f 2197/2/5 2192/2/5 2196/2/5
f 2202/2/5 2194/2/5 2193/2/5
f 2203/2/5 2194/2/5 2202/2/5
f 2204/5/5 2199/5/5 2198/5/5
f 2204/5/5 2200/5/5 2199/5/5
f 2205/8/5 2201/8/5 2200/8/5
f 2205/5/5 2200/5/5 2204/5/5
f 2206/8/5 2201/8/5 2205/8/5
f 2211/5/5 2208/5/5 2207/5/5
f 2212/5/5 2208/5/5 2211/5/5
f 2213/8/5 2210/8/5 2209/8/5
f 2214/8/5 2210/8/5 2213/8/5
f 2219/5/5 2216/5/5 2215/5/5
f 2220/5/5 2216/5/5 2219/5/5
f 2221/8/5 2218/8/5 2217/8/5
f 2222/8/5 2218/8/5 2221/8/5
f 2227/2/5 2224/2/5 2223/2/5
f 2228/2/5 2224/2/5 2227/2/5
f 2229/8/5 2226/8/5 2225/8/5
f 2230/8/5 2226/8/5 2229/8/5
f 2235/8/5 2232/8/5 2231/8/5
f 2236/8/5 2232/8/5 2235/8/5
f 2237/8/5 2234/8/5 2233/8/5
f 2238/8/5 2234/8/5 2237/8/5
f 2243/6/5 2240/6/5 2239/6/5
f 2244/6/5 2240/6/5 2243/6/5
f 2245/6/5 2242/6/5 2241/6/5
f 2246/6/5 2242/6/5 2245/6/5
f 2249/9/5 2248/9/5 2247/9/5
f 2250/9/5 2248/9/5 2249/9/5
f 2255/9/5 2252/9/5 2251/9/5
f 2257/9/5 2254/9/5 2253/9/5
f 2258/9/5 2254/9/5 2257/9/5
f 2260/9/5 2255/9/5 2251/9/5
f 2261/3/5 2256/3/5 2255/3/5
f 2261/9/5 2255/9/5 2260/9/5
f 2262/3/5 2256/3/5 2261/3/5
f 2264/6/5 2259/6/5 2258/6/5
f 2265/6/5 2259/6/5 2264/6/5
f 2267/3/5 2263/3/5 2262/3/5
f 2268/3/5 2263/3/5 2267/3/5
f 2270/9/5 2267/9/5 2266/9/5
f 2271/9/5 2267/9/5 2270/9/5
f 2272/3/5 2269/3/5 2268/3/5
f 2273/3/5 2269/3/5 2272/3/5
f 2278/6/5 2275/6/5 2274/6/5
f 2279/6/5 2275/6/5 2278/6/5
f 2281/6/5 2277/6/5 2276/6/5
f 2282/6/5 2277/6/5 2281/6/5
f 2286/3/5 2280/3/5 2279/3/5
f 2287/3/5 2280/3/5 2286/3/5
f 2289/6/5 2283/6/5 2282/6/5
f 2290/6/5 2283/6/5 2289/6/5
f 2291/3/5 2285/3/5 2284/3/5
f 2292/3/5 2285/3/5 2291/3/5
f 2295/3/5 2289/3/5 2288/3/5
f 2296/3/5 2289/3/5 2295/3/5
f 2298/3/5 2294/3/5 2293/3/5
f 2299/3/5 2294/3/5 2298/3/5
f 2300/3/5 2297/3/5 2296/3/5
f 2301/3/5 2297/3/5 2300/3/5
f 2302/6/5 2299/6/5 2298/6/5
f 2303/6/5 2299/6/5 2302/6/5
f 2308/9/5 2305/9/5 2304/9/5
f 2311/9/5 2307/9/5 2306/9/5
f 2312/9/5 2307/9/5 2311/9/5
f 2314/9/5 2308/9/5 2304/9/5
f 2315/6/5 2309/6/5 2308/6/5
f 2315/9/5 2308/9/5 2314/9/5
f 2316/6/5 2309/6/5 2315/6/5
f 2317/9/5 2311/9/5 2310/9/5
f 2318/9/5 2311/9/5 2317/9/5
f 2319/6/5 2313/6/5 2312/6/5
f 2320/6/5 2313/6/5 2319/6/5
f 2322/9/5 2316/9/5 2315/9/5
f 2323/9/5 2316/9/5 2322/9/5
f 2329/9/5 2322/9/5 2321/9/5
f 2330/9/5 2322/9/5 2329/9/5
f 2331/3/5 2324/3/5 2323/3/5
f 2332/3/5 2324/3/5 2331/3/5
f 2333/6/5 2326/6/5 2325/6/5
f 2334/6/5 2326/6/5 2333/6/5
f 2335/3/5 2328/3/5 2327/3/5
f 2336/3/5 2328/3/5 2335/3/5
f 2337/3/5 2331/3/5 2330/3/5
f 2338/9/5 2332/9/5 2331/9/5
f 2338/3/5 2331/3/5 2337/3/5
f 2339/9/5 2332/9/5 2338/9/5
f 2340/6/5 2335/6/5 2334/6/5
f 2341/6/5 2335/6/5 2340/6/5
f 2342/9/5 2339/9/5 2338/9/5
f 2343/9/5 2339/9/5 2342/9/5
f 2350/6/5 2345/6/5 2344/6/5
f 2351/6/5 2345/6/5 2350/6/5
f 2352/3/5 2347/3/5 2346/3/5
f 2353/3/5 2347/3/5 2352/3/5
f 2355/9/5 2349/9/5 2348/9/5
f 2356/9/5 2349/9/5 2355/9/5
f 2359/3/5 2354/3/5 2353/3/5
f 2360/3/5 2354/3/5 2359/3/5
f 2361/3/5 2358/3/5 2357/3/5
f 2362/3/5 2358/3/5 2361/3/5
f 2365/6/5 2364/6/5 2363/6/5
f 2366/6/5 2364/6/5 2365/6/5
f 2371/9/5 2368/9/5 2367/9/5
f 2372/9/5 2368/9/5 2371/9/5
f 2374/3/5 2370/3/5 2369/3/5
f 2375/3/5 2370/3/5 2374/3/5
f 2376/9/5 2373/9/5 2372/9/5
f 2377/9/5 2373/9/5 2376/9/5
f 2380/3/5 2378/3/5 2377/3/5
f 2381/3/5 2378/3/5 2380/3/5
f 2382/6/5 2380/6/5 2379/6/5
f 2383/6/5 2380/6/5 2382/6/5
f 2388/6/5 2385/6/5 2384/6/5
f 2389/6/5 2385/6/5 2388/6/5
f 2390/9/5 2387/9/5 2386/9/5
f 2391/9/5 2387/9/5 2390/9/5
f 2392/9/5 2390/9/5 2389/9/5
f 2393/9/5 2390/9/5 2392/9/5
f 2396/9/5 2395/9/5 2394/9/5
f 2397/9/5 2395/9/5 2396/9/5
f 2402/6/5 2399/6/5 2398/6/5
f 2403/6/5 2399/6/5 2402/6/5
f 2404/9/5 2401/9/5 2400/9/5
f 2405/9/5 2401/9/5 2404/9/5
f 2408/9/5 2407/9/5 2406/9/5
f 2409/9/5 2407/9/5 2408/9/5
f 2410/10/6 2411/10/6 2413/10/6
f 2413/10/6 2411/10/6 2414/10/6
f 2412/7/6 2413/7/6 2415/7/6
f 2415/7/6 2413/7/6 2416/7/6
f 2419/4/6 2420/4/6 2421/4/6
f 2421/4/6 2420/4/6 2422/4/6
f 2417/10/6 2418/10/6 2425/10/6
f 2425/10/6 2418/10/6 2426/10/6
f 2422/7/6 2423/7/6 2429/7/6
f 2429/7/6 2423/7/6 2430/7/6
f 2424/10/6 2425/10/6 2431/10/6
f 2431/10/6 2425/10/6 2432/10/6
f 2427/10/6 2428/10/6 2433/10/6
f 2433/10/6 2428/10/6 2434/10/6
f 2434/10/6 2435/10/6 2437/10/6
f 2435/4/6 2436/4/6 2438/4/6
f 2437/10/6 2435/10/6 2438/10/6
f 2438/4/6 2436/4/6 2439/4/6
f 2440/4/6 2441/4/6 2442/4/6
f 2442/4/6 2441/4/6 2443/4/6
f 2444/10/6 2445/10/6 2448/10/6
f 2448/10/6 2445/10/6 2449/10/6
f 2446/10/6 2447/10/6 2452/10/6
f 2452/10/6 2447/10/6 2453/10/6
f 2449/7/6 2450/7/6 2454/7/6
f 2454/7/6 2450/7/6 2455/7/6
f 2451/10/6 2452/10/6 2457/10/6
f 2457/10/6 2452/10/6 2458/10/6
f 2456/4/6 2457/4/6 2459/4/6
f 2459/4/6 2457/4/6 2460/4/6
f 2461/7/6 2462/7/6 2464/7/6
f 2463/4/6 2464/4/6 2465/4/6
f 2464/7/6 2462/7/6 2466/7/6
f 2465/4/6 2464/4/6 2466/4/6
f 2466/7/6 2462/7/6 2467/7/6
f 2469/4/6 2470/4/6 2474/4/6
f 2468/4/6 2469/4/6 2474/4/6
f 2474/4/6 2470/4/6 2475/4/6
f 2475/4/6 2470/4/6 2476/4/6
f 2471/4/6 2472/4/6 2477/4/6
f 2477/4/6 2472/4/6 2478/4/6
f 2473/10/6 2474/10/6 2479/10/6
f 2474/7/6 2475/7/6 2480/7/6
f 2479/10/6 2474/10/6 2480/10/6
f 2480/7/6 2475/7/6 2481/7/6
f 2476/4/6 2477/4/6 2482/4/6
f 2482/4/6 2477/4/6 2483/4/6
f 2483/4/6 2484/4/6 2487/4/6
f 2487/4/6 2484/4/6 2488/4/6
f 2485/7/6 2486/7/6 2489/7/6
f 2489/7/6 2486/7/6 2490/7/6
f 2487/10/6 2488/10/6 2492/10/6
f 2492/10/6 2488/10/6 2493/10/6
f 2490/10/6 2491/10/6 2495/10/6
f 2495/10/6 2491/10/6 2496/10/6
f 2493/7/6 2494/7/6 2497/7/6
f 2497/7/6 2494/7/6 2498/7/6
f 2499/4/6 2500/4/6 2501/4/6
f 2501/4/6 2500/4/6 2502/4/6
f 2503/2/6 2504/2/6 2507/2/6
f 2507/2/6 2504/2/6 2508/2/6
f 2505/5/6 2506/5/6 2509/5/6
f 2509/5/6 2506/5/6 2510/5/6
f 2511/5/6 2512/5/6 2515/5/6
f 2515/5/6 2512/5/6 2516/5/6
f 2513/8/6 2514/8/6 2517/8/6
f 2517/8/6 2514/8/6 2518/8/6
f 2519/5/6 2520/5/6 2523/5/6
f 2523/5/6 2520/5/6 2524/5/6
f 2521/2/6 2522/2/6 2525/2/6
f 2525/2/6 2522/2/6 2526/2/6
f 2527/1/6 2528/1/6 2535/1/6
f 2535/1/6 2528/1/6 2536/1/6
f 2529/5/6 2530/5/6 2537/5/6
f 2530/8/6 2531/8/6 2538/8/6
f 2537/5/6 2530/5/6 2538/5/6
f 2538/8/6 2531/8/6 2539/8/6
f 2532/1/6 2533/1/6 2540/1/6
f 2540/1/6 2533/1/6 2541/1/6
f 2534/8/6 2535/8/6 2544/8/6
f 2544/8/6 2535/8/6 2545/8/6
f 2541/8/6 2542/8/6 2546/8/6
f 2546/8/6 2542/8/6 2547/8/6
f 2543/2/6 2544/2/6 2549/2/6
f 2549/2/6 2544/2/6 2550/2/6
f 2547/5/6 2548/5/6 2551/5/6
f 2551/5/6 2548/5/6 2552/5/6
f 2553/8/6 2554/8/6 2557/8/6
f 2557/8/6 2554/8/6 2558/8/6
f 2557/5/6 2558/5/6 2559/5/6
f 2559/5/6 2558/5/6 2560/5/6
f 2555/8/6 2556/8/6 2561/8/6
f 2561/8/6 2556/8/6 2562/8/6
f 2563/5/6 2564/5/6 2567/5/6
f 2567/5/6 2564/5/6 2568/5/6
f 2565/8/6 2566/8/6 2571/8/6
f 2571/8/6 2566/8/6 2572/8/6
f 2568/8/6 2569/8/6 2573/8/6
f 2573/8/6 2569/8/6 2574/8/6
f 2570/2/6 2571/2/6 2579/2/6
f 2579/2/6 2571/2/6 2580/2/6
f 2575/5/6 2576/5/6 2581/5/6
f 2576/8/6 2577/8/6 2582/8/6
f 2581/5/6 2576/5/6 2582/5/6
f 2577/5/6 2578/5/6 2583/5/6
f 2582/8/6 2577/8/6 2583/8/6
f 2583/5/6 2578/5/6 2584/5/6
f 2585/1/6 2586/1/6 2590/1/6
f 2590/1/6 2586/1/6 2591/1/6
f 2587/1/6 2588/1/6 2592/1/6
f 2592/1/6 2588/1/6 2593/1/6
f 2589/1/6 2590/1/6 2596/1/6
f 2596/1/6 2590/1/6 2597/1/6
f 2593/1/6 2594/1/6 2598/1/6
f 2598/1/6 2594/1/6 2599/1/6
f 2595/5/6 2596/5/6 2602/5/6
f 2602/5/6 2596/5/6 2603/5/6
f 2599/5/6 2600/5/6 2604/5/6
f 2604/5/6 2600/5/6 2605/5/6
f 2601/2/6 2602/2/6 2607/2/6
f 2607/2/6 2602/2/6 2608/2/6
f 2605/5/6 2606/5/6 2609/5/6
f 2609/5/6 2606/5/6 2610/5/6
f 2607/8/6 2608/8/6 2611/8/6
f 2611/8/6 2608/8/6 2612/8/6
f 2609/8/6 2610/8/6 2613/8/6
f 2613/8/6 2610/8/6 2614/8/6
f 2611/5/6 2612/5/6 2615/5/6
f 2615/5/6 2612/5/6 2616/5/6
f 2613/5/6 2614/5/6 2619/5/6
f 2619/5/6 2614/5/6 2620/5/6
f 2616/5/6 2617/5/6 2621/5/6
f 2621/5/6 2617/5/6 2622/5/6
f 2618/2/6 2619/2/6 2625/2/6
f 2625/2/6 2619/2/6 2626/2/6
f 2622/8/6 2623/8/6 2627/8/6
f 2627/8/6 2623/8/6 2628/8/6
f 2624/2/6 2625/2/6 2629/2/6
f 2629/2/6 2625/2/6 2630/2/6
f 2631/5/6 2632/5/6 2635/5/6
f 2632/8/6 2633/8/6 2636/8/6
f 2635/5/6 2632/5/6 2636/5/6
f 2636/8/6 2633/8/6 2637/8/6
f 2637/8/6 2633/8/6 2638/8/6
f 2634/8/6 2635/8/6 2641/8/6
f 2641/8/6 2635/8/6 2642/8/6
f 2638/2/6 2639/2/6 2643/2/6
f 2643/2/6 2639/2/6 2644/2/6
f 2644/2/6 2645/2/6 2646/2/6
f 2640/5/6 2641/5/6 2647/5/6
f 2640/5/6 2647/5/6 2648/5/6
f 2648/5/6 2647/5/6 2649/5/6
f 2646/2/6 2645/2/6 2652/2/6
f 2652/2/6 2645/2/6 2653/2/6
f 2649/8/6 2650/8/6 2654/8/6
f 2654/8/6 2650/8/6 2655/8/6
f 2651/2/6 2652/2/6 2659/2/6
f 2659/2/6 2652/2/6 2660/2/6
f 2655/8/6 2656/8/6 2661/8/6
f 2656/5/6 2657/5/6 2662/5/6
f 2661/8/6 2656/8/6 2662/8/6
f 2657/8/6 2658/8/6 2663/8/6
f 2662/5/6 2657/5/6 2663/5/6
f 2658/2/6 2659/2/6 2664/2/6
f 2663/8/6 2658/8/6 2664/8/6
f 2664/2/6 2659/2/6 2665/2/6
f 2666/5/6 2667/5/6 2671/5/6
f 2667/8/6 2668/8/6 2672/8/6
f 2671/5/6 2667/5/6 2672/5/6
f 2672/8/6 2668/8/6 2673/8/6
f 2668/5/6 2669/5/6 2674/5/6
f 2673/8/6 2668/8/6 2674/8/6
f 2674/5/6 2669/5/6 2675/5/6
f 2670/8/6 2671/8/6 2677/8/6
f 2671/8/6 2672/8/6 2677/8/6
f 2677/8/6 2672/8/6 2678/8/6
f 2674/8/6 2675/8/6 2679/8/6
f 2673/8/6 2674/8/6 2679/8/6
f 2679/8/6 2675/8/6 2680/8/6
f 2675/5/6 2676/5/6 2681/5/6
f 2680/8/6 2675/8/6 2681/8/6
f 2681/5/6 2676/5/6 2682/5/6
f 2670/8/6 2677/8/6 2683/8/6
f 2683/8/6 2677/8/6 2684/8/6
f 2681/8/6 2682/8/6 2685/8/6
f 2680/8/6 2681/8/6 2685/8/6
f 2685/8/6 2682/8/6 2686/8/6
f 2683/5/6 2684/5/6 2687/5/6
f 2685/2/6 2686/2/6 2690/2/6
f 2686/8/6 2682/8/6 2691/8/6
f 2690/2/6 2686/2/6 2691/2/6
f 2683/5/6 2687/5/6 2692/5/6
f 2687/8/6 2688/8/6 2693/8/6
f 2692/5/6 2687/5/6 2693/5/6
f 2693/8/6 2688/8/6 2694/8/6
f 2689/2/6 2690/2/6 2695/2/6
f 2690/8/6 2691/8/6 2696/8/6
f 2695/2/6 2690/2/6 2696/2/6
f 2691/8/6 2682/8/6 2697/8/6
f 2696/8/6 2691/8/6 2697/8/6
f 2697/8/6 2682/8/6 2698/8/6
f 2693/8/6 2694/8/6 2699/8/6
f 2694/5/6 2695/5/6 2700/5/6
f 2699/8/6 2694/8/6 2700/8/6
f 2695/8/6 2696/8/6 2701/8/6
f 2700/5/6 2695/5/6 2701/5/6
f 2696/2/6 2697/2/6 2702/2/6
f 2701/8/6 2696/8/6 2702/8/6
f 2702/2/6 2697/2/6 2703/2/6
f 2704/8/6 2705/8/6 2707/8/6
f 2707/8/6 2705/8/6 2708/8/6
f 2706/2/6 2707/2/6 2710/2/6
f 2710/2/6 2707/2/6 2711/2/6
f 2708/5/6 2709/5/6 2712/5/6
f 2712/5/6 2709/5/6 2713/5/6
f 2710/5/6 2711/5/6 2714/5/6
f 2711/8/6 2712/8/6 2715/8/6
f 2714/5/6 2711/5/6 2715/5/6
f 2712/2/6 2713/2/6 2716/2/6
f 2715/8/6 2712/8/6 2716/8/6
f 2716/2/6 2713/2/6 2717/2/6
f 2715/2/6 2716/2/6 2718/2/6
f 2718/2/6 2716/2/6 2719/2/6
f 2720/6/6 2721/6/6 2724/6/6
f 2724/6/6 2721/6/6 2725/6/6
f 2722/6/6 2723/6/6 2726/6/6
f 2726/6/6 2723/6/6 2727/6/6
f 2728/9/6 2729/9/6 2730/9/6
f 2730/9/6 2729/9/6 2731/9/6
f 2732/9/6 2733/9/6 2736/9/6
f 2734/9/6 2735/9/6 2737/9/6
f 2737/9/6 2735/9/6 2738/9/6
f 2732/9/6 2736/9/6 2739/9/6
f 2739/9/6 2736/9/6 2740/9/6
f 2741/9/6 2742/9/6 2745/9/6
f 2745/9/6 2742/9/6 2746/9/6
f 2743/3/6 2744/3/6 2747/3/6
f 2747/3/6 2744/3/6 2748/3/6
f 2749/6/6 2750/6/6 2751/6/6
f 2751/6/6 2750/6/6 2752/6/6
f 2752/3/6 2753/3/6 2756/3/6
f 2756/3/6 2753/3/6 2757/3/6
f 2754/6/6 2755/6/6 2758/6/6
f 2758/6/6 2755/6/6 2759/6/6
f 2760/3/6 2761/3/6 2764/3/6
f 2764/3/6 2761/3/6 2765/3/6
f 2762/6/6 2763/6/6 2766/6/6
f 2766/6/6 2763/6/6 2767/6/6
f 2768/9/6 2769/9/6 2772/9/6
f 2772/9/6 2769/9/6 2773/9/6
f 2770/9/6 2771/9/6 2776/9/6
f 2776/9/6 2771/9/6 2777/9/6
f 2772/9/6 2773/9/6 2779/9/6
f 2773/6/6 2774/6/6 2780/6/6
f 2779/9/6 2773/9/6 2780/9/6
f 2780/6/6 2774/6/6 2781/6/6
f 2775/9/6 2776/9/6 2782/9/6
f 2782/9/6 2776/9/6 2783/9/6
f 2777/6/6 2778/6/6 2784/6/6
f 2784/6/6 2778/6/6 2785/6/6
f 2786/9/6 2787/9/6 2793/9/6
f 2793/9/6 2787/9/6 2794/9/6
f 2788/3/6 2789/3/6 2796/3/6
f 2789/6/6 2790/6/6 2797/6/6
f 2796/3/6 2789/3/6 2797/3/6
f 2797/6/6 2790/6/6 2798/6/6
f 2791/3/6 2792/3/6 2799/3/6
f 2799/3/6 2792/3/6 2800/3/6
f 2794/3/6 2795/3/6 2801/3/6
f 2795/9/6 2796/9/6 2802/9/6
f 2801/3/6 2795/3/6 2802/3/6
f 2802/9/6 2796/9/6 2803/9/6
f 2798/6/6 2799/6/6 2804/6/6
f 2804/6/6 2799/6/6 2805/6/6
f 2802/9/6 2803/9/6 2806/9/6
f 2806/9/6 2803/9/6 2807/9/6
f 2808/6/6 2809/6/6 2814/6/6
f 2814/6/6 2809/6/6 2815/6/6
f 2810/3/6 2811/3/6 2816/3/6
f 2816/3/6 2811/3/6 2817/3/6
f 2812/9/6 2813/9/6 2819/9/6
f 2819/9/6 2813/9/6 2820/9/6
f 2817/3/6 2818/3/6 2823/3/6
f 2818/3/6 2819/3/6 2823/3/6
f 2823/3/6 2819/3/6 2824/3/6
f 2824/3/6 2819/3/6 2825/3/6
f 2821/6/6 2822/6/6 2826/6/6
f 2826/6/6 2822/6/6 2827/6/6
f 2827/9/6 2828/9/6 2831/9/6
f 2831/9/6 2828/9/6 2832/9/6
f 2829/9/6 2830/9/6 2834/9/6
f 2834/9/6 2830/9/6 2835/9/6
f 2832/6/6 2833/6/6 2836/6/6
f 2836/6/6 2833/6/6 2837/6/6
f 2838/9/6 2839/9/6 2842/9/6
f 2842/9/6 2839/9/6 2843/9/6
f 2840/3/6 2841/3/6 2845/3/6
f 2845/3/6 2841/3/6 2846/3/6
f 2843/9/6 2844/9/6 2850/9/6
f 2850/9/6 2844/9/6 2851/9/6
f 2847/3/6 2848/3/6 2854/3/6
f 2854/3/6 2848/3/6 2855/3/6
f 2849/6/6 2850/6/6 2856/6/6
f 2850/9/6 2851/9/6 2857/9/6
f 2856/6/6 2850/6/6 2857/6/6
f 2851/3/6 2852/3/6 2858/3/6
f 2857/9/6 2851/9/6 2858/9/6
f 2858/3/6 2852/3/6 2859/3/6
f 2853/3/6 2854/3/6 2860/3/6
f 2854/6/6 2855/6/6 2861/6/6
f 2860/3/6 2854/3/6 2861/3/6
f 2861/6/6 2855/6/6 2862/6/6
f 2857/6/6 2858/6/6 2863/6/6
f 2863/6/6 2858/6/6 2864/6/6
f 2865/6/6 2866/6/6 2870/6/6
f 2870/6/6 2866/6/6 2871/6/6
f 2867/9/6 2868/9/6 2872/9/6
f 2872/9/6 2868/9/6 2873/9/6
f 2869/6/6 2870/6/6 2874/6/6
f 2874/6/6 2870/6/6 2875/6/6
f 2871/9/6 2872/9/6 2876/9/6
f 2876/9/6 2872/9/6 2877/9/6
f 2878/9/6 2879/9/6 2880/9/6
f 2880/9/6 2879/9/6 2881/9/6
f 2882/6/6 2883/6/6 2886/6/6
f 2886/6/6 2883/6/6 2887/6/6
f 2884/9/6 2885/9/6 2888/9/6
f 2888/9/6 2885/9/6 2889/9/6
f 2890/9/6 2891/9/6 2892/9/6
f 2892/9/6 2891/9/6 2893/9/6
